/* XPM */
static char *_1f5dbbbcea140e3a6bd8b4bc87d359aHQT3n9KGFl7UDRHV[] = {
/* columns rows colors chars-per-pixel */
"64 64 14 1 ",
"  c None",
". c black",
"X c #070707",
"o c gray5",
"O c #1C1914",
"+ c #1A191A",
"@ c #3A0A0A",
"# c #591313",
"$ c #7D1919",
"% c #3B403B",
"& c #616760",
"* c #BD2F2F",
"= c #969D96",
"- c #CCCFCB",
/* pixels */
"                                                                ",
"                                                                ",
"                                                                ",
"                          %%%%%%%ooooo                          ",
"                      %%%%&&&&&&&&%%o%XXoo                      ",
"                      %%%%&&&&&&&&%%o%XXoo                      ",
"                    %%&&&&&&&&&&&&&&%&&&&%ooo                   ",
"                  %%&===&&&&&&&&&&&&&%&&&&%%%o                  ",
"                 %&&=-&&&&&&&&&&%%%%&%&&&&&&%%oo                ",
"                 %&&=-&&&&&&&&&&%%%%&%&&&&&&%%oo                ",
"                %&==-=&&&&&&&&&&&&&&%%&&&&&&&%%%o               ",
"                %&&&&&==&&&&&&&&&&&&&%%%&&%%&%%%o               ",
"              %%&&%%&=--=&&&&&&&&&&&&&%%&&&&%%%%oo              ",
"              %%&&%%&=--=&&&&&&&&&&&&&%%&&&&%%%%oo              ",
"              %%&%&&&====&&&&&&&&&&&&&%%&=&&%%%%oo              ",
"              %%%%&&&===&&&&=====&&&==&&==&&&%%%%o              ",
"             o%%%%&&&=&&&====----=====&&=&&&&%%%%ooo            ",
"             o%%%%&&&=&&&====----=====&&=&&&&%%%%ooo            ",
"             o%%%&&&&&&&&&==&&======&&&&&&&&&%%%%ooo            ",
"             o%%%&&&&&&&&&&&&&&&=&&&&&&&&&&&&%%%%ooo            ",
"             o%%%&&&&&&&&&&&&&&&&&&&&&&&&&&&&%%%%ooo            ",
"             o%%%&&&&&&&&&&&&&&&&&&&&&&&&&&&&%%%%ooo            ",
"             o%%%&&&&&&&&&&&&&&&&&&&&&&&&&&&%%%%oooo            ",
"      OOOOOOOOOOOOOOOOOOOOOOOOOOOOOOOOOOOOOOOOOOOOOOOOOOOO      ",
"      OO######################@@@@#######################O      ",
"      OO######################@@@@#######################O      ",
"      OOO#$$*@########$$#####$##@#$$#####$########@@*$##OO      ",
"        O#$$*#@@####$$$$$$####$$#$####$$$$$$####$@##*$##O       ",
"         O##*###@#$$$$***$$$####$####$$$**$$####@###*#OO        ",
"         O##*###@#$$$$***$$$####$####$$$**$$####@###*#OO        ",
"          OO#*###@##$$$$**$$$#######$$***$$$$#@@##**#O          ",
"            O#**##@@#$$$$*$$$$####$$$$**$$$$#@###*##O           ",
"             O##*###@#$$$$**$$$$#$$$$*$$$$##@###*#OO            ",
"             O##*###@#$$$$**$$$$#$$$$*$$$$##@###*#OO            ",
"              OO#*###@##$$$$$$##@#$$$$$$$#@@##**#O              ",
"                O$**######$$$#@@@@##$$#######*$$O               ",
"                 O##*#######@@@@@@@@@#######*@OO                ",
"                 O##*#######@@@@@@@@@#######*@OO                ",
"                 @##@@@@@@@@@@@@@@@@@@@@@@@@@@@@                ",
"                @###@@@@@@@@@@@@@@@@@@@@@@@@@@@@@               ",
"              @@##@@@@@@@@@@@@@@@@@@@@@@@@@@@@@@@@              ",
"              @@##@@@@@@@@@@@@@@@@@@@@@@@@@@@@@@@@              ",
"              @@#@@@@@@@@@@@@@@@@@@@@@@@@@@@@@@@@@              ",
"              @@#@@@@@@@@@@@@@@@@@@@@@@@@@@@@@@@@@              ",
"              @@#@@@@#######@@####@@@@######@@@@@@              ",
"              @@#@@@@#######@@####@@@@######@@@@@@              ",
"              @@####@#$$$$##@@##$#@@@#$$$$##@####@              ",
"             @###$##@#$$*$##@#$$$$##@#$$*$##@#$$##@@            ",
"             @$$#*$$##$$*$$$@#$$*$##@$***$###$**#$@@            ",
"             @$$#*$$##$$*$$$@#$$*$##@$***$###$**#$@@            ",
"            ##$$#*$$#$***$$$##$$*$###$****$$#$**#$###           ",
"            ##**#*$$#$***$$$#$$$*$$$#$$$**$$#$**#*###           ",
"            #*$$#*$$#$***$###$$$**$$#$$$**$$#$**#$**#           ",
"            #*$$#*$$#$***$###$$$**$$#$$$**$$#$**#$**#           ",
"            #*$$@*$$#$***$###$****$$##$$**$$#$**@$**#           ",
"            #*$$@*##$$**$#@@#$**$*$$#@$$**$$$#**@$**#           ",
"            #$$$@*##$***$#@@#$**#*$$#@##$***$#**@$**#           ",
"            #$$$@*##$***$#@@#$**#*$$#@##$***$#**@$**#           ",
"            .$@@$*@@#$$$#@##$###@####@##$$$$#@**$@$$.           ",
"            .$@@$$@@#$##@@###@@@.@@@##@@@#$$#@$$$@$$.           ",
"             ...$@...@@@.@@@@.......@@@@.@@@..@@$...            ",
"             ...$@...@@@.@@@@.......@@@@.@@@..@@$...            ",
"                ..   ........+.. .++........  ...               ",
"                                                                "
};
