/* XPM */
static char *_f6d6e2b209f45c3f6d0b6398d1c81ddIF74xeKkqNrbAnUi[] = {
/* columns rows colors chars-per-pixel */
"64 64 37 1 ",
"  c None",
". c black",
"X c #000001",
"o c #0C0C0C",
"O c #1C1914",
"+ c #1A191A",
"@ c #3A0A0A",
"# c #09162B",
"$ c #0B1D39",
"% c #353A35",
"& c #3F3F3F",
"* c #591313",
"= c #7D1919",
"- c #0C1C4F",
"; c #103660",
": c #0F4F7F",
"> c #616760",
", c #7B7B7B",
"< c #BD2F2F",
"1 c #964B1F",
"2 c #AB7115",
"3 c #B36739",
"4 c #23830A",
"5 c #5DD43D",
"6 c #DE982A",
"7 c #EA9777",
"8 c #FFC569",
"9 c #005BBD",
"0 c #006AD9",
"q c #087CF1",
"w c #929492",
"e c #969D96",
"r c #AFA992",
"t c #F9C19D",
"y c #CCCFCB",
"u c #FBDCC8",
"i c white",
/* pixels */
"                                                                ",
"                                                                ",
"                                                                ",
"                          %%%%%%%%oooo                          ",
"                      %%%%%%>>%%>>>>o%oooo                      ",
"                      %%%%%%>>%%>>>>o%oooo                      ",
"                    %%>>%%%%>%%%o>%%%o>>o%ooo                   ",
"                  %%%y%%>%>>%>%%>o%%>o>>%o%%oo                  ",
"                 %%%>%>>e>>>>e%%>%>>e%oo>%>>%ooo                ",
"                 %%%>%>>e>>>>e%%>%>>e%oo>%>>%ooo                ",
"                %>%%>>ee>eee%y>>e>eey>%%e>>>%o%%o               ",
"                %%>>%>ee%eyy%eeeyeyyye>>ye>>>%ooo               ",
"              %%>%>>%>ee%>ee%>eey>>>ee%%ye>>>%oo%o              ",
"              %%>%>>%>ee%>ee%>eey>>>ee%%ye>>>%oo%o              ",
"              %%o%>>>%>>%%>>>%>>e>%%e>%%ee>>%ooooo              ",
"              %%o%%%>%%%%%%%>%%%>%%%>%>>%>%%%o%%oo              ",
"             %wwo%oo%%oooo%%%%%%>%%%%%oooo%%o%ooo,%%            ",
"             %wwo%oo%%oooo%%%%%%>%%%%%oooo%%o%ooo,%%            ",
"             %wwo%oo%oooouoooo%%%%oooouuoooo%oooo,%%            ",
"             oww,%%%oouuuuuuuuoo%ouuuuuuuuoooooow,oo            ",
"             o>>w,%%otuuuuuuuuuu%uuuuuuuuuttoo,,w>oo            ",
"             o>>w,%%otuuuuuuuuuu%uuuuuuuuuttoo,,w>oo            ",
"             o%%w,oootttuuuuu7%%7777uuuuutttoo,,,ooo            ",
"      OOOOOOOo33o>oo7>%%%%77uuuu7uuuu7%%%%>>7o>>o1ooOOOOOO      ",
"      OO*****1773ooo7ttttt%%7t7777tt7%tttttt7ooo3311*****O      ",
"      OO*****1773ooo7ttttt%%7t7777tt7%tttttt7ooo3311*****O      ",
"      OOO*==<1uu7ooo777777777ttttttt777777777ooo7u11<=**OO      ",
"        O*==<.uut1oo771111117ttttttt711111777o11tu..<=**O       ",
"         O**<.77t1oo73rr..113ttttttt31...r337o11t7..<*OO        ",
"         O**<.77t1oo73rr..113ttttttt31...r337o11t7..<*OO        ",
"          OO*<..31oo77ii9---1ttt7ttt1---9i777o113.<<*O          ",
"            O*<<..3377ii9999tutt7uuut9999i7773...<**O           ",
"             O**<.337777iqqq7uuu7tuu7qqqi77773..<*OO            ",
"             O**<.337777iqqq7uuu7tuu7qqqi77773..<*OO            ",
"              OO*<..77tt7777uuuu77uuu7777t777.<<*O              ",
"                O=..37ttttuuut....ttuutttt773.==O               ",
"                 O==.377tttt%.%%t%..%tttt733.=OO                ",
"                 O==.377tttt%.%%t%..%tttt733.=OO                ",
"                 OOOO...37tt..tttt...t771...OOoO                ",
"                O@@@@@@@..33%.......%3...@@@@@@@O               ",
"              OO@@@@@@@@O2............22O@@@@@@@@O              ",
"              OO@@@@@@@@O2............22O@@@@@@@@O              ",
"              OO@@@@@@@@@O2268OOOO8862Oo@@@@@@@@@@              ",
"              @@@@@@@@@@@@OOOO4454OOOO@@@@@@@@@@@@              ",
"              @@@@@@@********:::4:::********@@@@@@              ",
"              @@@@@@@********:::4:::********@@@@@@              ",
"              @@****@*======*:::0;::*===1=**@****@              ",
"             @***=**@*==<===*:::.9::*1==<=**@*==**@@            ",
"             @==*<==**==<<==*:::0:::*=<<<=***=<<*=@@            ",
"             @==*<==**==<<==*:::0:::*=<<<=***=<<*=@@            ",
"            **==*<==*=<<<<==*2668622*=<<<<==*=<<*=***           ",
"            **<<*<==*=<<<===*;..#.::*===<<==*=<<*<***           ",
"            *<==*<==*=<<<=***;..#.;;*===<<==*=<<*=<<*           ",
"            *<==*<==*=<<<=***;..#.;;*===<<==*=<<*=<<*           ",
"            *<==@<==*=<<==**;.####..:*===<==*=<<@=<<*           ",
"            *<==@<**==<<=***;.;;#;..;***=<===*<<@=<<*           ",
"            *<==@<**=<==*.....##.#......*=<<=*<<@=<<*           ",
"            *<==@<**=<==*.....##.#......*=<<=*<<@=<<*           ",
"            .=@@<=@@*<==@.;;:#.. .##:;..@=<<*@==<@==.           ",
"            .=@@<=@@*=**.;####.. .####;;.*==*@==<@==.           ",
"             ...=@...@@@.$+++$.. .$$++$$.@@@..@@=...            ",
"             ...=@...@@@.$+++$.. .$$++$$.@@@..@@=...            ",
"                ..   ....$&&&$.. .$$&&$$....  ...               ",
"                                                                "
};
