/* XPM */
static char *f7c1428ea63b4def880b82bd2a906cd7I3CfaBWgIABsBIwD[] = {
/* columns rows colors chars-per-pixel */
"64 64 36 1 ",
"  c None",
". c black",
"X c #000001",
"o c #0C0C0C",
"O c #0F0F0E",
"+ c #040B16",
"@ c #1C1914",
"# c #1A191A",
"$ c #3A0A0A",
"% c #09162B",
"& c #272827",
"* c #353A35",
"= c #591313",
"- c #7D1919",
"; c #0C1C4F",
": c #103660",
"> c #616760",
", c #BD2F2F",
"< c #964B1F",
"1 c #B36739",
"2 c #5DD43D",
"3 c #EA9777",
"4 c #005BBD",
"5 c #006AD9",
"6 c #087CF1",
"7 c #838683",
"8 c #969D96",
"9 c #9EA29E",
"0 c #AFA992",
"q c #F2BFAC",
"w c #F9C19D",
"e c #CCCFCB",
"r c #FBD9C3",
"t c #FBDCC8",
"y c #FDEADD",
"u c white",
/* pixels */
"                                                                ",
"                                                                ",
"                                                                ",
"                                                                ",
"                        *******ooooo                            ",
"                        *******ooooo                            ",
"                    ****>>o>>>>>>>>*oooo                        ",
"                  **>>****>o>>>>********ooo                     ",
"                **>***>*>>>*oo**>>>>>>>8>>*o                    ",
"                **>***>*>>>*oo**>>>>>>>8>>*o                    ",
"               *****>>8>88>*oo>o>>>>>>>>88>*oo                  ",
"              *>**>*>>e888>***o*oo>>>>>>888>**o                 ",
"              *8>>8>88>e>>**>>**oo>>>>>8888>>>o                 ",
"              *8>>8>88>e>>**>>**oo>>>>>8888>>>o                 ",
"            **>e88e>88*8>>**>>****o>88>888>>>>*o                ",
"            oo>8ee8*>>*>***>**>***o88888>>>>>>>o                ",
"            oo*>ee>********>**>*oooe8888>>*>>>>o                ",
"            oo*>ee>********>**>*oooe8888>>*>>>>o                ",
"            oo*>>>**oooooo>***>*ooo8>>8>>>>*>>>*oo              ",
"            oo****oottttooo*>>*o**o>>>>>>>>*>>*7oo              ",
"            oo**oo33ttttttoooooo**o>>>>>>>****97oo              ",
"            oo**oo33ttttttoooooo**o>>>>>>>****97oo              ",
"              o*ttttttttttttooo*oo*>>>>***99>>97oo              ",
"              *3333ttttttttwwwoooo**>>*79999>>77oo              ",
"              1*www3....**3wwwoo******777799>>>7..              ",
"              1*www3....**3wwwoo******777799>>>7..              ",
"              13www333wwww3wwwwooo*o<<<7779****o..              ",
"               1www33333ww3wwwwoooo1331<777****o..              ",
"               1www1<<<<333wwwwwoo<3ttw<*******o..              ",
"               1www1<<<<333wwwwwoo<3ttw<*******o..              ",
"               1www300.0113wwwwwoowqyyr.*******.                ",
"               1www3;;4u113@@@@@@@@@@@@@@@@@@@@@@@@             ",
"               1tttw444uww@=======================@             ",
"               1tttw444uww@=======================@             ",
"              1wttt3666uww=-======-========$,,-=@@@             ",
"              1wtttt3333$$-====-------====$=,,-=@@              ",
"              1.......ww$$====--,,,----=$$==,,=@                ",
"              1.......ww$$====--,,,----=$$==,,=@                ",
"               .33w*...w$$==---,,,----=$===,==@                 ",
"                ..13**.w$$=----,----==$===,=@@                  ",
"                  ....13$$----,----=$$==,,=@                    ",
"                  ....13$$----,----=$$==,,=@                    ",
"                    ....$$=-------=$===,==@                     ",
"                      @2$$$=---===$===,-@@                      ",
"                    ++%@$$$$$$==$$==,,=@                        ",
"                    ++%@$$$$$$==$$==,,=@                        ",
"                    ++5$$$$$$$$$$$$$$$                          ",
"                    ...$====$$=$$$$$$$                          ",
"                    ..=----=$$==$$$$$$                          ",
"                    X.=----=$$==$$$$$$                          ",
"                    XX=-----==-===$=$$                          ",
"                    ==-,----==--==$=$$                          ",
"                   =---,--,-==-,===-$$                          ",
"                   =---,--,-==-,===-$$                          ",
"                   =--,,--,-==-,--=-==                          ",
"                  =-,,,,,,-=--,,--====:                         ",
"                  $-,,,,--=$--,,--====.                         ",
"                  $-,,,,--=$--,,--====.                         ",
"                  $=----==$=--,,--==..                          ",
"                ..#.$$$$..$-,,,-==$$...                         ",
"                ..O#.......===-$$$..##.                         ",
"                ..O#.......===-$$$..##.                         ",
"                  ..OOo.   .......&#..                          ",
"                                                                "
};
