/* XPM */
static char *UF9sZWZ0LTE_[] = {
/* columns rows colors chars-per-pixel */
"64 64 36 1 ",
"  c black",
". c #000001",
"X c #0C0C0C",
"o c #0F0F0E",
"O c #040B16",
"+ c #1C1914",
"@ c #1A191A",
"# c #3A0A0A",
"$ c #09162B",
"% c #272827",
"& c #353A35",
"* c #591313",
"= c #7D1919",
"- c #0C1C4F",
"; c #103660",
": c #616760",
"> c #BD2F2F",
", c #964B1F",
"< c #B36739",
"1 c #5DD43D",
"2 c #EA9777",
"3 c #005BBD",
"4 c #006AD9",
"5 c #087CF1",
"6 c #838683",
"7 c #969D96",
"8 c #9EA29E",
"9 c #AFA992",
"0 c #F2BFAC",
"q c #F9C19D",
"w c #CCCFCB",
"e c #FBD9C3",
"r c #FBDCC8",
"t c #FDEADD",
"y c white",
"u c None",
/* pixels */
"uuuuuuuuuuuuuuuuuuuuuuuuuuuuuuuuuuuuuuuuuuuuuuuuuuuuuuuuuuuuuuuu",
"uuuuuuuuuuuuuuuuuuuuuuuuuuuuuuuuuuuuuuuuuuuuuuuuuuuuuuuuuuuuuuuu",
"uuuuuuuuuuuuuuuuuuuuuuuuuuuuuuuuuuuuuuuuuuuuuuuuuuuuuuuuuuuuuuuu",
"uuuuuuuuuuuuuuuuuuuuuuuuuuuuuuuuuuuuuuuuuuuuuuuuuuuuuuuuuuuuuuuu",
"uuuuuuuuuuuuuu&&&&&&&XXXXXuuuuuuuuuuuuuuuuuuuuuuuuuuuuuuuuuuuuuu",
"uuuuuuuuuuuuuu&&&&&&&XXXXXuuuuuuuuuuuuuuuuuuuuuuuuuuuuuuuuuuuuuu",
"uuuuuuuuuu&&&&::X::::::::&XXXXuuuuuuuuuuuuuuuuuuuuuuuuuuuuuuuuuu",
"uuuuuuuu&&::&&&&:X::::&&&&&&&&XXXuuuuuuuuuuuuuuuuuuuuuuuuuuuuuuu",
"uuuuuu&&:&&&:&:::&XX&&:::::::7::&Xuuuuuuuuuuuuuuuuuuuuuuuuuuuuuu",
"uuuuuu&&:&&&:&:::&XX&&:::::::7::&Xuuuuuuuuuuuuuuuuuuuuuuuuuuuuuu",
"uuuuu&&&&&::7:77:&XX:X::::::::77:&XXuuuuuuuuuuuuuuuuuuuuuuuuuuuu",
"uuuu&:&&:&::w777:&&&X&XX::::::777:&&Xuuuuuuuuuuuuuuuuuuuuuuuuuuu",
"uuuu&7::7:77:w::&&::&&XX:::::7777:::Xuuuuuuuuuuuuuuuuuuuuuuuuuuu",
"uuuu&7::7:77:w::&&::&&XX:::::7777:::Xuuuuuuuuuuuuuuuuuuuuuuuuuuu",
"uu&&:w77w:77&7::&&::&&&&X:77:777::::&Xuuuuuuuuuuuuuuuuuuuuuuuuuu",
"uuXX:7ww7&::&:&&&:&&:&&&X77777:::::::Xuuuuuuuuuuuuuuuuuuuuuuuuuu",
"uuXX&:ww:&&&&&&&&:&&:&XXXw7777::&::::Xuuuuuuuuuuuuuuuuuuuuuuuuuu",
"uuXX&:ww:&&&&&&&&:&&:&XXXw7777::&::::Xuuuuuuuuuuuuuuuuuuuuuuuuuu",
"uuXX&:::&&XXXXXX:&&&:&XXX7::7::::&:::&XXuuuuuuuuuuuuuuuuuuuuuuuu",
"uuXX&&&&XXrrrrXXX&::&X&&X::::::::&::&6XXuuuuuuuuuuuuuuuuuuuuuuuu",
"uuXX&&XX22rrrrrrXXXXXX&&X:::::::&&&&86XXuuuuuuuuuuuuuuuuuuuuuuuu",
"uuXX&&XX22rrrrrrXXXXXX&&X:::::::&&&&86XXuuuuuuuuuuuuuuuuuuuuuuuu",
"uuuuX&rrrrrrrrrrrrXXX&XX&::::&&&88::86XXuuuuuuuuuuuuuuuuuuuuuuuu",
"uuuu&2222rrrrrrrrqqqXXXX&&::&68888::66XXuuuuuuuuuuuuuuuuuuuuuuuu",
"uuuu<&qqq2    &&2qqqXX&&&&&&666688:::6  uuuuuuuuuuuuuuuuuuuuuuuu",
"uuuu<&qqq2    &&2qqqXX&&&&&&666688:::6  uuuuuuuuuuuuuuuuuuuuuuuu",
"uuuu<2qqq222qqqq2qqqqXXX&X,,,6668&&&&X  uuuuuuuuuuuuuuuuuuuuuuuu",
"uuuuu<qqq22222qq2qqqqXXXX<22<,666&&&&X  uuuuuuuuuuuuuuuuuuuuuuuu",
"uuuuu<qqq<,,,,222qqqqqXX,2rrq,&&&&&&&X  uuuuuuuuuuuuuuuuuuuuuuuu",
"uuuuu<qqq<,,,,222qqqqqXX,2rrq,&&&&&&&X  uuuuuuuuuuuuuuuuuuuuuuuu",
"uuuuu<qqq299 9<<2qqqqqXXq0tte &&&&&&& uuuuuuuuuuuuuuuuuuuuuuuuuu",
"uuuuu<qqq2--3y<<2++++++++++++++++++++++++uuuuuuuuuuuuuuuuuuuuuuu",
"uuuuu<rrrq333yqq+***********************+uuuuuuuuuuuuuuuuuuuuuuu",
"uuuuu<rrrq333yqq+***********************+uuuuuuuuuuuuuuuuuuuuuuu",
"uuuu<qrrr2555yqq*=******=********#>>=*+++uuuuuuuuuuuuuuuuuuuuuuu",
"uuuu<qrrrr2222##=****=======****#*>>=*++uuuuuuuuuuuuuuuuuuuuuuuu",
"uuuu<       qq##****==>>>====*##**>>*+uuuuuuuuuuuuuuuuuuuuuuuuuu",
"uuuu<       qq##****==>>>====*##**>>*+uuuuuuuuuuuuuuuuuuuuuuuuuu",
"uuuuu 22q&   q##**===>>>====*#***>**+uuuuuuuuuuuuuuuuuuuuuuuuuuu",
"uuuuuu  <2&& q##*====>====**#***>*++uuuuuuuuuuuuuuuuuuuuuuuuuuuu",
"uuuuuuuu    <2##====>====*##**>>*+uuuuuuuuuuuuuuuuuuuuuuuuuuuuuu",
"uuuuuuuu    <2##====>====*##**>>*+uuuuuuuuuuuuuuuuuuuuuuuuuuuuuu",
"uuuuuuuuuu    ##*=======*#***>**+uuuuuuuuuuuuuuuuuuuuuuuuuuuuuuu",
"uuuuuuuuuuuu+1###*===***#***>=++uuuuuuuuuuuuuuuuuuuuuuuuuuuuuuuu",
"uuuuuuuuuuOO$+######**##**>>*+uuuuuuuuuuuuuuuuuuuuuuuuuuuuuuuuuu",
"uuuuuuuuuuOO$+######**##**>>*+uuuuuuuuuuuuuuuuuuuuuuuuuuuuuuuuuu",
"uuuuuuuuuuOO4###############uuuuuuuuuuuuuuuuuuuuuuuuuuuuuuuuuuuu",
"uuuuuuuuuu   #****##*#######uuuuuuuuuuuuuuuuuuuuuuuuuuuuuuuuuuuu",
"uuuuuuuuuu .*====*##**######uuuuuuuuuuuuuuuuuuuuuuuuuuuuuuuuuuuu",
"uuuuuuuuuu  *====*##**######uuuuuuuuuuuuuuuuuuuuuuuuuuuuuuuuuuuu",
"uuuuuuuuuu  *=====**=***#*##uuuuuuuuuuuuuuuuuuuuuuuuuuuuuuuuuuuu",
"uuuuuuuuuu**=>====**==**#*##uuuuuuuuuuuuuuuuuuuuuuuuuuuuuuuuuuuu",
"uuuuuuuuu*===>==>=**=>***=##uuuuuuuuuuuuuuuuuuuuuuuuuuuuuuuuuuuu",
"uuuuuuuuu*===>==>=**=>***=##uuuuuuuuuuuuuuuuuuuuuuuuuuuuuuuuuuuu",
"uuuuuuuuu*==>>==>=**=>==*=**uuuuuuuuuuuuuuuuuuuuuuuuuuuuuuuuuuuu",
"uuuuuuuu*=>>>>>>=*==>>==****;uuuuuuuuuuuuuuuuuuuuuuuuuuuuuuuuuuu",
"uuuuuuuu#=>>>>==*#==>>==**** uuuuuuuuuuuuuuuuuuuuuuuuuuuuuuuuuuu",
"uuuuuuuu#=>>>>==*#==>>==**** uuuuuuuuuuuuuuuuuuuuuuuuuuuuuuuuuuu",
"uuuuuuuu#*====**#*==>>==**  uuuuuuuuuuuuuuuuuuuuuuuuuuuuuuuuuuuu",
"uuuuuu  @ ####  #=>>>=**##   uuuuuuuuuuuuuuuuuuuuuuuuuuuuuuuuuuu",
"uuuuuu  o@       ***=###  @@ uuuuuuuuuuuuuuuuuuuuuuuuuuuuuuuuuuu",
"uuuuuu  o@       ***=###  @@ uuuuuuuuuuuuuuuuuuuuuuuuuuuuuuuuuuu",
"uuuuuuuu  ooo uuu       %@  uuuuuuuuuuuuuuuuuuuuuuuuuuuuuuuuuuuu",
"uuuuuuuuuuuuuuuuuuuuuuuuuuuuuuuuuuuuuuuuuuuuuuuuuuuuuuuuuuuuuuuu"
};
