/* XPM */
static char *cG9ydGFs[] = {
/* columns rows colors chars-per-pixel */
"64 64 173 2 ",
"   c #0F0B04",
".  c #100C04",
"X  c #110D04",
"o  c #120E05",
"O  c #130E05",
"+  c #140F05",
"@  c #141006",
"#  c #181207",
"$  c #191207",
"%  c #191307",
"&  c #1A1307",
"*  c #191407",
"=  c #1A1407",
"-  c #1B1407",
";  c #1B1507",
":  c #221909",
">  c #231909",
",  c #231A09",
"<  c #23190A",
"1  c #231A0A",
"2  c #231B0A",
"3  c #241A0A",
"4  c #241B0A",
"5  c #251B0A",
"6  c #251C0A",
"7  c #261C0A",
"8  c #261D0A",
"9  c #271D0B",
"0  c #281D0B",
"q  c #2B200C",
"w  c #2C210C",
"e  c #2D220C",
"r  c #2D230C",
"t  c #2E220C",
"y  c #2E230C",
"u  c #2F230D",
"i  c #2E240C",
"p  c #2F240D",
"a  c #30230D",
"s  c #30240D",
"d  c #31240D",
"f  c #30250D",
"g  c #31250D",
"h  c #32250D",
"j  c #32260D",
"k  c #33250E",
"l  c #33260E",
"z  c #34250E",
"x  c #34260E",
"c  c #34270E",
"v  c #36270E",
"b  c #37270F",
"n  c #35280E",
"m  c #36280F",
"M  c #37280F",
"N  c #36290F",
"B  c #37290F",
"V  c #372A0F",
"C  c #38280F",
"Z  c #38290F",
"A  c #39290F",
"S  c #382A0F",
"D  c #392A0F",
"F  c #392B0F",
"G  c #3B2A10",
"H  c #3A2B10",
"J  c #3B2B10",
"K  c #3A2C10",
"L  c #3B2C10",
"P  c #3C2C10",
"I  c #3C2D10",
"U  c #3D2D10",
"Y  c #3E2C11",
"T  c #3E2D11",
"R  c #3D2E10",
"E  c #3E2E11",
"W  c #3F2E11",
"Q  c #3F2F11",
"!  c #402F11",
"~  c #403011",
"^  c #413112",
"/  c #423012",
"(  c #423112",
")  c #433112",
"_  c #423212",
"`  c #433212",
"'  c #453113",
"]  c #443212",
"[  c #453212",
"{  c #443312",
"}  c #453313",
"|  c #463313",
" . c #453412",
".. c #453413",
"X. c #463413",
"o. c #473413",
"O. c #473513",
"+. c #483413",
"@. c #483513",
"#. c #483514",
"$. c #493514",
"%. c #483614",
"&. c #493614",
"*. c #493714",
"=. c #4A3614",
"-. c #4A3714",
";. c #4B3714",
":. c #4C3714",
">. c #4A3814",
",. c #4B3814",
"<. c #4C3814",
"1. c #4C3914",
"2. c #4C3815",
"3. c #4D3815",
"4. c #4C3915",
"5. c #4D3915",
"6. c #4E3915",
"7. c #4D3A15",
"8. c #4E3A15",
"9. c #4F3A15",
"0. c #4E3B15",
"q. c #4F3B15",
"w. c #4F3C15",
"e. c #503B16",
"r. c #503C15",
"t. c #503C16",
"y. c #513D16",
"u. c #523C16",
"i. c #523D16",
"p. c #523E16",
"a. c #533E16",
"s. c #533F16",
"d. c #553E17",
"f. c #543F17",
"g. c #554017",
"h. c #564117",
"j. c #574117",
"k. c #574118",
"l. c #594118",
"z. c #584218",
"x. c #594318",
"c. c #5A4318",
"v. c #5B4318",
"b. c #5A4418",
"n. c #5B4418",
"m. c #5B4419",
"M. c #5B4519",
"N. c #5C4519",
"B. c #5D4619",
"V. c #5E4619",
"C. c #5E4719",
"Z. c #5F4719",
"A. c #5F471A",
"S. c #5F481A",
"D. c #60481A",
"F. c #61491A",
"G. c #61491B",
"H. c #61491C",
"J. c #614A1C",
"K. c #614A1D",
"L. c #624A1D",
"P. c #62491F",
"I. c #624B1E",
"U. c #624B1F",
"Y. c #624C20",
"T. c #634C21",
"R. c #634D22",
"E. c #634D23",
"W. c #634E23",
"Q. c #634E24",
"!. c #644E25",
"~. c #644F25",
"^. c None",
/* pixels */
"^.^.^.^.^.^.^.^.^.^.^.^.^.^.^.^.^.^.^.^.^.^.^.^.^.^.^.^.^.^.^.^.^.^.^.^.^.^.^.^.^.^.^.^.^.^.^.^.^.^.^.^.^.^.^.^.^.^.^.^.^.^.^.^.",
"^.^.^.^.^.^.^.^.^.^.^.^.^.^.^.^.^.^.^.^.^.^.^.^.^.^.^.^.^.^.^.^.^.^.^.^.^.^.^.^.^.^.^.^.^.^.^.^.^.^.^.^.^.^.^.^.^.^.^.^.^.^.^.^.",
"^.^.^.^.^.^.^.^.^.^.^.^.^.^.^.^.^.^.^.^.^.^.^.^.^.^.^.^.^.^.^.^.^.^.^.^.^.^.^.^.^.^.^.^.^.^.^.^.^.^.^.^.^.^.^.^.^.^.^.^.^.^.^.^.",
"^.^.^.^.^.^.^.^.^.^.^.^.^.^.^.^.^.^.^.^.^.^.^.^.^.^.^.^.^.^.^.^.^.^.^.^.^.^.^.^.^.^.^.^.^.^.^.^.^.^.^.^.^.^.^.^.^.^.^.^.^.^.^.^.",
"^.^.^.^.^.^.^.^.^.^.^.^.^.^.^.^.^.^.^.^.^.^.^.^.^.m.S.B.F.B.B.F.^.^.^.^.^.^.^.^.^.^.^.^.^.^.^.^.^.^.^.^.^.^.^.^.^.^.^.^.^.^.^.^.",
"^.^.^.^.^.^.^.^.^.^.^.^.^.^.^.^.^.^.^.^.^.^.^.^.m.F.F.F.F.L.F.F.F.^.^.^.^.^.^.^.^.^.^.^.^.^.^.^.^.^.^.^.^.^.^.^.^.^.^.^.^.^.^.^.",
"^.^.^.^.^.^.^.^.^.^.^.^.^.^.^.^.^.^.^.^.^.^.^.^.h.m.b.m.S.L.F.L.L.F.q.^.^.^.^.^.^.^.^.^.^.^.^.^.^.^.^.^.^.^.^.^.^.^.^.^.^.^.^.^.",
"^.^.^.^.^.^.^.^.^.^.^.^.^.^.^.^.^.^.^.^.^.^.^.^.^.^.^.^.;.m.B.F.L.F.L.q.^.^.^.^.^.^.^.^.^.^.^.^.^.^.^.^.^.^.^.^.^.^.^.^.^.^.^.^.",
"^.^.^.^.^.^.^.^.^.^.^.^.^.^.^.^.^.^.^.^.^.^.^.^.^.^.^.>.q.4.q.B.F.F.L.q.q.^.^.^.^.^.^.^.^.^.^.^.^.^.^.^.^.^.^.^.^.^.^.^.^.^.^.^.",
"^.^.^.^.^.^.^.^.^.^.^.^.^.^.^.^.^.^.^.^.^.^.^.^.^.;.q.4.4.4.4.:.m.E.Q.q.q.>.^.^.^.^.^.^.^.^.^.^.^.^.^.^.^.^.^.^.^.^.^.^.^.^.^.^.",
"^.^.^.^.^.^.^.^.^.^.^.^.^.^.^.^.^.^.^.^.^.^.^.^.{ ;.-.4.4.4.q.:.! B.E.B.a.4.;.^ ^.^.^.^.^.^.^.^.^.^.^.^.^.^.^.^.^.^.^.^.^.^.^.^.",
"^.^.^.^.^.^.^.^.^.^.^.^.^.^.^.^.^.^.^.^.^.^.^.;.4.q.q.<.>.>.:.! S P E.Q.L.q.4.-.^.^.^.^.^.^.^.^.^.^.^.^.^.^.^.^.^.^.^.^.^.^.^.^.",
"^.^.^.^.^.^.^.^.^.^.^.^.^.^.^.^.^.^.^.^.^.^.^.4.q.4.;.O.! D D D S A m.E.E.d.q.4.4.^.^.^.^.^.^.^.^.^.^.^.^.^.^.^.^.^.^.^.^.^.^.^.",
"^.^.^.^.^.^.^.^.^.^.^.^.^.^.^.^.^.^.^.^.^.^.^.4.4.4.;.L D D D D A A Q B.E.F.r.<.q.^.^.^.^.^.^.^.^.^.^.^.^.^.^.^.^.^.^.^.^.^.^.^.",
"^.^.^.^.^.^.^.^.^.^.^.^.^.^.^.^.^.^.^.^.^.^.4.4.q.O.L S S S S S S b S F B.L.{ X.4.-.^.^.^.^.^.^.^.^.^.^.^.^.^.^.^.^.^.^.^.^.^.^.",
"^.^.^.^.^.^.^.^.^.^.^.^.^.^.^.^.^.^.^.^.^.^.4.q.O.Q S S S A S A A u b b B.E.-.-.4.4.^.^.^.^.^.^.^.^.^.^.^.^.^.^.^.^.^.^.^.^.^.^.",
"^.^.^.^.^.^.^.^.^.^.^.^.^.^.^.^.^.^.a.^.^.^.;.;.Q Q Q S S S S a u u u u q.T.D.r.<.>.^.^.^.^.^.^.^.^.^.^.^.^.^.^.^.^.^.^.^.^.^.^.",
"^.^.^.^.^.^.^.^.^.^.^.^.^.^.^.^.^.^.^.^.^.;.q.q.X.v.m.P b A f t t u q u u B.B.! -.4.q.^.^.^.^.^.^.^.^.^.^.^.^.^.^.^.^.^.^.^.^.^.",
"^.^.^.^.^.^.^.^.^.^.^.^.^.^.^.^.^.^.^.^.^.4.;.m.B.T.L.Q S f a t t t 3 7 3 m.+.H -.q.q.^.m.^.^.^.^.^.^.^.^.^.^.^.^.^.^.^.^.^.^.^.",
"^.^.^.^.^.^.^.^.^.^.^.^.^.^.^.^.^.^.^.^.} q.q.B.E.L.{ S S f t t t 7 3 3 , h.^ H L X.q.^.m.^.^.^.^.^.^.^.^.^.^.^.^.^.^.^.^.^.^.^.",
"^.^.^.^.^.^.^.^.^.^.^.^.^.^.^.^.^.^.^.^.4.4.m.E.I.X.S M p p t t 7 , , 3 7 a.^ H M L { ^.v.B.^.^.^.^.^.^.^.^.^.^.^.^.^.^.^.^.^.^.",
"^.^.^.^.^.^.^.^.^.^.^.^.^.^.^.^.^.^.^.X.4.q.B.E.^ S S S u t t t 7 , 3 3 , 7 7 f F F } ^.m.F.^.^.^.^.^.^.^.^.^.^.^.^.^.^.^.^.^.^.",
"^.^.^.^.^.^.^.^.^.^.^.^.^.^.^.^.^.^.^.q.q.F.E.I.^ M M f t t t t 7 3 3 3 , 2 3 b H } :.^.m.F.^.^.^.^.^.^.^.^.^.^.^.^.^.^.^.^.^.^.",
"^.^.^.^.^.^.^.^.^.^.^.^.^.^.^.^.^.^.^.4.q.F.E.S.Q S M p t t u 7 3 3 , ; - - - f S O.4.q.m.F.^.^.^.^.^.^.^.^.^.^.^.^.^.^.^.^.^.^.",
"^.^.^.^.^.^.^.^.^.^.^.^.^.^.^.^.^.^.^.q.q.B.L.^ H M M p t t t 7 3 , ; # ; # ; p H H } 4.m.F.^.^.^.^.^.^.^.^.^.^.^.^.^.^.^.^.^.^.",
"^.^.^.^.^.^.^.^.^.^.^.^.^.^.^.^.^.^.{ 4.a.!.B.! H M p p t t t , 1 , ; # * ; ; f H H } 4.m.F.^.^.^.^.^.^.^.^.^.^.^.^.^.^.^.^.^.^.",
"^.^.^.^.^.^.^.^.^.^.^.^.^.^.^.^.^.^.^.q.L.T.{ A F M p p t t t 7 3 % % ; % # o q b H } q.m.F.^.^.^.^.^.^.^.^.^.^.^.^.^.^.^.^.^.^.",
"^.^.^.^.^.^.^.^.^.^.^.^.^.^.^.^.^.^.^.q.!.T.^ S F M u p t t 7 , 3 ; ; % % o o   a P ! :.m.F.^.^.^.^.^.^.^.^.^.^.^.^.^.^.^.^.^.^.",
"^.^.^.^.^.^.^.^.^.^.^.^.^.^.^.^.^.^.^.B.~.I.{ S S M f p t t 7 3 2 * - - o o   o a D { m.F.F.^.^.^.^.^.^.^.^.^.^.^.^.^.^.^.^.^.^.",
"^.^.^.^.^.^.^.^.^.^.^.^.^.^.^.^.^.^.^.Q.T.^ D S F V p p t t 7 3 , - * - o       a S { v.F.B.^.^.^.^.^.^.^.^.^.^.^.^.^.^.^.^.^.^.",
"^.^.^.^.^.^.^.^.^.^.^.^.^.^.^.^.^.^.m.Q.D.S S S F M f p t t 7 3 , ; * @ o     o a S ^ m.F.^.^.^.^.^.^.^.^.^.^.^.^.^.^.^.^.^.^.^.",
"^.^.^.^.^.^.^.^.^.^.^.^.^.^.^.^.^.^.F.E.q.M S S S S f p t t 7 3 , ; * - o     @ a S { m.F.^.^.^.^.^.^.^.^.^.^.^.^.^.^.^.^.^.^.^.",
"^.^.^.^.^.^.^.^.^.^.^.^.^.^.^.^.^.^.F.T.:.S A S F M u p t u 7 3 1 ; ; # o     q M S { m.F.^.^.^.^.^.^.^.^.^.^.^.^.^.^.^.^.^.^.^.",
"^.^.^.^.^.^.^.^.^.^.^.^.^.^.^.^.^.^.F.B.<.S A D F M u p t u 7 3 1 % % % o     p A H +.m.F.^.^.^.^.^.^.^.^.^.^.^.^.^.^.^.^.^.^.^.",
"^.^.^.^.^.^.^.^.^.^.^.^.^.^.^.^.^.m.D.q.<.S S D S M p p t t 7 3 3 ; % % o   o u S P a.F.F.^.^.^.^.^.^.^.^.^.^.^.^.^.^.^.^.^.^.^.",
"^.^.^.^.^.^.^.^.^.^.^.^.^.^.^.^.^.h.F.r.<.D S D F V p u t t 7 3 3 , % ; % o o u S H r.L.B.^.^.^.^.^.^.^.^.^.^.^.^.^.^.^.^.^.^.^.",
"^.^.^.^.^.^.^.^.^.^.^.^.^.^.^.^.^.^.S.q.<.S S D S S p p t t 7 , 3 , % % % % % a M H r.L.^.^.^.^.^.^.^.^.^.^.^.^.^.^.^.^.^.^.^.^.",
"^.^.^.^.^.^.^.^.^.^.^.^.^.^.^.^.^.d.B.-.<.F S S S S p p t t 7 , 3 , ; ; ; % % f H m.L.L.^.^.^.^.^.^.^.^.^.^.^.^.^.^.^.^.^.^.^.^.",
"^.^.^.^.^.^.^.^.^.^.^.^.^.^.^.^.^.B.D.:.<.F S S F M f u t t 7 3 3 3 % % ; % % f H F.Q.k.;.^.^.^.^.^.^.^.^.^.^.^.^.^.^.^.^.^.^.^.",
"^.^.^.^.^.^.^.^.^.^.^.^.^.^.^.^.^.B.F.:.<.S S S S M f p u u 7 , 3 3 , % % ; - a H F.L.a.^.^.^.^.^.^.^.^.^.^.^.^.^.^.^.^.^.^.^.^.",
"^.^.^.^.^.^.^.^.^.^.^.^.^.^.^.^.^.B.F.q.q.;.L M S S u p u t 7 , 3 3 3 3 , 1 3 b H S.k.q.^.^.^.^.^.^.^.^.^.^.^.^.^.^.^.^.^.^.^.^.",
"^.^.^.^.^.^.^.^.^.^.^.^.^.^.^.^.^.B.B.;.4.;.Q S S S u u t t t 7 3 3 3 3 3 3 3 m S.E.k.4.^.^.^.^.^.^.^.^.^.^.^.^.^.^.^.^.^.^.^.^.",
"^.^.^.^.^.^.^.^.^.^.^.^.^.^.^.^.^.m.B.^.q.>.Q h.^ F M p t t t 7 3 3 3 3 3 3 f L S.a.4.4.^.^.^.^.^.^.^.^.^.^.^.^.^.^.^.^.^.^.^.^.",
"^.^.^.^.^.^.^.^.^.^.^.^.^.^.^.^.^.^.B.^.X.>.Q b.E.I.Q u t t t 3 3 3 3 3 3 3 b F.E.a.4.X.^.^.^.^.^.^.^.^.^.^.^.^.^.^.^.^.^.^.^.^.",
"^.^.^.^.^.^.^.^.^.^.^.^.^.^.^.^.^.^.B.^.^.q.Q d.F.L.Q b p t t r 7 3 , 3 3 7 H B.a.4.q.^.^.^.^.^.^.^.^.^.^.^.^.^.^.^.^.^.^.^.^.^.",
"^.^.^.^.^.^.^.^.^.^.^.^.^.^.^.^.^.^.B.^.^.q.4.Q m.L.^ A u t t t u 3 7 , , b B.L.w.q.q.^.^.^.^.^.^.^.^.^.^.^.^.^.^.^.^.^.^.^.^.^.",
"^.^.^.^.^.^.^.^.^.^.^.^.^.^.^.^.^.^.B.^.^.q.-.Q m.T.B.S p t t t u 0 u 3 , f k.;.-.q.>.^.^.^.^.^.^.^.^.^.^.^.^.^.^.^.^.^.^.^.^.^.",
"^.^.^.^.^.^.^.^.^.^.^.^.^.^.^.^.^.^.B.^.^.q.-.Q { L.I.Q M f r t u u t q 7 0 L ;.>.>.^.^.^.^.^.^.^.^.^.^.^.^.^.^.^.^.^.^.^.^.^.^.",
"^.^.^.^.^.^.^.^.^.^.^.^.^.^.^.^.^.^.m.^.^.;.>.-.Q m.L.^ M b u t t t u u j M X.>.4.;.^.^.^.^.^.^.^.^.^.^.^.^.^.^.^.^.^.^.^.^.^.^.",
"^.^.^.^.^.^.^.^.^.^.^.^.^.^.^.^.^.^.^.^.^.^.-.-.^ q.L.b.Q H f p u p M M V L X.q.4.q.^.^.^.^.^.^.^.^.^.^.^.^.^.^.^.^.^.^.^.^.^.^.",
"^.^.^.^.^.^.^.^.^.^.^.^.^.^.^.^.^.^.^.^.^.^.^.4.-.q.F.F.} H S f M M S Q L X.>.<.4.-.^.^.^.^.^.^.^.^.^.^.^.^.^.^.^.^.^.^.^.^.^.^.",
"^.^.^.^.^.^.^.^.^.^.^.^.^.^.^.^.^.^.^.^.^.^.^.4.>.q.B.E.L.+.S S M M F X.>.4.4.4.^.^.^.^.^.^.^.^.^.^.^.^.^.^.^.^.^.^.^.^.^.^.^.^.",
"^.^.^.^.^.^.^.^.^.^.^.^.^.^.^.^.^.^.^.^.^.^.^.^.>.q.w.F.E.F.X.S F S Q <.4.4.>.X.^.^.^.^.^.^.^.^.^.^.^.^.^.^.^.^.^.^.^.^.^.^.^.^.",
"^.^.^.^.^.^.^.^.^.^.^.^.^.^.^.^.^.^.^.^.^.^.^.^.{ >.q.m.S.L.F.! F 4.-.<.q.4.>.^.^.^.^.^.F.^.^.^.^.^.^.^.^.^.^.^.^.^.^.^.^.^.^.^.",
"^.^.^.^.^.^.^.^.^.^.^.^.^.^.^.^.^.^.^.^.^.^.^.^.^.;.q.4.q.B.E.q.-.4.q.q.q.4.4.^.^.^.^.F.!.^.^.^.^.^.^.^.^.^.^.^.^.^.^.^.^.^.^.^.",
"^.^.^.^.^.^.^.^.^.^.^.^.^.^.^.^.^.^.^.^.^.^.^.^.^.^.4.q.4.q.S.F.B.q.4.4.4.q.^.d.^.^.^.^.^.^.^.^.^.^.^.^.^.^.^.^.^.^.^.^.^.^.^.^.",
"^.^.^.^.^.^.^.^.^.^.^.^.^.^.^.^.^.^.^.^.^.^.^.^.^.^.^.;.4.q.B.F.F.F.q.4.^.^.a.S.m.^.^.^.^.^.^.^.^.^.^.^.^.^.^.^.^.^.^.^.^.^.^.^.",
"^.^.^.^.^.^.^.^.^.^.^.^.^.^.^.^.^.^.^.^.^.^.^.^.^.^.^.q.4.q.B.L.L.F.D.D.B.m.F.m.^.^.^.^.^.^.^.^.^.^.^.^.^.^.^.^.^.^.^.^.^.^.^.^.",
"^.^.^.^.^.^.^.^.^.^.^.^.^.^.^.^.^.^.^.^.^.^.^.^.^.^.^.^.^.^.^.m.F.F.L.F.F.F.B.^.^.^.^.^.^.^.^.^.^.^.^.^.^.^.^.^.^.^.^.^.^.^.^.^.",
"^.^.^.^.^.^.^.^.^.^.^.^.^.^.^.^.^.^.^.^.^.^.^.^.^.^.^.^.^.^.^.^.m.B.B.F.B.B.^.^.^.^.^.^.^.^.^.^.^.^.^.^.^.^.^.^.^.^.^.^.^.^.^.^.",
"^.^.^.^.^.^.^.^.^.^.^.^.^.^.^.^.^.^.^.^.^.^.^.^.^.^.^.^.^.^.^.^.^.^.^.^.^.^.^.^.^.^.^.^.^.^.^.^.^.^.^.^.^.^.^.^.^.^.^.^.^.^.^.^.",
"^.^.^.^.^.^.^.^.^.^.^.^.^.^.^.^.^.^.^.^.^.^.^.^.^.^.^.^.^.^.^.^.^.^.^.^.^.^.^.^.^.^.^.^.^.^.^.^.^.^.^.^.^.^.^.^.^.^.^.^.^.^.^.^.",
"^.^.^.^.^.^.^.^.^.^.^.^.^.^.^.^.^.^.^.^.^.^.^.^.^.^.^.^.^.^.^.^.^.^.^.^.^.^.^.^.^.^.^.^.^.^.^.^.^.^.^.^.^.^.^.^.^.^.^.^.^.^.^.^.",
"^.^.^.^.^.^.^.^.^.^.^.^.^.^.^.^.^.^.^.^.^.^.^.^.^.^.^.^.^.^.^.^.^.^.^.^.^.^.^.^.^.^.^.^.^.^.^.^.^.^.^.^.^.^.^.^.^.^.^.^.^.^.^.^."
};
