/* XPM */
static char *c3ByaWtlLTA_[] = {
/* columns rows colors chars-per-pixel */
"64 64 2 1 ",
"  c #514047",
". c #181425",
/* pixels */
"                                                                ",
"                                                                ",
"                                                                ",
"                                                                ",
"                                                                ",
"                                                                ",
"                                                                ",
"                                                                ",
"    ......            ......        ......            ......    ",
"    ......            ......        ......            ......    ",
"  ..........        ..........    ..........        ..........  ",
"  ..........        ..........    ..........        ..........  ",
"  ..........        ..........    ..........        ..........  ",
"  ..........        ..........    ..........        ..........  ",
"    ......            ......        ......            ......    ",
"    ......            ......        ......            ......    ",
"                                                                ",
"                                                                ",
"                                                                ",
"                                                                ",
"                                                                ",
"                                                                ",
"                                                                ",
"                                                                ",
"    ......            ......        ......            ......    ",
"    ......            ......        ......            ......    ",
"  ..........        ..........    ..........        ..........  ",
"  ..........        ..........    ..........        ..........  ",
"  ..........        ..........    ..........        ..........  ",
"  ..........        ..........    ..........        ..........  ",
"    ......            ......        ......            ......    ",
"    ......            ......        ......            ......    ",
"                                                                ",
"                                                                ",
"                                                                ",
"                                                                ",
"                                                                ",
"                                                                ",
"                                                                ",
"                                                                ",
"    ......            ......        ......            ......    ",
"    ......            ......        ......            ......    ",
"  ..........        ..........    ..........        ..........  ",
"  ..........        ..........    ..........        ..........  ",
"  ..........        ..........    ..........        ..........  ",
"  ..........        ..........    ..........        ..........  ",
"    ......            ......        ......            ......    ",
"    ......            ......        ......            ......    ",
"                                                                ",
"                                                                ",
"                                                                ",
"                                                                ",
"                                                                ",
"                                                                ",
"                                                                ",
"                                                                ",
"    ......            ......        ......            ......    ",
"    ......            ......        ......            ......    ",
"  ..........        ..........    ..........        ..........  ",
"  ..........        ..........    ..........        ..........  ",
"  ..........        ..........    ..........        ..........  ",
"  ..........        ..........    ..........        ..........  ",
"    ......            ......        ......            ......    ",
"    ......            ......        ......            ......    "
};
