/* XPM */
static char *c3ByaWtlLTY_[] = {
/* columns rows colors chars-per-pixel */
"64 64 5 1 ",
"  c #514047",
". c white",
"X c gray64",
"o c gray47",
"O c #181425",
/* pixels */
"                                                                ",
"                                                                ",
"      ..                ..            ..                ..      ",
"      ..                ..            ..                ..      ",
"      ..                ..            ..                ..      ",
"      ..                ..            ..                ..      ",
"    ..XXoo      oo    ..XXoo        ..XXoo      oo    ..XXoo    ",
"    ..XXoo      oo    ..XXoo        ..XXoo      oo    ..XXoo    ",
"oo  XXXXXX  oo    oo  XXXXXX  oooo  XXXXXX  oo    oo  XXXXXX  oo",
"oo  XXXXXX  oo    oo  XXXXXX  oooo  XXXXXX  oo    oo  XXXXXX  oo",
"  OOXXXXooOO        OOXXXXooOO    OOXXXXooOO        OOXXXXooOO  ",
"  OOXXXXooOO        OOXXXXooOO    OOXXXXooOO        OOXXXXooOO  ",
"  OOOOooOOOO        OOOOooOOOO    OOOOooOOOO        OOOOooOOOO  ",
"  OOOOooOOOO        OOOOooOOOO    OOOOooOOOO        OOOOooOOOO  ",
"    OOOOOO            OOOOOO        OOOOOO            OOOOOO    ",
"    OOOOOO            OOOOOO        OOOOOO            OOOOOO    ",
"                                                                ",
"                                                                ",
"      ..                ..            ..                ..      ",
"      ..                ..            ..                ..      ",
"      ..                ..            ..                ..      ",
"      ..                ..            ..                ..      ",
"    ..XXoo    oo      ..XXoo        ..XXoo    oo      ..XXoo    ",
"    ..XXoo    oo      ..XXoo        ..XXoo    oo      ..XXoo    ",
"oo  XXXXXX  oo    oo  XXXXXX  oooo  XXXXXX  oo    oo  XXXXXX  oo",
"oo  XXXXXX  oo    oo  XXXXXX  oooo  XXXXXX  oo    oo  XXXXXX  oo",
"  OOXXXXooOO        OOXXXXooOO    OOXXXXooOO        OOXXXXooOO  ",
"  OOXXXXooOO        OOXXXXooOO    OOXXXXooOO        OOXXXXooOO  ",
"  OOOOooOOOO        OOOOooOOOO    OOOOooOOOO        OOOOooOOOO  ",
"  OOOOooOOOO        OOOOooOOOO    OOOOooOOOO        OOOOooOOOO  ",
"    OOOOOO            OOOOOO        OOOOOO            OOOOOO    ",
"    OOOOOO            OOOOOO        OOOOOO            OOOOOO    ",
"                                                                ",
"                                                                ",
"      ..                ..            ..                ..      ",
"      ..                ..            ..                ..      ",
"      ..                ..            ..                ..      ",
"      ..                ..            ..                ..      ",
"    ..XXoo      oo    ..XXoo        ..XXoo      oo    ..XXoo    ",
"    ..XXoo      oo    ..XXoo        ..XXoo      oo    ..XXoo    ",
"oo  XXXXXX  oo    oo  XXXXXX  oooo  XXXXXX  oo    oo  XXXXXX  oo",
"oo  XXXXXX  oo    oo  XXXXXX  oooo  XXXXXX  oo    oo  XXXXXX  oo",
"  OOXXXXooOO        OOXXXXooOO    OOXXXXooOO        OOXXXXooOO  ",
"  OOXXXXooOO        OOXXXXooOO    OOXXXXooOO        OOXXXXooOO  ",
"  OOOOooOOOO        OOOOooOOOO    OOOOooOOOO        OOOOooOOOO  ",
"  OOOOooOOOO        OOOOooOOOO    OOOOooOOOO        OOOOooOOOO  ",
"    OOOOOO            OOOOOO        OOOOOO            OOOOOO    ",
"    OOOOOO            OOOOOO        OOOOOO            OOOOOO    ",
"                                                                ",
"                                                                ",
"      ..                ..            ..                ..      ",
"      ..                ..            ..                ..      ",
"      ..                ..            ..                ..      ",
"      ..                ..            ..                ..      ",
"    ..XXoo    oo      ..XXoo        ..XXoo    oo      ..XXoo    ",
"    ..XXoo    oo      ..XXoo        ..XXoo    oo      ..XXoo    ",
"oo  XXXXXX  oo    oo  XXXXXX  oooo  XXXXXX  oo    oo  XXXXXX  oo",
"oo  XXXXXX  oo    oo  XXXXXX  oooo  XXXXXX  oo    oo  XXXXXX  oo",
"  OOXXXXooOO        OOXXXXooOO    OOXXXXooOO        OOXXXXooOO  ",
"  OOXXXXooOO        OOXXXXooOO    OOXXXXooOO        OOXXXXooOO  ",
"  OOOOooOOOO        OOOOooOOOO    OOOOooOOOO        OOOOooOOOO  ",
"  OOOOooOOOO        OOOOooOOOO    OOOOooOOOO        OOOOooOOOO  ",
"    OOOOOO            OOOOOO        OOOOOO            OOOOOO    ",
"    OOOOOO            OOOOOO        OOOOOO            OOOOOO    "
};
