/* XPM */
static char *c3ByaWtlLTc_[] = {
/* columns rows colors chars-per-pixel */
"64 64 5 1 ",
"  c #514047",
". c white",
"X c gray47",
"o c gray64",
"O c #181425",
/* pixels */
"                                                                ",
"                                                                ",
"                                                                ",
"                                                                ",
"      ..                ..            ..                ..      ",
"      ..                ..            ..                ..      ",
"      ..      XX        ..            ..      XX        ..      ",
"      ..      XX        ..            ..      XX        ..      ",
"    ..ooXX            ..ooXX        ..ooXX            ..ooXX    ",
"    ..ooXX            ..ooXX        ..ooXX            ..ooXX    ",
"  OOooooXXOO        OOooooXXOO    OOooooXXOO        OOooooXXOO  ",
"  OOooooXXOO        OOooooXXOO    OOooooXXOO        OOooooXXOO  ",
"  OOOOXXOOOO        OOOOXXOOOO    OOOOXXOOOO        OOOOXXOOOO  ",
"  OOOOXXOOOO        OOOOXXOOOO    OOOOXXOOOO        OOOOXXOOOO  ",
"    OOOOOO            OOOOOO        OOOOOO            OOOOOO    ",
"    OOOOOO            OOOOOO        OOOOOO            OOOOOO    ",
"                                                                ",
"                                                                ",
"                                                                ",
"                                                                ",
"      ..                ..            ..                ..      ",
"      ..                ..            ..                ..      ",
"      ..        XX      ..            ..        XX      ..      ",
"      ..        XX      ..            ..        XX      ..      ",
"    ..ooXX            ..ooXX        ..ooXX            ..ooXX    ",
"    ..ooXX            ..ooXX        ..ooXX            ..ooXX    ",
"  OOooooXXOO        OOooooXXOO    OOooooXXOO        OOooooXXOO  ",
"  OOooooXXOO        OOooooXXOO    OOooooXXOO        OOooooXXOO  ",
"  OOOOXXOOOO        OOOOXXOOOO    OOOOXXOOOO        OOOOXXOOOO  ",
"  OOOOXXOOOO        OOOOXXOOOO    OOOOXXOOOO        OOOOXXOOOO  ",
"    OOOOOO            OOOOOO        OOOOOO            OOOOOO    ",
"    OOOOOO            OOOOOO        OOOOOO            OOOOOO    ",
"                                                                ",
"                                                                ",
"                                                                ",
"                                                                ",
"      ..                ..            ..                ..      ",
"      ..                ..            ..                ..      ",
"      ..      XX        ..            ..      XX        ..      ",
"      ..      XX        ..            ..      XX        ..      ",
"    ..ooXX            ..ooXX        ..ooXX            ..ooXX    ",
"    ..ooXX            ..ooXX        ..ooXX            ..ooXX    ",
"  OOooooXXOO        OOooooXXOO    OOooooXXOO        OOooooXXOO  ",
"  OOooooXXOO        OOooooXXOO    OOooooXXOO        OOooooXXOO  ",
"  OOOOXXOOOO        OOOOXXOOOO    OOOOXXOOOO        OOOOXXOOOO  ",
"  OOOOXXOOOO        OOOOXXOOOO    OOOOXXOOOO        OOOOXXOOOO  ",
"    OOOOOO            OOOOOO        OOOOOO            OOOOOO    ",
"    OOOOOO            OOOOOO        OOOOOO            OOOOOO    ",
"                                                                ",
"                                                                ",
"                                                                ",
"                                                                ",
"      ..                ..            ..                ..      ",
"      ..                ..            ..                ..      ",
"      ..        XX      ..            ..        XX      ..      ",
"      ..        XX      ..            ..        XX      ..      ",
"    ..ooXX            ..ooXX        ..ooXX            ..ooXX    ",
"    ..ooXX            ..ooXX        ..ooXX            ..ooXX    ",
"  OOooooXXOO        OOooooXXOO    OOooooXXOO        OOooooXXOO  ",
"  OOooooXXOO        OOooooXXOO    OOooooXXOO        OOooooXXOO  ",
"  OOOOXXOOOO        OOOOXXOOOO    OOOOXXOOOO        OOOOXXOOOO  ",
"  OOOOXXOOOO        OOOOXXOOOO    OOOOXXOOOO        OOOOXXOOOO  ",
"    OOOOOO            OOOOOO        OOOOOO            OOOOOO    ",
"    OOOOOO            OOOOOO        OOOOOO            OOOOOO    "
};
