/* XPM */
static char *c3ByaWtlLTI_[] = {
/* columns rows colors chars-per-pixel */
"64 64 3 1 ",
"  c #514047",
". c #181425",
"X c gray64",
/* pixels */
"                                                                ",
"                                                                ",
"                                                                ",
"                                                                ",
"                                                                ",
"                                                                ",
"                                                                ",
"                                                                ",
"    ......            ......        ......            ......    ",
"    ......            ......        ......            ......    ",
"  ..........        ..........    ..........        ..........  ",
"  ..........        ..........    ..........        ..........  ",
"  ....XX....        ....XX....    ....XX....        ....XX....  ",
"  ....XX....        ....XX....    ....XX....        ....XX....  ",
"    ......            ......        ......            ......    ",
"    ......            ......        ......            ......    ",
"                                                                ",
"                                                                ",
"                                                                ",
"                                                                ",
"                                                                ",
"                                                                ",
"                                                                ",
"                                                                ",
"    ......            ......        ......            ......    ",
"    ......            ......        ......            ......    ",
"  ..........        ..........    ..........        ..........  ",
"  ..........        ..........    ..........        ..........  ",
"  ....XX....        ....XX....    ....XX....        ....XX....  ",
"  ....XX....        ....XX....    ....XX....        ....XX....  ",
"    ......            ......        ......            ......    ",
"    ......            ......        ......            ......    ",
"                                                                ",
"                                                                ",
"                                                                ",
"                                                                ",
"                                                                ",
"                                                                ",
"                                                                ",
"                                                                ",
"    ......            ......        ......            ......    ",
"    ......            ......        ......            ......    ",
"  ..........        ..........    ..........        ..........  ",
"  ..........        ..........    ..........        ..........  ",
"  ....XX....        ....XX....    ....XX....        ....XX....  ",
"  ....XX....        ....XX....    ....XX....        ....XX....  ",
"    ......            ......        ......            ......    ",
"    ......            ......        ......            ......    ",
"                                                                ",
"                                                                ",
"                                                                ",
"                                                                ",
"                                                                ",
"                                                                ",
"                                                                ",
"                                                                ",
"    ......            ......        ......            ......    ",
"    ......            ......        ......            ......    ",
"  ..........        ..........    ..........        ..........  ",
"  ..........        ..........    ..........        ..........  ",
"  ....XX....        ....XX....    ....XX....        ....XX....  ",
"  ....XX....        ....XX....    ....XX....        ....XX....  ",
"    ......            ......        ......            ......    ",
"    ......            ......        ......            ......    "
};
