/* XPM */
static char *c3ByaWtlLTU_[] = {
/* columns rows colors chars-per-pixel */
"64 64 5 1 ",
"  c #514047",
". c white",
"X c gray64",
"o c gray47",
"O c #181425",
/* pixels */
"      ..                ..            ..                ..      ",
"      ..                ..            ..                ..      ",
"      ..                ..            ..                ..      ",
"      ..                ..            ..                ..      ",
"    ..XXoo            ..XXoo        ..XXoo            ..XXoo    ",
"    ..XXoo            ..XXoo        ..XXoo            ..XXoo    ",
"    XXXXXX            XXXXXX        XXXXXX            XXXXXX    ",
"    XXXXXX            XXXXXX        XXXXXX            XXXXXX    ",
"    XXXXXX            XXXXXX        XXXXXX            XXXXXX    ",
"    XXXXXX            XXXXXX        XXXXXX            XXXXXX    ",
"  ooXXXXoooo        ooXXXXoooo    ooXXXXoooo        ooXXXXoooo  ",
"  ooXXXXoooo        ooXXXXoooo    ooXXXXoooo        ooXXXXoooo  ",
"  OOOOooOOOO        OOOOooOOOO    OOOOooOOOO        OOOOooOOOO  ",
"  OOOOooOOOO        OOOOooOOOO    OOOOooOOOO        OOOOooOOOO  ",
"    OOOOOO            OOOOOO        OOOOOO            OOOOOO    ",
"    OOOOOO            OOOOOO        OOOOOO            OOOOOO    ",
"      ..                ..            ..                ..      ",
"      ..                ..            ..                ..      ",
"      ..                ..            ..                ..      ",
"      ..                ..            ..                ..      ",
"    ..XXoo            ..XXoo        ..XXoo            ..XXoo    ",
"    ..XXoo            ..XXoo        ..XXoo            ..XXoo    ",
"    XXXXXX            XXXXXX        XXXXXX            XXXXXX    ",
"    XXXXXX            XXXXXX        XXXXXX            XXXXXX    ",
"    XXXXXX            XXXXXX        XXXXXX            XXXXXX    ",
"    XXXXXX            XXXXXX        XXXXXX            XXXXXX    ",
"  ooXXXXoooo        ooXXXXoooo    ooXXXXoooo        ooXXXXoooo  ",
"  ooXXXXoooo        ooXXXXoooo    ooXXXXoooo        ooXXXXoooo  ",
"  OOOOooOOOO        OOOOooOOOO    OOOOooOOOO        OOOOooOOOO  ",
"  OOOOooOOOO        OOOOooOOOO    OOOOooOOOO        OOOOooOOOO  ",
"    OOOOOO            OOOOOO        OOOOOO            OOOOOO    ",
"    OOOOOO            OOOOOO        OOOOOO            OOOOOO    ",
"      ..                ..            ..                ..      ",
"      ..                ..            ..                ..      ",
"      ..                ..            ..                ..      ",
"      ..                ..            ..                ..      ",
"    ..XXoo            ..XXoo        ..XXoo            ..XXoo    ",
"    ..XXoo            ..XXoo        ..XXoo            ..XXoo    ",
"    XXXXXX            XXXXXX        XXXXXX            XXXXXX    ",
"    XXXXXX            XXXXXX        XXXXXX            XXXXXX    ",
"    XXXXXX            XXXXXX        XXXXXX            XXXXXX    ",
"    XXXXXX            XXXXXX        XXXXXX            XXXXXX    ",
"  ooXXXXoooo        ooXXXXoooo    ooXXXXoooo        ooXXXXoooo  ",
"  ooXXXXoooo        ooXXXXoooo    ooXXXXoooo        ooXXXXoooo  ",
"  OOOOooOOOO        OOOOooOOOO    OOOOooOOOO        OOOOooOOOO  ",
"  OOOOooOOOO        OOOOooOOOO    OOOOooOOOO        OOOOooOOOO  ",
"    OOOOOO            OOOOOO        OOOOOO            OOOOOO    ",
"    OOOOOO            OOOOOO        OOOOOO            OOOOOO    ",
"      ..                ..            ..                ..      ",
"      ..                ..            ..                ..      ",
"      ..                ..            ..                ..      ",
"      ..                ..            ..                ..      ",
"    ..XXoo            ..XXoo        ..XXoo            ..XXoo    ",
"    ..XXoo            ..XXoo        ..XXoo            ..XXoo    ",
"    XXXXXX            XXXXXX        XXXXXX            XXXXXX    ",
"    XXXXXX            XXXXXX        XXXXXX            XXXXXX    ",
"    XXXXXX            XXXXXX        XXXXXX            XXXXXX    ",
"    XXXXXX            XXXXXX        XXXXXX            XXXXXX    ",
"  ooXXXXoooo        ooXXXXoooo    ooXXXXoooo        ooXXXXoooo  ",
"  ooXXXXoooo        ooXXXXoooo    ooXXXXoooo        ooXXXXoooo  ",
"  OOOOooOOOO        OOOOooOOOO    OOOOooOOOO        OOOOooOOOO  ",
"  OOOOooOOOO        OOOOooOOOO    OOOOooOOOO        OOOOooOOOO  ",
"    OOOOOO            OOOOOO        OOOOOO            OOOOOO    ",
"    OOOOOO            OOOOOO        OOOOOO            OOOOOO    "
};
