/* XPM */
static char *c3ByaWtlLTM_[] = {
/* columns rows colors chars-per-pixel */
"64 64 4 1 ",
"  c #514047",
". c #181425",
"X c gray64",
"o c white",
/* pixels */
"                                                                ",
"                                                                ",
"                                                                ",
"                                                                ",
"                                                                ",
"                                                                ",
"                                                                ",
"                                                                ",
"    ..XX..            ..XX..        ..XX..            ..XX..    ",
"    ..XX..            ..XX..        ..XX..            ..XX..    ",
"  ..ooooXX..        ..ooooXX..    ..ooooXX..        ..ooooXX..  ",
"  ..ooooXX..        ..ooooXX..    ..ooooXX..        ..ooooXX..  ",
"  ....XX....        ....XX....    ....XX....        ....XX....  ",
"  ....XX....        ....XX....    ....XX....        ....XX....  ",
"    ......            ......        ......            ......    ",
"    ......            ......        ......            ......    ",
"                                                                ",
"                                                                ",
"                                                                ",
"                                                                ",
"                                                                ",
"                                                                ",
"                                                                ",
"                                                                ",
"    ..XX..            ..XX..        ..XX..            ..XX..    ",
"    ..XX..            ..XX..        ..XX..            ..XX..    ",
"  ..ooooXX..        ..ooooXX..    ..ooooXX..        ..ooooXX..  ",
"  ..ooooXX..        ..ooooXX..    ..ooooXX..        ..ooooXX..  ",
"  ....XX....        ....XX....    ....XX....        ....XX....  ",
"  ....XX....        ....XX....    ....XX....        ....XX....  ",
"    ......            ......        ......            ......    ",
"    ......            ......        ......            ......    ",
"                                                                ",
"                                                                ",
"                                                                ",
"                                                                ",
"                                                                ",
"                                                                ",
"                                                                ",
"                                                                ",
"    ..XX..            ..XX..        ..XX..            ..XX..    ",
"    ..XX..            ..XX..        ..XX..            ..XX..    ",
"  ..ooooXX..        ..ooooXX..    ..ooooXX..        ..ooooXX..  ",
"  ..ooooXX..        ..ooooXX..    ..ooooXX..        ..ooooXX..  ",
"  ....XX....        ....XX....    ....XX....        ....XX....  ",
"  ....XX....        ....XX....    ....XX....        ....XX....  ",
"    ......            ......        ......            ......    ",
"    ......            ......        ......            ......    ",
"                                                                ",
"                                                                ",
"                                                                ",
"                                                                ",
"                                                                ",
"                                                                ",
"                                                                ",
"                                                                ",
"    ..XX..            ..XX..        ..XX..            ..XX..    ",
"    ..XX..            ..XX..        ..XX..            ..XX..    ",
"  ..ooooXX..        ..ooooXX..    ..ooooXX..        ..ooooXX..  ",
"  ..ooooXX..        ..ooooXX..    ..ooooXX..        ..ooooXX..  ",
"  ....XX....        ....XX....    ....XX....        ....XX....  ",
"  ....XX....        ....XX....    ....XX....        ....XX....  ",
"    ......            ......        ......            ......    ",
"    ......            ......        ......            ......    "
};
