/* XPM */
static char *UF9yaWdodC0x[] = {
/* columns rows colors chars-per-pixel */
"64 64 41 1 ",
"  c black",
". c #000001",
"X c #0C0C0C",
"o c #0F0F0E",
"O c #040B16",
"+ c #1C1914",
"@ c #1A191A",
"# c #3A0A0A",
"$ c #09162B",
"% c #0C203E",
"& c #272827",
"* c #353A35",
"= c #3F3F3F",
"- c #591313",
"; c #7D1919",
": c #0C1C4F",
"> c #103660",
", c #0F4F7F",
"< c #616760",
"1 c #BD2F2F",
"2 c #964B1F",
"3 c #AB7115",
"4 c #B36739",
"5 c #DE982A",
"6 c #EA9777",
"7 c #FFC569",
"8 c #005BBD",
"9 c #006AD9",
"0 c #087CF1",
"q c #838683",
"w c #969D96",
"e c #9EA29E",
"r c #AFA992",
"t c #F2BFAC",
"y c #F9C19D",
"u c #CCCFCB",
"i c #FBD9C3",
"p c #FBDCC8",
"a c #FDEADD",
"s c white",
"d c None",
/* pixels */
"dddddddddddddddddddddddddddddddddddddddddddddddddddddddddddddddd",
"dddddddddddddddddddddddddddddddddddddddddddddddddddddddddddddddd",
"dddddddddddddddddddddddddddddddddddddddddddddddddddddddddddddddd",
"dddddddddddddddddddddddddddddddddddddddddddddddddddddddddddddddd",
"ddddddddddddddddddddddddddddddddddddddXXXXXX******dddddddddddddd",
"ddddddddddddddddddddddddddddddddddddddXXXXXX******dddddddddddddd",
"ddddddddddddddddddddddddddddddddddXXXX**<<<<<<<<X<****dddddddddd",
"ddddddddddddddddddddddddddddddddXX********<<<<XX<****<***ddddddd",
"ddddddddddddddddddddddddddddddXX*<ww<<<<<<***X**<<**<***<*dddddd",
"ddddddddddddddddddddddddddddddXX*<ww<<<<<<***X**<<**<***<*dddddd",
"dddddddddddddddddddddddddddddX**<w<<<<<<<<XX<X**<w<<w<******dddd",
"ddddddddddddddddddddddddddddX*<<ww<<<<<<<X**X***<wwwu<**<*<<*ddd",
"ddddddddddddddddddddddddddddX<<<wwww<<<<<X***<***<uu<w<<w<ww*ddd",
"ddddddddddddddddddddddddddddX<<<wwww<<<<<X***<***<uu<w<<w<ww*ddd",
"ddddddddddddddddddddddddddXX*<<<<www<w<<X****<***<ww*w<<uwuu<*dd",
"ddddddddddddddddddddddddddXX<<<<<<wwwwwwX***<*<<**<<*<**wuww<Xdd",
"ddddddddddddddddddddddddddXX<<<<*<wwwwuuXX**<*<<********<u<<*Xdd",
"ddddddddddddddddddddddddddXX<<<<*<wwwwuuXX**<*<<********<u<<*Xdd",
"dddddddddddddddddddddddddX**<<**<<<<w<wwXX**<***<XXXXX***<<<*Xdd",
"dddddddddddddddddddddddddXqq*<**<<<<<<<<X*XX*<**XXppppXXX****Xdd",
"dddddddddddddddddddddddddXqqe****<<<<<<<X*XXXXXXXppppp666X***Xdd",
"dddddddddddddddddddddddddXqqe****<<<<<<<X*XXXXXXXppppp666X***Xdd",
"dddddddddddddddddddddddddXqqe<eee***<<<<*X**XXpppppppppppp**Xddd",
"dddddddddddddddddddddddddXqqq<eeeeqq*<***XXXXyyypppppppp6666*ddd",
"ddddddddddddddddddddddddd qq<<eeeqqqq*****XXXyyy6*    66yy**4ddd",
"ddddddddddddddddddddddddd qq<<eeeqqqq*****XXXyyy6*    66yy**4ddd",
"ddddddddddddddddddddddddd XX****eqqq22XX*XXXyyyy6yyyy666yy664ddd",
"ddddddddddddddddddddddddd XX****qq224644XXXXyyyy6y666666yy44dddd",
"ddddddddddddddddddddddddd XX******22yp662Xyyyyyy66222244yy44dddd",
"ddddddddddddddddddddddddd XX******22yp662Xyyyyyy66222244yy44dddd",
"dddddddddddddddddddddddddd  ******  iattyXyyyyyy64rr r66yy44dddd",
"dddddddddddddddddddddddd++++++++++++++++++++++++64ss8:66yy44dddd",
"dddddddddddddddddddddddd+-----------------------+yss88yypp44dddd",
"dddddddddddddddddddddddd+-----------------------+yss88yypp44dddd",
"dddddddddddddddddddddddd++--;1##--------;-----;;-yss0066ppyy4ddd",
"ddddddddddddddddddddddddd+--;1--#----;;;;;;;----;#6666ppppyy4ddd",
"dddddddddddddddddddddddddd++-1---#--;;;;11;;;----#yyy       4ddd",
"dddddddddddddddddddddddddd++-1---#--;;;;11;;;----#yyy       4ddd",
"dddddddddddddddddddddddddddd+-11--##-;;;;111;;---#yy  **y6  dddd",
"ddddddddddddddddddddddddddddd+--1---#-;;;;11;;;;-#yy *664 dddddd",
"dddddddddddddddddddddddddddddd++-1---#--;;;;1;;;;#664    ddddddd",
"dddddddddddddddddddddddddddddd++-1---#--;;;;1;;;;#664    ddddddd",
"dddddddddddddddddddddddddddddddd+-11--##-;;;;;;;-#    dddddddddd",
"ddddddddddddddddddddddddddddddddd+;;1---#---;;--##++%ddddddddddd",
"ddddddddddddddddddddddddddddddddd+++-1---#---#####%%$Odddddddddd",
"ddddddddddddddddddddddddddddddddd+++-1---#---#####%%$Odddddddddd",
"ddddddddddddddddddddddddddddddddd#++++###########-8>9$##dddddddd",
"dddddddddddddddddddddddddddddddd#---;-;;;----;;;#,,, ,$$#ddddddd",
"dddddddddddddddddddddddddddddd##-----;;;;-;;;;##,,,,9,>> -dddddd",
"dddddddddddddddddddddddddddddd##-----;;;;-;;;2##,,,,88>> #dddddd",
"dddddddddddddddddddddddddddddd##----;1;;-;11;#,,,,,, >  42##dddd",
"dddddddddddddddddddddddddddddd##--;;1;--;1;;#,,,,,,,9 6622##dddd",
"ddddddddddddddddddddddddddddd#---;11;-;;;1;;#3333577 444 1##dddd",
"ddddddddddddddddddddddddddddd#---;11;-;;;1;;#3333577 444 1##dddd",
"ddddddddddddddddddddddddddddd --;111;-;;1;##@,,8,,>>    #-##dddd",
"dddddddddddddddddddddddddddd #--;1;;-;111;##,,%>>>>> #######dddd",
"dddddddddddddddddddddddddddd #---;---;11;#>>>>       #####dddddd",
"dddddddddddddddddddddddddddd #---;---;11;#>>>>       #####dddddd",
"ddddddddddddddddddddddddddddd ###----;11;#    >>>8$$     ddddddd",
"dddddddddddddddddddddddddddddd   ###--;;;#$$$ >>@o=== dddddddddd",
"ddddddddddddddddddddddddddddddddd   #####@@@X $$+&&&o dddddddddd",
"ddddddddddddddddddddddddddddddddd   #####@@@o $$@&&&X dddddddddd",
"dddddddddddddddddddddddddddddddddddd     ooo@o  @@   ddddddddddd",
"dddddddddddddddddddddddddddddddddddddddddddddddddddddddddddddddd"
};
