/* XPM */
static char *e3270c6cbe6f46f7810a46a594aef4f9caNfLq3gDlvJxBry[] = {
/* columns rows colors chars-per-pixel */
"64 64 41 1 ",
"  c None",
". c black",
"X c #000001",
"o c #0C0C0C",
"O c #0F0F0E",
"+ c #040B16",
"@ c #1C1914",
"# c #1A191A",
"$ c #3A0A0A",
"% c #09162B",
"& c #0C203E",
"* c #272827",
"= c #353A35",
"- c #3F3F3F",
"; c #591313",
": c #7D1919",
"> c #0C1C4F",
", c #103660",
"< c #0F4F7F",
"1 c #616760",
"2 c #BD2F2F",
"3 c #964B1F",
"4 c #AB7115",
"5 c #B36739",
"6 c #DE982A",
"7 c #EA9777",
"8 c #FFC569",
"9 c #005BBD",
"0 c #006AD9",
"q c #087CF1",
"w c #838683",
"e c #969D96",
"r c #9EA29E",
"t c #AFA992",
"y c #F2BFAC",
"u c #F9C19D",
"i c #CCCFCB",
"p c #FBD9C3",
"a c #FBDCC8",
"s c #FDEADD",
"d c white",
/* pixels */
"                                                                ",
"                                                                ",
"                                                                ",
"                                                                ",
"                           oooooo======                         ",
"                           oooooo======                         ",
"                       oooo==11111111o1====                     ",
"                     oo========1111oo1====1===                  ",
"                   oo=1ee111111===o==11==1===1=                 ",
"                   oo=1ee111111===o==11==1===1=                 ",
"                  o==1e11111111oo1o==1e11e1======               ",
"                 o=11ee1111111o==o===1eeei1==1=11=              ",
"                 o111eeee11111o===1===1ii1e11e1ee=              ",
"                 o111eeee11111o===1===1ii1e11e1ee=              ",
"               oo=1111eee1e11o====1===1ee=e11ieii1=             ",
"               oo111111eeeeeeo===1=11==11=1==eiee1o             ",
"               oo1111=1eeeeiioo==1=11========1i11=o             ",
"               oo1111=1eeeeiioo==1=11========1i11=o             ",
"              o==11==1111e1eeoo==1===1ooooo===111=o             ",
"              oww=1==11111111o=oo=1==ooaaaaooo====o             ",
"              owwr====1111111o=oooooooaaaaa777o===o             ",
"              owwr====1111111o=oooooooaaaaa777o===o             ",
"              owwr1rrr===1111=o==ooaaaaaaaaaaaa==o              ",
"              owww1rrrrww=1===oooouuuaaaaaaaa7777=              ",
"              .ww11rrrwwww=====ooouuu7=....77uu==5              ",
"              .ww11rrrwwww=====ooouuu7=....77uu==5              ",
"              .oo====rwww33oo=ooouuuu7uuuu777uu775              ",
"              .oo====ww335755oooouuuu7u777777uu55               ",
"              .oo======33ua773ouuuuuu77333355uu55               ",
"              .oo======33ua773ouuuuuu77333355uu55               ",
"               ..======..psyyuouuuuuu75tt.t77uu55               ",
"             @@@@@@@@@@@@@@@@@@@@@@@@75dd9>77uu55               ",
"             @;;;;;;;;;;;;;;;;;;;;;;;@udd99uuaa55               ",
"             @;;;;;;;;;;;;;;;;;;;;;;;@udd99uuaa55               ",
"             @@;;:2$$;;;;;;;;:;;;;;::;uddqq77aauu5              ",
"              @;;:2;;$;;;;:::::::;;;;:$7777aaaauu5              ",
"               @@;2;;;$;;::::22:::;;;;$uuu.......5              ",
"               @@;2;;;$;;::::22:::;;;;$uuu.......5              ",
"                 @;22;;$$;::::222::;;;$uu..==u7..               ",
"                  @;;2;;;$;::::22::::;$uu.=775.                 ",
"                   @@;2;;;$;;::::2::::$775....                  ",
"                   @@;2;;;$;;::::2::::$775....                  ",
"                     @;22;;$$;:::::::;$....                     ",
"                      @::2;;;$;;;::;;$$@@&                      ",
"                      @@@;2;;;$;;;$$$$$&&%+                     ",
"                      @@@;2;;;$;;;$$$$$&&%o                     ",
"                      $@@@@$$$$$$$$$$$$<<0%$$                   ",
"                     $;;;:;:::;;;;:::$<<<.9O%$                  ",
"                   $$;;;;;::::;::::$$<<<<09,,.$                 ",
"                   $$;;;;;::::;::::$$<<<<9<,,.$                 ",
"                   $$;;;;:2::;:22:$<<<<<<.,..53$$               ",
"                   $$;;::2:;;:2::$<<<<<<<0.7733$$               ",
"                  $;;;:22:;:::2::$4444688.555.2$$               ",
"                  $;;;:22:;:::2::$4444688.555.2$$               ",
"                  .;;:222:;::2:$$%<<<<<,,....$;$$               ",
"                 .$;;:2::;:222:$$<<,,,,,,.$$$$$$$               ",
"                 .$;;;:;;;:22:$,,,,.......$$$$$                 ",
"                 .$;;;:;;;:22:$,,,,.......$$$$$                 ",
"                  .$$$;;;;:22:$....,,,<%%.....                  ",
"                   ...$$$;;:::$%%%.,,%%---.                     ",
"                      ...$$$$$###O.%%#***O.                     ",
"                      ...$$$$$###O.%%#***o.                     ",
"                         .....OOO#O..##...                      ",
"                                                                "
};
