/* XPM */
static char *cG9ydGFsLTg_[] = {
/* columns rows colors chars-per-pixel */
"64 64 154 2 ",
"   c #0F0D08",
".  c #100E08",
"X  c #110E09",
"o  c #110F09",
"O  c #120F09",
"+  c #13100A",
"@  c #14110A",
"#  c #16130B",
"$  c #17140C",
"%  c #1A160D",
"&  c #1A160E",
"*  c #1B170E",
"=  c #1C180E",
"-  c #1C180F",
";  c #1D180F",
":  c #1D190F",
">  c #241E13",
",  c #251E13",
"<  c #251F13",
"1  c #261F13",
"2  c #261F14",
"3  c #262013",
"4  c #262014",
"5  c #272014",
"6  c #272114",
"7  c #282114",
"8  c #282115",
"9  c #282215",
"0  c #292215",
"q  c #2B2316",
"w  c #2E2618",
"e  c #2E2718",
"r  c #2F2718",
"t  c #302819",
"y  c #312819",
"u  c #302919",
"i  c #312919",
"p  c #32281A",
"a  c #32291A",
"s  c #322A1A",
"d  c #332B1A",
"f  c #342B1B",
"g  c #342C1B",
"h  c #362C1C",
"j  c #362D1C",
"k  c #382E1D",
"l  c #382F1D",
"z  c #392F1D",
"x  c #392E1E",
"c  c #3A2F1E",
"v  c #39301E",
"b  c #3A301E",
"n  c #3B301E",
"m  c #3A311E",
"M  c #3B311F",
"N  c #3C311F",
"B  c #3C321F",
"V  c #3D321F",
"C  c #3D331F",
"Z  c #3D3220",
"A  c #3E3220",
"S  c #3E3320",
"D  c #3E3420",
"F  c #3F3420",
"G  c #3F3521",
"H  c #403521",
"J  c #403621",
"K  c #413621",
"L  c #413622",
"P  c #413722",
"I  c #423622",
"U  c #423722",
"Y  c #433723",
"T  c #433822",
"R  c #433823",
"E  c #443923",
"W  c #453923",
"Q  c #453824",
"!  c #453A24",
"~  c #463A24",
"^  c #473B25",
"/  c #483C25",
"(  c #493C26",
")  c #493D26",
"_  c #4A3D26",
"`  c #4B3D27",
"'  c #4A3E26",
"]  c #4B3E27",
"[  c #4B3F27",
"{  c #4C3E27",
"}  c #4C3F27",
"|  c #4C4027",
" . c #4D4028",
".. c #4D4128",
"X. c #4E4028",
"o. c #4E4128",
"O. c #4F4129",
"+. c #4F4229",
"@. c #504329",
"#. c #51422A",
"$. c #51432A",
"%. c #51442A",
"&. c #52442A",
"*. c #52452A",
"=. c #53452B",
"-. c #53462B",
";. c #54462B",
":. c #55462C",
">. c #55472C",
",. c #56482C",
"<. c #57482D",
"1. c #57492D",
"2. c #58482D",
"3. c #58492D",
"4. c #594A2E",
"5. c #594B2E",
"6. c #5A4B2E",
"7. c #5A4B2F",
"8. c #5B4C2F",
"9. c #5D4D30",
"0. c #5D4E30",
"q. c #5E4E30",
"w. c #5E4E31",
"e. c #5E4F31",
"r. c #5F4F31",
"t. c #5F5031",
"y. c #605031",
"u. c #605032",
"i. c #615032",
"p. c #605132",
"a. c #615132",
"s. c #625232",
"d. c #625233",
"f. c #635333",
"g. c #645333",
"h. c #645434",
"j. c #655434",
"k. c #655534",
"l. c #655535",
"z. c #665535",
"x. c #665537",
"c. c #665636",
"v. c #665637",
"b. c #675738",
"n. c #685839",
"m. c #68583A",
"M. c #68593A",
"N. c #69593B",
"B. c #695A3C",
"V. c #6A5A3D",
"C. c #6A5B3D",
"Z. c #6A5B3E",
"A. c #6B5C3F",
"S. c None",
/* pixels */
"S.S.S.S.S.S.S.S.S.S.S.S.S.S.S.S.S.S.S.S.S.S.S.S.S.S.S.S.S.S.S.S.S.S.S.S.S.S.S.S.S.S.S.S.S.S.S.S.S.S.S.S.S.S.S.S.S.S.S.S.S.S.S.S.",
"S.S.S.S.S.S.S.S.S.S.S.S.S.S.S.S.S.S.S.S.S.S.S.S.S.S.S.S.S.S.S.S.S.S.S.S.S.S.S.S.S.S.S.S.S.S.S.S.S.S.S.S.S.S.S.S.S.S.S.S.S.S.S.S.",
"S.S.S.S.S.S.S.S.S.S.S.S.S.S.S.S.S.S.S.S.S.S.S.S.S.S.S.S.S.S.S.S.S.S.S.S.S.S.S.S.S.S.S.S.S.S.S.S.S.S.S.S.S.S.S.S.S.S.S.S.S.S.S.S.",
"S.S.S.S.S.S.S.S.S.S.S.S.S.S.S.S.S.S.S.S.S.S.S.S.S.S.S.S.S.S.S.S.S.S.S.S.S.S.S.S.S.S.S.S.S.S.S.S.S.S.S.S.S.S.S.S.S.S.S.S.S.S.S.S.",
"S.S.S.S.S.S.S.S.S.S.S.S.S.S.S.S.S.S.S.S.S.S.S.S.S.S.u.k.k.g.g.x.S.S.S.S.S.S.S.S.S.S.S.S.S.S.S.S.S.S.S.S.S.S.S.S.S.S.S.S.S.S.S.S.",
"S.S.S.S.S.S.S.S.S.S.S.S.S.S.S.S.S.S.S.S.S.S.S.d.k.u.u.d.k.k.x.b.k.S.S.S.S.S.S.S.S.S.S.S.S.S.S.S.S.S.S.S.S.S.S.S.S.S.S.S.S.S.S.S.",
"S.S.S.S.S.S.S.S.S.S.S.S.S.S.S.S.S.S.S.S.S.S.d.t.r.S.S.S.) u.k.k.k.k.@.o.S.S.S.S.S.S.S.S.S.S.S.S.S.S.S.S.S.S.S.S.S.S.S.S.S.S.S.S.",
"S.S.S.S.S.S.S.S.S.S.S.S.S.S.S.S.S.S.S.S.S.S.9.S.S.S.S.o.@.@.u.k.k.b.>.@.o.S.S.S.S.S.S.S.S.S.S.S.S.S.S.S.S.S.S.S.S.S.S.S.S.S.S.S.",
"S.S.S.S.S.S.S.S.S.S.S.S.S.S.S.S.S.S.S.S.S.S.S.S.S.S.S.o.&.%.o.r.k.b.x.@.@.@.S.S.S.S.S.S.S.S.S.S.S.S.S.S.S.S.S.S.S.S.S.S.S.S.S.S.",
"S.S.S.S.S.S.S.S.S.S.S.S.S.S.S.S.S.S.S.S.S.S.S.S.S.S.o.@.+.o.o.o.d.Z.k.@.@.o.S.S.S.S.S.S.S.S.S.S.S.S.S.S.S.S.S.S.S.S.S.S.S.S.S.S.",
"S.S.S.S.S.S.S.S.S.S.S.S.S.S.S.S.S.S.S.S.S.S.S.S.) o.o.o.o.R F F J m.V.x.>.o.) S.S.S.S.S.S.S.S.S.S.S.S.S.S.S.S.S.S.S.S.S.S.S.S.S.",
"S.S.S.S.S.S.S.S.S.S.S.S.S.S.S.S.S.S.S.S.S.S.S.} o.o.o.o.J Z c c N r.V.V.4.@.@.S.S.S.S.S.S.S.S.S.S.S.S.S.S.S.S.S.S.S.S.S.S.S.S.S.",
"S.S.S.S.S.S.S.S.S.S.S.S.S.S.S.S.S.S.S.S.S.S.S.&.&.o.F Z m Z m Z m J k.Z.9.o.@.) S.S.S.S.S.S.S.S.S.S.S.S.S.S.S.S.S.S.S.S.S.S.S.S.",
"S.S.S.S.S.S.S.S.S.S.S.S.S.S.S.S.S.S.S.S.S.S.S.o.o.J Z Z Z c Z m Z c t.Z.k.%.o.@.o.S.S.S.S.S.S.S.S.S.S.S.S.S.S.S.S.S.S.S.S.S.S.S.",
"S.S.S.S.S.S.S.S.S.S.S.S.S.S.S.S.S.S.S.S.S.S.) &.) F c Z Z m m Z c m J u.V.o.] o.o.S.S.S.S.S.S.S.S.S.S.S.S.S.S.S.S.S.S.S.S.S.S.S.",
"S.S.S.S.S.S.S.S.S.S.S.S.S.S.S.S.S.S.S.S.S.S.o.o.F m Z m c m Z Z t c c r.m.k.~ ] @.) S.S.S.S.S.S.S.S.S.S.S.S.S.S.S.S.S.S.S.S.S.S.",
"S.S.S.S.S.S.S.S.S.S.S.S.S.S.S.S.S.S.S.S.S.o.o.J Z N m Z m c m t t t t Z u.u.J ] @.o.o.S.9.S.S.S.S.S.S.S.S.S.S.S.S.S.S.S.S.S.S.S.",
"S.S.S.S.S.S.S.S.S.S.S.S.S.S.S.S.S.4.S.S.S.@.o.F J W Z m Z t t t t r r r o.~ Z Z } @.@.S.r.S.S.S.S.S.S.S.S.S.S.S.S.S.S.S.S.S.S.S.",
"S.S.S.S.S.S.S.S.S.S.S.S.S.S.S.S.S.S.S.S.} @.o.J u.k.J m Z t t t t t 6 > q c N m } @.@.S.r.S.S.S.S.S.S.S.S.S.S.S.S.S.S.S.S.S.S.S.",
"S.S.S.S.S.S.S.S.S.S.S.S.S.S.S.S.S.S.S.S.@.@.@.u.V.m.J m t t t t t 0 6 , 3 3 h N } o.@.S.r.S.S.S.S.S.S.S.S.S.S.S.S.S.S.S.S.S.S.S.",
"S.S.S.S.S.S.S.S.S.S.S.S.S.S.S.S.S.S.S.S.@.@.&.m.V.~ N c t t t t 0 3 3 6 > 0 h m Z } @.S.r.S.S.S.S.S.S.S.S.S.S.S.S.S.S.S.S.S.S.S.",
"S.S.S.S.S.S.S.S.S.S.S.S.S.S.S.S.S.S.S.S.@.&.u.V.k.J N c t t t r 6 , 3 , > 6 h m N } @.S.r.S.S.S.S.S.S.S.S.S.S.S.S.S.S.S.S.S.S.S.",
"S.S.S.S.S.S.S.S.S.S.S.S.S.S.S.S.S.S.S.S.&.k.V.V.W m c t t t t 6 3 3 > 3 6 > 6 h Z } @.S.r.S.S.S.S.S.S.S.S.S.S.S.S.S.S.S.S.S.S.S.",
"S.S.S.S.S.S.S.S.S.S.S.S.S.S.S.S.S.S.S.| &.k.m.W m N c t r t t 3 3 3 , - & & * f Z } @.o.d.k.S.S.S.S.S.S.S.S.S.S.S.S.S.S.S.S.S.S.",
"S.S.S.S.S.S.S.S.S.S.S.S.S.S.S.S.S.S.S.@.&.A.m.R m Z c t t t t 0 3 > - & - - % d m F ] @.t.k.S.S.S.S.S.S.S.S.S.S.S.S.S.S.S.S.S.S.",
"S.S.S.S.S.S.S.S.S.S.S.S.S.S.S.S.S.S.S.o.>.Z.W m Z m c t t t t 3 3 , - & % & & d N C ~ @.r.k.S.S.S.S.S.S.S.S.S.S.S.S.S.S.S.S.S.S.",
"S.S.S.S.S.S.S.S.S.S.S.S.S.S.S.S.S.S.S.&.A.V.R Z N m c t t t 7 , , > - & & + + r m N ] @.r.k.S.S.S.S.S.S.S.S.S.S.S.S.S.S.S.S.S.S.",
"S.S.S.S.S.S.S.S.S.S.S.S.S.S.S.S.S.S.@.&.A.t.J c m m t t t t 7 , 3 - & - + . + r m c ] @.t.k.S.S.S.S.S.S.S.S.S.S.S.S.S.S.S.S.S.S.",
"S.S.S.S.S.S.S.S.S.S.S.S.S.S.S.S.S.S.o.&.V.J m Z Z c t t t t 7 3 3 & & - + . . # h N ] o.u.b.S.S.S.S.S.S.S.S.S.S.S.S.S.S.S.S.S.S.",
"S.S.S.S.S.S.S.S.S.S.S.S.S.S.S.S.S.S.S.m.m.m Z m m m f t t t 0 3 , - & & + . . + t N ] @.u.k.S.S.S.S.S.S.S.S.S.S.S.S.S.S.S.S.S.S.",
"S.S.S.S.S.S.S.S.S.S.S.S.S.S.S.S.S.S.r.A.u.m Z Z Z m t t t t 0 , 3 & & - o . . . p Z ] 7.x.g.S.S.S.S.S.S.S.S.S.S.S.S.S.S.S.S.S.S.",
"S.S.S.S.S.S.S.S.S.S.S.S.S.S.S.S.S.S.k.V.J m Z c c c t t t t 0 , , - & & + . . o t N ~ r.k.k.S.S.S.S.S.S.S.S.S.S.S.S.S.S.S.S.S.S.",
"S.S.S.S.S.S.S.S.S.S.S.S.S.S.S.S.S.S.k.V.m c c Z Z m f t t t 3 3 3 % % - O . . # t Z F 8.k.h.S.S.S.S.S.S.S.S.S.S.S.S.S.S.S.S.S.S.",
"S.S.S.S.S.S.S.S.S.S.S.S.S.S.S.S.S.S.V.Z.Z v Z m m N t t t t 6 , 3 - - & + . . w m Z F t.b.S.S.S.S.S.S.S.S.S.S.S.S.S.S.S.S.S.S.S.",
"S.S.S.S.S.S.S.S.S.S.S.S.S.S.S.S.S.S.V.Z.Z m c Z Z c t t t t 7 , , = - % + . . t m F &.V.b.S.S.S.S.S.S.S.S.S.S.S.S.S.S.S.S.S.S.S.",
"S.S.S.S.S.S.S.S.S.S.S.S.S.S.S.S.S.S.k.V.] Z Z Z m m t t t t 0 0 3 3 % - & + # d m F 1.V.b.S.S.S.S.S.S.S.S.S.S.S.S.S.S.S.S.S.S.S.",
"S.S.S.S.S.S.S.S.S.S.S.S.S.S.S.S.S.S.k.V.o.Z v m Z c t t t t 0 > 3 6 = & & % & d c Z r.V.b.S.S.S.S.S.S.S.S.S.S.S.S.S.S.S.S.S.S.S.",
"S.S.S.S.S.S.S.S.S.S.S.S.S.S.S.S.S.S.k.Z.o.Z c c m c t t t t 3 > , 3 & = - & = d Z r.b.m.4.S.S.S.S.S.S.S.S.S.S.S.S.S.S.S.S.S.S.S.",
"S.S.S.S.S.S.S.S.S.S.S.S.S.S.S.S.S.S.k.V.%.o.F c Z m f t t t 0 , 3 , = & * & * f Z k.Z.k.S.S.S.S.S.S.S.S.S.S.S.S.S.S.S.S.S.S.S.S.",
"S.S.S.S.S.S.S.S.S.S.S.S.S.S.S.S.S.S.x.&.o.o.F Z m Z t t t t 7 6 , 6 , = * * = d Z k.m.4.S.S.S.S.S.S.S.S.S.S.S.S.S.S.S.S.S.S.S.S.",
"S.S.S.S.S.S.S.S.S.S.S.S.S.S.S.S.S.r.k.@.@.@.F Z m c t t t t t , 3 3 , > , , 3 c u.V.8.&.S.S.S.S.S.S.S.S.S.S.S.S.S.S.S.S.S.S.S.S.",
"S.S.S.S.S.S.S.S.S.S.S.S.S.S.S.S.S.u.k.S.@.o.F m Z c c t t t t 0 3 6 6 3 3 , h r.Z.k.4.| S.S.S.S.S.S.S.S.S.S.S.S.S.S.S.S.S.S.S.S.",
"S.S.S.S.S.S.S.S.S.S.S.S.S.S.S.S.S.k.k.S.%.o.J Z m c m t t t t 0 3 3 6 > 0 0 4.V.V.k.,.S.S.S.S.S.S.S.S.S.S.S.S.S.S.S.S.S.S.S.S.S.",
"S.S.S.S.S.S.S.S.S.S.S.S.S.S.S.S.S.u.u.S.&.+.o.F Z m Z m t t t t 6 3 , > > @.V.A.k.>.@.S.S.S.S.S.S.S.S.S.S.S.S.S.S.S.S.S.S.S.S.S.",
"S.S.S.S.S.S.S.S.S.S.S.S.S.S.S.S.S.f.f.S.+.&.o.R N N N m t t t t 6 > > > 0 0 4.V.x.&.@.S.S.S.S.S.S.S.S.S.S.S.S.S.S.S.S.S.S.S.S.S.",
"S.S.S.S.S.S.S.S.S.S.S.S.S.S.S.S.S.u.f.S.o.+.o.+.r.] N m f t t t 0 6 6 0 > f N 4.W | @.S.S.S.S.S.S.S.S.S.S.S.S.S.S.S.S.S.S.S.S.S.",
"S.S.S.S.S.S.S.S.S.S.S.S.S.S.S.S.S.u.h.S.S.&.&.&.k.u.J m c t t t r > 6 > 0 h N J ] @.@.S.S.S.S.S.S.S.S.S.S.S.S.S.S.S.S.S.S.S.S.S.",
"S.S.S.S.S.S.S.S.S.S.S.S.S.S.S.S.S.u.h.S.S.+.+.o.} k.~ N N m t t r r 6 > 6 h N ] o.@.o.S.S.S.S.S.S.S.S.S.S.S.S.S.S.S.S.S.S.S.S.S.",
"S.S.S.S.S.S.S.S.S.S.S.S.S.S.S.S.S.u.k.S.S.S.o.@.@.b.d.J N c t t t t w 0 t m ] o.@.@.S.S.S.S.S.S.S.S.S.S.S.S.S.S.S.S.S.S.S.S.S.S.",
"S.S.S.S.S.S.S.S.S.S.S.S.S.S.S.S.S.r.u.S.S.S.o.@.&.1.k.~ N m f t t r c c m m ] @.@.o.S.S.S.S.S.S.S.S.S.S.S.S.S.S.S.S.S.S.S.S.S.S.",
"S.S.S.S.S.S.S.S.S.S.S.S.S.S.S.S.S.S.d.S.S.S.@.o.@.&.d.x.W N m t t m N m N F | &.@.S.S.S.S.m.S.S.S.S.S.S.S.S.S.S.S.S.S.S.S.S.S.S.",
"S.S.S.S.S.S.S.S.S.S.S.S.S.S.S.S.S.S.r.S.S.S.o.@.o.@.;.b.m.] Z N m m m C ] o.o.o.o.S.S.S.u.m.S.S.S.S.S.S.S.S.S.S.S.S.S.S.S.S.S.S.",
"S.S.S.S.S.S.S.S.S.S.S.S.S.S.S.S.S.S.S.S.S.S.S.o.@.@.&.d.A.k.~ | J Z Z o.@.&.o.] S.S.S.S.k.S.S.S.S.S.S.S.S.S.S.S.S.S.S.S.S.S.S.S.",
"S.S.S.S.S.S.S.S.S.S.S.S.S.S.S.S.S.S.S.S.S.S.S.S.( o.@.1.V.A.k.&.o.o.o.@.o.&.] S.S.S.4.S.S.S.S.S.S.S.S.S.S.S.S.S.S.S.S.S.S.S.S.S.",
"S.S.S.S.S.S.S.S.S.S.S.S.S.S.S.S.S.S.S.S.S.S.S.S.S.o.@.%.k.Z.m.&.@.@.@.@.&.| S.S.S.d.k.S.S.S.S.S.S.S.S.S.S.S.S.S.S.S.S.S.S.S.S.S.",
"S.S.S.S.S.S.S.S.S.S.S.S.S.S.S.S.S.S.S.S.S.S.S.S.S.S.o.@.&.u.V.V.k.g.&.o.r.k.u.u.u.d.S.S.S.S.S.S.S.S.S.S.S.S.S.S.S.S.S.S.S.S.S.S.",
"S.S.S.S.S.S.S.S.S.S.S.S.S.S.S.S.S.S.S.S.S.S.S.S.S.S.S.o.o.d.k.V.k.k.x.g.k.x.g.k.d.S.S.S.S.S.S.S.S.S.S.S.S.S.S.S.S.S.S.S.S.S.S.S.",
"S.S.S.S.S.S.S.S.S.S.S.S.S.S.S.S.S.S.S.S.S.S.S.S.S.S.S.S.} S.u.k.k.b.x.k.k.x.g.S.S.S.S.S.S.S.S.S.S.S.S.S.S.S.S.S.S.S.S.S.S.S.S.S.",
"S.S.S.S.S.S.S.S.S.S.S.S.S.S.S.S.S.S.S.S.S.S.S.S.S.S.S.S.S.S.S.u.k.k.x.k.k.g.S.S.S.S.S.S.S.S.S.S.S.S.S.S.S.S.S.S.S.S.S.S.S.S.S.S.",
"S.S.S.S.S.S.S.S.S.S.S.S.S.S.S.S.S.S.S.S.S.S.S.S.S.S.S.S.S.S.S.S.S.4.k.k.x.u.S.S.S.S.S.S.S.S.S.S.S.S.S.S.S.S.S.S.S.S.S.S.S.S.S.S.",
"S.S.S.S.S.S.S.S.S.S.S.S.S.S.S.S.S.S.S.S.S.S.S.S.S.S.S.S.S.S.S.S.S.S.S.S.S.S.S.S.S.S.S.S.S.S.S.S.S.S.S.S.S.S.S.S.S.S.S.S.S.S.S.S.",
"S.S.S.S.S.S.S.S.S.S.S.S.S.S.S.S.S.S.S.S.S.S.S.S.S.S.S.S.S.S.S.S.S.S.S.S.S.S.S.S.S.S.S.S.S.S.S.S.S.S.S.S.S.S.S.S.S.S.S.S.S.S.S.S.",
"S.S.S.S.S.S.S.S.S.S.S.S.S.S.S.S.S.S.S.S.S.S.S.S.S.S.S.S.S.S.S.S.S.S.S.S.S.S.S.S.S.S.S.S.S.S.S.S.S.S.S.S.S.S.S.S.S.S.S.S.S.S.S.S.",
"S.S.S.S.S.S.S.S.S.S.S.S.S.S.S.S.S.S.S.S.S.S.S.S.S.S.S.S.S.S.S.S.S.S.S.S.S.S.S.S.S.S.S.S.S.S.S.S.S.S.S.S.S.S.S.S.S.S.S.S.S.S.S.S."
};
