/* XPM */
static char *cG9ydGFsLTc_[] = {
/* columns rows colors chars-per-pixel */
"64 64 168 2 ",
"   c #100E08",
".  c #110E09",
"X  c #110F09",
"o  c #120F09",
"O  c #13100A",
"+  c #15110B",
"@  c #15120B",
"#  c #19150D",
"$  c #1A160E",
"%  c #1B170E",
"&  c #1C180E",
"*  c #1C180F",
"=  c #1D180F",
"-  c #1D190F",
";  c #231C12",
":  c #231D12",
">  c #231E12",
",  c #241E12",
"<  c #241E13",
"1  c #251E13",
"2  c #251F13",
"3  c #261F13",
"4  c #261F14",
"5  c #262013",
"6  c #262014",
"7  c #272014",
"8  c #272114",
"9  c #282114",
"0  c #282115",
"q  c #282215",
"w  c #292315",
"e  c #2C2517",
"r  c #2D2617",
"t  c #2E2618",
"y  c #2E2718",
"u  c #2F2718",
"i  c #2F2818",
"p  c #302819",
"a  c #312819",
"s  c #302919",
"d  c #312919",
"f  c #32281A",
"g  c #32291A",
"h  c #322A1A",
"j  c #332A1A",
"k  c #332B1A",
"l  c #342B1B",
"z  c #342C1B",
"x  c #352C1B",
"c  c #362C1C",
"v  c #362D1C",
"b  c #372D1C",
"n  c #372E1C",
"m  c #382E1D",
"M  c #392F1D",
"N  c #392E1E",
"B  c #3A2F1E",
"V  c #39301E",
"C  c #3A301E",
"Z  c #3B301E",
"A  c #3A311E",
"S  c #3B311F",
"D  c #3C311F",
"F  c #3C321F",
"G  c #3D321F",
"H  c #3D331F",
"J  c #3D3220",
"K  c #3E3320",
"L  c #3E3420",
"P  c #3F3420",
"I  c #3F3521",
"U  c #403421",
"Y  c #403521",
"T  c #403621",
"R  c #413621",
"E  c #413622",
"W  c #413722",
"Q  c #423622",
"!  c #423722",
"~  c #443723",
"^  c #433822",
"/  c #433823",
"(  c #443823",
")  c #443923",
"_  c #453923",
"`  c #453924",
"'  c #453A24",
"]  c #463A24",
"[  c #473B25",
"{  c #483C25",
"}  c #493C26",
"|  c #493D26",
" . c #4A3D26",
".. c #4B3D27",
"X. c #4A3E26",
"o. c #4B3E27",
"O. c #4B3F27",
"+. c #4C3E27",
"@. c #4C3F27",
"#. c #4D3F28",
"$. c #4C4027",
"%. c #4D4028",
"&. c #4D4128",
"*. c #4E4028",
"=. c #4E4128",
"-. c #4F4129",
";. c #4F4229",
":. c #504229",
">. c #504329",
",. c #51422A",
"<. c #51432A",
"1. c #51442A",
"2. c #52442A",
"3. c #52452A",
"4. c #53452B",
"5. c #53462B",
"6. c #54462B",
"7. c #55472C",
"8. c #56472C",
"9. c #56482C",
"0. c #57482D",
"q. c #57492D",
"w. c #58492D",
"e. c #584A2E",
"r. c #594A2E",
"t. c #594B2E",
"y. c #5A4B2F",
"u. c #5B4B2F",
"i. c #5B4C2F",
"p. c #5C4D2F",
"a. c #5C4D30",
"s. c #5D4D30",
"d. c #5D4E30",
"f. c #5E4E30",
"g. c #5E4E31",
"h. c #5E4F31",
"j. c #5F4F31",
"k. c #5F5031",
"l. c #605031",
"z. c #605032",
"x. c #605132",
"c. c #615132",
"v. c #625232",
"b. c #625233",
"n. c #635333",
"m. c #645333",
"M. c #655334",
"N. c #645434",
"B. c #655434",
"V. c #655534",
"C. c #655535",
"Z. c #665535",
"A. c #665636",
"S. c #665637",
"D. c #675637",
"F. c #675737",
"G. c #675738",
"H. c #685839",
"J. c #68583A",
"K. c #68593A",
"L. c #69593B",
"P. c #695A3C",
"I. c #6A5A3D",
"U. c #6A5B3D",
"Y. c #6A5B3E",
"T. c #6B5C3F",
"R. c #6B5C40",
"E. c None",
/* pixels */
"E.E.E.E.E.E.E.E.E.E.E.E.E.E.E.E.E.E.E.E.E.E.E.E.E.E.E.E.E.E.E.E.E.E.E.E.E.E.E.E.E.E.E.E.E.E.E.E.E.E.E.E.E.E.E.E.E.E.E.E.E.E.E.E.",
"E.E.E.E.E.E.E.E.E.E.E.E.E.E.E.E.E.E.E.E.E.E.E.E.E.E.E.E.E.E.E.E.E.E.E.E.E.E.E.E.E.E.E.E.E.E.E.E.E.E.E.E.E.E.E.E.E.E.E.E.E.E.E.E.",
"E.E.E.E.E.E.E.E.E.E.E.E.E.E.E.E.E.E.E.E.E.E.E.E.E.E.E.E.E.E.E.E.E.E.E.E.E.E.E.E.E.E.E.E.E.E.E.E.E.E.E.E.E.E.E.E.E.E.E.E.E.E.E.E.",
"E.E.E.E.E.E.E.E.E.E.E.E.E.E.E.E.E.E.E.E.E.E.E.E.E.E.E.E.E.E.E.E.E.E.E.E.E.E.E.E.E.E.E.E.E.E.E.E.E.E.E.E.E.E.E.E.E.E.E.E.E.E.E.E.",
"E.E.E.E.E.E.E.E.E.E.E.E.E.E.E.E.E.E.E.E.E.E.E.E.E.E.E.E.E.E.E.E.E.E.E.E.E.E.E.E.E.E.E.E.E.E.E.E.E.E.E.E.E.E.E.E.E.E.E.E.E.E.E.E.",
"E.E.E.E.E.E.E.E.E.E.E.E.E.E.E.E.E.E.E.E.E.E.E.E.E.r.a.a.a.E.E.E.E.E.E.E.E.E.E.E.E.E.E.E.E.E.E.E.E.E.E.E.E.E.E.E.E.E.E.E.E.E.E.E.",
"E.E.E.E.E.E.E.E.E.E.E.E.E.E.E.E.E.E.E.E.E.E.E.d.d.V.V.V.V.d.#.| | | | E.E.E.E.E.E.E.E.E.E.E.E.E.E.E.E.E.E.E.E.E.E.E.E.E.E.E.E.E.",
"E.E.E.E.E.E.E.E.E.E.E.E.E.E.E.E.E.E.E.E.E.E.d.V.V.V.V.G.U.G.M.V.1.1.;.#.E.E.E.E.E.E.E.E.E.E.E.E.E.E.E.E.E.E.E.E.E.E.E.E.E.E.E.E.",
"E.E.E.E.E.E.E.E.E.E.E.E.E.E.E.E.E.E.E.E.E.E.v.V.v.E.1.v.V.U.R.V.1.1.:.1.;.E.E.E.E.E.6.E.E.E.E.E.E.E.E.E.E.E.E.E.E.E.E.E.E.E.E.E.",
"E.E.E.E.E.E.E.E.E.E.E.E.E.E.E.E.E.E.E.E.E.V.v.E.E.$.;.1.:.v.T.T.V.V.:.:.;.E.E.E.E.E.E.E.E.E.E.E.E.E.E.E.E.E.E.E.E.E.E.E.E.E.E.E.",
"E.E.E.E.E.E.E.E.E.E.E.E.E.E.E.E.E.E.E.E.k.p.E.E.E.;.1.;.;.;.k.H.T.G.1.1.:.1.;.E.E.E.E.E.E.E.E.E.E.E.E.E.E.E.E.E.E.E.E.E.E.E.E.E.",
"E.E.E.E.E.E.E.E.E.E.E.E.E.E.E.E.E.E.E.E.E.E.E.E.E.| :.@.E S S p.U.R.V.:.$.;.;.$.E.E.E.E.E.E.E.E.E.E.E.E.E.E.E.E.E.E.E.E.E.E.E.E.",
"E.E.E.E.E.E.E.E.E.E.E.E.E.E.E.E.E.E.E.E.E.E.E.E.@.;.;.| H G G S j.U.V.U K | :.1.:.E.E.E.E.E.E.E.E.E.E.E.E.E.E.E.E.E.E.E.E.E.E.E.",
"E.E.E.E.E.E.E.E.E.E.E.E.E.E.E.E.E.E.E.E.E.E.E.;.;.;.E K G S S S E J.U.v.` | ;.1.;.E.E.i.E.E.E.E.E.E.E.E.E.E.E.E.E.E.E.E.E.E.E.E.",
"E.E.E.E.E.E.E.E.E.E.E.E.E.E.E.E.E.E.E.E.E.E.E.;.;.E G S G S S S S ( T.H.` G @.:.;.;.E.i.E.E.E.E.E.E.E.E.E.E.E.E.E.E.E.E.E.E.E.E.",
"E.E.E.E.E.E.E.E.E.E.E.E.E.E.E.E.E.E.E.E.E.E.| ;.$.P S S M S S k p p V.H.| G | :.:.;.E.i.E.E.E.E.E.E.E.E.E.E.E.E.E.E.E.E.E.E.E.E.",
"E.E.E.E.E.E.E.E.E.E.E.E.E.E.E.E.E.E.E.E.E.E.;.#.E S S G S B z d p p B d.E B K | ;.;.E.r.E.E.E.E.E.E.E.E.E.E.E.E.E.E.E.E.E.E.E.E.",
"E.E.E.E.E.E.E.E.E.E.E.E.E.E.E.E.E.E.E.E.E.;.;.E G S S S G p p p p p r B M S S G #.;.E.a.E.E.E.E.E.E.E.E.E.E.E.E.E.E.E.E.E.E.E.E.",
"E.E.E.E.E.E.E.E.E.E.E.E.E.E.E.E.d.E.E.E.E.:.;.G S B S S S p p p p r 4 4 9 k S S | :.E.a.V.E.E.E.E.E.E.E.E.E.E.E.E.E.E.E.E.E.E.E.",
"E.E.E.E.E.E.E.E.E.E.E.E.E.E.E.E.p.E.E.E.E.:.;.P H S S B p p p p u 9 2 2 2 9 c K ;.;.;.d.V.E.E.E.E.E.E.E.E.E.E.E.E.E.E.E.E.E.E.E.",
"E.E.E.E.E.E.E.E.E.E.E.E.E.E.E.E.E.E.E.E.| ;.^ K 5.E S S p p i p 9 1 1 1 2 2 c K | ;.:.k.G.E.E.E.E.E.E.E.E.E.E.E.E.E.E.E.E.E.E.E.",
"E.E.E.E.E.E.E.E.E.E.E.E.E.E.E.E.E.E.E.E.1.;.E q.k.^ S B p p u p 9 1 2 7 2 2 9 x P ;.1.d.M.E.E.E.E.E.E.E.E.E.E.E.E.E.E.E.E.E.E.E.",
"E.E.E.E.E.E.E.E.E.E.E.E.E.E.E.E.E.E.E.E.1.:.E V.H.( S x p p p 9 2 2 2 2 2 2 7 x G @.:.k.V.E.E.E.E.E.E.E.E.E.E.E.E.E.E.E.E.E.E.E.",
"E.E.E.E.E.E.E.E.E.E.E.E.E.E.E.E.E.E.E.;.:.:.d.H.` K B p p p p 7 2 2 2 = & & 2 z G @.1.d.V.E.E.E.E.E.E.E.E.E.E.E.E.E.E.E.E.E.E.E.",
"E.E.E.E.E.E.E.E.E.E.E.E.E.E.E.E.E.E.E.;.:.:.n.J.~ B B p p p p 9 2 2 * % % % u Z S @.:.d.V.E.E.E.E.E.E.E.E.E.E.E.E.E.E.E.E.E.E.E.",
"E.E.E.E.E.E.E.E.E.E.E.E.E.E.E.E.E.E.E.;.:.V.U.H.^ J B p p p p 9 2 2 % % % % = c K | ;.d.V.n.E.E.E.E.E.E.E.E.E.E.E.E.E.E.E.E.E.E.",
"E.E.E.E.E.E.E.E.E.E.E.E.E.E.E.E.E.E.E.:.1.V.H.` S S B p p p 8 2 2 1 % % * * + u G K | d.V.V.E.E.E.E.E.E.E.E.E.E.E.E.E.E.E.E.E.E.",
"E.E.E.E.E.E.E.E.E.E.E.E.E.E.E.E.E.E.E.1.1.T.U.( S S S p u u 8 2 2 & % % %     + p K | d.V.M.E.E.E.E.E.E.E.E.E.E.E.E.E.E.E.E.E.E.",
"E.E.E.E.E.E.E.E.E.E.E.E.E.E.E.E.E.E.| 1.v.U.;.G S S z p p p 8 2 1 * # * % o   o p K P r.V.7.E.E.E.E.E.E.E.E.E.E.E.E.E.E.E.E.E.E.",
"E.E.E.E.E.E.E.E.E.E.E.E.E.E.E.E.E.E.;.1.V.U.` S S B k p p p 8 2 1 * # # o     o p K K r.V.E.E.E.E.E.E.E.E.E.E.E.E.E.E.E.E.E.E.E.",
"E.E.E.E.E.E.E.E.E.E.E.E.E.E.E.E.E.E.@.1.U.U.` B S B p p p p 8 8 1 % * * o     o p K ;.v.V.E.E.E.E.E.E.E.E.E.E.E.E.E.E.E.E.E.E.E.",
"E.E.E.E.E.E.E.E.E.E.E.E.E.E.E.E.E.E.E.1.R.H.~ K S S p p p p 9 2 1 % * * +     o p S E a.U.E.E.E.E.E.E.E.E.E.E.E.E.E.E.E.E.E.E.E.",
"E.E.E.E.E.E.E.E.E.E.E.E.E.E.E.E.E.E.E.v.H.( G S S S k k p p 8 2 1 % % %         k K :.v.U.E.E.E.E.E.E.E.E.E.E.E.E.E.E.E.E.E.E.E.",
"E.E.E.E.E.E.E.E.E.E.E.E.E.E.E.E.E.E.E.V.T.S S S S S p p p i 8 8 1 % % % o     + p P q.U.H.E.E.E.E.E.E.E.E.E.E.E.E.E.E.E.E.E.E.E.",
"E.E.E.E.E.E.E.E.E.E.E.E.E.E.E.E.E.E.E.T.H.S S S S S p p p p 7 2 1 = % % O   O u B G 6.U.V.E.E.E.E.E.E.E.E.E.E.E.E.E.E.E.E.E.E.E.",
"E.E.E.E.E.E.E.E.E.E.E.E.E.E.E.E.E.E.k.T.J.S S S S S p p p p 7 2 1 = % % # O O g J K r.T.a.E.E.E.E.E.E.E.E.E.E.E.E.E.E.E.E.E.E.E.",
"E.E.E.E.E.E.E.E.E.E.E.E.E.E.E.E.E.E.V.T.H.S S S S S p i p p 9 2 1 > % % * # # p J K a.R.i.E.E.E.E.E.E.E.E.E.E.E.E.E.E.E.E.E.E.E.",
"E.E.E.E.E.E.E.E.E.E.E.E.E.E.E.E.E.E.V.T.H.S S S S S p p p p 9 2 1 1 % % % % % z K q.G.J.q.E.E.E.E.E.E.E.E.E.E.E.E.E.E.E.E.E.E.E.",
"E.E.E.E.E.E.E.E.E.E.E.E.E.E.E.E.E.E.N.T.V.S S S S S p p p p 2 2 1 1 > % % % % x q.H.T.d.( E.E.E.E.E.E.E.E.E.E.E.E.E.E.E.E.E.E.E.",
"E.E.E.E.E.E.E.E.E.E.E.E.E.E.E.E.E.E.N.T.m.$.G S S S z p p u 9 2 < 7 1 > = % * x d.U.H.q.E.E.E.E.E.E.E.E.E.E.E.E.E.E.E.E.E.E.E.E.",
"E.E.E.E.E.E.E.E.E.E.E.E.E.E.E.E.E.E.V.R.U.;.E S S S d d d r 8 2 1 7 > 1 < > 1 5.U.U.d.5.E.E.E.E.E.E.E.E.E.E.E.E.E.E.E.E.E.E.E.E.",
"E.E.E.E.E.E.E.E.E.E.E.E.E.E.E.E.E.E.E.V.U.#.P S S B d u p p 8 2 7 > 7 1 < 7 :.H.U.V.q.;.E.E.E.E.E.E.E.E.E.E.E.E.E.E.E.E.E.E.E.E.",
"E.E.E.E.E.E.E.E.E.E.E.E.E.E.E.E.E.E.E.N.:.;.;.K S S p p p p d 8 > 7 > 1 7 1 S P d.` | :.E.E.E.E.E.E.E.E.E.E.E.E.E.E.E.E.E.E.E.E.",
"E.E.E.E.E.E.E.E.E.E.E.E.E.E.E.E.E.E.E.V.;.;.;.K S G S p p p p 9 1 1 > 7 < 7 x J K ;.;.:.E.E.E.E.E.E.E.E.E.E.E.E.E.E.E.E.E.E.E.E.",
"E.E.E.E.E.E.E.E.E.E.E.E.E.E.E.E.E.E.E.n.:.;.;.P S S S p p p p r 1 7 > 7 > 7 x K J | 1.;.E.E.E.E.E.E.E.E.E.E.E.E.E.E.E.E.E.E.E.E.",
"E.E.E.E.E.E.E.E.E.E.E.E.E.E.E.E.E.E.E.V.:.1.:.| P S S z p p p p e 7 7 1 1 1 x S { ;.:.^ E.E.E.E.E.E.E.E.E.E.E.E.E.E.E.E.E.E.E.E.",
"E.E.E.E.E.E.E.E.E.E.E.E.E.E.E.E.E.E.E.V.k.;.;.;.G S S S z p p p i 7 < 1 7 p S G #.1.:.E.E.E.E.E.E.E.E.E.E.E.E.E.E.E.E.E.E.E.E.E.",
"E.E.E.E.E.E.E.E.E.E.E.E.E.E.E.E.E.E.E.V.v.;.;.;.P S G S S p p p i u 7 > 2 x S S | 1.1.E.E.E.E.E.E.E.E.E.E.E.E.E.E.E.E.E.E.E.E.E.",
"E.E.E.E.E.E.E.E.E.E.E.E.E.E.E.E.E.E.E.v.E.;.;.:.| E 6.E S p p p p p 9 3 p S J | ;.;.:.E.E.V.E.E.E.E.E.E.E.E.E.E.E.E.E.E.E.E.E.E.",
"E.E.E.E.E.E.E.E.E.E.E.E.E.E.E.E.E.E.E.k.E.E.;.;.;.( m.v.{ S k p p p z z S S { ;.;.;.| E.E.V.E.E.E.E.E.E.E.E.E.E.E.E.E.E.E.E.E.E.",
"E.E.E.E.E.E.E.E.E.E.E.E.E.E.E.E.E.E.E.v.E.E.;.;.1.| $.V.V.^ M k B B S S S S o.;.:.E.E.E.E.E.E.E.E.E.E.E.E.E.E.E.E.E.E.E.E.E.E.E.",
"E.E.E.E.E.E.E.E.E.E.E.E.E.E.E.E.E.E.E.n.r.E.E.;.:.;.;.r.J.( S S B B S B S { ;.;.1.E.E.q.E.E.E.E.E.E.E.E.E.E.E.E.E.E.E.E.E.E.E.E.",
"E.E.E.E.E.E.E.E.E.E.E.E.E.E.E.E.E.E.E.V.k.E.E.E.#.;.$.6.H.p.r.P G | S { o.;.;.;.` r.r.v.E.E.E.E.E.E.E.E.E.E.E.E.E.E.E.E.E.E.E.E.",
"E.E.E.E.E.E.E.E.E.E.E.E.E.E.E.E.E.E.E.v.E.E.E.E.$.:.1.1.9.H.H.p.G :.| >.-.-.;.a.d.V.V.V.E.E.E.E.E.E.E.E.E.E.E.E.E.E.E.E.E.E.E.E.",
"E.E.E.E.E.E.E.E.E.E.E.E.E.E.E.E.E.E.E.v.E.E.E.E.;.;.;.;.1.m.T.P.v.v.1.d.7.-.a.V.V.V.r.E.E.E.E.E.E.E.E.E.E.E.E.E.E.E.E.E.E.E.E.E.",
"E.E.E.E.E.E.E.E.E.E.E.E.E.E.E.E.E.E.E.E.E.E.E.E.E.;.:.1.>.6.m.T.R.U.H.Z.n.k.M.V.n.E.E.E.E.E.E.E.E.E.E.E.E.E.E.E.E.E.E.E.E.E.E.E.",
"E.E.E.E.E.E.E.E.E.E.E.E.E.E.E.E.E.E.E.E.E.E.E.E.E.E.E.;.;.1.5.V.Z.R.R.U.J.V.V.M.E.E.E.E.E.E.E.E.E.E.E.E.E.E.E.E.E.E.E.E.E.E.E.E.",
"E.E.E.E.E.E.E.E.E.E.E.E.E.E.E.E.E.E.E.E.E.E.E.E.E.E.E.E.o.:.:.n.V.G.V.J.V.V.V.j.E.E.E.E.E.E.E.E.E.E.E.E.E.E.E.E.E.E.E.E.E.E.E.E.",
"E.E.E.E.E.E.E.E.E.E.E.E.E.E.E.E.E.E.E.E.E.E.E.E.E.E.E.E.E.| E.E.V.V.V.G.G.V.E.E.E.E.E.E.E.E.E.E.E.E.E.E.E.E.E.E.E.E.E.E.E.E.E.E.",
"E.E.E.E.E.E.E.E.E.E.E.E.E.E.E.E.E.E.E.E.E.E.E.E.E.E.E.E.E.E.E.E.E.E.E.E.E.E.E.E.E.E.E.E.E.E.E.E.E.E.E.E.E.E.E.E.E.E.E.E.E.E.E.E.",
"E.E.E.E.E.E.E.E.E.E.E.E.E.E.E.E.E.E.E.E.E.E.E.E.E.E.E.E.E.E.E.E.E.E.E.E.E.E.E.E.E.E.E.E.E.E.E.E.E.E.E.E.E.E.E.E.E.E.E.E.E.E.E.E.",
"E.E.E.E.E.E.E.E.E.E.E.E.E.E.E.E.E.E.E.E.E.E.E.E.E.E.E.E.E.E.E.E.E.E.E.E.E.E.E.E.E.E.E.E.E.E.E.E.E.E.E.E.E.E.E.E.E.E.E.E.E.E.E.E.",
"E.E.E.E.E.E.E.E.E.E.E.E.E.E.E.E.E.E.E.E.E.E.E.E.E.E.E.E.E.E.E.E.E.E.E.E.E.E.E.E.E.E.E.E.E.E.E.E.E.E.E.E.E.E.E.E.E.E.E.E.E.E.E.E.",
"E.E.E.E.E.E.E.E.E.E.E.E.E.E.E.E.E.E.E.E.E.E.E.E.E.E.E.E.E.E.E.E.E.E.E.E.E.E.E.E.E.E.E.E.E.E.E.E.E.E.E.E.E.E.E.E.E.E.E.E.E.E.E.E."
};
