/* XPM */
static char *cG9ydGFsLTY_[] = {
/* columns rows colors chars-per-pixel */
"64 64 162 2 ",
"   c #100D08",
".  c #100E08",
"X  c #110E09",
"o  c #110F09",
"O  c #120F09",
"+  c #121009",
"@  c #13100A",
"#  c #13110A",
"$  c #14110A",
"%  c #19150D",
"&  c #1A160D",
"*  c #1A160E",
"=  c #1B160E",
"-  c #1B170E",
";  c #1C180E",
":  c #1C180F",
">  c #1D180F",
",  c #1D190F",
"<  c #1E190F",
"1  c #231D12",
"2  c #241E12",
"3  c #241E13",
"4  c #251E13",
"5  c #251F13",
"6  c #261F13",
"7  c #261F14",
"8  c #262013",
"9  c #262014",
"0  c #272014",
"q  c #272114",
"w  c #282114",
"e  c #282115",
"r  c #282215",
"t  c #292215",
"y  c #2C2517",
"u  c #2E2618",
"i  c #2E2718",
"p  c #2F2718",
"a  c #302819",
"s  c #302919",
"d  c #312919",
"f  c #312A19",
"g  c #32291A",
"h  c #322A1A",
"j  c #332A1A",
"k  c #332B1A",
"l  c #342B1B",
"z  c #342C1B",
"x  c #352C1B",
"c  c #362D1C",
"v  c #372D1C",
"b  c #372E1C",
"n  c #382E1D",
"m  c #382F1D",
"M  c #392F1D",
"N  c #392E1E",
"B  c #3A2F1E",
"V  c #39301E",
"C  c #3A301E",
"Z  c #3B301E",
"A  c #3A311E",
"S  c #3B311F",
"D  c #3C311F",
"F  c #3C321F",
"G  c #3D321F",
"H  c #3D331F",
"J  c #3D3220",
"K  c #3E3220",
"L  c #3E3320",
"P  c #3E3420",
"I  c #3F3420",
"U  c #3F3421",
"Y  c #3F3521",
"T  c #403421",
"R  c #403521",
"E  c #403621",
"W  c #413621",
"Q  c #413622",
"!  c #413722",
"~  c #423722",
"^  c #433723",
"/  c #433822",
"(  c #433823",
")  c #443823",
"_  c #443923",
"`  c #453923",
"'  c #453924",
"]  c #453A24",
"[  c #463A24",
"{  c #473B25",
"}  c #483C25",
"|  c #493C26",
" . c #493D26",
".. c #4A3D26",
"X. c #4B3E27",
"o. c #4B3F27",
"O. c #4C3F27",
"+. c #4D3F28",
"@. c #4C4027",
"#. c #4D4028",
"$. c #4D4128",
"%. c #4E4028",
"&. c #4E4128",
"*. c #4F4129",
"=. c #4F4229",
"-. c #504229",
";. c #504329",
":. c #51422A",
">. c #51432A",
",. c #51442A",
"<. c #52442A",
"1. c #52452A",
"2. c #53452B",
"3. c #53462B",
"4. c #54462B",
"5. c #55472C",
"6. c #56472C",
"7. c #56482C",
"8. c #57482D",
"9. c #57492D",
"0. c #58492D",
"q. c #584A2E",
"w. c #594A2E",
"e. c #594B2E",
"r. c #5A4B2E",
"t. c #5B4C2F",
"y. c #5C4D30",
"u. c #5D4D30",
"i. c #5D4E30",
"p. c #5E4E30",
"a. c #5E4E31",
"s. c #5E4F31",
"d. c #5F4F31",
"f. c #5F5031",
"g. c #605031",
"h. c #605032",
"j. c #605132",
"k. c #615132",
"l. c #625232",
"z. c #625233",
"x. c #635333",
"c. c #645333",
"v. c #645434",
"b. c #655434",
"n. c #655534",
"m. c #655535",
"M. c #665535",
"N. c #665636",
"B. c #665637",
"V. c #675637",
"C. c #675737",
"Z. c #675738",
"A. c #685839",
"S. c #68583A",
"D. c #68593A",
"F. c #69593B",
"G. c #695A3C",
"H. c #6A5A3D",
"J. c #6A5B3D",
"K. c #6A5B3E",
"L. c #6B5C3F",
"P. c None",
/* pixels */
"P.P.P.P.P.P.P.P.P.P.P.P.P.P.P.P.P.P.P.P.P.P.P.P.P.P.P.P.P.P.P.P.P.P.P.P.P.P.P.P.P.P.P.P.P.P.P.P.P.P.P.P.P.P.P.P.P.P.P.P.P.P.P.P.",
"P.P.P.P.P.P.P.P.P.P.P.P.P.P.P.P.P.P.P.P.P.P.P.P.P.P.P.P.P.P.P.P.P.P.P.P.P.P.P.P.P.P.P.P.P.P.P.P.P.P.P.P.P.P.P.P.P.P.P.P.P.P.P.P.",
"P.P.P.P.P.P.P.P.P.P.P.P.P.P.P.P.P.P.P.P.P.P.P.P.P.P.P.P.P.P.P.P.P.P.P.P.P.P.P.P.P.P.P.P.P.P.P.P.P.P.P.P.P.P.P.P.P.P.P.P.P.P.P.P.",
"P.P.P.P.P.P.P.P.P.P.P.P.P.P.P.P.P.P.P.P.P.P.P.P.P.P.P.P.P.P.P.P.P.P.P.P.P.P.P.P.P.P.P.P.P.P.P.P.P.P.P.P.P.P.P.P.P.P.P.P.P.P.P.P.",
"P.P.P.P.P.P.P.P.P.P.P.P.P.P.P.P.P.P.P.P.P.P.P.P.P.P.P.P.P.P.P.P.P.P.P.P.P.P.P.P.P.P.P.P.P.P.P.P.P.P.P.P.P.P.P.P.P.P.P.P.P.P.P.P.",
"P.P.P.P.P.P.P.P.P.P.P.P.P.P.P.P.P.P.P.P.P.P.P.P.P.P.P.P.P.P.P.P.P.P.P.P.P.P.P.4.P.P.P.P.P.P.P.P.P.P.P.P.P.P.P.P.P.P.P.P.P.P.P.P.",
"P.P.P.P.P.P.P.P.P.P.P.P.P.P.P.P.P.P.P.P.P.P.P.P.P.P.P.P.P.( o.o.o.o.o.P.P.P.P.p.P.P.P.P.P.P.P.P.P.P.P.P.P.P.P.P.P.P.P.P.P.P.P.P.",
"P.P.P.P.P.P.P.P.P.P.P.P.P.P.P.P.P.P.P.P.P.P.P.P.P.6.P.X.X.=.=.=.=.=.;.O.P.P.P.P.P.P.P.P.P.P.P.P.P.P.P.P.P.P.P.P.P.P.P.P.P.P.P.P.",
"P.P.P.P.P.P.P.P.P.P.P.P.P.P.P.P.P.P.P.P.P.P.P.P.p.n.x.x.6.,.=.,.=.;.;.;.=.@.P.P.P.P.P.P.P.P.P.P.P.P.P.P.P.P.P.P.P.P.P.P.P.P.P.P.",
"P.P.P.P.P.P.P.P.P.P.P.P.P.P.P.P.P.P.P.P.P.P.P.l.Z.F.L.L.Z.n.n.,.=.;.;.;.,.@.P.P.l.P.P.P.P.P.P.P.P.P.P.P.P.P.P.P.P.P.P.P.P.P.P.P.",
"P.P.P.P.P.P.P.P.P.P.P.P.P.P.P.P.P.P.P.P.P.P.l.x.6.l.n.F.K.L.S.3.U Z =.;.=.,.=.P.e.P.P.P.P.P.P.P.P.P.P.P.P.P.P.P.P.P.P.P.P.P.P.P.",
"P.P.P.P.P.P.P.P.P.P.P.P.P.P.P.P.P.P.P.P.P.l.p.3.=.3.l.x.n.F.L.n./ G G O.=.=.=.@.P.l.P.P.P.P.P.P.P.P.P.P.P.P.P.P.P.P.P.P.P.P.P.P.",
"P.P.P.P.P.P.P.P.P.P.P.P.P.P.P.P.P.P.P.P.n.e.P.=.=.=.X.J J 9.S.K.Z.U J J ' =.=.=.P.n.n.P.P.P.P.P.P.P.P.P.P.P.P.P.P.P.P.P.P.P.P.P.",
"P.P.P.P.P.P.P.P.P.P.P.P.P.P.P.P.P.P.P.l.p.P.=.,.=.=.U J Z U / S.F.R Z Z U @.=.@.P.n.n.P.P.P.P.P.P.P.P.P.P.P.P.P.P.P.P.P.P.P.P.P.",
"P.P.P.P.P.P.P.P.P.P.P.P.P.P.P.P.P.P.P.p.P.P.=.=.=.R Z J b J Z y.F.p.J Z J  .=.=.;.l.x.P.P.P.P.P.P.P.P.P.P.P.P.P.P.P.P.P.P.P.P.P.",
"P.P.P.P.P.P.P.P.P.P.P.P.P.P.P.P.P.P.9.P.P.P.=.=.=.J Z Z J J Z Z Z p.z f b U @.=.;.6.h.P.P.P.P.P.P.P.P.P.P.P.P.P.P.P.P.P.P.P.P.P.",
"P.P.P.P.P.P.P.P.P.P.P.P.P.P.P.P.P.P.P.P.P.P.=.=.U J Z V J V f a p b p p b B | =.3.p.c.x.P.P.P.P.P.P.P.P.P.P.P.P.P.P.P.P.P.P.P.P.",
"P.P.P.P.P.P.P.P.P.P.P.P.P.P.P.P.P.P.P.P.P.P.=.=.J J Z J J f a a p p 0 0 e f G o.=.6.p.n.P.P.P.P.P.P.P.P.P.P.P.P.P.P.P.P.P.P.P.P.",
"P.P.P.P.P.P.P.P.P.P.P.P.P.P.P.P.P.P.P.P.P.=.=.R Z Z J Z Z a a a 0 0 0 0 3 e b J X.,.p.n.P.P.P.P.P.P.P.P.P.P.P.P.P.P.P.P.P.P.P.P.",
"P.P.P.P.P.P.P.P.P.P.P.P.P.P.P.P.P.P.P.P.o.=.@.G Z J Z Z V f a p 0 0 3 3 0 3 f Z +.,.h.M.P.P.P.P.P.P.P.P.P.P.P.P.P.P.P.P.P.P.P.P.",
"P.P.P.P.P.P.P.P.P.P.P.P.P.P.P.P.P.P.P.P.;.=.R G J J Z B f a a e 0 8 8 8 3 3 e B o.;.p.n.P.P.P.P.P.P.P.P.P.P.P.P.P.P.P.P.P.P.P.P.",
"P.P.P.P.P.P.P.P.P.P.P.P.P.P.P.q.P.P.P.P.;.=.U B B B B B f f a e 8 8 8 8 3 q q b J =.p.n.P.P.P.P.P.P.P.P.P.P.P.P.P.P.P.P.P.P.P.P.",
"P.P.P.P.P.P.P.P.P.P.P.P.P.P.P.p.P.P.P.P.=.=.U Z D B B l a a a 7 8 8 3 8 q 5 5 b J =.p.n.P.P.P.P.P.P.P.P.P.P.P.P.P.P.P.P.P.P.P.P.",
"P.P.P.P.P.P.P.P.P.P.P.P.P.P.P.p.P.P.P.P.=./ Z Z B B B a a a f 7 8 8 3 , * * : z B U q.n.P.P.P.P.P.P.P.P.P.P.P.P.P.P.P.P.P.P.P.P.",
"P.P.P.P.P.P.P.P.P.P.P.P.P.P.P.P.P.P.P.o.=.U U 9.R Z B f f p a 5 3 8 3 - - - - f B J q.n.P.P.P.P.P.P.P.P.P.P.P.P.P.P.P.P.P.P.P.P.",
"P.P.P.P.P.P.P.P.P.P.P.P.P.P.P.P.P.P.P.=.=.U U l./ Z B f a a e 5 3 8 - - - - - , b J 8.n.,.P.P.P.P.P.P.P.P.P.P.P.P.P.P.P.P.P.P.P.",
"P.P.P.P.P.P.P.P.P.P.P.P.P.P.P.P.P.P.P.=.J J x.F./ B f a a a q 5 8 8 - - - - O $ h J 9.F.q.P.P.P.P.P.P.P.P.P.P.P.P.P.P.P.P.P.P.P.",
"P.P.P.P.P.P.P.P.P.P.P.P.P.P.P.P.P.P.P.=.=.R l.' J B f f a a q 5 3 3 - - - O O O f J 9.F.q.P.P.P.P.P.P.P.P.P.P.P.P.P.P.P.P.P.P.P.",
"P.P.P.P.P.P.P.P.P.P.P.P.P.P.P.P.P.P.P.=.,.l.S./ Z Z h a a a q 5 5 - * * - O   + l p.F.S.9.P.P.P.P.P.P.P.P.P.P.P.P.P.P.P.P.P.P.P.",
"P.P.P.P.P.P.P.P.P.P.P.P.P.P.P.P.P.P.=.;.,.Z.F.' J Z h f a a q 3 q : * * O     O b p.F.S.6.P.P.P.P.P.P.P.P.P.P.P.P.P.P.P.P.P.P.P.",
"P.P.P.P.P.P.P.P.P.P.P.P.P.P.P.P.P.P.;.;.4.Z.n./ V Z a a a a q q 5 - * * +     O l p.F.Z.6.P.P.P.P.P.P.P.P.P.P.P.P.P.P.P.P.P.P.P.",
"P.P.P.P.P.P.P.P.P.P.P.P.P.P.P.P.P.P.=.=.l.F.O.G J b h a a a q q 5 - * * #     O b p.F.S.9.P.P.P.P.P.P.P.P.P.P.P.P.P.P.P.P.P.P.P.",
"P.P.P.P.P.P.P.P.P.P.P.P.P.P.P.P.P.P.P.,.S.F.' Z B B f a a f 0 8 q - % - O     O b x.K.Z.6.P.P.P.P.P.P.P.P.P.P.P.P.P.P.P.P.P.P.P.",
"P.P.P.P.P.P.P.P.P.P.P.P.P.P.P.P.P.P.P.,.K.F.' J G B g f a f 0 8 3 - - - O     O h n.K.p.,.P.P.P.P.P.P.P.P.P.P.P.P.P.P.P.P.P.P.P.",
"P.P.P.P.P.P.P.P.P.P.P.P.P.P.P.P.P.P.P.,.K.F.' J B B j a a a e 3 3 - - - - O   + B n.S.9.;.P.P.P.P.P.P.P.P.P.P.P.P.P.P.P.P.P.P.P.",
"P.P.P.P.P.P.P.P.P.P.P.P.P.P.P.P.P.P.=.,.K.B.R J Z G a f a a e 8 8 ; - - - # O # 9.F.n.6.;.P.P.P.P.P.P.P.P.P.P.P.P.P.P.P.P.P.P.P.",
"P.P.P.P.P.P.P.P.P.P.P.P.P.P.P.P.P.P.p.,.L.S.^ B Z Z f a a a e 8 5 * - - % - % 3 l.F.,.X.,.P.P.P.P.P.P.P.P.P.P.P.P.P.P.P.P.P.P.P.",
"P.P.P.P.P.P.P.P.P.P.P.P.P.P.P.P.P.P.P.3.L.n.^ G Z Z f a a a e 3 5 3 - - * * * X.c.x.6.=.=.P.P.P.P.P.P.P.P.P.P.P.P.P.P.P.P.P.P.P.",
"P.P.P.P.P.P.P.P.P.P.P.P.P.P.P.P.P.P.P.l.L.n.R J B B h f p a q q 5 5 : - * * * e R ' +.;.,.P.P.P.P.P.P.P.P.P.P.P.P.P.P.P.P.P.P.P.",
"P.P.P.P.P.P.P.P.P.P.P.P.P.P.P.P.P.P.P.n.K.n.( B J B h f f a q 5 5 q 1 3 , * * , j B o.;.;.P.P.P.P.P.P.P.P.P.P.P.P.P.P.P.P.P.P.P.",
"P.P.P.P.P.P.P.P.P.P.P.P.P.P.P.P.P.P.P.n.Z.n.^ J J b a a a a q 5 5 q 3 8 q 1 1 5 b o.=.=.J P.P.P.P.P.P.P.P.P.P.P.P.P.P.P.P.P.P.P.",
"P.P.P.P.P.P.P.P.P.P.P.P.P.P.P.P.P.P.P.n.n.c.^ J B J f f a a p q 5 5 8 8 1 q q 5 b X.;.=.P.P.P.P.P.P.P.P.P.P.P.P.P.P.P.P.P.P.P.P.",
"P.P.P.P.P.P.P.P.P.P.P.P.P.P.P.P.P.P.P.n.n.x.^ B J b h p a a a q 8 0 3 0 8 1 3 b Z o.;.;.P.P.P.P.P.P.P.P.P.P.P.P.P.P.P.P.P.P.P.P.",
"P.P.P.P.P.P.P.P.P.P.P.P.P.P.P.P.P.P.P.n.n.x.^ B B J B f a a a q 8 3 8 8 8 8 q b Z =.;.P.P.P.P.P.P.P.P.P.P.P.P.P.P.P.P.P.P.P.P.P.",
"P.P.P.P.P.P.P.P.P.P.P.P.P.P.P.P.P.P.P.n.Z.c.3.J Z J b a a a a a 0 8 8 8 3 0 b Z o.=.;.P.P.p.P.P.P.P.P.P.P.P.P.P.P.P.P.P.P.P.P.P.",
"P.P.P.P.P.P.P.P.P.P.P.P.P.P.P.P.P.P.P.c.n.c.3.R J Z J b h a a a 0 8 0 0 8 x Z G O.;.;.P.p.n.P.P.P.P.P.P.P.P.P.P.P.P.P.P.P.P.P.P.",
"P.P.P.P.P.P.P.P.P.P.P.P.P.P.P.P.P.P.P.P.Z.c.3.+.J J G B B h a a f y 7 3 3 x Z G O.=.P.q.n.x.P.P.P.P.P.P.P.P.P.P.P.P.P.P.P.P.P.P.",
"P.P.P.P.P.P.P.P.P.P.P.P.P.P.P.P.P.P.P.P.c.x.6.+.U B J B B l a p f a y e j G Z ' =.,.q.c.n.3.P.P.P.P.P.P.P.P.P.P.P.P.P.P.P.P.P.P.",
"P.P.P.P.P.P.P.P.P.P.P.P.P.P.P.P.P.P.P.P.n.n.3.=.X.J G J J V f f a a a b B J J X.;.p.c.n.n.P.P.P.P.P.P.P.P.P.P.P.P.P.P.P.P.P.P.P.",
"P.P.P.P.P.P.P.P.P.P.P.P.P.P.P.P.P.P.P.P.n.c.6.;.+.J B B J J f f a a Z Z Z J ' =.:.x.Z.x.x.P.P.P.P.P.P.P.P.P.P.P.P.P.P.P.P.P.P.P.",
"P.P.P.P.P.P.P.P.P.P.P.P.P.P.P.P.P.P.P.P.Z.c.6.=.;.O.J R p.n.) B Z Z Z G Z o.:.3.p.c.n.9.P.P.P.P.P.P.P.P.P.P.P.P.P.P.P.P.P.P.P.P.",
"P.P.P.P.P.P.P.P.P.P.P.P.P.P.P.P.P.P.P.P.n.n.x.3.;.=.R R e.F.Z.' y./ Z o.o.=.p.x.c.Z.n.P.P.P.P.P.P.P.P.P.P.P.P.P.P.P.P.P.P.P.P.P.",
"P.P.P.P.P.P.P.P.P.P.P.P.P.P.P.P.P.P.P.P.x.n.l.;.=.=.o.R R p.F.S.n.x.( f.q.l.n.F.Z.n.l.P.P.P.P.P.P.P.P.P.P.P.P.P.P.P.P.P.P.P.P.P.",
"P.P.P.P.P.P.P.P.P.P.P.P.P.P.P.P.P.P.P.P.P.p.P.P.O.;.=.=.=.,.n.n.G.F.S.F.F.H.F.F.n.h.P.P.P.P.P.P.P.P.P.P.P.P.P.P.P.P.P.P.P.P.P.P.",
"P.P.P.P.P.P.P.P.P.P.P.P.P.P.P.P.P.P.P.P.P.x.x.P.O.;.;.;.;.;.,.4.v.n.K.K.H.H.F.n.c.P.P.P.P.P.P.P.P.P.P.P.P.P.P.P.P.P.P.P.P.P.P.P.",
"P.P.P.P.P.P.P.P.P.P.P.P.P.P.P.P.P.P.P.P.P.x.n.P.P.P.=.;.;.;.,.,.9.v.n.S.M.S.n.l.P.P.P.P.P.P.P.P.P.P.P.P.P.P.P.P.P.P.P.P.P.P.P.P.",
"P.P.P.P.P.P.P.P.P.P.P.P.P.P.P.P.P.P.P.P.P.P.x.y.P.P.P.;.;.;.;.=.=.,.l.n.=.p.P.P.P.P.P.P.P.P.P.P.P.P.P.P.P.P.P.P.P.P.P.P.P.P.P.P.",
"P.P.P.P.P.P.P.P.P.P.P.P.P.P.P.P.P.P.P.P.P.P.n.n.P.P.P.;.;.;.;.;.,.,.6.P.P.P.P.P.P.P.P.P.P.P.P.P.P.P.P.P.P.P.P.P.P.P.P.P.P.P.P.P.",
"P.P.P.P.P.P.P.P.P.P.P.P.P.P.P.P.P.P.P.P.P.P.P.P.q.P.P.P.P.P.P.=.P.P.P.P.P.P.P.P.P.P.P.P.P.P.P.P.P.P.P.P.P.P.P.P.P.P.P.P.P.P.P.P.",
"P.P.P.P.P.P.P.P.P.P.P.P.P.P.P.P.P.P.P.P.P.P.P.P.p.P.P.P.P.P.P.P.P.P.P.P.P.P.P.P.P.P.P.P.P.P.P.P.P.P.P.P.P.P.P.P.P.P.P.P.P.P.P.P.",
"P.P.P.P.P.P.P.P.P.P.P.P.P.P.P.P.P.P.P.P.P.P.P.P.P.P.P.P.P.P.P.P.P.P.P.P.P.P.P.P.P.P.P.P.P.P.P.P.P.P.P.P.P.P.P.P.P.P.P.P.P.P.P.P.",
"P.P.P.P.P.P.P.P.P.P.P.P.P.P.P.P.P.P.P.P.P.P.P.P.P.P.P.P.P.P.P.P.P.P.P.P.P.P.P.P.P.P.P.P.P.P.P.P.P.P.P.P.P.P.P.P.P.P.P.P.P.P.P.P.",
"P.P.P.P.P.P.P.P.P.P.P.P.P.P.P.P.P.P.P.P.P.P.P.P.P.P.P.P.P.P.P.P.P.P.P.P.P.P.P.P.P.P.P.P.P.P.P.P.P.P.P.P.P.P.P.P.P.P.P.P.P.P.P.P.",
"P.P.P.P.P.P.P.P.P.P.P.P.P.P.P.P.P.P.P.P.P.P.P.P.P.P.P.P.P.P.P.P.P.P.P.P.P.P.P.P.P.P.P.P.P.P.P.P.P.P.P.P.P.P.P.P.P.P.P.P.P.P.P.P."
};
