/* XPM */
static char *cG9ydGFsLTM_[] = {
/* columns rows colors chars-per-pixel */
"64 64 157 2 ",
"   c #100D08",
".  c #100E08",
"X  c #110E09",
"o  c #120F09",
"O  c #121009",
"+  c #13100A",
"@  c #13110A",
"#  c #14110A",
"$  c #16120B",
"%  c #19150D",
"&  c #1A160D",
"*  c #1A160E",
"=  c #1B160E",
"-  c #1B170E",
";  c #1C180E",
":  c #1C180F",
">  c #1D180F",
",  c #1D190F",
"<  c #1E190F",
"1  c #1E1910",
"2  c #231D12",
"3  c #241D12",
"4  c #241E13",
"5  c #251E13",
"6  c #251F13",
"7  c #261F13",
"8  c #261F14",
"9  c #262013",
"0  c #262014",
"q  c #272014",
"w  c #272114",
"e  c #282114",
"r  c #282115",
"t  c #282215",
"y  c #292215",
"u  c #2B2416",
"i  c #2D2517",
"p  c #2E2618",
"a  c #2F2718",
"s  c #302819",
"d  c #312919",
"f  c #32291A",
"g  c #322A1A",
"h  c #332A1A",
"j  c #342B1B",
"k  c #352C1B",
"l  c #362C1C",
"z  c #362D1C",
"x  c #382F1D",
"c  c #392F1D",
"v  c #392E1E",
"b  c #3A2F1E",
"n  c #39301E",
"m  c #3A301E",
"M  c #3B301E",
"N  c #3A311E",
"B  c #3B311F",
"V  c #3C311F",
"C  c #3C321F",
"Z  c #3D331F",
"A  c #3D3220",
"S  c #3E3220",
"D  c #3E3320",
"F  c #3E3420",
"G  c #3F3420",
"H  c #3F3421",
"J  c #3F3521",
"K  c #403421",
"L  c #403521",
"P  c #413521",
"I  c #403621",
"U  c #413621",
"Y  c #413622",
"T  c #413722",
"R  c #423722",
"E  c #433822",
"W  c #433823",
"Q  c #443823",
"!  c #443923",
"~  c #453A24",
"^  c #463A24",
"/  c #473B24",
"(  c #473B25",
")  c #483C25",
"_  c #493C26",
"`  c #493D26",
"'  c #4A3D26",
"]  c #4B3D27",
"[  c #4A3E26",
"{  c #4B3E27",
"}  c #4B3F27",
"|  c #4C3E27",
" . c #4C3F27",
".. c #4D3F28",
"X. c #4C4027",
"o. c #4D4028",
"O. c #4D4128",
"+. c #4E4028",
"@. c #4E4128",
"#. c #4F4129",
"$. c #4F4229",
"%. c #504229",
"&. c #504329",
"*. c #51432A",
"=. c #51442A",
"-. c #52442A",
";. c #52452A",
":. c #53452B",
">. c #53462B",
",. c #54462B",
"<. c #55472C",
"1. c #56482C",
"2. c #57482D",
"3. c #58492D",
"4. c #584A2E",
"5. c #594A2E",
"6. c #594B2E",
"7. c #5A4B2E",
"8. c #5A4B2F",
"9. c #5B4B2F",
"0. c #5B4C2F",
"q. c #5C4D2F",
"w. c #5C4D30",
"e. c #5D4D30",
"r. c #5D4E30",
"t. c #5E4E30",
"y. c #5E4F31",
"u. c #5F4F31",
"i. c #5F5031",
"p. c #605031",
"a. c #605032",
"s. c #605132",
"d. c #615132",
"f. c #625133",
"g. c #625232",
"h. c #625233",
"j. c #635333",
"k. c #645333",
"l. c #645434",
"z. c #655434",
"x. c #655534",
"c. c #655535",
"v. c #665535",
"b. c #665636",
"n. c #675637",
"m. c #675737",
"M. c #675738",
"N. c #685839",
"B. c #68583A",
"V. c #68593A",
"C. c #69593B",
"Z. c #695A3C",
"A. c #6A5A3D",
"S. c #6A5B3D",
"D. c #6A5B3E",
"F. c #6B5C3F",
"G. c None",
/* pixels */
"G.G.G.G.G.G.G.G.G.G.G.G.G.G.G.G.G.G.G.G.G.G.G.G.G.G.G.G.G.G.G.G.G.G.G.G.G.G.G.G.G.G.G.G.G.G.G.G.G.G.G.G.G.G.G.G.G.G.G.G.G.G.G.G.",
"G.G.G.G.G.G.G.G.G.G.G.G.G.G.G.G.G.G.G.G.G.G.G.G.G.G.G.G.G.G.G.G.7.G.G.G.G.G.G.G.G.G.G.G.G.G.G.G.G.G.G.G.G.G.G.G.G.G.G.G.G.G.G.G.",
"G.G.G.G.G.G.G.G.G.G.G.G.G.G.G.G.G.G.G.G.G.G.G.G.G.G.G.G.G.G.G.G.G.2.G.G.G.G.G.G.G.G.G.G.G.G.G.G.G.G.G.G.G.G.G.G.G.G.G.G.G.G.G.G.",
"G.G.G.G.G.G.G.G.G.G.G.G.G.G.G.G.G.G.G.G.G.G.G.G.G.G.G.G.G.G.G.G.G.6.h.G.G.G.G.G.G.G.G.G.G.G.G.G.G.G.G.G.G.G.G.G.G.G.G.G.G.G.G.G.",
"G.G.G.G.G.G.G.G.G.G.G.G.G.G.G.G.G.G.G.G.G.G.G.G.G.G.G.G.G.G.G.G.G.G.t.k.h.G.G.G.G.G.G.G.G.G.G.G.G.G.G.G.G.G.G.G.G.G.G.G.G.G.G.G.",
"G.G.G.G.G.G.G.G.G.G.G.G.G.G.G.G.G.G.G.G.G.G.G.G.G.G.G.G.G.G.G.G.G.G.G.7.h.G.G.G.G.G.G.G.G.G.G.G.G.G.G.G.G.G.G.G.G.G.G.G.G.G.G.G.",
"G.G.G.G.G.G.G.G.G.G.G.G.G.G.G.G.G.G.G.G.G.G.G.G.G.G.G.G.G.) $.&.&.&.G.G.h.k.G.G.G.G.G.G.G.G.G.G.G.G.G.G.G.G.G.G.G.G.G.G.G.G.G.G.",
"G.G.G.G.G.G.G.G.G.G.G.G.G.G.G.G.G.G.G.G.G.G.G.G.G.G.G.G...&.&.&.&.$.&.G.h.l.h.G.G.G.G.G.G.G.G.G.G.G.G.G.G.G.G.G.G.G.G.G.G.G.G.G.",
"G.G.G.G.G.G.G.G.G.G.G.G.G.G.G.G.G.G.G.G.G.G.G.G.G.G.$.=.=.$.$.$.&.&.&.&.&.h.h.G.G.G.G.G.G.G.G.G.G.G.G.G.G.G.G.G.G.G.G.G.G.G.G.G.",
"G.G.G.G.G.G.G.G.G.G.G.G.G.G.G.G.G.G.G.G.G.G.G.G.G.X.=.$.$.$.$.$.&.&.&.&.$.h.l.h.G.G.G.G.G.G.G.G.G.G.G.G.G.G.G.G.G.G.G.G.G.G.G.G.",
"G.G.G.G.G.G.G.G.G.G.G.G.G.G.G.G.G.G.G.G.G.G.G.G.) $.$.=.$.$.J O.$. ...&.&.t.l.h.G.G.G.G.G.G.G.G.G.G.G.G.G.G.G.G.G.G.G.G.G.G.G.G.",
"G.G.G.G.G.G.G.G.G.G.G.G.G.G.G.G.G.G.G.G.G.G.G. .$.&.=.X.J Z N A G L S $.&.=.h.l.t.G.G.G.G.G.G.G.G.G.G.G.G.G.G.G.G.G.G.G.G.G.G.G.",
"G.G.G.G.G.G.G.G.G.G.G.G.G.G.G.G.G.G.G.G.G.G.G.&.&.&.&.Q A A M A V M M [ $.$.i.l.h.G.G.G.G.G.G.G.G.G.G.G.G.G.G.G.G.G.G.G.G.G.G.G.",
"G.G.G.G.G.G.G.G.G.G.G.G.G.G.G.G.G.G.G.G.G.G.X.&.,.h.l.t.~ ! A M A M A A ` O.>.h.h.G.G.G.G.G.G.G.G.G.G.G.G.G.G.G.G.G.G.G.G.G.G.G.",
"G.G.G.G.G.G.G.G.G.G.G.G.G.G.G.G.G.G.G.G.G.G.,.h.l.m.D.D.M.M.! A M A A A A A 2.M.l.,.G.G.G.G.G.G.G.G.G.G.G.G.G.G.G.G.G.G.G.G.G.G.",
"G.G.G.G.G.G.G.G.G.G.G.G.G.G.G.G.G.G.G.G.G.G.k.D.D.S.F.l.M.i.H M M z z A A A H l.M.h.G.G.G.G.G.G.G.G.G.G.G.G.G.G.G.G.G.G.G.G.G.G.",
"G.G.G.G.G.G.G.G.G.G.G.G.G.G.G.G.G.G.G.G.G.C.D.D.M.l.i.6.! H z g a g g z M M Z q.D.l.G.G.G.G.G.G.G.G.G.G.G.G.G.G.G.G.G.G.G.G.G.G.",
"G.G.G.G.G.G.G.G.G.G.G.G.G.G.G.G.G.G.G.G.h.l.l.h.6.W H H H g d d i i g g k M V L l.l.>.G.G.G.G.G.G.G.G.G.G.G.G.G.G.G.G.G.G.G.G.G.",
"G.G.G.G.G.G.G.G.G.G.G.G.G.G.G.G.G.G.G.h.l.l.k.( H A x M M g d d g d a a u k M V l.m.>.G.G.G.G.G.G.G.G.G.G.G.G.G.G.G.G.G.G.G.G.G.",
"G.G.G.G.G.G.G.G.G.G.G.G.G.G.G.G.G.G.G.l.<.h.,.L M M A M g d d i a i t w w 0 b V k.m.<.G.G.G.G.G.G.G.G.G.G.G.G.G.G.G.G.G.G.G.G.G.",
"G.G.G.G.G.G.G.G.G.G.G.G.G.G.G.G.G.G.t.l.=.&.L V M A M M g a s s g t 4 4 4 7 l V k.m.,.G.G.G.G.G.G.G.G.G.G.G.G.G.G.G.G.G.G.G.G.G.",
"G.G.G.G.G.G.G.G.G.G.G.G.G.G.G.G.G.G.l.l.&.&.H M M M M g s s s a w 4 4 e e 4 e b k.m.,. .G.G.G.G.G.G.G.G.G.G.G.G.G.G.G.G.G.G.G.G.",
"G.G.G.G.G.G.G.G.G.G.G.G.G.G.G.G.G.h.l.=.=.$.H M M M b a s i a a e 4 7 4 4 7 4 t h.k.,.&.G.G.G.G.G.G.G.G.G.G.G.G.G.G.G.G.G.G.G.G.",
"G.G.G.G.G.G.G.G.G.G.G.G.G.G.G.G.G.h.k.G.$.$.H M V b b g g a a a e e 7 4 : = = 4 h.m.,...$.G.G.G.G.G.G.G.G.G.G.G.G.G.G.G.G.G.G.G.",
"G.G.G.G.G.G.G.G.G.G.G.G.G.G.G.G.G.k.l.=.$.$.H M M N M g s s s e 4 4 4 : ; = = < i.l.L [ $.G.G.G.G.G.G.G.G.G.G.G.G.G.G.G.G.G.G.G.",
"G.G.G.G.G.G.G.G.G.G.G.G.G.G.G.G.t.l.t.&.$.M M M M M x d s s i t e 7 3 = = = & : t.l.! ) &.G.G.G.G.G.G.G.G.G.G.G.G.G.G.G.G.G.G.G.",
"G.G.G.G.G.G.G.G.G.G.G.G.G.G.G.G.h.l.G.&.O.M M A A x d d s p t 4 4 7 = = & & o # t.k.~ ) &.G.G.G.G.G.G.G.G.G.G.G.G.G.G.G.G.G.G.G.",
"G.G.G.G.G.G.G.G.G.G.G.G.G.G.G.G.t.l.G.$.$.M M M A A d d s s t 4 4 4 = = = $ . # t.l.,.=.&.G.G.G.G.G.G.G.G.G.G.G.G.G.G.G.G.G.G.G.",
"G.G.G.G.G.G.G.G.G.G.G.G.G.G.G.G.t.h.G.$.$.M M A z x f d p d t 8 4 1 : = & . . o =.h.=.=.&.G.G.7.G.G.G.G.G.G.G.G.G.G.G.G.G.G.G.G.",
"G.G.G.G.G.G.G.G.G.G.G.G.G.G.G.G.t.G.G.$.$.b M M M A f d d p 0 8 w & & & $   . . : M H ) &.G.G.6.G.G.G.G.G.G.G.G.G.G.G.G.G.G.G.G.",
"G.G.G.G.G.G.G.G.G.G.G.G.G.G.G.G.G.G. .&.X.M M M A M g p d p 0 0 4 & & & $ . . . $ k ) $.&.G.G.t.G.G.G.G.G.G.G.G.G.G.G.G.G.G.G.G.",
"G.G.G.G.G.G.G.G.G.G.G.G.G.G.G.G.G.G.$.&.$.M H V x x g d p d 0 0 4 : & & $ . . . p M S ) &.G.7.l.G.G.G.G.G.G.G.G.G.G.G.G.G.G.G.G.",
"G.G.G.G.G.G.G.G.G.G.G.G.G.G.G.G.G.G.$.&.$.M 7.W V b g s g p t 4 w & & & $ . . X g M M ) =.G.7.l.G.G.G.G.G.G.G.G.G.G.G.G.G.G.G.G.",
"G.G.G.G.G.G.G.G.G.G.G.G.G.G.G.G.G.G. .&.X.M h.) V b s s p g t 0 w & : = O . X O g M M ) =.G.q.k.G.G.G.G.G.G.G.G.G.G.G.G.G.G.G.G.",
"G.G.G.G.G.G.G.G.G.G.G.G.G.G.G.G.G.G.G.&.$.Z k.q.L M s s g p 0 0 4 : = & & X . X g M K ) &.t.l.G.G.G.G.G.G.G.G.G.G.G.G.G.G.G.G.G.",
"G.G.G.G.G.G.G.G.G.G.G.G.G.G.G.G.t.G.G.X.$.Z l.X.V M g g p g 0 8 4 4 : = & $ O O k V  .&.=.h.l.G.G.G.G.G.G.G.G.G.G.G.G.G.G.G.G.G.",
"G.G.G.G.G.G.G.G.G.G.G.G.G.G.G.G.h.G.G.$.$.V l.h.W M g g p d 0 8 4 4 & : & & & : k V X.&.q.k.l.G.G.G.G.G.G.G.G.G.G.G.G.G.G.G.G.G.",
"G.G.G.G.G.G.G.G.G.G.G.G.G.G.G.G.t.G.G. .=.l.D.k.L M d d d p t 8 t 4 : & : & : & k V  .&.u.m.m.G.G.G.G.G.G.G.G.G.G.G.G.G.G.G.G.G.",
"G.G.G.G.G.G.G.G.G.G.G.G.G.G.G.G.t.G.G.$.=.l.D.l.L b g p d d 0 0 4 4 4 : = = & f V V ..&.u.m.m.G.G.G.G.G.G.G.G.G.G.G.G.G.G.G.G.G.",
"G.G.G.G.G.G.G.G.G.G.G.G.G.G.G.G.G.G.G.$.=.=.M.C.Q b g d p d d 0 4 e 8 8 1 = : j b G ..&.t.m.m.G.G.G.G.G.G.G.G.G.G.G.G.G.G.G.G.G.",
"G.G.G.G.G.G.G.G.G.G.G.G.G.G.G.G.G.G.G.&.&.=.k.C.! M d d d d p 0 4 7 4 e w 4 4 l V V X.&.h.l.G.G.G.G.G.G.G.G.G.G.G.G.G.G.G.G.G.G.",
"G.G.G.G.G.G.G.G.G.G.G.G.G.G.G.G.G.G.G.G.$.&.k.M.H A x f d i d 0 w 4 4 4 4 4 7 l V  .&.h.l.k.G.G.G.G.G.G.G.G.G.G.G.G.G.G.G.G.G.G.",
"G.G.G.G.G.G.G.G.G.G.G.G.G.G.G.G.G.G.G.G.&.&.h.D.! A A d d p d s e 7 e 4 4 w z M V  .&.u.l.G.G.G.G.G.G.G.G.G.G.G.G.G.G.G.G.G.G.G.",
"G.G.G.G.G.G.G.G.G.G.G.G.G.G.G.G.G.G.G.G.&.&.h.M.! A z f p d d p e 4 w 4 4 w z V V $.k.l.m.G.G.G.G.G.G.G.G.G.G.G.G.G.G.G.G.G.G.G.",
"G.G.G.G.G.G.G.G.G.G.G.G.G.G.G.G.G.G.G.G.) &.k.C.W M A z d d d d d 7 4 e 4 7 z S X.<.C.C.q.G.G.G.G.G.G.G.G.G.G.G.G.G.G.G.G.G.G.G.",
"G.G.G.G.G.G.G.G.G.G.G.G.G.G.G.G.G.G.G.G.G.,.h.M.W M M M x g p d d e 7 7 e 8 z  .=.C.F.l.G.G.G.G.G.G.G.G.G.G.G.G.G.G.G.G.G.G.G.G.",
"G.G.G.G.G.G.G.G.G.G.G.G.G.G.G.G.G.G.G.G.G.&.<.l.~ A A x A z d d a i i i t e k L q.C.C.7.G.G.G.G.G.G.G.G.G.G.G.G.G.G.G.G.G.G.G.G.",
"G.G.G.G.G.G.G.G.G.G.G.G.G.G.G.G.G.G.G.G.G.<.=.M.i.A A A A A g d a g g s k V L u.D.m.l.G.G.G.G.G.G.G.G.G.G.G.G.G.G.G.G.G.G.G.G.G.",
"G.G.G.G.G.G.G.G.G.G.G.G.G.G.G.G.G.G.G.G.G.t.,.C.k.W M M M A x d i d g M K u.l.D.D.l.h.G.G.G.G.G.G.G.G.G.G.G.G.G.G.G.G.G.G.G.G.G.",
"G.G.G.G.G.G.G.G.G.G.G.G.G.G.G.G.G.G.G.G.G.G.=.M.C.L M M M M M g g b L L t.D.F.M.l.i.G.G.G.G.G.G.G.G.G.G.G.G.G.G.G.G.G.G.G.G.G.G.",
"G.G.G.G.G.G.G.G.G.G.G.G.G.G.G.G.G.G.G.G.G.G.&.h.l.` S M A M M M M H l.M.D.D.M.h.h.G.G.G.G.G.G.G.G.G.G.G.G.G.G.G.G.G.G.G.G.G.G.G.",
"G.G.G.G.G.G.G.G.G.G.G.G.G.G.G.G.G.G.G.G.G.G.G.<.l.i.W M M M M M M l.m.k.h.2.t.<.G.G.G.G.G.G.G.G.G.G.G.G.G.G.G.G.G.G.G.G.G.G.G.G.",
"G.G.G.G.G.G.G.G.G.G.G.G.G.G.G.G.G.G.G.G.G.G.G.6.l.h.X.V H V V M Z i.~ =.=.&.&.&.) G.G.G.G.G.G.G.G.G.G.G.G.G.G.G.G.G.G.G.G.G.G.G.",
"G.G.G.G.G.G.G.G.G.G.G.G.G.G.G.G.G.G.G.G.G.G.G.G.i.l.1.$.$.L H V X.=.$.$.&.&.&.) G.G.G.G.G.G.G.G.G.G.G.G.G.G.G.G.G.G.G.G.G.G.G.G.",
"G.G.G.G.G.G.G.G.G.G.G.G.G.G.G.G.G.G.G.G.G.G.G.G.h.l.h.=.=.X.&.&.X.=.$.=.&.&.$.G.G.G.G.G.G.G.G.G.G.G.G.G.G.G.G.G.G.G.G.G.G.G.G.G.",
"G.G.G.G.G.G.G.G.G.G.G.G.G.G.G.G.G.G.G.G.G.G.G.G.h.l.l.=.=.%.&.&.=.$.=.$.&.&.G.G.G.G.G.G.G.G.G.G.G.G.G.G.G.G.G.G.G.G.G.G.G.G.G.G.",
"G.G.G.G.G.G.G.G.G.G.G.G.G.G.G.G.G.G.G.G.G.G.G.G.G.h.C.,.&.>.&.&.&.&.&.&.&.G.G.G.G.G.G.G.G.G.G.G.G.G.G.G.G.G.G.G.G.G.G.G.G.G.G.G.",
"G.G.G.G.G.G.G.G.G.G.G.G.G.G.G.G.G.G.G.G.G.G.G.G.G.h.C.C.G.) &.&.&.&.&.&.G.G.G.G.G.G.G.G.G.G.G.G.G.G.G.G.G.G.G.G.G.G.G.G.G.G.G.G.",
"G.G.G.G.G.G.G.G.G.G.G.G.G.G.G.G.G.G.G.G.G.G.G.G.G.G.l.D.D.G.) &.G.G.G.G.G.G.G.G.G.G.G.G.G.G.G.G.G.G.G.G.G.G.G.G.G.G.G.G.G.G.G.G.",
"G.G.G.G.G.G.G.G.G.G.G.G.G.G.G.G.G.G.G.G.G.G.G.G.G.G.G.h.D.D.G.G.G.G.G.G.G.G.G.G.G.G.G.G.G.G.G.G.G.G.G.G.G.G.G.G.G.G.G.G.G.G.G.G.",
"G.G.G.G.G.G.G.G.G.G.G.G.G.G.G.G.G.G.G.G.G.G.G.G.G.G.G.G.t.M.D.D.G.G.G.G.G.G.G.G.G.G.G.G.G.G.G.G.G.G.G.G.G.G.G.G.G.G.G.G.G.G.G.G.",
"G.G.G.G.G.G.G.G.G.G.G.G.G.G.G.G.G.G.G.G.G.G.G.G.G.G.G.G.G.G.7.D.l.l.t.G.G.G.G.G.G.G.G.G.G.G.G.G.G.G.G.G.G.G.G.G.G.G.G.G.G.G.G.G.",
"G.G.G.G.G.G.G.G.G.G.G.G.G.G.G.G.G.G.G.G.G.G.G.G.G.G.G.G.G.G.G.7.t.t.G.G.G.G.G.G.G.G.G.G.G.G.G.G.G.G.G.G.G.G.G.G.G.G.G.G.G.G.G.G.",
"G.G.G.G.G.G.G.G.G.G.G.G.G.G.G.G.G.G.G.G.G.G.G.G.G.G.G.G.G.G.G.G.G.G.G.G.G.G.G.G.G.G.G.G.G.G.G.G.G.G.G.G.G.G.G.G.G.G.G.G.G.G.G.G."
};
