/* XPM */
static char *cG9ydGFsLTQ_[] = {
/* columns rows colors chars-per-pixel */
"64 64 156 2 ",
"   c #100E08",
".  c #110E09",
"X  c #121009",
"o  c #13100A",
"O  c #13110A",
"+  c #14110A",
"@  c #15120B",
"#  c #17140C",
"$  c #19150D",
"%  c #1A160D",
"&  c #1A160E",
"*  c #1B170E",
"=  c #1C170E",
"-  c #1C180E",
";  c #1C180F",
":  c #1D180F",
">  c #1E1910",
",  c #1F1A10",
"<  c #221C11",
"1  c #231D12",
"2  c #241D12",
"3  c #241E13",
"4  c #251E13",
"5  c #251F13",
"6  c #261F13",
"7  c #261F14",
"8  c #262013",
"9  c #262014",
"0  c #272014",
"q  c #272114",
"w  c #282114",
"e  c #282115",
"r  c #282215",
"t  c #292215",
"y  c #2D2517",
"u  c #2D2617",
"i  c #2E2618",
"p  c #2F2718",
"a  c #302819",
"s  c #302919",
"d  c #312919",
"f  c #32291A",
"g  c #322A1A",
"h  c #332A1A",
"j  c #332B1A",
"k  c #342B1B",
"l  c #342C1B",
"z  c #352C1B",
"x  c #362D1C",
"c  c #372D1C",
"v  c #372E1C",
"b  c #382E1D",
"n  c #382F1D",
"m  c #392F1D",
"M  c #392E1E",
"N  c #3A2F1E",
"B  c #39301E",
"V  c #3A301E",
"C  c #3B301E",
"Z  c #3A311E",
"A  c #3B311F",
"S  c #3C311F",
"D  c #3C321F",
"F  c #3D321F",
"G  c #3D331F",
"H  c #3D3220",
"J  c #3E3220",
"K  c #3E3320",
"L  c #3E3420",
"P  c #3F3420",
"I  c #3F3521",
"U  c #403521",
"Y  c #403621",
"T  c #413621",
"R  c #413622",
"E  c #413722",
"W  c #423722",
"Q  c #433822",
"!  c #433823",
"~  c #443823",
"^  c #443923",
"/  c #453923",
"(  c #473B25",
")  c #483C25",
"_  c #493C26",
"`  c #493D26",
"'  c #4A3D26",
"]  c #4A3E26",
"[  c #4B3E27",
"{  c #4B3F27",
"}  c #4C3E27",
"|  c #4C3F27",
" . c #4D3F28",
".. c #4C4027",
"X. c #4D4028",
"o. c #4D4128",
"O. c #4E4128",
"+. c #4F4129",
"@. c #4F4229",
"#. c #504229",
"$. c #504329",
"%. c #51432A",
"&. c #51442A",
"*. c #52442A",
"=. c #52452A",
"-. c #53442B",
";. c #53452B",
":. c #53462B",
">. c #54462B",
",. c #55472C",
"<. c #56482C",
"1. c #57482D",
"2. c #57492D",
"3. c #58492D",
"4. c #584A2E",
"5. c #594A2E",
"6. c #594B2E",
"7. c #5A4B2E",
"8. c #5A4B2F",
"9. c #5B4C2F",
"0. c #5C4D2F",
"q. c #5C4D30",
"w. c #5D4D30",
"e. c #5D4E30",
"r. c #5E4E30",
"t. c #5E4F31",
"y. c #5F4F31",
"u. c #5F5031",
"i. c #605031",
"p. c #605032",
"a. c #605132",
"s. c #615132",
"d. c #625232",
"f. c #625233",
"g. c #635333",
"h. c #645333",
"j. c #645434",
"k. c #655434",
"l. c #655534",
"z. c #655535",
"x. c #665435",
"c. c #665535",
"v. c #665636",
"b. c #665637",
"n. c #675737",
"m. c #675738",
"M. c #685839",
"N. c #68583A",
"B. c #68593A",
"V. c #69593B",
"C. c #695A3C",
"Z. c #6A5A3D",
"A. c #6A5B3D",
"S. c #6A5B3E",
"D. c #6B5C3F",
"F. c None",
/* pixels */
"F.F.F.F.F.F.F.F.F.F.F.F.F.F.F.F.F.F.F.F.F.F.F.F.F.F.F.F.F.F.F.F.F.F.F.F.F.F.F.F.F.F.F.F.F.F.F.F.F.F.F.F.F.F.F.F.F.F.F.F.F.F.F.F.",
"F.F.F.F.F.F.F.F.F.F.F.F.F.F.F.F.F.F.F.F.F.F.F.F.F.F.F.F.F.F.F.F.F.F.F.F.F.F.F.F.F.F.F.F.F.F.F.F.F.F.F.F.F.F.F.F.F.F.F.F.F.F.F.F.",
"F.F.F.F.F.F.F.F.F.F.F.F.F.F.F.F.F.F.F.F.F.F.F.F.F.F.F.F.F.F.F.F.F.F.2.F.F.F.F.F.F.F.F.F.F.F.F.F.F.F.F.F.F.F.F.F.F.F.F.F.F.F.F.F.",
"F.F.F.F.F.F.F.F.F.F.F.F.F.F.F.F.F.F.F.F.F.F.F.F.F.F.F.F.F.F.F.F.F.F.F.F.F.F.F.F.F.F.F.F.F.F.F.F.F.F.F.F.F.F.F.F.F.F.F.F.F.F.F.F.",
"F.F.F.F.F.F.F.F.F.F.F.F.F.F.F.F.F.F.F.F.F.F.F.F.F.F.F.F.F.F.F.F.F.F.F.6.a.F.F.F.F.F.F.F.F.F.F.F.F.F.F.F.F.F.F.F.F.F.F.F.F.F.F.F.",
"F.F.F.F.F.F.F.F.F.F.F.F.F.F.F.F.F.F.F.F.F.F.F.F.F.F.F.F.F.F.F.F.F.F.F.F.a.F.F.F.F.F.F.F.F.F.F.F.F.F.F.F.F.F.F.F.F.F.F.F.F.F.F.F.",
"F.F.F.F.F.F.F.F.F.F.F.F.F.F.F.F.F.F.F.F.F.F.F.F.F.F.F.F.F.F.] +.%.%.%.F.0.a.F.F.F.F.F.F.F.F.F.F.F.F.F.F.F.F.F.F.F.F.F.F.F.F.F.F.",
"F.F.F.F.F.F.F.F.F.F.F.F.F.F.F.F.F.F.F.F.F.F.F.F.F.F.F.F.] +.%.%.&.+.%.F.F.u.k.F.F.F.F.F.F.F.F.F.F.F.F.F.F.F.F.F.F.F.F.F.F.F.F.F.",
"F.F.F.F.F.F.F.F.F.F.F.F.F.F.F.F.F.F.F.F.F.F.F.F.F.F...&.&.+.+.&.@.$.$.$.F.0.a.F.F.F.F.F.F.F.F.F.F.F.F.F.F.F.F.F.F.F.F.F.F.F.F.F.",
"F.F.F.F.F.F.F.F.F.F.F.F.F.F.F.F.F.F.F.F.F.F.F.F.F...&.@.@.@.&.+.$.$.$.$.%.%.a.a.F.F.F.F.F.F.F.F.F.F.F.F.F.F.F.F.F.F.F.F.F.F.F.F.",
"F.F.F.F.F.F.F.F.F.F.F.F.F.F.F.F.F.F.F.F.F.F.F.F.] %.&.&.&... .+.%.....&.$.$.a.a.F.F.F.F.F.F.F.F.F.F.F.F.F.F.F.F.F.F.F.F.F.F.F.F.",
"F.F.F.F.F.F.F.F.F.F.F.F.F.F.F.F.F.F.F.F.F.F.F.F.| %.&.&.@.Q K R P G ..&.%.&.a.k.a.F.F.F.F.F.F.F.F.F.F.F.F.F.F.F.F.F.F.F.F.F.F.F.",
"F.F.F.F.F.F.F.F.F.F.F.F.F.F.F.F.F.F.F.F.F.F.F.%.&.a.a.a.] R K m G D K ] +.&.&.a.k.F.F.F.F.F.F.F.F.F.F.F.F.F.F.F.F.F.F.F.F.F.F.F.",
"F.F.F.F.F.F.F.F.F.F.F.F.F.F.F.F.F.F.F.F.F.F.h.k.l.k.k.k.g.a.( D m D H K ] +.&.g.k.F.F.F.F.F.F.F.F.F.F.F.F.F.F.F.F.F.F.F.F.F.F.F.",
"F.F.F.F.F.F.F.F.F.F.F.F.F.F.F.F.F.F.F.F.F.F.k.C.C.C.D.C.C.C.m.R D H D H K ] +.a.k.a.F.F.F.F.F.F.F.F.F.F.F.F.F.F.F.F.F.F.F.F.F.F.",
"F.F.F.F.F.F.F.F.F.F.F.F.F.F.F.F.F.F.F.F.a.k.N.N.h.a.a.a.p.a.y.K m m m m D ( +.a.k.k.F.F.F.F.F.F.F.F.F.F.F.F.F.F.F.F.F.F.F.F.F.F.",
"F.F.F.F.F.F.F.F.F.F.F.F.F.F.F.F.F.F.F.F.k.2.u.,.R P P P P H v s s f f f v m _ q.C.k.F.F.F.F.F.F.F.F.F.F.F.F.F.F.F.F.F.F.F.F.F.F.",
"F.F.F.F.F.F.F.F.F.F.F.F.F.F.F.F.F.F.F.g.u.,.&.{ K m H H H g s p s u p p e v D P k.C.k.F.F.F.F.F.F.F.F.F.F.F.F.F.F.F.F.F.F.F.F.F.",
"F.F.F.F.F.F.F.F.F.F.F.F.F.F.F.F.F.F.a.k.&.%.+.R H H D H H s s s p f p e 7 v m K u.C.m.F.F.F.F.F.F.F.F.F.F.F.F.F.F.F.F.F.F.F.F.F.",
"F.F.F.F.F.F.F.F.F.F.F.F.F.F.F.F.F.F.k.k.%.&.+.P v H B H g s s s f 3 7 3 7 7 v K y.C.k.F.F.F.F.F.F.F.F.F.F.F.F.F.F.F.F.F.F.F.F.F.",
"F.F.F.F.F.F.F.F.F.F.F.F.F.F.F.F.F.9.k.F.%.+.R D D v H m f a a p 8 q 3 3 3 8 q m y.C.k.F.F.F.F.F.F.F.F.F.F.F.F.F.F.F.F.F.F.F.F.F.",
"F.F.F.F.F.F.F.F.F.F.F.F.F.F.F.F.F.a.g.F.%.+.P D H H D s f a a e 8 8 3 0 8 3 q v y.C.m.F.F.F.F.F.F.F.F.F.F.F.F.F.F.F.F.F.F.F.F.F.",
"F.F.F.F.F.F.F.F.F.F.F.F.F.F.F.F.F.a.k.+.@.+.G D H m m f p s p q 8 8 0 8 7 3 7 v y.C.k.F.F.F.F.F.F.F.F.F.F.F.F.F.F.F.F.F.F.F.F.F.",
"F.F.F.F.F.F.F.F.F.F.F.F.F.F.F.F.F.a.F.@.@.+.P D m H D f f p f 7 3 3 8 3 ; & < v y.C.m.2.F.F.F.F.F.F.F.F.F.F.F.F.F.F.F.F.F.F.F.F.",
"F.F.F.F.F.F.F.F.F.F.F.F.F.F.F.F.F.9.F.%.@.+.G D D m m f f p s q 8 3 3 & & & = l k.C.k.2.F.F.F.F.F.F.F.F.F.F.F.F.F.F.F.F.F.F.F.F.",
"F.F.F.F.F.F.F.F.F.F.F.F.F.F.F.F.a.F.F.+.+.R D D D D m f p s p 7 q 8 = = & & = - y.C.2.&.F.F.F.F.F.F.F.F.F.F.F.F.F.F.F.F.F.F.F.F.",
"F.F.F.F.F.F.F.F.F.F.F.F.F.F.F.F.2.F.F.+.+.P m D H m f s f p q 3 3 3 = & & & & - y.C.&.+.F.F.F.F.F.F.F.F.F.F.F.F.F.F.F.F.F.F.F.F.",
"F.F.F.F.F.F.F.F.F.F.F.F.F.F.F.F.F.F.F.+.+.K D D D D f s p s q 7 3 - & & & & o @ y.k.R _ %.F.F.F.F.F.F.F.F.F.F.F.F.F.F.F.F.F.F.F.",
"F.F.F.F.F.F.F.F.F.F.F.F.F.F.F.F.F.F.F.+.+.P D D D v f s s p q 3 8 * & & & o   @ 0.l.R ] &.F.F.F.F.F.F.F.F.F.F.F.F.F.F.F.F.F.F.F.",
"F.F.F.F.F.F.F.F.F.F.F.F.F.F.F.F.F.F.] &.@.R K D H D f s p s q 7 3 & & & @     o 0.l.Q ] &.F.F.F.F.F.F.F.F.F.F.F.F.F.F.F.F.F.F.F.",
"F.F.F.F.F.F.F.F.F.F.F.F.F.F.F.F.F.F.%.@...P 2.R m H s s s a e 7 8 & & & @     o ,.g.&.+.%.F.F.F.F.F.F.F.F.F.F.F.F.F.F.F.F.F.F.F.",
"F.F.F.F.F.F.F.F.F.F.F.F.F.F.F.F.F.F.+.+.G P 6.Q H v f s p a q 7 3 - & & o       , &.&.+.%.F.F.F.F.F.F.F.F.F.F.F.F.F.F.F.F.F.F.F.",
"F.F.F.F.F.F.F.F.F.F.F.F.F.F.F.0.F.F.+.+.G Q 0.~ D m f p p s e 3 8 - & & o       o D ] +.@.F.F.F.F.F.F.F.F.F.F.F.F.F.F.F.F.F.F.F.",
"F.F.F.F.F.F.F.F.F.F.F.F.F.F.F.y.F.F.F.+.G 9.N.~ D D f s f f e 3 8 = & & @       # g ..@.&.F.F.F.F.F.F.F.F.F.F.F.F.F.F.F.F.F.F.F.",
"F.F.F.F.F.F.F.F.F.F.F.F.F.F.F.6.F.F.F.+.G 0.N.~ D m f s p s q 7 3 - & & $ @   o s D ] +.@.F.9.F.F.F.F.F.F.F.F.F.F.F.F.F.F.F.F.F.",
"F.F.F.F.F.F.F.F.F.F.F.F.F.F.F.F.F.F.F.%.R y.N.~ H m f s f p q 7 8 3 = & & & o @ f D H ] &.F.y.F.F.F.F.F.F.F.F.F.F.F.F.F.F.F.F.F.",
"F.F.F.F.F.F.F.F.F.F.F.F.F.F.F.F.F.F.F.+.&.a.N.~ D m f s a a e q 0 3 = & & & & & v D D _ %.F.y.F.F.F.F.F.F.F.F.F.F.F.F.F.F.F.F.F.",
"F.F.F.F.F.F.F.F.F.F.F.F.F.F.F.F.F.F.F.+.&.a.N.( D m f s a p e 7 3 3 & & & & & - g D m ] F.6.j.F.F.F.F.F.F.F.F.F.F.F.F.F.F.F.F.F.",
"F.F.F.F.F.F.F.F.F.F.F.F.F.F.F.F.F.F.F.@.&.a.m.! H m f s p s q 7 8 3 8 = & & & - g K ..+.F.a.k.F.F.F.F.F.F.F.F.F.F.F.F.F.F.F.F.F.",
"F.F.F.F.F.F.F.F.F.F.F.F.F.F.F.F.F.F.F.@.&.j.m.Q H D f s f p p q 3 8 8 3 - & * f K ] +.%.q.k.m.F.F.F.F.F.F.F.F.F.F.F.F.F.F.F.F.F.",
"F.F.F.F.F.F.F.F.F.F.F.F.F.F.F.F.F.F.F.&.&.a.N.~ v H s a a a s q 0 8 3 8 8 3 3 l G K  .%.u.k.k.F.F.F.F.F.F.F.F.F.F.F.F.F.F.F.F.F.",
"F.F.F.F.F.F.F.F.F.F.F.F.F.F.F.F.F.F.F.+.&.a.N.~ H H v a a a a q 3 0 0 3 3 8 0 v G | +.y.k.m.F.F.F.F.F.F.F.F.F.F.F.F.F.F.F.F.F.F.",
"F.F.F.F.F.F.F.F.F.F.F.F.F.F.F.F.F.F.F.F.$.d.M.~ D m D s a a a a 0 3 8 8 0 3 7 v G ] &.u.k.k.F.F.F.F.F.F.F.F.F.F.F.F.F.F.F.F.F.F.",
"F.F.F.F.F.F.F.F.F.F.F.F.F.F.F.F.F.F.F.F.>.d.M.) D H m s a a a a 0 8 8 3 3 7 z G G ..&.y.k.g.F.F.F.F.F.F.F.F.F.F.F.F.F.F.F.F.F.F.",
"F.F.F.F.F.F.F.F.F.F.F.F.F.F.F.F.F.F.F.F.$.d.M.~ D D B B a a s p 0 0 8 8 8 8 l G ] &.g.k.k.F.F.F.F.F.F.F.F.F.F.F.F.F.F.F.F.F.F.F.",
"F.F.F.F.F.F.F.F.F.F.F.F.F.F.F.F.F.F.F.F.$.&.c.) H H D B v a p f f 0 3 8 q e l G +.>.j.k.k.F.F.F.F.F.F.F.F.F.F.F.F.F.F.F.F.F.F.F.",
"F.F.F.F.F.F.F.F.F.F.F.F.F.F.F.F.F.F.F.F...&.M.d.P H H m N a s p d u 8 8 7 f D ] %.u.k.k.F.F.F.F.F.F.F.F.F.F.F.F.F.F.F.F.F.F.F.F.",
"F.F.F.F.F.F.F.F.F.F.F.F.F.F.F.F.F.F.F.F.F.+.M.c.R H H H H H f p d p u 0 k D ] +.u.k.k.k.F.F.F.F.F.F.F.F.F.F.F.F.F.F.F.F.F.F.F.F.",
"F.F.F.F.F.F.F.F.F.F.F.F.F.F.F.F.F.F.F.F.F...a.N.~ D D m D m a s s s a v H P 9.6.m.C.k.F.F.F.F.F.F.F.F.F.F.F.F.F.F.F.F.F.F.F.F.F.",
"F.F.F.F.F.F.F.F.F.F.F.F.F.F.F.F.F.F.F.F.F.F.,.k.] K D H H m N l f s H I P 6.k.m.C.m.k.F.F.F.F.F.F.F.F.F.F.F.F.F.F.F.F.F.F.F.F.F.",
"F.F.F.F.F.F.F.F.F.F.F.F.F.F.F.F.F.F.F.F.F.F.&.g.u.+.K D D D D P P P R u.g.B.A.A.m.g.F.F.F.F.F.F.F.F.F.F.F.F.F.F.F.F.F.F.F.F.F.F.",
"F.F.F.F.F.F.F.F.F.F.F.F.F.F.F.F.F.F.F.F.F.F.a.k.j.+.K D D D m 9.g.g.m.S.A.C.A.n.a.F.F.F.F.F.F.F.F.F.F.F.F.F.F.F.F.F.F.F.F.F.F.F.",
"F.F.F.F.F.F.F.F.F.F.F.F.F.F.F.F.F.F.F.F.F.F.F.k.j.&.+.P D D D q.m.C.B.N.k.k.k.u.F.F.F.F.F.F.F.F.F.F.F.F.F.F.F.F.F.F.F.F.F.F.F.F.",
"F.F.F.F.F.F.F.F.F.F.F.F.F.F.F.F.F.F.F.F.F.F.F.k.k.&.@...P P P @.&.&.&.&.&.&.q.F.F.F.F.F.F.F.F.F.F.F.F.F.F.F.F.F.F.F.F.F.F.F.F.F.",
"F.F.F.F.F.F.F.F.F.F.F.F.F.F.F.F.F.F.F.F.F.F.F.k.k.&.&.&.+.@.@.&.@.&.&.%.&.@.+.F.F.F.F.F.F.F.F.F.F.F.F.F.F.F.F.F.F.F.F.F.F.F.F.F.",
"F.F.F.F.F.F.F.F.F.F.F.F.F.F.F.F.F.F.F.F.F.F.F.F.u.j.:.@.@.@.&.@.&.+.%.%.&.+.F.F.F.F.F.F.F.F.F.F.F.F.F.F.F.F.F.F.F.F.F.F.F.F.F.F.",
"F.F.F.F.F.F.F.F.F.F.F.F.F.F.F.F.F.F.F.F.F.F.F.F.g.a.F.@.&.@.&.@.@.&.&.&.+.F.F.F.F.F.F.F.F.F.F.F.F.F.F.F.F.F.F.F.F.F.F.F.F.F.F.F.",
"F.F.F.F.F.F.F.F.F.F.F.F.F.F.F.F.F.F.F.F.F.F.F.F.F.u.u.&.@.%.@.%.&.@.@.F.F.F.F.F.F.F.F.F.F.F.F.F.F.F.F.F.F.F.F.F.F.F.F.F.F.F.F.F.",
"F.F.F.F.F.F.F.F.F.F.F.F.F.F.F.F.F.F.F.F.F.F.F.F.F.g.k.k.F.F.F.F...+.F.F.F.F.F.F.F.F.F.F.F.F.F.F.F.F.F.F.F.F.F.F.F.F.F.F.F.F.F.F.",
"F.F.F.F.F.F.F.F.F.F.F.F.F.F.F.F.F.F.F.F.F.F.F.F.F.u.k.k.k.k.F.F.F.F.F.F.F.F.F.F.F.F.F.F.F.F.F.F.F.F.F.F.F.F.F.F.F.F.F.F.F.F.F.F.",
"F.F.F.F.F.F.F.F.F.F.F.F.F.F.F.F.F.F.F.F.F.F.F.F.F.F.u.a.a.k.k.F.F.F.F.F.F.F.F.F.F.F.F.F.F.F.F.F.F.F.F.F.F.F.F.F.F.F.F.F.F.F.F.F.",
"F.F.F.F.F.F.F.F.F.F.F.F.F.F.F.F.F.F.F.F.F.F.F.F.F.F.F.F.2.u.a.F.F.F.F.F.F.F.F.F.F.F.F.F.F.F.F.F.F.F.F.F.F.F.F.F.F.F.F.F.F.F.F.F.",
"F.F.F.F.F.F.F.F.F.F.F.F.F.F.F.F.F.F.F.F.F.F.F.F.F.F.F.F.F.F.F.F.F.F.F.F.F.F.F.F.F.F.F.F.F.F.F.F.F.F.F.F.F.F.F.F.F.F.F.F.F.F.F.F.",
"F.F.F.F.F.F.F.F.F.F.F.F.F.F.F.F.F.F.F.F.F.F.F.F.F.F.F.F.F.F.F.F.F.F.F.F.F.F.F.F.F.F.F.F.F.F.F.F.F.F.F.F.F.F.F.F.F.F.F.F.F.F.F.F."
};
