/* XPM */
static char *cG9ydGFsLTU_[] = {
/* columns rows colors chars-per-pixel */
"64 64 149 2 ",
"   c #100D08",
".  c #100E08",
"X  c #110E09",
"o  c #120F09",
"O  c #13100A",
"+  c #13110A",
"@  c #14110A",
"#  c #19150D",
"$  c #1A160D",
"%  c #1A160E",
"&  c #1B170E",
"*  c #1C180E",
"=  c #1C180F",
"-  c #1D180F",
";  c #1D190F",
":  c #1E190F",
">  c #211C11",
",  c #241D12",
"<  c #241E13",
"1  c #251E13",
"2  c #251F13",
"3  c #261F13",
"4  c #261F14",
"5  c #262013",
"6  c #262014",
"7  c #272014",
"8  c #272114",
"9  c #282114",
"0  c #282115",
"q  c #282215",
"w  c #292215",
"e  c #2D2517",
"r  c #2E2618",
"t  c #2E2718",
"y  c #2F2718",
"u  c #302819",
"i  c #312919",
"p  c #32291A",
"a  c #322A1A",
"s  c #332A1A",
"d  c #332B1A",
"f  c #342B1B",
"g  c #362C1C",
"h  c #362D1C",
"j  c #372E1C",
"k  c #382E1D",
"l  c #382F1D",
"z  c #392F1D",
"x  c #392E1E",
"c  c #3A2F1E",
"v  c #3A301E",
"b  c #3B301E",
"n  c #3A311E",
"m  c #3B311F",
"M  c #3C311F",
"N  c #3C321F",
"B  c #3D321F",
"V  c #3D331F",
"C  c #3D3220",
"Z  c #3E3220",
"A  c #3E3320",
"S  c #3E3420",
"D  c #3F3420",
"F  c #3F3521",
"G  c #403421",
"H  c #403521",
"J  c #413521",
"K  c #403621",
"L  c #413621",
"P  c #413622",
"I  c #413722",
"U  c #433822",
"Y  c #443823",
"T  c #443923",
"R  c #453923",
"E  c #473B25",
"W  c #483C25",
"Q  c #493C26",
"!  c #493D26",
"~  c #4A3D26",
"^  c #4A3E26",
"/  c #4B3E27",
"(  c #4B3F27",
")  c #4C3F27",
"_  c #4D3F28",
"`  c #4C4027",
"'  c #4D4028",
"]  c #4D4128",
"[  c #4E4028",
"{  c #4E4128",
"}  c #4F4129",
"|  c #4F4229",
" . c #504229",
".. c #504329",
"X. c #51432A",
"o. c #52432A",
"O. c #51442A",
"+. c #52442A",
"@. c #52452A",
"#. c #53452B",
"$. c #54452B",
"%. c #54462B",
"&. c #55472C",
"*. c #56482C",
"=. c #57482D",
"-. c #57492D",
";. c #58492D",
":. c #584A2E",
">. c #594A2E",
",. c #594B2E",
"<. c #5A4B2E",
"1. c #5A4B2F",
"2. c #5B4C2F",
"3. c #5C4D2F",
"4. c #5C4D30",
"5. c #5D4D30",
"6. c #5D4E30",
"7. c #5E4E30",
"8. c #5E4F31",
"9. c #5F4F31",
"0. c #5F5031",
"q. c #605031",
"w. c #605032",
"e. c #605132",
"r. c #615132",
"t. c #625232",
"y. c #625233",
"u. c #635333",
"i. c #645333",
"p. c #645434",
"a. c #655434",
"s. c #655534",
"d. c #655535",
"f. c #665535",
"g. c #665636",
"h. c #665637",
"j. c #675637",
"k. c #675737",
"l. c #675738",
"z. c #685839",
"x. c #68583A",
"c. c #68593A",
"v. c #69593B",
"b. c #695A3C",
"n. c #6A5A3D",
"m. c #6A5B3D",
"M. c #6A5B3E",
"N. c #6B5C3F",
"B. c None",
/* pixels */
"B.B.B.B.B.B.B.B.B.B.B.B.B.B.B.B.B.B.B.B.B.B.B.B.B.B.B.B.B.B.B.B.B.B.B.B.B.B.B.B.B.B.B.B.B.B.B.B.B.B.B.B.B.B.B.B.B.B.B.B.B.B.B.B.",
"B.B.B.B.B.B.B.B.B.B.B.B.B.B.B.B.B.B.B.B.B.B.B.B.B.B.B.B.B.B.B.B.B.B.B.B.B.B.B.B.B.B.B.B.B.B.B.B.B.B.B.B.B.B.B.B.B.B.B.B.B.B.B.B.",
"B.B.B.B.B.B.B.B.B.B.B.B.B.B.B.B.B.B.B.B.B.B.B.B.B.B.B.B.B.B.B.B.B.B.B.B.4.B.B.B.B.B.B.B.B.B.B.B.B.B.B.B.B.B.B.B.B.B.B.B.B.B.B.B.",
"B.B.B.B.B.B.B.B.B.B.B.B.B.B.B.B.B.B.B.B.B.B.B.B.B.B.B.B.B.B.B.B.B.B.B.B.0.B.B.B.B.B.B.B.B.B.B.B.B.B.B.B.B.B.B.B.B.B.B.B.B.B.B.B.",
"B.B.B.B.B.B.B.B.B.B.B.B.B.B.B.B.B.B.B.B.B.B.B.B.B.B.B.B.B.B.B.B.B.B.B.B.B.B.B.B.B.B.B.B.B.B.B.B.B.B.B.B.B.B.B.B.B.B.B.B.B.B.B.B.",
"B.B.B.B.B.B.B.B.B.B.B.B.B.B.B.B.B.B.B.B.B.B.B.B.B.B.B.B.B.B.B.B.B.B.B.B.B.6.B.B.B.B.B.B.B.B.B.B.B.B.B.B.B.B.B.B.B.B.B.B.B.B.B.B.",
"B.B.B.B.B.B.B.B.B.B.B.B.B.B.B.B.B.B.B.B.B.B.B.B.B.B.B.B.R +.' | ....B.B.B.,.t.B.B.B.B.B.B.B.B.B.B.B.B.B.B.B.B.B.B.B.B.B.B.B.B.B.",
"B.B.B.B.B.B.B.B.B.B.B.B.B.B.B.B.B.B.B.B.B.B.B.B.B.B.' +.+.' +.+.......B.B.B.6.B.B.B.B.B.B.B.B.B.B.B.B.B.B.B.B.B.B.B.B.B.B.B.B.B.",
"B.B.B.B.B.B.B.B.B.B.B.B.B.B.B.B.B.B.B.B.B.B.B.B.B.B.' ................X.+.B.,.t.B.B.B.B.B.B.B.B.B.B.B.B.B.B.B.B.B.B.B.B.B.B.B.B.",
"B.B.B.B.B.B.B.B.B.B.B.B.B.B.B.B.B.B.B.B.B.B.B.B.B.' ....X.......' ......' B.B.t.t.B.B.B.B.B.B.B.B.B.B.B.B.B.B.B.B.B.B.B.B.B.B.B.",
"B.B.B.B.B.B.B.B.B.B.B.B.B.B.B.B.B.B.B.B.B.B.B.B.` 6.$.&.6.#._ ' K _ ....| ` B.t.t.B.B.B.B.B.B.B.B.B.B.B.B.B.B.B.B.B.B.B.B.B.B.B.",
"B.B.B.B.B.B.B.B.B.B.B.B.B.B.B.B.B.B.B.B.B.B.B.6.i.d.d.l.l./ F F m C _ ..+.' ' t.u.B.B.B.B.B.B.B.B.B.B.B.B.B.B.B.B.B.B.B.B.B.B.B.",
"B.B.B.B.B.B.B.B.B.B.B.B.B.B.B.B.B.B.B.B.B.r.i.i.v.b.b.N.b.i.Q K M c C / ' +.| 0.u.t.B.B.B.B.B.B.B.B.B.B.B.B.B.B.B.B.B.B.B.B.B.B.",
"B.B.B.B.B.B.B.B.B.B.B.B.B.B.B.B.B.B.B.B.B.u.d.i.d.t.u.i.b.b.x.u.C C C C / ' +.+.u.u.B.B.B.B.B.B.B.B.B.B.B.B.B.B.B.B.B.B.B.B.B.B.",
"B.B.B.B.B.B.B.B.B.B.B.B.B.B.B.B.B.B.B.B.t.t.r.&.' Y K R ,.t.d.b.K c c c C / ' ' u.l.r.B.B.B.B.B.B.B.B.B.B.B.B.B.B.B.B.B.B.B.B.B.",
"B.B.B.B.B.B.B.B.B.B.B.B.B.B.B.B.B.B.B.B.u.&.$...K c c M C C F 4.K p u c b F ` ..u.u.i.B.B.B.B.B.B.B.B.B.B.B.B.B.B.B.B.B.B.B.B.B.",
"B.B.B.B.B.B.B.B.B.B.B.B.B.B.B.B.B.B.B.t.6.+..._ C j C n C u u a y y y p h b / ' 6.d.d.B.B.B.B.B.B.B.B.B.B.B.B.B.B.B.B.B.B.B.B.B.",
"B.B.B.B.B.B.B.B.B.B.B.B.B.B.B.B.B.B.t.3.B.' ' K C n C n j u u u y y y y q p b / $.i.d.B.B.B.B.B.B.B.B.B.B.B.B.B.B.B.B.B.B.B.B.B.",
"B.B.B.B.B.B.B.B.B.B.B.B.B.B.B.B.B.B.t.B...' ..F n C C n a u u u y 8 5 8 5 7 h B 6.d.d.B.B.B.B.B.B.B.B.B.B.B.B.B.B.B.B.B.B.B.B.B.",
"B.B.B.B.B.B.B.B.B.B.B.B.B.B.B.B.B.B.t.B.+.+.' F C c n C a p u u 8 8 5 5 5 5 h c F r.d.B.B.B.B.B.B.B.B.B.B.B.B.B.B.B.B.B.B.B.B.B.",
"B.B.B.B.B.B.B.B.B.B.B.B.B.B.B.B.B.,.B.B.B.` K B C b b a u y p q 4 < < 5 < 7 7 h B r.b.=.B.B.B.B.B.B.B.B.B.B.B.B.B.B.B.B.B.B.B.B.",
"B.B.B.B.B.B.B.B.B.B.B.B.B.B.B.B.B.B.B.B.' ' F b b b j u u u y 4 4 8 5 5 3 < 3 c C 6.b.x.B.B.B.B.B.B.B.B.B.B.B.B.B.B.B.B.B.B.B.B.",
"B.B.B.B.B.B.B.B.B.B.B.B.B.B.B.B.B.B.B.B.+.' F b b b j p u u y 8 5 < 5 5 < < 3 g B 6.b.x.B.B.B.B.B.B.B.B.B.B.B.B.B.B.B.B.B.B.B.B.",
"B.B.B.B.B.B.B.B.B.B.B.B.B.B.B.B.B.B.B.' ' K b b c c p u u u p 8 5 5 < < * * * < c r.b.x.B.B.B.B.B.B.B.B.B.B.B.B.B.B.B.B.B.B.B.B.",
"B.B.B.B.B.B.B.B.B.B.B.B.B.B.B.B.B.B.B.....G b c b b p u u u u 8 < 5 < & & & & * j 6.b.x.B.B.B.B.B.B.B.B.B.B.B.B.B.B.B.B.B.B.B.B.",
"B.B.B.B.B.B.B.B.B.B.B.B.B.B.B.6.B.B.B..._ K c B b b p u u u 5 < 5 < & & & & & = j 6.b.v.B.B.B.B.B.B.B.B.B.B.B.B.B.B.B.B.B.B.B.B.",
"B.B.B.B.B.B.B.B.B.B.B.B.B.B.B.6.B.B.B.' ..K c c b b p u u u 8 < < < * & & & & & j 6.b.v.B.B.B.B.B.B.B.B.B.B.B.B.B.B.B.B.B.B.B.B.",
"B.B.B.B.B.B.B.B.B.B.B.B.B.B.B.6.B.B.B..._ K B C b b p u u u 8 < 5 < * & & & o o j d.N.d.-.B.B.B.B.B.B.B.B.B.B.B.B.B.B.B.B.B.B.B.",
"B.B.B.B.B.B.B.B.B.B.B.B.B.B.B.6.B.B.B.' K F &.R b b p u u u 8 < 4 - & & & + o o ' b.N.6.#.B.B.B.B.B.B.B.B.B.B.B.B.B.B.B.B.B.B.B.",
"B.B.B.B.B.B.B.B.B.B.B.B.B.B.B.6.B.B./ ..C K 6.,.F b p u u u 8 6 4 & & & o   o @ -.b.N.2.' B.B.B.B.B.B.B.B.B.B.B.B.B.B.B.B.B.B.B.",
"B.B.B.B.B.B.B.B.B.B.B.B.B.B.B.,.B.B.....C ,.t.Q C n u u u u 8 < < & & & o     + 4.N.x.-.+.B.B.B.B.B.B.B.B.B.B.B.B.B.B.B.B.B.B.B.",
"B.B.B.B.B.B.B.B.B.B.B.B.B.B.B.B.B.B.' ' K 6.i.K b n p u u u 8 6 5 & & = o   o + 4.b.u.&.+.B.B.B.B.B.B.B.B.B.B.B.B.B.B.B.B.B.B.B.",
"B.B.B.B.B.B.B.B.B.B.B.B.B.B.B.B.B.B.B.| ' t.x.T b b p u u u 8 < 5 & & & +     + ' u./ ` +.B.B.B.B.B.B.B.B.B.B.B.B.B.B.B.B.B.B.B.",
"B.B.B.B.B.B.B.B.B.B.B.B.B.B.B.B.B.B.B.| +.t.x.R C b p u u p 8 4 5 & & & + o   o < +.| ` +.B.B.B.B.B.B.B.B.B.B.B.B.B.B.B.B.B.B.B.",
"B.B.B.B.B.B.B.B.B.B.B.B.B.B.B.B.B.B.B.+.+.u.x.R b n p u u u 8 < 5 = & & & o o o u F ' ' | B.B.B.B.B.B.B.B.B.B.B.B.B.B.B.B.B.B.B.",
"B.B.B.B.B.B.B.B.B.B.B.B.B.B.B.B.B.B.E ' | u.x.R b n p u u u 8 4 5 5 & & & & + o p V ' | | B.B.B.B.B.B.B.B.B.B.B.B.B.B.B.B.B.B.B.",
"B.B.B.B.B.B.B.B.B.B.B.B.B.B.B.B.B.B.B.| +.u.v.R b j u u u u 8 4 < < & & & & & & f b ' +...B.B.B.B.B.B.B.B.B.B.B.B.B.B.B.B.B.B.B.",
"B.B.B.B.B.B.B.B.B.B.B.B.B.B.B.B.B.B.B.#.i.d.x.R C n a u u u 8 4 7 < & = & & & & f C ' | B.B.B.B.B.B.B.B.B.B.B.B.B.B.B.B.B.B.B.B.",
"B.B.B.B.B.B.B.B.B.B.B.B.B.B.B.B.B.B.B.+.d.d.x.T C j a u u u y 4 5 < < = & & & = p b B / B.B.&.B.B.B.B.B.B.B.B.B.B.B.B.B.B.B.B.B.",
"B.B.B.B.B.B.B.B.B.B.B.B.B.B.B.B.B.B.B.' ..t.x.T c C a u u u u 8 5 5 5 < 4 - & = h B / ..B.B.2.B.B.B.B.B.B.B.B.B.B.B.B.B.B.B.B.B.",
"B.B.B.B.B.B.B.B.B.B.B.B.B.B.B.B.B.B.B.+.+.x.v.T C j a u u u u 8 5 < 7 5 < < < 4 j B _ ' B.6.d.B.B.B.B.B.B.B.B.B.B.B.B.B.B.B.B.B.",
"B.B.B.B.B.B.B.B.B.B.B.B.B.B.B.B.B.B.B.+.+.x.v.T C j a y u u u 4 < 5 5 < 5 < 8 j B / +.+.r.d.i.B.B.B.B.B.B.B.B.B.B.B.B.B.B.B.B.B.",
"B.B.B.B.B.B.B.B.B.B.B.B.B.B.B.B.B.B.B.0.+.k.N.T j C C a u u u 8 5 < 5 < 5 5 5 h B / ' +.t.d.B.B.B.B.B.B.B.B.B.B.B.B.B.B.B.B.B.B.",
"B.B.B.B.B.B.B.B.B.B.B.B.B.B.B.B.B.B.B.B.+.k.v.T C C j a u u u u 5 5 5 5 < 5 j b b ` +.0.d.d.B.B.B.B.B.B.B.B.B.B.B.B.B.B.B.B.B.B.",
"B.B.B.B.B.B.B.B.B.B.B.B.B.B.B.B.B.B.B.B.+.k.v.T n b C l p u u u 7 5 5 < 5 < h b F ' 0.d.d.6.B.B.B.B.B.B.B.B.B.B.B.B.B.B.B.B.B.B.",
"B.B.B.B.B.B.B.B.B.B.B.B.B.B.B.B.B.B.B.B.| x.k.U C b n j p u u u 7 7 < 5 5 7 h b ` | +.0.f.B.B.B.B.B.B.B.B.B.B.B.B.B.B.B.B.B.B.B.",
"B.B.B.B.B.B.B.B.B.B.B.B.B.B.B.B.B.B.B.B.B.u.x.U b C b b f u u u y e 7 5 7 5 h B ` +.0.s.f.B.B.B.B.B.B.B.B.B.B.B.B.B.B.B.B.B.B.B.",
"B.B.B.B.B.B.B.B.B.B.B.B.B.B.B.B.B.B.B.B.B.-.d.E N N b b b p u u p e e 7 p b B / +.0.d.d.s.B.B.B.B.B.B.B.B.B.B.B.B.B.B.B.B.B.B.B.",
"B.B.B.B.B.B.B.B.B.B.B.B.B.B.B.B.B.B.B.B.B.t.v.r.) C C c b f p u u u p j c Q ) ..0.d.d.u.B.B.B.B.B.B.B.B.B.B.B.B.B.B.B.B.B.B.B.B.",
"B.B.B.B.B.B.B.B.B.B.B.B.B.B.B.B.B.B.B.B.B.t.b.,.' K B c b c p p u n b F b ) ..r.d.N.d.B.B.B.B.B.B.B.B.B.B.B.B.B.B.B.B.B.B.B.B.B.",
"B.B.B.B.B.B.B.B.B.B.B.B.B.B.B.B.B.B.B.B.B.t.d.t.$.) K B c b F K K K U 0./ 2.,.x.b.b.d.B.B.B.B.B.B.B.B.B.B.B.B.B.B.B.B.B.B.B.B.B.",
"B.B.B.B.B.B.B.B.B.B.B.B.B.B.B.B.B.B.B.B.B.0.d.d.$...) C C c ,.l.d.s.u.d.u.v.b.b.x.i.B.B.B.B.B.B.B.B.B.B.B.B.B.B.B.B.B.B.B.B.B.B.",
"B.B.B.B.B.B.B.B.B.B.B.B.B.B.B.B.B.B.B.B.B.B.d.d.$...' K K C ,.i.v.b.N.N.N.b.N.x.r.B.B.B.B.B.B.B.B.B.B.B.B.B.B.B.B.B.B.B.B.B.B.B.",
"B.B.B.B.B.B.B.B.B.B.B.B.B.B.B.B.B.B.B.B.B.B.6.i.-...+.' ..K K ' +.t.x.v.l.l.d.6.B.B.B.B.B.B.B.B.B.B.B.B.B.B.B.B.B.B.B.B.B.B.B.B.",
"B.B.B.B.B.B.B.B.B.B.B.B.B.B.B.B.B.B.B.B.B.B.B.t.t.&.......' ......+...+.+.t.t.B.B.B.B.B.B.B.B.B.B.B.B.B.B.B.B.B.B.B.B.B.B.B.B.B.",
"B.B.B.B.B.B.B.B.B.B.B.B.B.B.B.B.B.B.B.B.B.B.B.t.u.B.' +.....+...........+.B.B.B.B.B.B.B.B.B.B.B.B.B.B.B.B.B.B.B.B.B.B.B.B.B.B.B.",
"B.B.B.B.B.B.B.B.B.B.B.B.B.B.B.B.B.B.B.B.B.B.B.t.t.B.B.' +.| +.' ....+.' B.B.B.B.B.B.B.B.B.B.B.B.B.B.B.B.B.B.B.B.B.B.B.B.B.B.B.B.",
"B.B.B.B.B.B.B.B.B.B.B.B.B.B.B.B.B.B.B.B.B.B.B.t.d.6.B.B.E +.| +.....+.' B.B.B.B.B.B.B.B.B.B.B.B.B.B.B.B.B.B.B.B.B.B.B.B.B.B.B.B.",
"B.B.B.B.B.B.B.B.B.B.B.B.B.B.B.B.B.B.B.B.B.B.B.B.t.d.6.B.B.B.B.B.B.B.B.B.B.B.B.B.B.B.B.B.B.B.B.B.B.B.B.B.B.B.B.B.B.B.B.B.B.B.B.B.",
"B.B.B.B.B.B.B.B.B.B.B.B.B.B.B.B.B.B.B.B.B.B.B.B.B.0.d.t.B.B.B.B.B.B.B.B.B.B.B.B.B.B.B.B.B.B.B.B.B.B.B.B.B.B.B.B.B.B.B.B.B.B.B.B.",
"B.B.B.B.B.B.B.B.B.B.B.B.B.B.B.B.B.B.B.B.B.B.B.B.B.B.6.t.t.d.B.B.B.B.B.B.B.B.B.B.B.B.B.B.B.B.B.B.B.B.B.B.B.B.B.B.B.B.B.B.B.B.B.B.",
"B.B.B.B.B.B.B.B.B.B.B.B.B.B.B.B.B.B.B.B.B.B.B.B.B.B.B.B.B.-.B.B.B.B.B.B.B.B.B.B.B.B.B.B.B.B.B.B.B.B.B.B.B.B.B.B.B.B.B.B.B.B.B.B.",
"B.B.B.B.B.B.B.B.B.B.B.B.B.B.B.B.B.B.B.B.B.B.B.B.B.B.B.B.B.B.B.B.B.B.B.B.B.B.B.B.B.B.B.B.B.B.B.B.B.B.B.B.B.B.B.B.B.B.B.B.B.B.B.B.",
"B.B.B.B.B.B.B.B.B.B.B.B.B.B.B.B.B.B.B.B.B.B.B.B.B.B.B.B.B.B.B.B.B.B.B.B.B.B.B.B.B.B.B.B.B.B.B.B.B.B.B.B.B.B.B.B.B.B.B.B.B.B.B.B."
};
