/* XPM */
static char *cG9ydGFsLTA_[] = {
/* columns rows colors chars-per-pixel */
"64 64 163 2 ",
"   c #0F0D08",
".  c #100D08",
"X  c #100E08",
"o  c #110E09",
"O  c #110F09",
"+  c #13100A",
"@  c #15110B",
"#  c #15120B",
"$  c #19150D",
"%  c #1A160D",
"&  c #1A160E",
"*  c #1B160E",
"=  c #1B170E",
"-  c #1C180E",
";  c #1C180F",
":  c #1D180F",
">  c #231D12",
",  c #241E13",
"<  c #251E13",
"1  c #251F13",
"2  c #261F13",
"3  c #261F14",
"4  c #262013",
"5  c #272014",
"6  c #272114",
"7  c #282114",
"8  c #282115",
"9  c #292215",
"0  c #2A2216",
"q  c #2D2617",
"w  c #2E2618",
"e  c #2F2718",
"r  c #2F2818",
"t  c #302819",
"y  c #302919",
"u  c #312919",
"i  c #32291A",
"p  c #322A1A",
"a  c #332A1A",
"s  c #332B1A",
"d  c #342B1B",
"f  c #342C1B",
"g  c #352C1B",
"h  c #362C1C",
"j  c #362D1C",
"k  c #382E1D",
"l  c #382F1D",
"z  c #392F1D",
"x  c #392E1E",
"c  c #3A2F1E",
"v  c #3A301E",
"b  c #3B301E",
"n  c #3A311E",
"m  c #3B311F",
"M  c #3C311F",
"N  c #3C321F",
"B  c #3D321F",
"V  c #3D331F",
"C  c #3D3220",
"Z  c #3E3220",
"A  c #3E3320",
"S  c #3E3420",
"D  c #3F3420",
"F  c #3F3421",
"G  c #3F3521",
"H  c #403521",
"J  c #413521",
"K  c #403621",
"L  c #413621",
"P  c #413622",
"I  c #413722",
"U  c #423722",
"Y  c #433723",
"T  c #433822",
"R  c #433823",
"E  c #443923",
"W  c #453923",
"Q  c #453924",
"!  c #453A24",
"~  c #463A24",
"^  c #473A24",
"/  c #473B24",
"(  c #473B25",
")  c #483B25",
"_  c #483C25",
"`  c #493C26",
"'  c #493D26",
"]  c #4A3D26",
"[  c #4B3D27",
"{  c #4A3E26",
"}  c #4B3E27",
"|  c #4C3E27",
" . c #4C3F27",
".. c #4D3F28",
"X. c #4C4027",
"o. c #4D4028",
"O. c #4D4128",
"+. c #4E4028",
"@. c #4E4128",
"#. c #4F4129",
"$. c #4F4229",
"%. c #504229",
"&. c #504329",
"*. c #51422A",
"=. c #51432A",
"-. c #52432A",
";. c #51442A",
":. c #52442A",
">. c #52452A",
",. c #53452B",
"<. c #53462B",
"1. c #54452B",
"2. c #54462B",
"3. c #55472C",
"4. c #56472C",
"5. c #56482C",
"6. c #57482D",
"7. c #57492D",
"8. c #59492E",
"9. c #584A2E",
"0. c #594A2E",
"q. c #5A4B2F",
"w. c #5B4C2F",
"e. c #5C4D2F",
"r. c #5C4D30",
"t. c #5D4D30",
"y. c #5D4E30",
"u. c #5E4E30",
"i. c #5F4E31",
"p. c #5E4F31",
"a. c #5F4F31",
"s. c #5F5031",
"d. c #605031",
"f. c #605032",
"g. c #605132",
"h. c #615132",
"j. c #625232",
"k. c #625233",
"l. c #635333",
"z. c #645333",
"x. c #645434",
"c. c #655434",
"v. c #655534",
"b. c #655535",
"n. c #665535",
"m. c #665636",
"M. c #665637",
"N. c #675637",
"B. c #675737",
"V. c #675738",
"C. c #685739",
"Z. c #685839",
"A. c #68583A",
"S. c #68593A",
"D. c #69593B",
"F. c #695A3C",
"G. c #6A5A3D",
"H. c #6A5B3D",
"J. c #6A5B3E",
"K. c #6B5C3F",
"L. c #6B5C40",
"P. c #6B5D40",
"I. c None",
/* pixels */
"I.I.I.I.I.I.I.I.I.I.I.I.I.I.I.I.I.I.I.I.I.I.I.I.I.I.I.I.I.I.I.I.I.I.I.I.I.I.I.I.I.I.I.I.I.I.I.I.I.I.I.I.I.I.I.I.I.I.I.I.I.I.I.I.",
"I.I.I.I.I.I.I.I.I.I.I.I.I.I.I.I.I.I.I.I.I.I.I.I.I.I.I.I.I.I.I.I.I.I.I.I.I.I.I.I.I.I.I.I.I.I.I.I.I.I.I.I.I.I.I.I.I.I.I.I.I.I.I.I.",
"I.I.I.I.I.I.I.I.I.I.I.I.I.I.I.I.I.I.I.I.I.I.I.I.I.I.I.I.I.I.I.I.I.I.I.I.I.I.I.I.I.I.I.I.I.I.I.I.I.I.I.I.I.I.I.I.I.I.I.I.I.I.I.I.",
"I.I.I.I.I.I.I.I.I.I.I.I.I.I.I.I.I.I.I.I.I.I.I.I.I.I.I.I.I.I.I.I.I.I.I.I.I.I.I.I.I.I.I.I.I.I.I.I.I.I.I.I.I.I.I.I.I.I.I.I.I.I.I.I.",
"I.I.I.I.I.I.I.I.I.I.I.I.I.I.I.I.I.I.I.I.I.I.I.I.I.s.z.f.v.v.z.z.I.I.I.I.I.I.I.I.I.I.I.I.I.I.I.I.I.I.I.I.I.I.I.I.I.I.I.I.I.I.I.I.",
"I.I.I.I.I.I.I.I.I.I.I.I.I.I.I.I.I.I.I.I.I.I.I.I.f.b.b.b.b.b.b.n.b.I.I.I.I.I.I.I.I.I.I.I.I.I.I.I.I.I.I.I.I.I.I.I.I.I.I.I.I.I.I.I.",
"I.I.I.I.I.I.I.I.I.I.I.I.I.I.I.I.I.I.I.I.I.I.I.I.w.s.p.f.z.v.b.b.n.n.>.I.I.I.I.I.I.I.I.I.I.I.I.I.I.I.I.I.I.I.I.I.I.I.I.I.I.I.I.I.",
"I.I.I.I.I.I.I.I.I.I.I.I.I.I.I.I.I.I.I.I.I.I.I.I.I.I.I.I. .f.v.b.n.n.b.>.I.I.I.I.I.I.I.I.I.I.I.I.I.I.I.I.I.I.I.I.I.I.I.I.I.I.I.I.",
"I.I.I.I.I.I.I.I.I.I.I.I.I.I.I.I.I.I.I.I.I.I.I.I.I.I.I.$.$.>.>.f.b.n.n.>.%.I.I.I.I.I.I.I.I.I.I.I.I.I.I.I.I.I.I.I.I.I.I.I.I.I.I.I.",
"I.I.I.I.I.I.I.I.I.I.I.I.I.I.I.I.I.I.I.I.I.I.I.I.I.+.>.$.$.$.+.+.f.H.H.3.>.+.I.I.I.I.I.I.I.I.I.I.I.I.I.I.I.I.I.I.I.I.I.I.I.I.I.I.",
"I.I.I.I.I.I.I.I.I.I.I.I.I.I.I.I.I.I.I.I.I.I.I.I.` +.+.>.>.$.$.+.U f.K.b.7.%.` ` I.I.I.I.I.I.I.I.I.I.I.I.I.I.I.I.I.I.I.I.I.I.I.I.",
"I.I.I.I.I.I.I.I.I.I.I.I.I.I.I.I.I.I.I.I.I.I.I.+.+.>.>.+.$.X.+.G n U G.G.b.1.>.+.I.I.I.I.I.I.I.I.I.I.I.I.I.I.I.I.I.I.I.I.I.I.I.I.",
"I.I.I.I.I.I.I.I.I.I.I.I.I.I.I.I.I.I.I.I.I.I.I.>.>.>.+.X.C C C C c c s.G.K.8.%.%.+.I.I.I.I.I.I.I.I.I.I.I.I.I.I.I.I.I.I.I.I.I.I.I.",
"I.I.I.I.I.I.I.I.I.I.I.I.I.I.I.I.I.I.I.I.I.I.I.+.$.$.X.G C n C n c M U f.S.v.>.%.>.I.I.I.I.I.I.I.I.I.I.I.I.I.I.I.I.I.I.I.I.I.I.I.",
"I.I.I.I.I.I.I.I.I.I.I.I.I.I.I.I.I.I.I.I.I.I.+.>.%.` G n n C C C M n c C l.b.` X.+.+.I.I.I.I.I.I.I.I.I.I.I.I.I.I.I.I.I.I.I.I.I.I.",
"I.I.I.I.I.I.I.I.I.I.I.I.I.I.I.I.I.I.I.I.I.I.+.>.X.U M n C c c c n u c c f.K.X.X.>.+.I.I.I.I.I.I.I.I.I.I.I.I.I.I.I.I.I.I.I.I.I.I.",
"I.I.I.I.I.I.I.I.I.I.I.I.I.I.I.I.I.I.7.I.I.I.+.%.U U U n n c C u u u u u >.S.b.>.+.+.I.I.I.I.I.I.I.I.I.I.I.I.I.I.I.I.I.I.I.I.I.I.",
"I.I.I.I.I.I.I.I.I.I.I.I.I.I.I.I.I.I.I.I.I.+.%.>.` p.p.G c M u e t e e e u f.f.Q +.>.%.I.I.I.I.I.I.I.I.I.I.I.I.I.I.I.I.I.I.I.I.I.",
"I.I.I.I.I.I.I.I.I.I.I.I.I.I.I.I.I.I.I.I.I.>.%.s.k.G.V.G M g u u t u 5 5 3 p.[ C X.>.+.I.p.I.I.I.I.I.I.I.I.I.I.I.I.I.I.I.I.I.I.I.",
"I.I.I.I.I.I.I.I.I.I.I.I.I.I.I.I.I.I.I.I.` %.>.k.G.C.Q C M u u r u 5 2 2 2 e.) n G X.>.I.i.I.I.I.I.I.I.I.I.I.I.I.I.I.I.I.I.I.I.I.",
"I.I.I.I.I.I.I.I.I.I.I.I.I.I.I.I.I.I.I.I.%.;.k.G.D.Q C c p p e e 5 3 > 3 5 7.W c n C ` I.i.f.I.I.I.I.I.I.I.I.I.I.I.I.I.I.I.I.I.I.",
"I.I.I.I.I.I.I.I.I.I.I.I.I.I.I.I.I.I.I.X.%.%.k.S.Y m C c p e p p 5 5 2 2 4 5 2 j n n ) I.i.b.I.I.I.I.I.I.I.I.I.I.I.I.I.I.I.I.I.I.",
"I.I.I.I.I.I.I.I.I.I.I.I.I.I.I.I.I.I.I.+.>.b.G.G.P m m p e e e r 5 > > 5 4 4 5 j n ..+.I.p.b.I.I.I.I.I.I.I.I.I.I.I.I.I.I.I.I.I.I.",
"I.I.I.I.I.I.I.I.I.I.I.I.I.I.I.I.I.I.I.%.%.b.G.k.P m m p e i p 8 4 4 5 = = = - a C ` >.%.s.b.I.I.I.I.I.I.I.I.I.I.I.I.I.I.I.I.I.I.",
"I.I.I.I.I.I.I.I.I.I.I.I.I.I.I.I.I.I.I.+.>.b.S.W M M c u e e p 5 5 > ; = = = = f n G _ >.s.b.I.I.I.I.I.I.I.I.I.I.I.I.I.I.I.I.I.I.",
"I.I.I.I.I.I.I.I.I.I.I.I.I.I.I.I.I.I._ >.>.K.f.U n n u u p r e 3 4 > = = = = & f M M _ +.s.b.I.I.I.I.I.I.I.I.I.I.I.I.I.I.I.I.I.I.",
"I.I.I.I.I.I.I.I.I.I.I.I.I.I.I.I.I.I.I.>.b.G.Q c C n u u r u e 5 3 = & = & & + e n M ` +.s.b.I.I.I.I.I.I.I.I.I.I.I.I.I.I.I.I.I.I.",
"I.I.I.I.I.I.I.I.I.I.I.I.I.I.I.I.I.I.I.;.L.G.Q C n c a u r r 5 , > = = = & +   o u M ` >.s.b.I.I.I.I.I.I.I.I.I.I.I.I.I.I.I.I.I.I.",
"I.I.I.I.I.I.I.I.I.I.I.I.I.I.I.I.I.I.I.l.L.S.W n C c p u u r 5 5 4 = = = @     + u C ` e.b.b.I.I.I.I.I.I.I.I.I.I.I.I.I.I.I.I.I.I.",
"I.I.I.I.I.I.I.I.I.I.I.I.I.I.I.I.I.I.I.G.G.T M C n c p u r u 5 3 4 = = = +     o a M ) p.b.l.I.I.I.I.I.I.I.I.I.I.I.I.I.I.I.I.I.I.",
"I.I.I.I.I.I.I.I.I.I.I.I.I.I.I.I.I.I.f.L.l.n n n C c u u p p 5 3 > = = = +     + u M ` e.b.I.I.I.I.I.I.I.I.I.I.I.I.I.I.I.I.I.I.I.",
"I.I.I.I.I.I.I.I.I.I.I.I.I.I.I.I.I.I.b.G.>.n n M n c u u e e 5 3 4 = = = +     + u M ) p.b.I.I.I.I.I.I.I.I.I.I.I.I.I.I.I.I.I.I.I.",
"I.I.I.I.I.I.I.I.I.I.I.I.I.I.I.I.I.I.b.G.+.C n c m c p u r u 5 4 4 & = = +   o e n M ` u.b.I.I.I.I.I.I.I.I.I.I.I.I.I.I.I.I.I.I.I.",
"I.I.I.I.I.I.I.I.I.I.I.I.I.I.I.I.I.I.k.x.+.n c C m m i u u r 5 4 4 = & = +   o u M M ` d.b.I.I.I.I.I.I.I.I.I.I.I.I.I.I.I.I.I.I.I.",
"I.I.I.I.I.I.I.I.I.I.I.I.I.I.I.I.I.p.b.%.>.C c n c c p u r u 5 5 2 ; & & o o o u M M 1.v.b.I.I.I.I.I.I.I.I.I.I.I.I.I.I.I.I.I.I.I.",
"I.I.I.I.I.I.I.I.I.I.I.I.I.I.I.I.I.e.x.>.+.n c C C c p u p r 5 > 2 > = = & + + u M D 6.n.f.I.I.I.I.I.I.I.I.I.I.I.I.I.I.I.I.I.I.I.",
"I.I.I.I.I.I.I.I.I.I.I.I.I.I.I.I.I.I.l.%.$.C n n C C u r p e 5 5 2 2 ; & & & & u M M 1.b.I.I.I.I.I.I.I.I.I.I.I.I.I.I.I.I.I.I.I.I.",
"I.I.I.I.I.I.I.I.I.I.I.I.I.I.I.I.I.8.b.+.+.C n C n j p u r u 0 3 2 2 % & - ; & h M e.S.Z.I.I.I.I.I.I.I.I.I.I.I.I.I.I.I.I.I.I.I.I.",
"I.I.I.I.I.I.I.I.I.I.I.I.I.I.I.I.I.v.b.+.+.C l C C c p u u r 5 > 2 > ; & ; & ; u G b.K.w.X.I.I.I.I.I.I.I.I.I.I.I.I.I.I.I.I.I.I.I.",
"I.I.I.I.I.I.I.I.I.I.I.I.I.I.I.I.I.f.b.+.+.C n c C m p u r u 5 2 2 2 > ; & ; & h M v.S.7.I.I.I.I.I.I.I.I.I.I.I.I.I.I.I.I.I.I.I.I.",
"I.I.I.I.I.I.I.I.I.I.I.I.I.I.I.I.I.f.v.%.%.X.U c C c u u t t 0 2 > 2 > 4 2 > 3 j C f.p.>.I.I.I.I.I.I.I.I.I.I.I.I.I.I.I.I.I.I.I.I.",
"I.I.I.I.I.I.I.I.I.I.I.I.I.I.I.I.I.z.b.+.>.+.U M n c u u t t e 5 4 4 2 4 2 2 3 j b.G.w.%.I.I.I.I.I.I.I.I.I.I.I.I.I.I.I.I.I.I.I.I.",
"I.I.I.I.I.I.I.I.I.I.I.I.I.I.I.I.I.p.f.I.>.+.U 8.Q C C u t t t 5 4 > 2 2 2 4 g V l.8.+.>.I.I.I.I.I.I.I.I.I.I.I.I.I.I.I.I.I.I.I.I.",
"I.I.I.I.I.I.I.I.I.I.I.I.I.I.I.I.I.I.f.I.` X.G s.G.V.U u t t t 5 4 4 2 2 2 4 j b.G.1.>.` I.I.I.I.I.I.I.I.I.I.I.I.I.I.I.I.I.I.I.I.",
"I.I.I.I.I.I.I.I.I.I.I.I.I.I.I.I.I.I.f.I.I.>.U w.b.V.R c u e u e 5 4 3 5 > 5 n b.5.$.$.I.I.I.I.I.I.I.I.I.I.I.I.I.I.I.I.I.I.I.I.I.",
"I.I.I.I.I.I.I.I.I.I.I.I.I.I.I.I.I.I.f.I.I.>.+.U p.V.Q n u u e t r 5 3 3 5 j f.S.5.>.>.I.I.I.I.I.I.I.I.I.I.I.I.I.I.I.I.I.I.I.I.I.",
"I.I.I.I.I.I.I.I.I.I.I.I.I.I.I.I.I.I.f.I.I.>.+.T p.C.k.C p u t t r e e 3 5 f 8.+.X.>.+.I.I.I.I.I.I.I.I.I.I.I.I.I.I.I.I.I.I.I.I.I.",
"I.I.I.I.I.I.I.I.I.I.I.I.I.I.I.I.I.I.f.I.I.>.+.G Q V.V.P m p u t r u e e 5 0 G ` +.+.I.I.I.I.I.I.I.I.I.I.I.I.I.I.I.I.I.I.I.I.I.I.",
"I.I.I.I.I.I.I.I.I.I.I.I.I.I.I.I.I.I.p.I.I.+.+.+.T s.S.W n c u t u u u r j j _ $.>.+.I.I.I.I.I.I.I.I.I.I.I.I.I.I.I.I.I.I.I.I.I.I.",
"I.I.I.I.I.I.I.I.I.I.I.I.I.I.I.I.I.I.I.I.I.I.X.+.T <.B.e.U M a u p u j c n C X.>.$.%.I.I.I.I.I.I.I.I.I.I.I.I.I.I.I.I.I.I.I.I.I.I.",
"I.I.I.I.I.I.I.I.I.I.I.I.I.I.I.I.I.I.I.I.I.I.I.$.X.>.b.b.Q V n s c n C G G ` +.$.+.+.I.I.I.I.I.I.I.I.I.I.I.I.I.I.I.I.I.I.I.I.I.I.",
"I.I.I.I.I.I.I.I.I.I.I.I.I.I.I.I.I.I.I.I.I.I.I.+.>.>.f.G.S.` M n c C n X.+.+.$.X.I.I.I.I.I.I.I.I.I.I.I.I.I.I.I.I.I.I.I.I.I.I.I.I.",
"I.I.I.I.I.I.I.I.I.I.I.I.I.I.I.I.I.I.I.I.I.I.I.I.X.+.;.b.G.b.` M n C C +.$.>.+.X.I.I.I.I.I.I.I.I.I.I.I.I.I.I.I.I.I.I.I.I.I.I.I.I.",
"I.I.I.I.I.I.I.I.I.I.I.I.I.I.I.I.I.I.I.I.I.I.I.I.` >.>.s.l.S.b.T C X...>.$.>.+.I.I.I.I.I.b.I.I.I.I.I.I.I.I.I.I.I.I.I.I.I.I.I.I.I.",
"I.I.I.I.I.I.I.I.I.I.I.I.I.I.I.I.I.I.I.I.I.I.I.I.I.+.%.>.>.f.K.>.+.>.+.;.>.$.+.I.I.I.I.b.L.I.I.I.I.I.I.I.I.I.I.I.I.I.I.I.I.I.I.I.",
"I.I.I.I.I.I.I.I.I.I.I.I.I.I.I.I.I.I.I.I.I.I.I.I.I.I.+.>.%.>.b.v.x.%.>.;.>.+.I.w.I.I.I.I.I.I.I.I.I.I.I.I.I.I.I.I.I.I.I.I.I.I.I.I.",
"I.I.I.I.I.I.I.I.I.I.I.I.I.I.I.I.I.I.I.I.I.I.I.I.I.I.I.%.%.%.f.b.b.b.%.%.I.I.7.v.s.I.I.I.I.I.I.I.I.I.I.I.I.I.I.I.I.I.I.I.I.I.I.I.",
"I.I.I.I.I.I.I.I.I.I.I.I.I.I.I.I.I.I.I.I.I.I.I.I.I.I.I.+.>.>.z.b.b.b.c.b.f.f.v.s.I.I.I.I.I.I.I.I.I.I.I.I.I.I.I.I.I.I.I.I.I.I.I.I.",
"I.I.I.I.I.I.I.I.I.I.I.I.I.I.I.I.I.I.I.I.I.I.I.I.I.I.I.I.I.I.I.f.b.b.b.b.b.b.f.I.I.I.I.I.I.I.I.I.I.I.I.I.I.I.I.I.I.I.I.I.I.I.I.I.",
"I.I.I.I.I.I.I.I.I.I.I.I.I.I.I.I.I.I.I.I.I.I.I.I.I.I.I.I.I.I.I.I.f.z.z.z.v.f.I.I.I.I.I.I.I.I.I.I.I.I.I.I.I.I.I.I.I.I.I.I.I.I.I.I.",
"I.I.I.I.I.I.I.I.I.I.I.I.I.I.I.I.I.I.I.I.I.I.I.I.I.I.I.I.I.I.I.I.I.I.I.I.I.I.I.I.I.I.I.I.I.I.I.I.I.I.I.I.I.I.I.I.I.I.I.I.I.I.I.I.",
"I.I.I.I.I.I.I.I.I.I.I.I.I.I.I.I.I.I.I.I.I.I.I.I.I.I.I.I.I.I.I.I.I.I.I.I.I.I.I.I.I.I.I.I.I.I.I.I.I.I.I.I.I.I.I.I.I.I.I.I.I.I.I.I.",
"I.I.I.I.I.I.I.I.I.I.I.I.I.I.I.I.I.I.I.I.I.I.I.I.I.I.I.I.I.I.I.I.I.I.I.I.I.I.I.I.I.I.I.I.I.I.I.I.I.I.I.I.I.I.I.I.I.I.I.I.I.I.I.I.",
"I.I.I.I.I.I.I.I.I.I.I.I.I.I.I.I.I.I.I.I.I.I.I.I.I.I.I.I.I.I.I.I.I.I.I.I.I.I.I.I.I.I.I.I.I.I.I.I.I.I.I.I.I.I.I.I.I.I.I.I.I.I.I.I."
};
