/* XPM */
static char *cG9ydGFsLTE_[] = {
/* columns rows colors chars-per-pixel */
"64 64 151 2 ",
"   c #100D08",
".  c #100E08",
"X  c #110E09",
"o  c #120F09",
"O  c #13100A",
"+  c #14110A",
"@  c #16120B",
"#  c #19150D",
"$  c #1A160D",
"%  c #1A160E",
"&  c #1B160E",
"*  c #1B170E",
"=  c #1C180E",
"-  c #1C180F",
";  c #1D180F",
":  c #231D12",
">  c #251E13",
",  c #251F13",
"<  c #261F13",
"1  c #261F14",
"2  c #262013",
"3  c #262014",
"4  c #272014",
"5  c #272114",
"6  c #282114",
"7  c #282115",
"8  c #2E2618",
"9  c #2F2718",
"0  c #302819",
"q  c #302919",
"w  c #312919",
"e  c #32291A",
"r  c #322A1A",
"t  c #332A1A",
"y  c #332B1A",
"u  c #342B1B",
"i  c #352C1B",
"p  c #362C1C",
"a  c #362D1C",
"s  c #372E1C",
"d  c #382E1D",
"f  c #382F1D",
"g  c #392F1D",
"h  c #392E1E",
"j  c #3A2F1E",
"k  c #39301E",
"l  c #3A301E",
"z  c #3B301E",
"x  c #3A311E",
"c  c #3B311F",
"v  c #3C311F",
"b  c #3C321F",
"n  c #3D321F",
"m  c #3D331F",
"M  c #3D3220",
"N  c #3E3220",
"B  c #3E3320",
"V  c #3E3420",
"C  c #3F3420",
"Z  c #3F3421",
"A  c #403421",
"S  c #403521",
"D  c #403621",
"F  c #413621",
"G  c #413622",
"H  c #413722",
"J  c #423622",
"K  c #423722",
"L  c #433722",
"P  c #433723",
"I  c #433822",
"U  c #433823",
"Y  c #443823",
"T  c #443923",
"R  c #453923",
"E  c #453A24",
"W  c #463A24",
"Q  c #473B24",
"!  c #483C25",
"~  c #493C26",
"^  c #493D26",
"/  c #4A3D26",
"(  c #4B3D27",
")  c #4A3E26",
"_  c #4B3E27",
"`  c #4B3F27",
"'  c #4C3E27",
"]  c #4C3F27",
"[  c #4D3F28",
"{  c #4C4027",
"}  c #4D4028",
"|  c #4D4128",
" . c #4E4028",
".. c #4E4128",
"X. c #4F4129",
"o. c #4F4229",
"O. c #504229",
"+. c #504329",
"@. c #51422A",
"#. c #51432A",
"$. c #51442A",
"%. c #52442A",
"&. c #52452A",
"*. c #53452B",
"=. c #53462B",
"-. c #54462B",
";. c #55472C",
":. c #56482C",
">. c #57482D",
",. c #57492D",
"<. c #584A2E",
"1. c #594A2E",
"2. c #594B2E",
"3. c #5A4B2E",
"4. c #5B4C2F",
"5. c #5C4D2F",
"6. c #5C4D30",
"7. c #5D4D30",
"8. c #5D4E30",
"9. c #5E4E30",
"0. c #5E4F31",
"q. c #5F4F31",
"w. c #5F5031",
"e. c #605031",
"r. c #605032",
"t. c #605132",
"y. c #615132",
"u. c #625232",
"i. c #625233",
"p. c #635333",
"a. c #645333",
"s. c #645434",
"d. c #655434",
"f. c #655534",
"g. c #655535",
"h. c #665535",
"j. c #665536",
"k. c #665636",
"l. c #665637",
"z. c #675637",
"x. c #675737",
"c. c #675738",
"v. c #685839",
"b. c #68583A",
"n. c #69593B",
"m. c #695A3C",
"M. c #6A5A3D",
"N. c #6A5B3D",
"B. c #6A5B3E",
"V. c #6B5C3F",
"C. c None",
/* pixels */
"C.C.C.C.C.C.C.C.C.C.C.C.C.C.C.C.C.C.C.C.C.C.C.C.C.C.C.C.C.C.C.C.C.C.C.C.C.C.C.C.C.C.C.C.C.C.C.C.C.C.C.C.C.C.C.C.C.C.C.C.C.C.C.C.",
"C.C.C.C.C.C.C.C.C.C.C.C.C.C.C.C.C.C.C.C.C.C.C.C.C.C.C.C.C.C.C.C.C.C.C.C.C.C.C.C.C.C.C.C.C.C.C.C.C.C.C.C.C.C.C.C.C.C.C.C.C.C.C.C.",
"C.C.C.C.C.C.C.C.C.C.C.C.C.C.C.C.C.C.C.C.C.C.C.C.C.C.C.C.C.C.C.C.C.C.C.C.C.C.C.C.C.C.C.C.C.C.C.C.C.C.C.C.C.C.C.C.C.C.C.C.C.C.C.C.",
"C.C.C.C.C.C.C.C.C.C.C.C.C.C.C.C.C.C.C.C.C.C.C.C.C.C.C.C.C.C.3.C.C.C.C.C.C.C.C.C.C.C.C.C.C.C.C.C.C.C.C.C.C.C.C.C.C.C.C.C.C.C.C.C.",
"C.C.C.C.C.C.C.C.C.C.C.C.C.C.C.C.C.C.C.C.C.C.C.C.C.8.p.p.p.p.j.p.a.u.C.C.C.C.C.C.C.C.C.C.C.C.C.C.C.C.C.C.C.C.C.C.C.C.C.C.C.C.C.C.",
"C.C.C.C.C.C.C.C.C.C.C.C.C.C.C.C.C.C.C.C.C.C.C.C.C.C.C.C.-.p.p.j.j.j.j.C.C.C.C.C.C.C.C.C.C.C.C.C.C.C.C.C.C.C.C.C.C.C.C.C.C.C.C.C.",
"C.C.C.C.C.C.C.C.C.C.C.C.C.C.C.C.C.C.C.C.C.C.C.C.C.C.C.C.C.C.C.8.j.a.j.C.C.C.C.C.C.C.C.C.C.C.C.C.C.C.C.C.C.C.C.C.C.C.C.C.C.C.C.C.",
"C.C.C.C.C.C.C.C.C.C.C.C.C.C.C.C.C.C.C.C.C.C.C.C.C.C.C.C.C.( +.p.j.a.j.j.>.C.C.C.C.C.C.C.C.C.C.C.C.C.C.C.C.C.C.C.C.C.C.C.C.C.C.C.",
"C.C.C.C.C.C.C.C.C.C.C.C.C.C.C.C.C.C.C.C.C.C.C.C.C.C.+.+.+.+.+.+.$.p.a.j.j.C.C.C.C.C.C.C.C.C.C.C.C.C.C.C.C.C.C.C.C.C.C.C.C.C.C.C.",
"C.C.C.C.C.C.C.C.C.C.C.C.C.C.C.C.C.C.C.C.C.C.C.C.C.[ +...+.+.+.+.o.+.a.a.a.:.C.C.C.C.C.C.C.C.C.C.C.C.C.C.C.C.C.C.C.C.C.C.C.C.C.C.",
"C.C.C.C.C.C.C.C.C.C.C.C.C.C.C.C.C.C.C.C.C.C.C.C.( ..+.+.+.+...$.$.{ x.x.j.-.] C.C.C.C.C.C.C.C.C.C.C.C.C.C.C.C.C.C.C.C.C.C.C.C.C.",
"C.C.C.C.C.C.C.C.C.C.C.C.C.C.C.C.C.C.C.C.C.C.C.C.....+.....G M ] { G T b.b.-...( C.C.C.C.C.C.C.C.C.C.C.C.C.C.C.C.C.C.C.C.C.C.C.C.",
"C.C.C.C.C.C.C.C.C.C.C.C.C.C.C.C.C.C.C.C.C.C.C.........Z Z x v Z C v v a.b.5.$.{ C.C.C.C.C.C.C.C.C.C.C.C.C.C.C.C.C.C.C.C.C.C.C.C.",
"C.C.C.C.C.C.C.C.C.C.C.C.C.C.C.C.C.C.C.C.C.C.C.$.$...Z Z j x x j v x v G 5.b.2.$...C.C.C.C.C.C.C.C.C.C.C.C.C.C.C.C.C.C.C.C.C.C.C.",
"C.C.C.C.C.C.C.C.C.C.C.C.C.C.C.C.C.C.C.C.C.C.C...$.( m x j M x M j x v j G a.j.$.....C.C.C.C.C.C.C.C.C.C.C.C.C.C.C.C.C.C.C.C.C.C.",
"C.C.C.C.C.C.C.C.C.C.C.C.C.C.C.C.C.C.C.C.C.C.{ ..{ G I I x j M x 0 0 x x v p.b.{ ....C.C.C.C.C.C.C.C.C.C.C.C.C.C.C.C.C.C.C.C.C.C.",
"C.C.C.C.C.C.C.C.C.C.C.C.C.C.C.C.C.C.C.C.C.[ ..+.T W j.p.W x M x 0 q x M v 8.N.a.-...C.C.C.C.C.C.C.C.C.C.C.C.C.C.C.C.C.C.C.C.C.C.",
"C.C.C.C.C.C.C.C.C.C.C.C.C.C.C.C.C.C.C.C...+.+.-.p.a.c.6.P x 0 0 0 q 0 i x 5.M.j.-.+...C.C.C.C.C.C.C.C.C.C.C.C.C.C.C.C.C.C.C.C.C.",
"C.C.C.C.C.C.C.C.C.C.C.C.C.C.C.C.C.C.C.C.+.+.+.q.j.b.d.Y M i 0 0 0 0 0 7 i 5.N.j.-.+.$.C.C.C.C.C.C.C.C.C.C.C.C.C.C.C.C.C.C.C.C.C.",
"C.C.C.C.C.C.C.C.C.C.C.C.C.C.C.C.C.C.C.C.+.+.+.i.M.d.T v x 0 0 0 0 9 7 4 y Z u.j.-.+...C.C.2.C.C.C.C.C.C.C.C.C.C.C.C.C.C.C.C.C.C.",
"C.C.C.C.C.C.C.C.C.C.C.C.C.C.C.C.C.C.C.C.+.@.i.M.V.a.I x u 0 0 0 7 4 , , 4 i a.j.W ....C.C.u.C.C.C.C.C.C.C.C.C.C.C.C.C.C.C.C.C.C.",
"C.C.C.C.C.C.C.C.C.C.C.C.C.C.C.C.C.C.C.( +.@.c.M.a.T x x 0 0 0 0 4 , , , , 4 8.( Z ] ....C.u.C.C.C.C.C.C.C.C.C.C.C.C.C.C.C.C.C.C.",
"C.C.C.C.C.C.C.C.C.C.C.C.C.C.C.C.C.C.C.+.$.j.M.d.G v v 0 0 0 0 0 7 , 4 , 5 , >.W v M [ +.C.p.C.C.C.C.C.C.C.C.C.C.C.C.C.C.C.C.C.C.",
"C.C.C.C.C.C.C.C.C.C.C.C.C.C.C.C.C.C.C.+.j.M.j.P j v x u 0 0 0 6 , , , , ; ; 0 x x v [ +.w.j.C.C.C.C.C.C.C.C.C.C.C.C.C.C.C.C.C.C.",
"C.C.C.C.C.C.C.C.C.C.C.C.C.C.C.C.C.C.C.$.M.M.p.Z x M j 0 0 0 0 , , 5 > & & & & e v v v ( w.j.C.C.C.C.C.C.C.C.C.C.C.C.C.C.C.C.C.C.",
"C.C.C.C.C.C.C.C.C.C.C.C.C.C.C.C.C.C.C.-.M.d.U M j M x 0 0 0 0 5 , , - $ & & $ & y m { ..w.a.j.C.C.C.C.C.C.C.C.C.C.C.C.C.C.C.C.C.",
"C.C.C.C.C.C.C.C.C.C.C.C.C.C.C.C.C.C.C.j.M.p.G M M x 0 0 0 0 8 5 , , $ $ $ # X O 0 v { $.w.j.a.C.C.C.C.C.C.C.C.C.C.C.C.C.C.C.C.C.",
"C.C.C.C.C.C.C.C.C.C.C.C.C.C.C.C.C.C.a.j.c.x j x x M 0 0 0 0 6 , , & $ $ # O . X u v { $.w.j.x.C.C.C.C.C.C.C.C.C.C.C.C.C.C.C.C.C.",
"C.C.C.C.C.C.C.C.C.C.C.C.C.C.C.C.C.C.u.j.=.x x M M j 0 0 0 0 5 : , & & & O . . X r m { { w.j.j.C.C.C.C.C.C.C.C.C.C.C.C.C.C.C.C.C.",
"C.C.C.C.C.C.C.C.C.C.C.C.C.C.C.C.C.8.j.u.o.x v x x j r q 0 0 5 5 , & & & O . . O 0 v v { 8.j.C.C.C.C.C.C.C.C.C.C.C.C.C.C.C.C.C.C.",
"C.C.C.C.C.C.C.C.C.C.C.C.C.C.C.C.C.p.a.=.o.x x v x j 0 r 0 0 7 5 , & & & X . . X y v v ( q.j.C.C.C.C.C.C.C.C.C.C.C.C.C.C.C.C.C.C.",
"C.C.C.C.C.C.C.C.C.C.C.C.C.C.C.C.C.p.j.o.o.x v x M j 0 0 0 0 7 5 3 % $ - X . . @ 0 v ( +.e.j.C.C.C.C.C.C.C.C.C.C.C.C.C.C.C.C.C.C.",
"C.C.C.C.C.C.C.C.C.C.C.C.C.C.C.C.w.a.p.+.+.x v x v j 0 0 0 0 6 , 3 $ % % @ . X 9 x M ] 8.d.j.C.C.C.C.C.C.C.C.C.C.C.C.C.C.C.C.C.C.",
"C.C.C.C.C.C.C.C.C.C.C.C.C.C.C.C.p.j.$.+...v j v x x u 0 0 0 6 , 3 % % % O . X 0 x v ] 8.j.j.C.C.C.C.C.C.C.C.C.C.C.C.C.C.C.C.C.C.",
"C.C.C.C.C.C.C.C.C.C.C.C.C.C.C.C.8.a.[ +.+.x j v v x u 0 0 0 6 , 2 % % % O . X e v v ..8.j.p.C.C.C.C.C.C.C.C.C.C.C.C.C.C.C.C.C.C.",
"C.C.C.C.C.C.C.C.C.C.C.C.C.C.C.C.w.j.C...+.v x v x j 0 0 0 0 6 , : % % % $ @ + 0 x v ] w.j.C.C.C.C.C.C.C.C.C.C.C.C.C.C.C.C.C.C.C.",
"C.C.C.C.C.C.C.C.C.C.C.C.C.C.C.C.w.j.C.....v v x v j 0 0 0 0 6 , 2 5 ; % $ & & e x v ] w.j.C.C.C.C.C.C.C.C.C.C.C.C.C.C.C.C.C.C.C.",
"C.C.C.C.C.C.C.C.C.C.C.C.C.C.C.C.C.p.C...+.v x v j x u 0 0 0 6 , 5 5 % % & & % y v m a.j.j.C.C.C.C.C.C.C.C.C.C.C.C.C.C.C.C.C.C.C.",
"C.C.C.C.C.C.C.C.C.C.C.C.C.C.C.C.C.p.C.+.{ v j v j x 0 0 0 0 6 , : : % % % % % y v Z j.c.C.C.C.C.C.C.C.C.C.C.C.C.C.C.C.C.C.C.C.C.",
"C.C.C.C.C.C.C.C.C.C.C.C.C.C.C.C.C.p.C...O.v v j v x u 0 0 0 6 , 5 , % % % % r M M 5.M.c.C.C.C.C.C.C.C.C.C.C.C.C.C.C.C.C.C.C.C.C.",
"C.C.C.C.C.C.C.C.C.C.C.C.C.C.C.C.C.p.C.C...+.G 3.G v x 0 0 0 8 6 : 5 : , , , s v A j.N.x.C.C.C.C.C.C.C.C.C.C.C.C.C.C.C.C.C.C.C.C.",
"C.C.C.C.C.C.C.C.C.C.C.C.C.C.C.C.C.p.C.C.+...P 8.x.T x 0 0 0 0 5 5 : 5 , , , y v Z a.j.j.C.C.C.C.C.C.C.C.C.C.C.C.C.C.C.C.C.C.C.C.",
"C.C.C.C.C.C.C.C.C.C.C.C.C.C.C.C.C.p.C.C.$...G p.x.T j 0 0 0 0 7 , , , , 5 , y v a.N.j.:.C.C.C.C.C.C.C.C.C.C.C.C.C.C.C.C.C.C.C.C.",
"C.C.C.C.C.C.C.C.C.C.C.C.C.C.C.C.C.3.C.C.+...G 8.b.T x s u 0 0 0 5 , , , 6 y v Z j.j.$.C.C.C.C.C.C.C.C.C.C.C.C.C.C.C.C.C.C.C.C.C.",
"C.C.C.C.C.C.C.C.C.C.C.C.C.C.C.C.C.C.C.C.( ..U 8.b.j.I j 0 0 0 0 5 , , , 4 i Z j.b.:.$.C.C.C.C.C.C.C.C.C.C.C.C.C.C.C.C.C.C.C.C.C.",
"C.C.C.C.C.C.C.C.C.C.C.C.C.C.C.C.C.C.C.C.C.$...W a.b.I x u 0 0 0 0 , 4 4 u G j.M.:.$.$.C.C.C.C.C.C.C.C.C.C.C.C.C.C.C.C.C.C.C.C.C.",
"C.C.C.C.C.C.C.C.C.C.C.C.C.C.C.C.C.C.C.C.C.*.....a.j.G v v 0 0 0 0 9 9 > y 5.M.M.:.o.$.C.C.C.C.C.C.C.C.C.C.C.C.C.C.C.C.C.C.C.C.C.",
"C.C.C.C.C.C.C.C.C.C.C.C.C.C.C.C.C.C.C.C.C.....*.p.j.T x v u 0 0 0 0 9 p v p.b.3.$.o.{ C.C.C.C.C.C.C.C.C.C.C.C.C.C.C.C.C.C.C.C.C.",
"C.C.C.C.C.C.C.C.C.C.C.C.C.C.C.C.C.C.C.C.C.C...+.>.j.( x x j u 0 0 0 q j M 8...[ ..] C.C.C.C.C.C.C.C.C.C.C.C.C.C.C.C.C.C.C.C.C.C.",
"C.C.C.C.C.C.C.C.C.C.C.C.C.C.C.C.C.C.C.C.C.C.....$.b.a.G v x j 0 0 0 i j M P [ ..+.C.C.C.C.C.C.C.C.C.C.C.C.C.C.C.C.C.C.C.C.C.C.C.",
"C.C.C.C.C.C.C.C.C.C.C.C.C.C.C.C.C.C.C.C.C.C.C.+.$.p.j.W v v j j x x x M k ( +.+.+.C.C.C.C.C.C.C.C.C.C.C.C.C.C.C.C.C.C.C.C.C.C.C.",
"C.C.C.C.C.C.C.C.C.C.C.C.C.C.C.C.C.C.C.C.C.C.C.$...>.c.w.! v v x x M Z M M _ +.....C.C.C.C.C.C.C.C.C.C.C.C.C.C.C.C.C.C.C.C.C.C.C.",
"C.C.C.C.C.C.C.C.C.C.C.C.C.C.C.C.C.C.C.C.C.C.C.....$.p.b.a.I x v v M ........+.[ C.C.C.C.C.C.C.C.C.C.C.C.C.C.C.C.C.C.C.C.C.C.C.C.",
"C.C.C.C.C.C.C.C.C.C.C.C.C.C.C.C.C.C.C.C.C.C.C.C.( +.-.j.x.Q G m M ] +.+.+.+...~ C.C.C.C.C.C.C.C.C.C.C.C.C.C.C.C.C.C.C.C.C.C.C.C.",
"C.C.C.C.C.C.C.C.C.C.C.C.C.C.C.C.C.C.C.C.C.C.C.C.C.....>.j.>...{ ..+.+.+.+.+.C.C.C.C.C.C.C.C.C.C.C.C.C.C.C.C.C.C.C.C.C.C.C.C.C.C.",
"C.C.C.C.C.C.C.C.C.C.C.C.C.C.C.C.C.C.C.C.C.C.C.C.C...$.$.p.b.j.$.+.+.+.+...C.C.C.C.C.C.C.C.C.C.C.C.C.C.C.C.C.C.C.C.C.C.C.C.C.C.C.",
"C.C.C.C.C.C.C.C.C.C.C.C.C.C.C.C.C.C.C.C.C.C.C.C.C.C...$.$.a.j.a.+.+.+.+.+.C.C.C.C.C.p.C.C.C.C.C.C.C.C.C.C.C.C.C.C.C.C.C.C.C.C.C.",
"C.C.C.C.C.C.C.C.C.C.C.C.C.C.C.C.C.C.C.C.C.C.C.C.C.C.C.C.C.( p.j.-.+.+.$.C.3.p.2.C.C.C.C.C.C.C.C.C.C.C.C.C.C.C.C.C.C.C.C.C.C.C.C.",
"C.C.C.C.C.C.C.C.C.C.C.C.C.C.C.C.C.C.C.C.C.C.C.C.C.C.C.C.C.2.j.j.j.a.a.a.p.a.j.8.C.C.C.C.C.C.C.C.C.C.C.C.C.C.C.C.C.C.C.C.C.C.C.C.",
"C.C.C.C.C.C.C.C.C.C.C.C.C.C.C.C.C.C.C.C.C.C.C.C.C.C.C.C.C.C.5.a.j.j.j.j.j.p.p.C.C.C.C.C.C.C.C.C.C.C.C.C.C.C.C.C.C.C.C.C.C.C.C.C.",
"C.C.C.C.C.C.C.C.C.C.C.C.C.C.C.C.C.C.C.C.C.C.C.C.C.C.C.C.C.C.C.C.8.j.p.p.w.C.C.C.C.C.C.C.C.C.C.C.C.C.C.C.C.C.C.C.C.C.C.C.C.C.C.C.",
"C.C.C.C.C.C.C.C.C.C.C.C.C.C.C.C.C.C.C.C.C.C.C.C.C.C.C.C.C.C.C.C.C.-.C.C.C.C.C.C.C.C.C.C.C.C.C.C.C.C.C.C.C.C.C.C.C.C.C.C.C.C.C.C.",
"C.C.C.C.C.C.C.C.C.C.C.C.C.C.C.C.C.C.C.C.C.C.C.C.C.C.C.C.C.C.C.C.C.C.C.C.C.C.C.C.C.C.C.C.C.C.C.C.C.C.C.C.C.C.C.C.C.C.C.C.C.C.C.C.",
"C.C.C.C.C.C.C.C.C.C.C.C.C.C.C.C.C.C.C.C.C.C.C.C.C.C.C.C.C.C.C.C.C.C.C.C.C.C.C.C.C.C.C.C.C.C.C.C.C.C.C.C.C.C.C.C.C.C.C.C.C.C.C.C."
};
