/* XPM */
static char *cG9ydGFsLTI_[] = {
/* columns rows colors chars-per-pixel */
"64 64 153 2 ",
"   c #100E08",
".  c #110E09",
"X  c #110F09",
"o  c #120F09",
"O  c #13100A",
"+  c #14110A",
"@  c #19150D",
"#  c #1A160D",
"$  c #1A160E",
"%  c #1B170E",
"&  c #1C170E",
"*  c #1D180F",
"=  c #1E1A10",
"-  c #231C12",
";  c #231D12",
":  c #231E12",
">  c #241D12",
",  c #241E13",
"<  c #251E13",
"1  c #251F13",
"2  c #261F13",
"3  c #262013",
"4  c #262014",
"5  c #272014",
"6  c #272114",
"7  c #282114",
"8  c #282115",
"9  c #2A2216",
"0  c #2C2417",
"q  c #2E2618",
"w  c #2F2718",
"e  c #2F2818",
"r  c #302819",
"t  c #302919",
"y  c #312919",
"u  c #312A19",
"i  c #32281A",
"p  c #32291A",
"a  c #322A1A",
"s  c #332A1A",
"d  c #332B1A",
"f  c #342B1B",
"g  c #352C1B",
"h  c #362C1C",
"j  c #362D1C",
"k  c #372D1C",
"l  c #382E1D",
"z  c #382F1D",
"x  c #392F1D",
"c  c #392E1E",
"v  c #3A2F1E",
"b  c #39301E",
"n  c #3A301E",
"m  c #3B301E",
"M  c #3A311E",
"N  c #3B311F",
"B  c #3C311F",
"V  c #3C321F",
"C  c #3D321F",
"Z  c #3D3220",
"A  c #3E3220",
"S  c #3E3320",
"D  c #3E3420",
"F  c #3F3420",
"G  c #3F3521",
"H  c #403521",
"J  c #413521",
"K  c #403621",
"L  c #413621",
"P  c #413622",
"I  c #413722",
"U  c #423722",
"Y  c #433722",
"T  c #433822",
"R  c #433823",
"E  c #443823",
"W  c #443923",
"Q  c #453923",
"!  c #453A24",
"~  c #463A24",
"^  c #473B25",
"/  c #483C25",
"(  c #493C26",
")  c #493D26",
"_  c #4A3D26",
"`  c #4B3D27",
"'  c #4A3E26",
"]  c #4B3E27",
"[  c #4B3F27",
"{  c #4C3E27",
"}  c #4C3F27",
"|  c #4C4027",
" . c #4D4028",
".. c #4D4128",
"X. c #4E4128",
"o. c #4F4129",
"O. c #4F4229",
"+. c #504229",
"@. c #504329",
"#. c #51432A",
"$. c #51442A",
"%. c #52442A",
"&. c #52452A",
"*. c #53452B",
"=. c #53462B",
"-. c #54462B",
";. c #55462C",
":. c #55472C",
">. c #56482C",
",. c #57482D",
"<. c #57492D",
"1. c #58492D",
"2. c #584A2E",
"3. c #594A2E",
"4. c #594B2E",
"5. c #5A4B2E",
"6. c #5A4B2F",
"7. c #5B4C2F",
"8. c #5C4D2F",
"9. c #5D4C30",
"0. c #5D4D30",
"q. c #5D4E30",
"w. c #5E4E30",
"e. c #5F4E31",
"r. c #5F4F31",
"t. c #5F5031",
"y. c #605031",
"u. c #605032",
"i. c #605132",
"p. c #615132",
"a. c #625232",
"s. c #625233",
"d. c #635333",
"f. c #645333",
"g. c #645434",
"h. c #655434",
"j. c #655534",
"k. c #655535",
"l. c #665535",
"z. c #665636",
"x. c #665637",
"c. c #675637",
"v. c #675738",
"b. c #685839",
"n. c #68583A",
"m. c #68593A",
"M. c #69593B",
"N. c #695A3C",
"B. c #6A5A3D",
"V. c #6A5B3D",
"C. c #6A5B3E",
"Z. c #6B5C3F",
"A. c None",
/* pixels */
"A.A.A.A.A.A.A.A.A.A.A.A.A.A.A.A.A.A.A.A.A.A.A.A.A.A.A.A.A.A.A.A.A.A.A.A.A.A.A.A.A.A.A.A.A.A.A.A.A.A.A.A.A.A.A.A.A.A.A.A.A.A.A.A.",
"A.A.A.A.A.A.A.A.A.A.A.A.A.A.A.A.A.A.A.A.A.A.A.A.A.A.A.A.A.A.A.A.A.A.A.A.A.A.A.A.A.A.A.A.A.A.A.A.A.A.A.A.A.A.A.A.A.A.A.A.A.A.A.A.",
"A.A.A.A.A.A.A.A.A.A.A.A.A.A.A.A.A.A.A.A.A.A.A.A.A.A.A.9.A.A.A.A.A.A.A.A.A.A.A.A.A.A.A.A.A.A.A.A.A.A.A.A.A.A.A.A.A.A.A.A.A.A.A.A.",
"A.A.A.A.A.A.A.A.A.A.A.A.A.A.A.A.A.A.A.A.A.A.A.A.A.A.A.s.s.s.s.s.s.A.A.A.A.A.A.A.A.A.A.A.A.A.A.A.A.A.A.A.A.A.A.A.A.A.A.A.A.A.A.A.",
"A.A.A.A.A.A.A.A.A.A.A.A.A.A.A.A.A.A.A.A.A.A.A.A.A.A.A.A.A.3.f.g.c.h.A.A.A.A.A.A.A.A.A.A.A.A.A.A.A.A.A.A.A.A.A.A.A.A.A.A.A.A.A.A.",
"A.A.A.A.A.A.A.A.A.A.A.A.A.A.A.A.A.A.A.A.A.A.A.A.A.A.A.A.A.A.A.r.h.c.g.g.A.A.A.A.A.A.A.A.A.A.A.A.A.A.A.A.A.A.A.A.A.A.A.A.A.A.A.A.",
"A.A.A.A.A.A.A.A.A.A.A.A.A.A.A.A.A.A.A.A.A.A.A.A.A.A.A.A.A.A.A.A.s.h.c.g.A.A.A.A.A.A.A.A.A.A.A.A.A.A.A.A.A.A.A.A.A.A.A.A.A.A.A.A.",
"A.A.A.A.A.A.A.A.A.A.A.A.A.A.A.A.A.A.A.A.A.A.A.A.A.A.A.O.@.@.@.@.s.h.g.g.g.A.A.A.A.A.A.A.A.A.A.A.A.A.A.A.A.A.A.A.A.A.A.A.A.A.A.A.",
"A.A.A.A.A.A.A.A.A.A.A.A.A.A.A.A.A.A.A.A.A.A.A.A.A.A.A.@.@.@.@.@.X.@.h.h.g.A.A.A.A.A.A.A.A.A.A.A.A.A.A.A.A.A.A.A.A.A.A.A.A.A.A.A.",
"A.A.A.A.A.A.A.A.A.A.A.A.A.A.A.A.A.A.A.A.A.A.A.A.A.A.O.@.@.@.@.@.@.@.h.l.g.h.A.A.A.A.A.A.A.A.A.A.A.A.A.A.A.A.A.A.A.A.A.A.A.A.A.A.",
"A.A.A.A.A.A.A.A.A.A.A.A.A.A.A.A.A.A.A.A.A.A.A.A.A.) @.@.} @.@.O.| *.-.s.g.g.*.A.A.A.A.A.A.A.A.A.A.A.A.A.A.A.A.A.A.A.A.A.A.A.A.A.",
"A.A.A.A.A.A.A.A.A.A.A.A.A.A.A.A.A.A.A.A.A.A.A.A.A.O.@.@.} @.| Y } X.| T s.N.d.O.A.A.A.A.A.A.A.A.A.A.A.A.A.A.A.A.A.A.A.A.A.A.A.A.",
"A.A.A.A.A.A.A.A.A.A.A.A.A.A.A.A.A.A.A.A.A.A.A.A.) O.O.) G G G B F C B B 3.M.8.| A.A.A.A.A.A.A.A.A.A.A.A.A.A.A.A.A.A.A.A.A.A.A.A.",
"A.A.A.A.A.A.A.A.A.A.A.A.A.A.A.A.A.A.A.A.A.A.A.} O.O.Y G b b b b B B B B G h.g.*.@.A.A.A.A.A.A.A.A.A.A.A.A.A.A.A.A.A.A.A.A.A.A.A.",
"A.A.A.A.A.A.A.A.A.A.A.A.A.A.A.A.A.A.A.A.A.O.O.O.@.} Y Y G Z j Z B B b x B d.M.<.*.A.A.A.A.A.A.A.A.A.A.A.A.A.A.A.A.A.A.A.A.A.A.A.",
"A.A.A.A.A.A.A.A.A.A.A.A.A.A.A.A.A.A.A.A.A.@.@.@.} W r.s.t.! Z Z b x B B B q.M.h.*.) A.A.A.A.A.A.A.A.A.A.A.A.A.A.A.A.A.A.A.A.A.A.",
"A.A.A.A.A.A.A.A.A.A.A.A.A.A.A.A.A.A.A.A.A.@.@.O.) t.N.N.s.G b i y y b b b Y h.c.:.} O.A.A.A.A.A.A.A.A.A.A.A.A.A.A.A.A.A.A.A.A.A.",
"A.A.A.A.A.A.A.A.A.A.A.A.A.A.A.A.A.A.A.A.A.@.*.:.s.N.g.r.Y y i e y y y 0 h x f.g.@.@.@.A.A.A.A.A.A.A.A.A.A.A.A.A.A.A.A.A.A.A.A.A.",
"A.A.A.A.A.A.A.A.A.A.A.A.A.A.A.A.A.A.A.A.O.@.r.g.N.v.t.! i y e i y e y 3 5 k f.g.( } @.A.A.A.A.A.A.A.A.A.A.A.A.A.A.A.A.A.A.A.A.A.",
"A.A.A.A.A.A.A.A.A.A.A.A.A.A.A.A.A.A.A.A.@.@.s.N.n.t.! j d e y e e y 9 3 3 h f.c.s.:.@.) A.A.A.A.A.A.A.A.A.A.A.A.A.A.A.A.A.A.A.A.",
"A.A.A.A.A.A.A.A.A.A.A.A.A.A.A.A.A.A.A.A.@.*.v.v.s.! Z Z a e e e y 6 1 1 5 5 s.h.( } @.@.A.A.A.A.A.A.A.A.A.A.A.A.A.A.A.A.A.A.A.A.",
"A.A.A.A.A.A.A.A.A.A.A.A.A.A.A.A.A.A.A.A.g.N.N.h.G Z Z e e e a i e 6 1 1 , , 9 u.f.-.@.@.A.A.7.A.A.A.A.A.A.A.A.A.A.A.A.A.A.A.A.A.",
"A.A.A.A.A.A.A.A.A.A.A.A.A.A.A.A.A.A.A.A.g.Z.g.W Z c Z a a e e e 2 1 1 1 , , :.g.h.W } O.A.A.u.A.A.A.A.A.A.A.A.A.A.A.A.A.A.A.A.A.",
"A.A.A.A.A.A.A.A.A.A.A.A.A.A.A.A.A.A.A.g.Z.h.R Z Z c c f i e e e 9 1 1 1 = & , 2 x } } O.A.A.8.g.A.A.A.A.A.A.A.A.A.A.A.A.A.A.A.A.",
"A.A.A.A.A.A.A.A.A.A.A.A.A.A.A.A.A.A.h.g.h.s.Y B B B x y i e e 6 1 1 , & $ $ $ - x ) B ( A.s.g.c.A.A.A.A.A.A.A.A.A.A.A.A.A.A.A.A.",
"A.A.A.A.A.A.A.A.A.A.A.A.A.A.A.A.A.A.g.g.s.B B x x B x y e e i 8 1 1 , $ & $ $ * h v B ) A.s.g.c.A.A.A.A.A.A.A.A.A.A.A.A.A.A.A.A.",
"A.A.A.A.A.A.A.A.A.A.A.A.A.A.A.A.A.A.g.h.@.v B b Z B y y e i i 1 1 1 & & $ o o 0 x B x ) @.s.g.c.A.A.A.A.A.A.A.A.A.A.A.A.A.A.A.A.",
"A.A.A.A.A.A.A.A.A.A.A.A.A.A.A.A.A.h.g.@.X.B v B b x y y e i 6 1 1 , & & +     O s b B ) @.u.g.g.A.A.A.A.A.A.A.A.A.A.A.A.A.A.A.A.",
"A.A.A.A.A.A.A.A.A.A.A.A.A.A.A.A.A.s.g.*.O.b v B Z x i y y y 6 1 3 * % % O     o y Z ) O.r.g.g.f.A.A.A.A.A.A.A.A.A.A.A.A.A.A.A.A.",
"A.A.A.A.A.A.A.A.A.A.A.A.A.A.A.A.A.s.g.@.@.b B x B x i y y e 6 1 , % % $ O     + y B O.O.8.g.c.A.A.A.A.A.A.A.A.A.A.A.A.A.A.A.A.A.",
"A.A.A.A.A.A.A.A.A.A.A.A.A.A.A.A.A.s.s.@.O.b B B x b s y e e 6 6 3 $ $ * o   o 9 x B } @.-.f.c.A.A.A.A.A.A.A.A.A.A.A.A.A.A.A.A.A.",
"A.A.A.A.A.A.A.A.A.A.A.A.A.A.A.A.A.s.*.@.O.B B x B x y y i e 6 1 , * & $ o o o y B B Z ) 8.h.g.A.A.A.A.A.A.A.A.A.A.A.A.A.A.A.A.A.",
"A.A.A.A.A.A.A.A.A.A.A.A.A.A.A.A.A.s.@.@.| B B b Z Z a e i e 6 4 3 $ % % O   o y b B b ) s.g.g.A.A.A.A.A.A.A.A.A.A.A.A.A.A.A.A.A.",
"A.A.A.A.A.A.A.A.A.A.A.A.A.A.A.A.A.s.@.@.@.B v B b Z a i e e 6 , , * % % O   o y B B Z ) s.g.h.A.A.A.A.A.A.A.A.A.A.A.A.A.A.A.A.A.",
"A.A.A.A.A.A.A.A.A.A.A.A.A.A.A.A.A.s.) @.@.b v B Z b i a e i 6 6 3 $ % % O o o y b B } @.s.g.A.A.A.A.A.A.A.A.A.A.A.A.A.A.A.A.A.A.",
"A.A.A.A.A.A.A.A.A.A.A.A.A.A.A.A.A.s.A.O.@.B B b b b a i e e 6 4 3 * % % $ + o i B B } 8.g.g.A.A.A.A.A.A.A.A.A.A.A.A.A.A.A.A.A.A.",
"A.A.A.A.A.A.A.A.A.A.A.A.A.A.A.A.A.s.A.O.O.b x x b b y e i e 9 4 3 , % % $ $ $ h B B | r.c.g.A.A.A.A.A.A.A.A.A.A.A.A.A.A.A.A.A.A.",
"A.A.A.A.A.A.A.A.A.A.A.A.A.A.A.A.A.A.A.O.O.B 3.Y Z b y y e e 8 4 3 , % % $ $ * y B B } r.g.g.A.A.A.A.A.A.A.A.A.A.A.A.A.A.A.A.A.A.",
"A.A.A.A.A.A.A.A.A.A.A.A.A.A.A.A.A.A.A.O.O.B 7.R b b i y e i 6 4 3 , $ % % % % h B ) @.s.c.A.A.A.A.A.A.A.A.A.A.A.A.A.A.A.A.A.A.A.",
"A.A.A.A.A.A.A.A.A.A.A.A.A.A.A.A.A.7.A.O.O.b r.s.Y Z i y e e e 8 3 , 3 % % % % y B } @.g.Z.A.A.A.A.A.A.A.A.A.A.A.A.A.A.A.A.A.A.A.",
"A.A.A.A.A.A.A.A.A.A.A.A.A.A.A.A.A.A.A.O.@.@.s.s.Y Z x i e y e 8 3 3 , 5 , , , h B 8.N.N.v.A.A.A.A.A.A.A.A.A.A.A.A.A.A.A.A.A.A.A.",
"A.A.A.A.A.A.A.A.A.A.A.A.A.A.A.A.A.A.A.O.@.O.Y g.g.Y x i i e e 9 , 5 3 3 3 3 h B G s.Z.Z.A.A.A.A.A.A.A.A.A.A.A.A.A.A.A.A.A.A.A.A.",
"A.A.A.A.A.A.A.A.A.A.A.A.A.A.A.A.A.A.A.A.@.O.Y g.v.T x y e i e e 5 3 , 3 3 3 h B Y g.Z.g.A.A.A.A.A.A.A.A.A.A.A.A.A.A.A.A.A.A.A.A.",
"A.A.A.A.A.A.A.A.A.A.A.A.A.A.A.A.A.A.A.A.@.O.Y u.v.Y B x i e e a 9 3 , 3 3 3 h Z t.M.M.A.A.A.A.A.A.A.A.A.A.A.A.A.A.A.A.A.A.A.A.A.",
"A.A.A.A.A.A.A.A.A.A.A.A.A.A.A.A.A.A.A.A.@.O.Y r.n.T B B Z i w i e 3 3 , 6 9 j t.N.M.g.A.A.A.A.A.A.A.A.A.A.A.A.A.A.A.A.A.A.A.A.A.",
"A.A.A.A.A.A.A.A.A.A.A.A.A.A.A.A.A.A.A.A.O.@.O.@.n.n.T B b y e i y 5 6 , 3 h R g.N.h.*.A.A.A.A.A.A.A.A.A.A.A.A.A.A.A.A.A.A.A.A.A.",
"A.A.A.A.A.A.A.A.A.A.A.A.A.A.A.A.A.A.A.A.A.@.@.*.M.n.T B b b y y y 0 w 6 3 b 8.M.g.3.@.A.A.A.A.A.A.A.A.A.A.A.A.A.A.A.A.A.A.A.A.A.",
"A.A.A.A.A.A.A.A.A.A.A.A.A.A.A.A.A.A.A.A.A.O.O.*.M.g.Y b B B y i i e y y h <.M.8.<.@.O.A.A.A.A.A.A.A.A.A.A.A.A.A.A.A.A.A.A.A.A.A.",
"A.A.A.A.A.A.A.A.A.A.A.A.A.A.A.A.A.A.A.A.A.A.O.*.v.g.T B v Z x y i y y x Z h.N.:.@.@.A.A.A.A.A.A.A.A.A.A.A.A.A.A.A.A.A.A.A.A.A.A.",
"A.A.A.A.A.A.A.A.A.A.A.A.A.A.A.A.A.A.A.A.A.A.) *.h.M.W B B x x h y y x x 8.M.3.@.@.@.A.A.A.A.A.A.A.A.A.A.A.A.A.A.A.A.A.A.A.A.A.A.",
"A.A.A.A.A.A.A.A.A.A.A.A.A.A.A.A.A.A.A.A.A.A.A.@.s.N.s.T B x x b x Z B x 3.<.@.@.} } A.A.A.A.A.A.A.A.A.A.A.A.A.A.A.A.A.A.A.A.A.A.",
"A.A.A.A.A.A.A.A.A.A.A.A.A.A.A.A.A.A.A.A.A.A.A.O.-.g.M.r.G B Z b x Z x B Y } @.} A.A.A.A.A.A.A.A.A.A.A.A.A.A.A.A.A.A.A.A.A.A.A.A.",
"A.A.A.A.A.A.A.A.A.A.A.A.A.A.A.A.A.A.A.A.A.A.A.A.O.-.M.h.R G Z x x Z Z } O.O.@.} A.A.A.A.A.A.A.A.A.A.A.A.A.A.A.A.A.A.A.A.A.A.A.A.",
"A.A.A.A.A.A.A.A.A.A.A.A.A.A.A.A.A.A.A.A.A.A.A.A.O.*.g.v.:.O.Y Z Z O.O.@.@.@.O.( A.A.A.A.A.A.A.A.A.A.A.A.A.A.A.A.A.A.A.A.A.A.A.A.",
"A.A.A.A.A.A.A.A.A.A.A.A.A.A.A.A.A.A.A.A.A.A.A.A.r.-.:.M.g.:.@.O.@.@.@.@.@.@.@.A.A.A.A.A.A.A.A.A.A.A.A.A.A.A.A.A.A.A.A.A.A.A.A.A.",
"A.A.A.A.A.A.A.A.A.A.A.A.A.A.A.A.A.A.A.A.A.A.A.A.A.A.@.g.g.g.*.@.@.@.@.@.@.A.A.A.A.A.A.A.A.A.A.A.A.A.A.A.A.A.A.A.A.A.A.A.A.A.A.A.",
"A.A.A.A.A.A.A.A.A.A.A.A.A.A.A.A.A.A.A.A.A.A.A.A.A.A.A.-.g.g.g.-.@.@.@.@.A.A.A.A.A.A.A.A.A.A.A.A.A.A.A.A.A.A.A.A.A.A.A.A.A.A.A.A.",
"A.A.A.A.A.A.A.A.A.A.A.A.A.A.A.A.A.A.A.A.A.A.A.A.A.A.A.f.c.c.g.:.@.@.@.A.3.A.A.A.A.c.A.A.A.A.A.A.A.A.A.A.A.A.A.A.A.A.A.A.A.A.A.A.",
"A.A.A.A.A.A.A.A.A.A.A.A.A.A.A.A.A.A.A.A.A.A.A.A.A.A.A.A.s.h.c.g.*.A.A.A.s.A.A.A.A.A.A.A.A.A.A.A.A.A.A.A.A.A.A.A.A.A.A.A.A.A.A.A.",
"A.A.A.A.A.A.A.A.A.A.A.A.A.A.A.A.A.A.A.A.A.A.A.A.A.A.A.A.A.3.g.g.h.A.r.s.g.s.A.A.A.A.A.A.A.A.A.A.A.A.A.A.A.A.A.A.A.A.A.A.A.A.A.A.",
"A.A.A.A.A.A.A.A.A.A.A.A.A.A.A.A.A.A.A.A.A.A.A.A.A.A.A.A.A.A.3.s.g.g.g.s.t.A.A.A.A.A.A.A.A.A.A.A.A.A.A.A.A.A.A.A.A.A.A.A.A.A.A.A.",
"A.A.A.A.A.A.A.A.A.A.A.A.A.A.A.A.A.A.A.A.A.A.A.A.A.A.A.A.A.A.A.A.r.g.u.A.A.A.A.A.A.A.A.A.A.A.A.A.A.A.A.A.A.A.A.A.A.A.A.A.A.A.A.A.",
"A.A.A.A.A.A.A.A.A.A.A.A.A.A.A.A.A.A.A.A.A.A.A.A.A.A.A.A.A.A.A.A.A.-.A.A.A.A.A.A.A.A.A.A.A.A.A.A.A.A.A.A.A.A.A.A.A.A.A.A.A.A.A.A.",
"A.A.A.A.A.A.A.A.A.A.A.A.A.A.A.A.A.A.A.A.A.A.A.A.A.A.A.A.A.A.A.A.A.A.A.A.A.A.A.A.A.A.A.A.A.A.A.A.A.A.A.A.A.A.A.A.A.A.A.A.A.A.A.A."
};
