/* XPM */
static char *d10a7af2b4754f1cea4448586b30a628lKqfiNdqPKRfGhfi[] = {
/* columns rows colors chars-per-pixel */
"64 64 6 1 ",
"  c #514047",
". c #77514C",
"X c #8D5D57",
"o c #59413E",
"O c #966F5F",
"+ c #AA8779",
/* pixels */
"  ..........      ..........      ..........      ..........    ",
"  ..........      ..........      ..........      ..........    ",
"............XX  ............XX  ............XX  ............XX  ",
"............XX  ............XX  ............XX  ............XX  ",
"............XX  ............XX  ............XX  ............XX  ",
"............XX  ............XX  ............XX  ............XX  ",
"............XX  ............XX  ............XX  ............XX  ",
"............XX  ............XX  ............XX  ............XX  ",
"............XX  ............XX  ............XX  ............XX  ",
"............XX  ............XX  ............XX  ............XX  ",
"..........XXXX  ..........XXXX  ..........XXXX  ..........XXXX  ",
"..........XXXX  ..........XXXX  ..........XXXX  ..........XXXX  ",
"ooXXXXXXXXXXoo  ooXXXXXXXXXXoo  ooXXXXXXXXXXoo  ooXXXXXXXXXXoo  ",
"ooXXXXXXXXXXoo  ooXXXXXXXXXXoo  ooXXXXXXXXXXoo  ooXXXXXXXXXXoo  ",
"  oooooooooo      oooooooooo      oooooooooo      oooooooooo    ",
"  oooooooooo      oooooooooo      oooooooooo      oooooooooo    ",
"  ..........      OOOOOOOOOO      ..........      ..........    ",
"  ..........      OOOOOOOOOO      ..........      ..........    ",
"............XX  OOOOOOOOOOOO++  ............XX  ............XX  ",
"............XX  OOOOOOOOOOOO++  ............XX  ............XX  ",
"............XX  OOOOOOOOOOOO++  ............XX  ............XX  ",
"............XX  OOOOOOOOOOOO++  ............XX  ............XX  ",
"............XX  OOOOOOOOOOOO++  ............XX  ............XX  ",
"............XX  OOOOOOOOOOOO++  ............XX  ............XX  ",
"............XX  OOOOOOOOOOOO++  ............XX  ............XX  ",
"............XX  OOOOOOOOOOOO++  ............XX  ............XX  ",
"..........XXXX  OOOOOOOOOO++++  ..........XXXX  ..........XXXX  ",
"..........XXXX  OOOOOOOOOO++++  ..........XXXX  ..........XXXX  ",
"ooXXXXXXXXXXoo  oo++++++++++oo  ooXXXXXXXXXXoo  ooXXXXXXXXXXoo  ",
"ooXXXXXXXXXXoo  oo++++++++++oo  ooXXXXXXXXXXoo  ooXXXXXXXXXXoo  ",
"  oooooooooo      oooooooooo      oooooooooo      oooooooooo    ",
"  oooooooooo      oooooooooo      oooooooooo      oooooooooo    ",
"  ..........      ..........      ..........      ..........    ",
"  ..........      ..........      ..........      ..........    ",
"............XX  ............XX  ............XX  ............XX  ",
"............XX  ............XX  ............XX  ............XX  ",
"............XX  ............XX  ............XX  ............XX  ",
"............XX  ............XX  ............XX  ............XX  ",
"............XX  ............XX  ............XX  ............XX  ",
"............XX  ............XX  ............XX  ............XX  ",
"............XX  ............XX  ............XX  ............XX  ",
"............XX  ............XX  ............XX  ............XX  ",
"..........XXXX  ..........XXXX  ..........XXXX  ..........XXXX  ",
"..........XXXX  ..........XXXX  ..........XXXX  ..........XXXX  ",
"ooXXXXXXXXXXoo  ooXXXXXXXXXXoo  ooXXXXXXXXXXoo  ooXXXXXXXXXXoo  ",
"ooXXXXXXXXXXoo  ooXXXXXXXXXXoo  ooXXXXXXXXXXoo  ooXXXXXXXXXXoo  ",
"  oooooooooo      oooooooooo      oooooooooo      oooooooooo    ",
"  oooooooooo      oooooooooo      oooooooooo      oooooooooo    ",
"  ..........      ..........      ..........      ..........    ",
"  ..........      ..........      ..........      ..........    ",
"............XX  ............XX  ............XX  ............XX  ",
"............XX  ............XX  ............XX  ............XX  ",
"............XX  ............XX  ............XX  ............XX  ",
"............XX  ............XX  ............XX  ............XX  ",
"............XX  ............XX  ............XX  ............XX  ",
"............XX  ............XX  ............XX  ............XX  ",
"............XX  ............XX  ............XX  ............XX  ",
"............XX  ............XX  ............XX  ............XX  ",
"..........XXXX  ..........XXXX  ..........XXXX  ..........XXXX  ",
"..........XXXX  ..........XXXX  ..........XXXX  ..........XXXX  ",
"ooXXXXXXXXXXoo  ooXXXXXXXXXXoo  ooXXXXXXXXXXoo  ooXXXXXXXXXXoo  ",
"ooXXXXXXXXXXoo  ooXXXXXXXXXXoo  ooXXXXXXXXXXoo  ooXXXXXXXXXXoo  ",
"  oooooooooo      oooooooooo      oooooooooo      oooooooooo    ",
"  oooooooooo      oooooooooo      oooooooooo      oooooooooo    "
};
