/* XPM */
static char *d2FsbF8x[] = {
/* columns rows colors chars-per-pixel */
"64 64 3 1 ",
"  c #170A01",
". c #231107",
"X c #2C170A",
/* pixels */
"                                                                ",
"..XXXXX... XXXXXXXXXXXXXXXXXXXX ..XXXXX... XXXXXXXXXXXXXXXXXXXX ",
".XXXXXXXXX XXXXXXXXXXXXXXXXXXXX .XXXXXXXXX XXXXXXXXXXXXXXXXXXXX ",
".XXXXXXXXX XXXXXXXXXXXXXXXXXXX. .XXXXXXXXX XXXXXXXXXXXXXXXXXXX. ",
".....XXXXX XXXXXXXXXXXXXX...... .....XXXXX XXXXXXXXXXXXXX...... ",
"                                                                ",
"               ......XXXXXXXX...               ......XXXXXXXX...",
"               XXXXXXXXXXXXX....               XXXXXXXXXXXXX....",
"               XXXXXXXXXXXX.....               XXXXXXXXXXXX.....",
"               .XXXXXXXXX.......               .XXXXXXXXX.......",
"                                                                ",
"... ...XXXXXXXXXXXXXXXX     ... ... ...XXXXXXXXXXXXXXXX     ... ",
"... XXXXXXXXXXXXXXXX...      ...... XXXXXXXXXXXXXXXX...      ...",
"... XXXXXXXXXXXX.......       ..... XXXXXXXXXXXX.......       ..",
"... XXXXXXXXXXXXXXXXXX.      .. ... XXXXXXXXXXXXXXXXXX.      .. ",
"                                                                ",
"                                                                ",
"                   XXXXXXXXXXXX.                   XXXXXXXXXXXX.",
"                   XXXXXXXXXXX..                   XXXXXXXXXXX..",
"                   XXXXXXXXXXX..                   XXXXXXXXXXX..",
"                 . XXXXXXXXX....                 . XXXXXXXXX....",
"                                                                ",
"....... XXXXXXXXXXXXXXXX....... ....... XXXXXXXXXXXXXXXX....... ",
"....... XXXXXXXXXXXXXXXXXXXXXXX ....... XXXXXXXXXXXXXXXXXXXXXXX ",
"....... XXXXXXXXXXXXXXXXXXXXXXX ....... XXXXXXXXXXXXXXXXXXXXXXX ",
"....... ......XXXXXXXXXXXXXXXXX ....... ......XXXXXXXXXXXXXXXXX ",
"                                                                ",
" ...........       .....         ...........       .....        ",
" ...........                     ...........                    ",
" ...........                     ...........                    ",
" ........... ..            .     ........... ..            .    ",
"                                                                ",
"                                                                ",
"..XXXXX... XXXXXXXXXXXXXXXXXXXX ..XXXXX... XXXXXXXXXXXXXXXXXXXX ",
".XXXXXXXXX XXXXXXXXXXXXXXXXXXXX .XXXXXXXXX XXXXXXXXXXXXXXXXXXXX ",
".XXXXXXXXX XXXXXXXXXXXXXXXXXXX. .XXXXXXXXX XXXXXXXXXXXXXXXXXXX. ",
".....XXXXX XXXXXXXXXXXXXX...... .....XXXXX XXXXXXXXXXXXXX...... ",
"                                                                ",
"               ......XXXXXXXX...               ......XXXXXXXX...",
"               XXXXXXXXXXXXX....               XXXXXXXXXXXXX....",
"               XXXXXXXXXXXX.....               XXXXXXXXXXXX.....",
"               .XXXXXXXXX.......               .XXXXXXXXX.......",
"                                                                ",
"... ...XXXXXXXXXXXXXXXX     ... ... ...XXXXXXXXXXXXXXXX     ... ",
"... XXXXXXXXXXXXXXXX...      ...... XXXXXXXXXXXXXXXX...      ...",
"... XXXXXXXXXXXX.......       ..... XXXXXXXXXXXX.......       ..",
"... XXXXXXXXXXXXXXXXXX.      .. ... XXXXXXXXXXXXXXXXXX.      .. ",
"                                                                ",
"                                                                ",
"                   XXXXXXXXXXXX.                   XXXXXXXXXXXX.",
"                   XXXXXXXXXXX..                   XXXXXXXXXXX..",
"                   XXXXXXXXXXX..                   XXXXXXXXXXX..",
"                 . XXXXXXXXX....                 . XXXXXXXXX....",
"                                                                ",
"....... XXXXXXXXXXXXXXXX....... ....... XXXXXXXXXXXXXXXX....... ",
"....... XXXXXXXXXXXXXXXXXXXXXXX ....... XXXXXXXXXXXXXXXXXXXXXXX ",
"....... XXXXXXXXXXXXXXXXXXXXXXX ....... XXXXXXXXXXXXXXXXXXXXXXX ",
"....... ......XXXXXXXXXXXXXXXXX ....... ......XXXXXXXXXXXXXXXXX ",
"                                                                ",
" ...........       .....         ...........       .....        ",
" ...........                     ...........                    ",
" ...........                     ...........                    ",
" ........... ..            .     ........... ..            .    ",
"                                                                "
};
