/* XPM */
static char *_5fe655e43fb4e75f97e4e37e2fc850f1f12lcZAW6pbQ5rN[] = {
/* columns rows colors chars-per-pixel */
"64 64 4 1 ",
"  c #434F65",
". c #353E50",
"X c #6F7F9F",
"o c #5A6988",
/* pixels */
"  ..............  ..............  ..............  ..............",
"  ..............  ..............  ..............  ..............",
"  XXXXXXXXXXXXXX  XXXXXXXXXXXXXX  XXXXXXXXXXXXXX  XXXXXXXXXXXXXX",
"  XXXXXXXXXXXXXX  XXXXXXXXXXXXXX  XXXXXXXXXXXXXX  XXXXXXXXXXXXXX",
"  XXooooooooooXX  XXooooooooooXX  XXooooooooooXX  XXooooooooooXX",
"  XXooooooooooXX  XXooooooooooXX  XXooooooooooXX  XXooooooooooXX",
"........  ..............  ..............  ..............  ......",
"........  ..............  ..............  ..............  ......",
"XXXXXXXX  XXXXXXXXXXXXXX  XXXXXXXXXXXXXX  XXXXXXXXXXXXXX  XXXXXX",
"XXXXXXXX  XXXXXXXXXXXXXX  XXXXXXXXXXXXXX  XXXXXXXXXXXXXX  XXXXXX",
"ooooooXX  XXooooooooooXX  XXooooooooooXX  XXooooooooooXX  XXoooo",
"ooooooXX  XXooooooooooXX  XXooooooooooXX  XXooooooooooXX  XXoooo",
"oooooooo    oooooooooooo  oooooooooooooo    oooooooooooo  oooooo",
"oooooooo    oooooooooooo  oooooooooooooo    oooooooooooo  oooooo",
"  ..............  ..............  ..............  ..............",
"  ..............  ..............  ..............  ..............",
"  XXXXXXXXXXXXXX  XXXXXXXXXXXXXX  XXXXXXXXXXXXXX  XXXXXXXXXXXXXX",
"  XXXXXXXXXXXXXX  XXXXXXXXXXXXXX  XXXXXXXXXXXXXX  XXXXXXXXXXXXXX",
"  XXooooooooooXX  XXooooooooooXX  XXooooooooooXX  XXooooooooooXX",
"  XXooooooooooXX  XXooooooooooXX  XXooooooooooXX  XXooooooooooXX",
"  oooo  oooooooo  oooooooooooooo  oooo  oooooooo  oooooooooooooo",
"  oooo  oooooooo  oooooooooooooo  oooo  oooooooo  oooooooooooooo",
"........  ..............  ..............  ..............  ......",
"........  ..............  ..............  ..............  ......",
"XXXXXXXX  XXXXXXXXXXXXXX  XXXXXXXXXXXXXX  XXXXXXXXXXXXXX  XXXXXX",
"XXXXXXXX  XXXXXXXXXXXXXX  XXXXXXXXXXXXXX  XXXXXXXXXXXXXX  XXXXXX",
"ooooooXX  XXooooooooooXX  XXooooooooooXX  XXooooooooooXX  XXoooo",
"ooooooXX  XXooooooooooXX  XXooooooooooXX  XXooooooooooXX  XXoooo",
"oooooooo  oooooooooooooo  oooooooooooooo  oooooooooooooo  oooooo",
"oooooooo  oooooooooooooo  oooooooooooooo  oooooooooooooo  oooooo",
"                                                                ",
"                                                                ",
"  ..............  ..............  ..............  ..............",
"  ..............  ..............  ..............  ..............",
"  XXXXXXXXXXXXXX  XXXXXXXXXXXXXX  XXXXXXXXXXXXXX  XXXXXXXXXXXXXX",
"  XXXXXXXXXXXXXX  XXXXXXXXXXXXXX  XXXXXXXXXXXXXX  XXXXXXXXXXXXXX",
"  XXooooooooooXX  XXooooooooooXX  XXooooooooooXX  XXooooooooooXX",
"  XXooooooooooXX  XXooooooooooXX  XXooooooooooXX  XXooooooooooXX",
"........  ..............  ..............  ..............  ......",
"........  ..............  ..............  ..............  ......",
"XXXXXXXX  XXXXXXXXXXXXXX  XXXXXXXXXXXXXX  XXXXXXXXXXXXXX  XXXXXX",
"XXXXXXXX  XXXXXXXXXXXXXX  XXXXXXXXXXXXXX  XXXXXXXXXXXXXX  XXXXXX",
"ooooooXX  XXooooooooooXX  XXooooooooooXX  XXooooooooooXX  XXoooo",
"ooooooXX  XXooooooooooXX  XXooooooooooXX  XXooooooooooXX  XXoooo",
"oooooooo    oooooooooooo  oooooooooooooo    oooooooooooo  oooooo",
"oooooooo    oooooooooooo  oooooooooooooo    oooooooooooo  oooooo",
"  ..............  ..............  ..............  ..............",
"  ..............  ..............  ..............  ..............",
"  XXXXXXXXXXXXXX  XXXXXXXXXXXXXX  XXXXXXXXXXXXXX  XXXXXXXXXXXXXX",
"  XXXXXXXXXXXXXX  XXXXXXXXXXXXXX  XXXXXXXXXXXXXX  XXXXXXXXXXXXXX",
"  XXooooooooooXX  XXooooooooooXX  XXooooooooooXX  XXooooooooooXX",
"  XXooooooooooXX  XXooooooooooXX  XXooooooooooXX  XXooooooooooXX",
"  oooo  oooooooo  oooooooooooooo  oooo  oooooooo  oooooooooooooo",
"  oooo  oooooooo  oooooooooooooo  oooo  oooooooo  oooooooooooooo",
"........  ..............  ..............  ..............  ......",
"........  ..............  ..............  ..............  ......",
"XXXXXXXX  XXXXXXXXXXXXXX  XXXXXXXXXXXXXX  XXXXXXXXXXXXXX  XXXXXX",
"XXXXXXXX  XXXXXXXXXXXXXX  XXXXXXXXXXXXXX  XXXXXXXXXXXXXX  XXXXXX",
"ooooooXX  XXooooooooooXX  XXooooooooooXX  XXooooooooooXX  XXoooo",
"ooooooXX  XXooooooooooXX  XXooooooooooXX  XXooooooooooXX  XXoooo",
"oooooooo  oooooooooooooo  oooooooooooooo  oooooooooooooo  oooooo",
"oooooooo  oooooooooooooo  oooooooooooooo  oooooooooooooo  oooooo",
"                                                                ",
"                                                                "
};
