/* XPM */
static char *cG9ydGFsLTU_[] = {
/* columns rows colors chars-per-pixel */
"64 64 235 2 ",
"   c #281B00",
".  c #291D00",
"X  c #2A1C00",
"o  c #2A1E00",
"O  c #2D2000",
"+  c #312100",
"@  c #302200",
"#  c #312200",
"$  c #302300",
"%  c #322200",
"&  c #322300",
"*  c #332300",
"=  c #402B00",
"-  c #412C00",
";  c #422C00",
":  c #422D00",
">  c #422E00",
",  c #432E00",
"<  c #442D00",
"1  c #452E00",
"2  c #442F00",
"3  c #452F00",
"4  c #463000",
"5  c #473100",
"6  c #493000",
"7  c #483100",
"8  c #4A3300",
"9  c #4B3300",
"0  c #543800",
"q  c #5A3900",
"w  c #5B3A00",
"e  c #5C3B00",
"r  c #5D3B00",
"t  c #5C3D00",
"y  c #5E3C00",
"u  c #5F3D00",
"i  c #5E3E00",
"p  c #5F3F00",
"a  c #603D00",
"s  c #613E00",
"d  c #603F00",
"f  c #623E00",
"g  c #633F00",
"h  c #614000",
"j  c #624100",
"k  c #634100",
"l  c #644000",
"z  c #644200",
"x  c #654300",
"c  c #664300",
"v  c #684500",
"b  c #724900",
"n  c #714B00",
"m  c #734C00",
"M  c #744D00",
"N  c #754D00",
"B  c #774E00",
"V  c #774F00",
"C  c #784F00",
"Z  c #7A4E00",
"A  c #795000",
"S  c #7A5000",
"D  c #7B5100",
"F  c #7E5000",
"G  c #7C5200",
"H  c #7D5200",
"J  c #7E5300",
"K  c #7F5400",
"L  c #805100",
"P  c #815500",
"I  c #825600",
"U  c #835600",
"Y  c #845400",
"T  c #875600",
"R  c #885600",
"E  c #895700",
"W  c #875900",
"Q  c #885A00",
"!  c #895A00",
"~  c #8A5B00",
"^  c #8E5A00",
"/  c #8F5B00",
"(  c #8B5C00",
")  c #8E5E00",
"_  c #8F5E00",
"`  c #905B00",
"'  c #915C00",
"]  c #925D00",
"[  c #935D00",
"{  c #945E00",
"}  c #955F00",
"|  c #965F00",
" . c #916000",
".. c #926000",
"X. c #936100",
"o. c #946100",
"O. c #976000",
"+. c #956200",
"@. c #966300",
"#. c #976300",
"$. c #996100",
"%. c #9A6200",
"&. c #9B6200",
"*. c #9C6300",
"=. c #986400",
"-. c #996500",
";. c #9A6500",
":. c #9B6600",
">. c #9D6400",
",. c #9E6400",
"<. c #9C6700",
"1. c #9E6800",
"2. c #9F6900",
"3. c #A06600",
"4. c #A16600",
"5. c #A26700",
"6. c #A36700",
"7. c #A06900",
"8. c #A16A00",
"9. c #A26B00",
"0. c #A36B00",
"q. c #A46C00",
"w. c #A56D00",
"e. c #A86F00",
"r. c #AB7000",
"t. c #AC7100",
"y. c #AD7200",
"u. c #B37600",
"i. c #B47600",
"p. c #B57700",
"a. c #B77800",
"s. c #B87900",
"d. c #B97A00",
"f. c #BA7A00",
"g. c #BB7B00",
"h. c #BC7C00",
"j. c #BE7D00",
"k. c #BF7E00",
"l. c #C17B00",
"z. c #C07E00",
"x. c #C07F00",
"c. c #C47D00",
"v. c #C77F00",
"b. c #C87F00",
"n. c #C18000",
"m. c #C28000",
"M. c #C38100",
"N. c #C48100",
"B. c #C58200",
"V. c #C68300",
"C. c #C78300",
"Z. c #CA8100",
"A. c #CE8300",
"S. c #C88400",
"D. c #C98500",
"F. c #CA8500",
"G. c #CB8600",
"H. c #CF8400",
"J. c #CC8700",
"K. c #CD8700",
"L. c #CE8800",
"P. c #CF8900",
"I. c #D48700",
"U. c #D08900",
"Y. c #D18A00",
"T. c #D38B00",
"R. c #D58D00",
"E. c #D68D00",
"W. c #D88F00",
"Q. c #D98F00",
"!. c #DA9000",
"~. c #DB9000",
"^. c #DD9200",
"/. c #DE9200",
"(. c #DF9300",
"). c #E09400",
"_. c #E19400",
"`. c #E29500",
"'. c #E39600",
"]. c #E49600",
"[. c #E59700",
"{. c #E69800",
"}. c #E79800",
"|. c #E89900",
" X c #E99A00",
".X c #EA9A00",
"XX c #EB9B00",
"oX c #EC9C00",
"OX c #ED9C00",
"+X c #EE9D00",
"@X c #EF9E00",
"#X c #F09E00",
"$X c #F19F00",
"%X c #F29F00",
"&X c #F3A000",
"*X c #F4A100",
"=X c #F5A100",
"-X c #F6A200",
";X c #F7A300",
":X c #F8A300",
">X c #F9A400",
",X c #FAA500",
"<X c #FBA500",
"1X c #FCA600",
"2X c #FDA700",
"3X c #FEA700",
"4X c #FFA800",
"5X c #FFA801",
"6X c #FFA902",
"7X c #FFA903",
"8X c #FFA904",
"9X c #FFAA05",
"0X c #FFAA06",
"qX c #FFAA07",
"wX c #FFAB08",
"eX c #FFAB09",
"rX c #FFAB0A",
"tX c #FFAC0B",
"yX c #FFAC0C",
"uX c #FFAC0D",
"iX c #FFAD0E",
"pX c #FFAD0F",
"aX c #FFAD10",
"sX c #FFAE11",
"dX c #FFAE12",
"fX c #FFAE13",
"gX c #FFAF14",
"hX c #FFAF15",
"jX c #FFAF16",
"kX c #FFB017",
"lX c #FFB018",
"zX c #FFB019",
"xX c #FFB11A",
"cX c #FFB11C",
"vX c None",
/* pixels */
"vXvXvXvXvXvXvXvXvXvXvXvXvXvXvXvXvXvXvXvXvXvXvXvXvXvXvXvXvXvXvXvXvXvXvXvXvXvXvXvXvXvXvXvXvXvXvXvXvXvXvXvXvXvXvXvXvXvXvXvXvXvXvXvX",
"vXvXvXvXvXvXvXvXvXvXvXvXvXvXvXvXvXvXvXvXvXvXvXvXvXvXvXvXvXvXvXvXvXvXvXvXvXvXvXvXvXvXvXvXvXvXvXvXvXvXvXvXvXvXvXvXvXvXvXvXvXvXvXvX",
"vXvXvXvXvXvXvXvXvXvXvXvXvXvXvXvXvXvXvXvXvXvXvXvXvXvXvXvXvXvXvXvXvXvXvXvX[.vXvXvXvXvXvXvXvXvXvXvXvXvXvXvXvXvXvXvXvXvXvXvXvXvXvXvX",
"vXvXvXvXvXvXvXvXvXvXvXvXvXvXvXvXvXvXvXvXvXvXvXvXvXvXvXvXvXvXvXvXvXvXvXvX%XvXvXvXvXvXvXvXvXvXvXvXvXvXvXvXvXvXvXvXvXvXvXvXvXvXvXvX",
"vXvXvXvXvXvXvXvXvXvXvXvXvXvXvXvXvXvXvXvXvXvXvXvXvXvXvXvXvXvXvXvXvXvXvXvXvXvXvXvXvXvXvXvXvXvXvXvXvXvXvXvXvXvXvXvXvXvXvXvXvXvXvXvX",
"vXvXvXvXvXvXvXvXvXvXvXvXvXvXvXvXvXvXvXvXvXvXvXvXvXvXvXvXvXvXvXvXvXvXvXvXvX{.vXvXvXvXvXvXvXvXvXvXvXvXvXvXvXvXvXvXvXvXvXvXvXvXvXvX",
"vXvXvXvXvXvXvXvXvXvXvXvXvXvXvXvXvXvXvXvXvXvXvXvXvXvXvXvXu.F.V.F.F.F.vXvXvX_.-XvXvXvXvXvXvXvXvXvXvXvXvXvXvXvXvXvXvXvXvXvXvXvXvXvX",
"vXvXvXvXvXvXvXvXvXvXvXvXvXvXvXvXvXvXvXvXvXvXvXvXvXvXV.F.F.F.F.F.F.Z.F.vXvXvXXXvXvXvXvXvXvXvXvXvXvXvXvXvXvXvXvXvXvXvXvXvXvXvXvXvX",
"vXvXvXvXvXvXvXvXvXvXvXvXvXvXvXvXvXvXvXvXvXvXvXvXvXvXm.F.F.C.C.F.C.F.F.F.C.vX^.-XvXvXvXvXvXvXvXvXvXvXvXvXvXvXvXvXvXvXvXvXvXvXvXvX",
"vXvXvXvXvXvXvXvXvXvXvXvXvXvXvXvXvXvXvXvXvXvXvXvXvXC.F.F.L.F.F.F.C.V.F.F.F.vXvX;X;XvXvXvXvXvXvXvXvXvXvXvXvXvXvXvXvXvXvXvXvXvXvXvX",
"vXvXvXvXvXvXvXvXvXvXvXvXvXvXvXvXvXvXvXvXvXvXvXvXk.XXY.R.@XL.c.C.5.k.c.F.C.x.vX-X-XvXvXvXvXvXvXvXvXvXvXvXvXvXvXvXvXvXvXvXvXvXvXvX",
"vXvXvXvXvXvXvXvXvXvXvXvXvXvXvXvXvXvXvXvXvXvXvXoX,X7X7XwXwXh.1.1.O.$.m.F.F.Z.m.*X;XvXvXvXvXvXvXvXvXvXvXvXvXvXvXvXvXvXvXvXvXvXvXvX",
"vXvXvXvXvXvXvXvXvXvXvXvXvXvXvXvXvXvXvXvXvX%X,X3XdXkXgXzXzX,Xu.0.O.X.<.k.C.F.G.@X7X-XvXvXvXvXvXvXvXvXvXvXvXvXvXvXvXvXvXvXvXvXvXvX",
"vXvXvXvXvXvXvXvXvXvXvXvXvXvXvXvXvXvXvXvXvX:X3X,X,X-X-X,XdXkXyX,X1.O.O.$.h.C.C.L.;X,XvXvXvXvXvXvXvXvXvXvXvXvXvXvXvXvXvXvXvXvXvXvX",
"vXvXvXvXvXvXvXvXvXvXvXvXvXvXvXvXvXvXvXvX-X-X-XR.V.e.9.y._.-X7XgX9.[ _ | =.h.C.F.,X7X-XvXvXvXvXvXvXvXvXvXvXvXvXvXvXvXvXvXvXvXvXvX",
"vXvXvXvXvXvXvXvXvXvXvXvXvXvXvXvXvXvXvXvX3XR.Y.V.,.[ | O.,.$.1.{.1.G A _ X.=.k.F.-X7X7XvXvXvXvXvXvXvXvXvXvXvXvXvXvXvXvXvXvXvXvXvX",
"vXvXvXvXvXvXvXvXvXvXvXvXvXvXvXvXvXvXvX%XoXH.F.k.=.[ O.X.=.G A P C B A A W O.a.C.OX3X7XvXvXvXvXvXvXvXvXvXvXvXvXvXvXvXvXvXvXvXvXvX",
"vXvXvXvXvXvXvXvXvXvXvXvXvXvXvXvXvXvX-X[.vXm.V.0.=.X.=.X.[ G A B B M B M v G [ a.I.,X7XvXvXvXvXvXvXvXvXvXvXvXvXvXvXvXvXvXvXvXvXvX",
"vXvXvXvXvXvXvXvXvXvXvXvXvXvXvXvXvXvX-XvXV.V.V.0.=.X.O.X.P A A A V v p g p k Q ,.XX3X3XvXvXvXvXvXvXvXvXvXvXvXvXvXvXvXvXvXvXvXvXvX",
"vXvXvXvXvXvXvXvXvXvXvXvXvXvXvXvXvXvX-XvXF.F.V.*.X.[ =.X.G A A B k y y y y k W [ 5.oX7XvXvXvXvXvXvXvXvXvXvXvXvXvXvXvXvXvXvXvXvXvX",
"vXvXvXvXvXvXvXvXvXvXvXvXvXvXvXvXvX_.vXvXvXk.0.| O.X.X.G A V B z p y y y y y g ( =.oXkX!.vXvXvXvXvXvXvXvXvXvXvXvXvXvXvXvXvXvXvXvX",
"vXvXvXvXvXvXvXvXvXvXvXvXvXvXvXvXvXvXvXvXx.V.1.| X.O._ A A A A g y p p p y y y Q ,.oXkXwXvXvXvXvXvXvXvXvXvXvXvXvXvXvXvXvXvXvXvXvX",
"vXvXvXvXvXvXvXvXvXvXvXvXvXvXvXvXvXvXvXvXF.V.1.| [ | _ A A B B g y y p p y y p Q 1.oXkXwXvXvXvXvXvXvXvXvXvXvXvXvXvXvXvXvXvXvXvXvX",
"vXvXvXvXvXvXvXvXvXvXvXvXvXvXvXvXvXvXvXV.m.0.[ [ | ` G A A A A k p y y t 5 > 4 t [ oXzXwXvXvXvXvXvXvXvXvXvXvXvXvXvXvXvXvXvXvXvXvX",
"vXvXvXvXvXvXvXvXvXvXvXvXvXvXvXvXvXvXvXF.m.1.=.| O._ G A A C B k y y q 5 > 2 > 7 Q oXgXeXvXvXvXvXvXvXvXvXvXvXvXvXvXvXvXvXvXvXvXvX",
"vXvXvXvXvXvXvXvXvXvXvXvXvXvXvXXXvXvXvXC.V.0.X.[ X.X.G A A C g y y y 2 > > > > 5 ( XXzXeXvXvXvXvXvXvXvXvXvXvXvXvXvXvXvXvXvXvXvXvX",
"vXvXvXvXvXvXvXvXvXvXvXvXvXvXvXXXvXvXvXF.C.1.| [ [ X.A A A C g y y y 5 > 2 = = 2 ( oXkXyXvXvXvXvXvXvXvXvXvXvXvXvXvXvXvXvXvXvXvXvX",
"vXvXvXvXvXvXvXvXvXvXvXvXvXvXvXoXvXvXvXC.m.1.$.O.O.O.G A C B k y p q 5 > 2 > @ @ ( 7XcX0XQ.vXvXvXvXvXvXvXvXvXvXvXvXvXvXvXvXvXvXvX",
"vXvXvXvXvXvXvXvXvXvXvXvXvXvXvXoXvXvXvXC.1.1.R.y.O. .G A A A k y y 6 2 > = * o @ C.kXzXXXH.vXvXvXvXvXvXvXvXvXvXvXvXvXvXvXvXvXvXvX",
"vXvXvXvXvXvXvXvXvXvXvXvXvXvXvXXXvXvXh.C.=.,.oX_.2.X.G A A A k y y 6 = 2 @ X   * !.zXzX'.F.vXvXvXvXvXvXvXvXvXvXvXvXvXvXvXvXvXvXvX",
"vXvXvXvXvXvXvXvXvXvXvXvXvXvXvX_.vXvXF.F.1.^.;Xu.O.X.A A A C z y y 2 2 > @   X @ {.zXwX!.C.vXvXvXvXvXvXvXvXvXvXvXvXvXvXvXvXvXvXvX",
"vXvXvXvXvXvXvXvXvXvXvXvXvXvXvXvXvXvXm.C.9.XX,Xe.=. .G A C C z y y 5 2 2 @ X   * {.zX,XR.G.vXvXvXvXvXvXvXvXvXvXvXvXvXvXvXvXvXvXvX",
"vXvXvXvXvXvXvXvXvXvXvXvXvXvXvXvXvXvXvXC.C.-XyXy.O.X.Y A A V v y y 2 2 > @ X X @ L.,Xs.k.F.vXvXvXvXvXvXvXvXvXvXvXvXvXvXvXvXvXvXvX",
"vXvXvXvXvXvXvXvXvXvXvXvXvXvXvXvXvXvXvXF.L.-XdXy.X.X.A C A V k y y 5 > > @ X X X 0 H.F.C.F.vXvXvXvXvXvXvXvXvXvXvXvXvXvXvXvXvXvXvX",
"vXvXvXvXvXvXvXvXvXvXvXvXvXvXvXvXvXvXvXF.F.,XdXy.[ X.G G V A k y g 8 > > > * X O C *.m.c.F.vXvXvXvXvXvXvXvXvXvXvXvXvXvXvXvXvXvXvX",
"vXvXvXvXvXvXvXvXvXvXvXvXvXvXvXvXvXvXp.c.L.-XyXy.[ X.G A A B k y y t 4 > > > * @ G =.l.F.F.vXvXvXvXvXvXvXvXvXvXvXvXvXvXvXvXvXvXvX",
"vXvXvXvXvXvXvXvXvXvXvXvXvXvXvXvXvXvXvXV.H.;XyXy.O.[ G A A A k y y q 2 > > 2 > < P =.x.F.F.vXvXvXvXvXvXvXvXvXvXvXvXvXvXvXvXvXvXvX",
"vXvXvXvXvXvXvXvXvXvXvXvXvXvXvXvXvXvXvXH.,X7XdXy.X.X.G A A B z y k y 2 > 2 > 2 2 T O.x.F.vXvXvXvXvXvXvXvXvXvXvXvXvXvXvXvXvXvXvXvX",
"vXvXvXvXvXvXvXvXvXvXvXvXvXvXvXvXvXvXvXF.7X7XyXy.X.X.G G A A M g y y t 5 > 2 2 2 Y X.=.h.vXvXR.vXvXvXvXvXvXvXvXvXvXvXvXvXvXvXvXvX",
"vXvXvXvXvXvXvXvXvXvXvXvXvXvXvXvXvXvXvXC.H.-XdXy.X.O.G A A B B k y y k q y 9 2 7 T $.k.F.vXvX[.vXvXvXvXvXvXvXvXvXvXvXvXvXvXvXvXvX",
"vXvXvXvXvXvXvXvXvXvXvXvXvXvXvXvXvXvXvXF.H.yXkXy.X.X.G A A A A g p y p y y y y g Q $.m.F.vXoX7XvXvXvXvXvXvXvXvXvXvXvXvXvXvXvXvXvX",
"vXvXvXvXvXvXvXvXvXvXvXvXvXvXvXvXvXvXvXH.L.wXkXy.O.X.G A A V B g y y p y y y y W O.k.C.F.oX3X,XvXvXvXvXvXvXvXvXvXvXvXvXvXvXvXvXvX",
"vXvXvXvXvXvXvXvXvXvXvXvXvXvXvXvXvXvXvXoXL.wXkXy.[ X.X.G A A V g y p y y y p g Q =.x.F.G.*X7XvXvXvXvXvXvXvXvXvXvXvXvXvXvXvXvXvXvX",
"vXvXvXvXvXvXvXvXvXvXvXvXvXvXvXvXvXvXvXvXL.wXdXy.=.[ [ G A V A A k y p p y y T [ O.x.G.@X7X7XvXvXvXvXvXvXvXvXvXvXvXvXvXvXvXvXvXvX",
"vXvXvXvXvXvXvXvXvXvXvXvXvXvXvXvXvXvXvXvXY.wXgXy.X.O.X.^ G C C C g p y y y y Q O.<.m.*X7X7XoXvXvXvXvXvXvXvXvXvXvXvXvXvXvXvXvXvXvX",
"vXvXvXvXvXvXvXvXvXvXvXvXvXvXvXvXvXvXvXvXC.eXqXq.X.=.=._ G C A C k p y p y k Q O.x.F.L.oX7XvXvXvXvXvXvXvXvXvXvXvXvXvXvXvXvXvXvXvX",
"vXvXvXvXvXvXvXvXvXvXvXvXvXvXvXvXvXvXvXvXvX,XwXy.O.X.O.X.T C C C M M y y y k Q $.x.L.oX7X7XvXvXvXvXvXvXvXvXvXvXvXvXvXvXvXvXvXvXvX",
"vXvXvXvXvXvXvXvXvXvXvXvXvXvXvXvXvXvXvXvXvXR.qXu.O.=.X.[ [ G C C V V n z G X.=.s.G.@X7X7X,XvXvXvXvXvXvXvXvXvXvXvXvXvXvXvXvXvXvXvX",
"vXvXvXvXvXvXvXvXvXvXvXvXvXvXvXvXvXvXvXvXvX%XdXoXV.$.O.O.[ P A A A A A _ [ p.x.F.oX7X7X:XvXvXvXvXvXvXvXvXvXvXvXvXvXvXvXvXvXvXvXvX",
"vXvXvXvXvXvXvXvXvXvXvXvXvXvXvXvXvXvXvXvXvX,XdX_.V.,.O.[ X._ P G A _ X.9.=.x.Z.*XqXdXqXvXvXvXvXvXvXvXvXvXvXvXvXvXvXvXvXvXvXvXvXvX",
"vXvXvXvXvXvXvXvXvXvXvXvXvXvXvXvXvXvXvXvXvX-XqX:XY.x.0.[ X.O.1.9.q.9.9.oXs.{.^.wXgXgX7XvXvXvXvXvXvXvXvXvXvXvXvXvXvXvXvXvXvXvXvXvX",
"vXvXvXvXvXvXvXvXvXvXvXvXvXvXvXvXvXvXvXvXvX%X3X3XR.F.x.=.X.O._.qXwX3X,XqX3XdXkXkXqX:XvXvXvXvXvXvXvXvXvXvXvXvXvXvXvXvXvXvXvXvXvXvX",
"vXvXvXvXvXvXvXvXvXvXvXvXvXvXvXvXvXvXvXvXvXvX3X3XY.F.m.q.1.=.!.,XyXgXcXzXzXzXzXwX%XvXvXvXvXvXvXvXvXvXvXvXvXvXvXvXvXvXvXvXvXvXvXvX",
"vXvXvXvXvXvXvXvXvXvXvXvXvXvXvXvXvXvXvXvXvXvXoX,X!.F.F.C.C.q.0.V.L.*XyXyXyXqX7XXXvXvXvXvXvXvXvXvXvXvXvXvXvXvXvXvXvXvXvXvXvXvXvXvX",
"vXvXvXvXvXvXvXvXvXvXvXvXvXvXvXvXvXvXvXvXvXvXvX,X,XR.F.C.F.C.C.D.Z.G.H.L.L.-X,XvXvXvXvXvXvXvXvXvXvXvXvXvXvXvXvXvXvXvXvXvXvXvXvXvX",
"vXvXvXvXvXvXvXvXvXvXvXvXvXvXvXvXvXvXvXvXvXvXvX*X-XvXC.F.C.G.D.D.F.C.F.F.F.vXvXvXvXvXvXvXvXvXvXvXvXvXvXvXvXvXvXvXvXvXvXvXvXvXvXvX",
"vXvXvXvXvXvXvXvXvXvXvXvXvXvXvXvXvXvXvXvXvXvXvX-X:XvXvXF.G.F.F.F.F.C.F.F.vXvXvXvXvXvXvXvXvXvXvXvXvXvXvXvXvXvXvXvXvXvXvXvXvXvXvXvX",
"vXvXvXvXvXvXvXvXvXvXvXvXvXvXvXvXvXvXvXvXvXvXvX-X7X{.vXvXu.F.C.F.F.F.F.C.vXvXvXvXvXvXvXvXvXvXvXvXvXvXvXvXvXvXvXvXvXvXvXvXvXvXvXvX",
"vXvXvXvXvXvXvXvXvXvXvXvXvXvXvXvXvXvXvXvXvXvXvXvX%X3XXXvXvXvXvXvXvXvXvXvXvXvXvXvXvXvXvXvXvXvXvXvXvXvXvXvXvXvXvXvXvXvXvXvXvXvXvXvX",
"vXvXvXvXvXvXvXvXvXvXvXvXvXvXvXvXvXvXvXvXvXvXvXvXvX%X7X;XvXvXvXvXvXvXvXvXvXvXvXvXvXvXvXvXvXvXvXvXvXvXvXvXvXvXvXvXvXvXvXvXvXvXvXvX",
"vXvXvXvXvXvXvXvXvXvXvXvXvXvXvXvXvXvXvXvXvXvXvXvXvXvXXX-X-X7XvXvXvXvXvXvXvXvXvXvXvXvXvXvXvXvXvXvXvXvXvXvXvXvXvXvXvXvXvXvXvXvXvXvX",
"vXvXvXvXvXvXvXvXvXvXvXvXvXvXvXvXvXvXvXvXvXvXvXvXvXvXvXvXvX!.vXvXvXvXvXvXvXvXvXvXvXvXvXvXvXvXvXvXvXvXvXvXvXvXvXvXvXvXvXvXvXvXvXvX",
"vXvXvXvXvXvXvXvXvXvXvXvXvXvXvXvXvXvXvXvXvXvXvXvXvXvXvXvXvXvXvXvXvXvXvXvXvXvXvXvXvXvXvXvXvXvXvXvXvXvXvXvXvXvXvXvXvXvXvXvXvXvXvXvX",
"vXvXvXvXvXvXvXvXvXvXvXvXvXvXvXvXvXvXvXvXvXvXvXvXvXvXvXvXvXvXvXvXvXvXvXvXvXvXvXvXvXvXvXvXvXvXvXvXvXvXvXvXvXvXvXvXvXvXvXvXvXvXvXvX"
};
