/* XPM */
static char *cG9ydGFsMS0w[] = {
/* columns rows colors chars-per-pixel */
"64 64 120 2 ",
"   c #271A00",
".  c #2A1D00",
"X  c #2F2000",
"o  c #322200",
"O  c #432E00",
"+  c #453000",
"@  c #483000",
"#  c #5E3C00",
"$  c #613E00",
"%  c #644200",
"&  c #694300",
"*  c #744C00",
"=  c #784F00",
"-  c #775100",
";  c #7B5100",
":  c #825400",
">  c #895700",
",  c #875900",
"<  c #8D5B00",
"1  c #945E00",
"2  c #946100",
"3  c #9B6400",
"4  c #9F6900",
"5  c #A26700",
"6  c #A46A00",
"7  c #AA6E00",
"8  c #AD7200",
"9  c #B47300",
"0  c #B97600",
"q  c #B67800",
"w  c #BE7C00",
"e  c #C37E00",
"r  c #C87F00",
"t  c #C58200",
"y  c #CA8500",
"u  c #CE8800",
"i  c #D48700",
"p  c #D18A00",
"a  c #D48C00",
"s  c #D58D00",
"d  c #D78E00",
"f  c #D28B00",
"g  c #D88900",
"h  c #D88F00",
"j  c #D98F00",
"k  c #DF8E00",
"l  c #D98F00",
"z  c #DA9000",
"x  c #DB9000",
"c  c #DC9100",
"v  c #DE9200",
"b  c #DE9200",
"n  c #E09400",
"m  c #E39600",
"M  c #E49600",
"N  c #E59700",
"B  c #EB9500",
"V  c #E69800",
"C  c #E79800",
"Z  c #E89900",
"A  c #E99A00",
"S  c #EA9A00",
"D  c #EF9800",
"F  c #EC9C00",
"G  c #ED9C00",
"H  c #EE9D00",
"J  c #EF9E00",
"K  c #EA9A00",
"L  c #F09E00",
"P  c #F19F00",
"I  c #F29F00",
"U  c #F19F00",
"Y  c #F3A000",
"T  c #F4A100",
"R  c #F5A100",
"E  c #F6A200",
"W  c #F7A300",
"Q  c #F5A100",
"!  c #F8A300",
"~  c #F9A400",
"^  c #FAA500",
"/  c #FBA500",
"(  c #FCA600",
")  c #FDA700",
"_  c #FEA700",
"`  c #FBA500",
"'  c #FFA800",
"]  c #FFA801",
"[  c #FFA902",
"{  c #FFA903",
"}  c #FFA904",
"|  c #FFAA05",
" . c #FFAA07",
".. c #FFA902",
"X. c #FFA60C",
"o. c #FFAB08",
"O. c #FFAB09",
"+. c #FFAB0A",
"@. c #FFAC0B",
"#. c #FFAC0D",
"$. c #FFAD0E",
"%. c #FFAD0F",
"&. c #FFAC0C",
"*. c #FFAE11",
"=. c #FFAE12",
"-. c #FFAE13",
";. c #FFAF14",
":. c #FFAF15",
">. c #FFAF16",
",. c #FFAE12",
"<. c #FFB017",
"1. c #FFB017",
"2. c #FFB018",
"3. c #FFB019",
"4. c #FFB11B",
"5. c #FFB11C",
"6. c #FFB21E",
"7. c #FFB21D",
"8. c None",
"9. c black",
/* pixels */
"8.8.8.8.8.8.8.8.8.8.8.8.8.8.8.8.8.8.8.8.8.8.8.8.8.8.8.8.8.8.8.8.8.8.8.8.8.8.8.8.8.8.8.8.8.8.8.8.8.8.8.8.8.8.8.8.8.8.8.8.8.8.8.8.",
"8.8.8.8.8.8.8.8.8.8.8.8.8.8.8.8.8.8.8.8.8.8.8.8.8.8.8.8.8.8.8.8.8.8.8.8.8.8.8.8.8.8.8.8.8.8.8.8.8.8.8.8.8.8.8.8.8.8.8.8.8.8.8.8.",
"8.8.8.8.8.8.8.8.8.8.8.8.8.8.8.8.8.8.8.8.8.8.8.8.8.8.8.8.8.8.8.8.8.8.8.8.8.8.8.8.8.8.8.8.8.8.8.8.8.8.8.8.8.8.8.8.8.8.8.8.8.8.8.8.",
"8.8.8.8.8.8.8.8.8.8.8.8.8.8.8.8.8.8.8.8.8.8.8.8.8.8.8.8.8.8.8.8.8.8.8.8.8.8.8.8.8.8.8.8.8.8.8.8.8.8.8.8.8.8.8.8.8.8.8.8.8.8.8.8.",
"8.8.8.8.8.8.8.8.8.8.8.8.8.8.8.H ^ ^ ^ ^ ^ _ 8.8.8.8.8.8.8.8.8.8.8.8.8.8.8.8.8.8.8.8.8.8.8.8.8.8.8.8.8.8.8.8.8.8.8.8.8.8.8.8.8.8.",
"8.8.8.8.8.8.8.8.8.8.8.8.8.8.L { { { { { _ { { 8.8.8.8.8.8.8.8.8.8.8.8.8.8.8.8.8.8.8.8.8.8.8.8.8.8.8.8.8.8.8.8.8.8.8.8.8.8.8.8.8.",
"8.8.8.8.8.8.8.8.8.8.8.8.8.8.M H H L ^ { { { | { u 8.8.8.8.8.8.8.8.8.8.8.8.8.8.8.8.8.8.8.8.8.8.8.8.8.8.8.8.8.8.8.8.8.8.8.8.8.8.8.",
"8.8.8.8.8.8.8.8.8.8.8.8.8.8.8.8.8.8.e L ^ { _ } { u 8.8.8.8.8.8.8.8.8.8.8.8.8.8.8.8.8.8.8.8.8.8.8.8.8.8.8.8.8.8.8.8.8.8.8.8.8.8.",
"8.8.8.8.8.8.8.8.8.8.8.8.8.8.8.8.8.t y y y L _ | { u y 8.8.8.8.8.8.8.8.8.8.8.8.8.8.8.8.8.8.8.8.8.8.8.8.8.8.8.8.8.8.8.8.8.8.8.8.8.",
"8.8.8.8.8.8.8.8.8.8.8.8.8.8.8.t u y y y y r W ;.3.a y y 8.8.8.8.8.8.8.8.8.8.8.8.8.8.8.8.8.8.8.8.8.8.8.8.8.8.8.8.8.8.8.8.8.8.8.8.",
"8.8.8.8.8.8.8.8.8.8.8.8.8.8.q e r y y y y t 6 ! 3.^ h y w q 8.8.8.8.8.8.8.8.8.8.8.8.8.8.8.8.8.8.8.8.8.8.8.8.8.8.8.8.8.8.8.8.8.8.",
"8.8.8.8.8.8.8.8.8.8.8.8.8.e y y y e t t t 5 1 5 *.3.{ i y e 8.8.8.8.8.8.8.8.8.8.8.8.8.8.8.8.8.8.8.8.8.8.8.8.8.8.8.8.8.8.8.8.8.8.",
"8.8.8.8.8.8.8.8.8.8.8.8.8.u y y y w 6 4 4 2 2 1 Y 3.3.k y y t 8.8.8.8.8.8.8.8.8.8.8.8.8.8.8.8.8.8.8.8.8.8.8.8.8.8.8.8.8.8.8.8.8.",
"8.8.8.8.8.8.8.8.8.8.8.8.8.y y y w 4 1 2 2 2 1 1 6 L *.{ y y y 8.8.8.8.8.8.8.8.8.8.8.8.8.8.8.8.8.8.8.8.8.8.8.8.8.8.8.8.8.8.8.8.8.",
"8.8.8.8.8.8.8.8.8.8.8.8.t y y w 6 2 2 2 2 2 2 < 1 4 ^ +.8 e y t 8.8.8.8.8.8.8.8.8.8.8.8.8.8.8.8.8.8.8.8.8.8.8.8.8.8.8.8.8.8.8.8.",
"8.8.8.8.8.8.8.8.8.8.8.8.y y e 4 2 2 2 1 2 1 1 : < < L <.e e y t 8.8.8.8.8.8.8.8.8.8.8.8.8.8.8.8.8.8.8.8.8.8.8.8.8.8.8.8.8.8.8.8.",
"8.8.8.8.8.8.8.8.c 8.8.8.r e 6 6 5 1 2 1 2 ; ; ; - ; f *._ u y t 8.8.8.8.8.8.8.8.8.8.8.8.8.8.8.8.8.8.8.8.8.8.8.8.8.8.8.8.8.8.8.8.",
"8.8.8.8.8.8.8.8.8.8.8.e y f q H L 5 1 1 ; - ; ; * * - I W 8 t y t 8.8.8.8.8.8.8.8.8.8.8.8.8.8.8.8.8.8.8.8.8.8.8.8.8.8.8.8.8.8.8.",
"8.8.8.8.8.8.8.8.8.8.8.y r L W *.+.6 3 , ; - - ; % % % Z 0 3 e y y 8.S 8.8.8.8.8.8.8.8.8.8.8.8.8.8.8.8.8.8.8.8.8.8.8.8.8.8.8.8.8.",
"8.8.8.8.8.8.8.8.8.8.q y u ! ;.X.9 2 2 ; ; - - & # # # V q 2 4 w y 8.H 8.8.8.8.8.8.8.8.8.8.8.8.8.8.8.8.8.8.8.8.8.8.8.8.8.8.8.8.8.",
"8.8.8.8.8.8.8.8.8.8.y y Y ;.#.9 1 1 : ; - = % $ # # $ h 7 1 1 3 0 8.L L 8.8.8.8.8.8.8.8.8.8.8.8.8.8.8.8.8.8.8.8.8.8.8.8.8.8.8.8.",
"8.8.8.8.8.8.8.8.8.w y y W *.8 1 3 1 = ; ; = $ # # # # $ $ > 2 1 9 8.L { 8.8.8.8.8.8.8.8.8.8.8.8.8.8.8.8.8.8.8.8.8.8.8.8.8.8.8.8.",
"8.8.8.8.8.8.8.8.8.y u _ ;.*.8 1 1 ; - = ; - $ $ # # $ # $ < 2 w r 8.D { 8.8.8.8.8.8.8.8.8.8.8.8.8.8.8.8.8.8.8.8.8.8.8.8.8.8.8.8.",
"8.8.8.8.8.8.8.8.8.y u { <.^ 6 1 2 ; = ; = % # # # + + O O , 2 e y y H { 8.8.8.8.8.8.8.8.8.8.8.8.8.8.8.8.8.8.8.8.8.8.8.8.8.8.8.8.",
"8.8.8.8.8.8.8.8.8.y y { #.8 2 1 2 ; ; ; = $ # # O O O O + : 2 3 q y L _ 8.8.8.8.8.8.8.8.8.8.8.8.8.8.8.8.8.8.8.8.8.8.8.8.8.8.8.8.",
"8.8.8.8.8.8.8.8.q y f 3.^ 6 1 2 ; ; - - - $ # # O O O O O : 2 2 q y L { 8.8.8.8.8.8.8.8.8.8.8.8.8.8.8.8.8.8.8.8.8.8.8.8.8.8.8.8.",
"8.8.8.8.8.8.8.8.8.y | ;.8 2 2 2 : ; ; - = % $ @ O O O O o = 1 3 q y H _ 8.8.8.8.8.8.8.8.8.8.8.8.8.8.8.8.8.8.8.8.8.8.8.8.8.8.8.8.",
"8.8.8.8.8.8.8.8.8.f 6.;.8 2 2 < ; ; - ; $ # # O + O O . . . - 3 9 y Y { 8.8.8.8.8.8.8.8.8.8.8.8.8.8.8.8.8.8.8.8.8.8.8.8.8.8.8.8.",
"8.8.8.8.8.8.8.8.8.^ 6.+.8 2 2 2 : - - ; % $ # O O + o .   X ; 3 q V _ { 8.8.8.8.8.8.8.8.8.8.8.8.8.8.8.8.8.8.8.8.8.8.8.8.8.8.8.8.",
"8.8.8.8.8.8.8.8.8.3.;.8 2 2 2 2 : ; ; - % # # @ o O X     X ; 2 9 D { ! 8.8.8.8.8.8.8.8.8.8.8.8.8.8.8.8.8.8.8.8.8.8.8.8.8.8.8.8.",
"8.8.8.8.8.8.8.8.L 3.^ 2 1 2 2 2 ; ; ; - % # # O @ O X     X ; 3 9 D _ 8.8.8.8.8.8.8.8.8.8.8.8.8.8.8.8.8.8.8.8.8.8.8.8.8.8.8.8.8.",
"8.8.8.8.8.8.8.8.{ <.u 1 1 2 2 2 : ; - - % # # O + + X     o : 2 9 B { 8.8.8.8.8.8.8.8.8.8.8.8.8.8.8.8.8.8.8.8.8.8.8.8.8.8.8.8.8.",
"8.8.8.8.8.8.8.8.{ <.y 2 1 2 2 2 ; ; = ; $ # # @ O O X   . * 2 1 9 H _ 8.8.8.8.8.8.8.8.8.8.8.8.8.8.8.8.8.8.8.8.8.8.8.8.8.8.8.8.8.",
"8.8.8.8.8.8.8.8.^ W y 2 1 2 2 2 : ; ; = % # # O O O X   . ; 1 3 0 H { 8.8.8.8.8.8.8.8.8.8.8.8.8.8.8.8.8.8.8.8.8.8.8.8.8.8.8.8.8.",
"8.8.8.8.8.8.8.H { u y 2 1 2 1 < ; ; = - % $ # O O O X   . = 2 3 a { { 8.8.8.8.8.8.8.8.8.8.8.8.8.8.8.8.8.8.8.8.8.8.8.8.8.8.8.8.8.",
"8.8.8.8.8.8.8.S ^ y y 2 1 2 2 2 : ; = = % $ # # O O O o X : 1 4 g { W 8.8.8.8.8.8.8.8.8.8.8.8.8.8.8.8.8.8.8.8.8.8.8.8.8.8.8.8.8.",
"8.8.8.8.8.8.8.8.^ y t 3 1 2 2 2 ; ; ; ; $ $ $ # O O O O O : 1 1 g { 8.8.8.8.8.8.8.8.8.8.8.8.8.8.8.8.8.8.8.8.8.8.8.8.8.8.8.8.8.8.",
"8.8.8.8.8.8.8.c _ e t 2 2 2 2 2 ; ; ; ; $ # # # O O O O O : 1 B @.@.8.8.8.8.8.8.8.8.8.8.8.8.8.8.8.8.8.8.8.8.8.8.8.8.8.8.8.8.8.8.",
"8.8.8.8.8.8.8.W _ e y 2 2 2 2 2 ; ; ; ; $ # # # O O O O O : 3 _ 3.V w 8.8.8.8.8.8.8.8.8.8.8.8.8.8.8.8.8.8.8.8.8.8.8.8.8.8.8.8.8.",
"8.8.8.8.8.8.8.W _ r y 2 2 2 2 2 ; ; - ; $ # # # # O O O O : 3 _ #.c 8.8.8.8.8.8.8.8.8.8.8.8.8.8.8.8.8.8.8.8.8.8.8.8.8.8.8.8.8.8.",
"8.8.8.8.8.8.8.W _ r y t 4 1 2 < : ; - - % # # # # # # # # < 3 ^ S y 8.8.8.8.8.8.8.8.8.8.8.8.8.8.8.8.8.8.8.8.8.8.8.8.8.8.8.8.8.8.",
"8.8.8.8.8.8.8.W _ e y t 6 2 1 2 ; ; - ; = $ # $ # # # # # < _ ;.V y 8.8.8.8.8.8.8.8.8.8.8.8.8.8.8.8.8.8.8.8.8.8.8.8.8.8.8.8.8.8.",
"8.8.8.8.8.8.8.S ! 8.y y 6 m 8 3 2 ; ; - - % # # # # # $ , 3 _ h y y 8.8.8.8.8.8.8.8.8.8.8.8.8.8.8.8.8.8.8.8.8.8.8.8.8.8.8.8.8.8.",
"8.8.8.8.8.8.8.8.W 8.0 t 6 D <.#.8 ; ; ; - % # # # # # # > _ -.g y w 8.8.8.8.8.8.8.8.8.8.8.8.8.8.8.8.8.8.8.8.8.8.8.8.8.8.8.8.8.8.",
"8.8.8.8.8.8.8.8.L 8.8.u 6 M _ +.7 1 ; ; - - % $ # $ # $ 1 { f y y 8.8.8.8.8.8.8.8.8.8.8.8.8.8.8.8.8.8.8.8.8.8.8.8.8.8.8.8.8.8.8.",
"8.8.8.8.8.8.8.8.W 8.8.y y 6 H +.7 1 ; = = ; = $ $ # # < ^ @.f y y 8.8.8.8.8.8.8.8.8.8.8.8.8.8.8.8.8.8.8.8.8.8.8.8.8.8.8.8.8.8.8.",
"8.8.8.8.8.8.8.8.W 8.8.u t 6 S *.W 3 ; - - = = * * $ # , b t t y t 8.8.8.8.8.8.8.8.8.8.8.8.8.8.8.8.8.8.8.8.8.8.8.8.8.8.8.8.8.8.8.",
"8.8.8.8.8.8.8.8.W 8.8.i e 6 9 +.+.5 2 : ; = = = = = % % 3 w y t 8.8.8.8.8.8.8.8.8.8.8.8.8.8.8.8.8.8.8.8.8.8.8.8.8.8.8.8.8.8.8.8.",
"8.8.8.8.8.8.8.8.S 8.8.e y e 6 Y +.8 2 < ; - - ; ; - < < q y y t 8.8.8.8.8.8.8.8.8.8.8.8.8.8.8.8.8.8.8.8.8.8.8.8.8.8.8.8.8.8.8.8.",
"8.8.8.8.8.8.8.8.8.8.8.8.w t 7 f +.S 6 2 , ; ; - 1 1 2 2 e y y t 8.8.8.8.8.8.8.8.8.8.8.8.8.8.8.8.8.8.8.8.8.8.8.8.8.8.8.8.8.8.8.8.",
"8.8.8.8.8.8.8.8.8.8.8.8.8.y t u _ | 9 3 2 ; 2 2 2 3 3 q e t t t 8.8.8.8.8.8.8.8.8.8.8.8.8.8.8.8.8.8.8.8.8.8.8.8.8.8.8.8.8.8.8.8.",
"8.8.8.8.8.8.8.8.8.8.8.8.8.t y u W *.#.q 1 2 1 2 2 e e t y t 8.8.8.8.8.8.8.8.8.8.8.8.8.8.8.8.8.8.8.8.8.8.8.8.8.8.8.8.8.8.8.8.8.8.",
"8.8.8.8.8.8.8.8.8.8.8.8.8.8.e y f { *.{ 0 1 1 3 4 y y y y q 8.8.8.8.8.8.8.8.8.8.8.8.8.8.8.8.8.8.8.8.8.8.8.8.8.8.8.8.8.8.8.8.8.8.",
"8.8.8.8.8.8.8.8.8.8.8.8.8.8.q y u L ! #.{ 7 3 w w y y y t 8.8.8.8.8.{ 8.8.8.8.8.8.8.8.8.8.8.8.8.8.8.8.8.8.8.8.8.8.8.8.8.8.8.8.8.",
"8.8.8.8.8.8.8.8.8.8.8.8.8.8.8.t y u u ^ <.f t u y y u y t 8.8.8.8._ 6.8.8.8.8.8.8.8.8.8.8.8.8.8.8.8.8.8.8.8.8.8.8.8.8.8.8.8.8.8.",
"8.8.8.8.8.8.8.8.8.8.8.8.8.8.8.8.t y y u ^ _ / y y y y y 8.c 8.8.8.8.8.8.8.8.8.8.8.8.8.8.8.8.8.8.8.8.8.8.8.8.8.8.8.8.8.8.8.8.8.8.",
"8.8.8.8.8.8.8.8.8.8.8.8.8.8.8.8.8.t y u W { { _ u t 8.8.h ^ S 8.8.8.8.8.8.8.8.8.8.8.8.8.8.8.8.8.8.8.8.8.8.8.8.8.8.8.8.8.8.8.8.8.",
"8.8.8.8.8.8.8.8.8.8.8.8.8.8.8.8.8.t y y W { { { _ _ Y H _ Y 8.8.8.8.8.8.8.8.8.8.8.8.8.8.8.8.8.8.8.8.8.8.8.8.8.8.8.8.8.8.8.8.8.8.",
"8.8.8.8.8.8.8.8.8.8.8.8.8.8.8.8.8.8.8.8.8.L { { { { { { W 8.8.8.8.8.8.8.8.8.8.8.8.8.8.8.8.8.8.8.8.8.8.8.8.8.8.8.8.8.8.8.8.8.8.8.",
"8.8.8.8.8.8.8.8.8.8.8.8.8.8.8.8.8.8.8.8.8.8.Y ^ ^ ^ ^ Y 8.8.8.8.8.8.8.8.8.8.8.8.8.8.8.8.8.8.8.8.8.8.8.8.8.8.8.8.8.8.8.8.8.8.8.8.",
"8.8.8.8.8.8.8.8.8.8.8.8.8.8.8.8.8.8.8.8.8.8.8.8.8.8.8.8.8.8.8.8.8.8.8.8.8.8.8.8.8.8.8.8.8.8.8.8.8.8.8.8.8.8.8.8.8.8.8.8.8.8.8.8.",
"8.8.8.8.8.8.8.8.8.8.8.8.8.8.8.8.8.8.8.8.8.8.8.8.8.8.8.8.8.8.8.8.8.8.8.8.8.8.8.8.8.8.8.8.8.8.8.8.8.8.8.8.8.8.8.8.8.8.8.8.8.8.8.8.",
"8.8.8.8.8.8.8.8.8.8.8.8.8.8.8.8.8.8.8.8.8.8.8.8.8.8.8.8.8.8.8.8.8.8.8.8.8.8.8.8.8.8.8.8.8.8.8.8.8.8.8.8.8.8.8.8.8.8.8.8.8.8.8.8.",
"8.8.8.8.8.8.8.8.8.8.8.8.8.8.8.8.8.8.8.8.8.8.8.8.8.8.8.8.8.8.8.8.8.8.8.8.8.8.8.8.8.8.8.8.8.8.8.8.8.8.8.8.8.8.8.8.8.8.8.8.8.8.8.8."
};
