/* XPM */
static char *cG9ydGFsMQ__[] = {
/* columns rows colors chars-per-pixel */
"64 64 173 2 ",
"   c #0F0B04",
".  c #100C04",
"X  c #110D04",
"o  c #120E05",
"O  c #130E05",
"+  c #140F05",
"@  c #141006",
"#  c #181207",
"$  c #191207",
"%  c #191307",
"&  c #1A1307",
"*  c #191407",
"=  c #1A1407",
"-  c #1B1407",
";  c #1B1507",
":  c #221909",
">  c #231909",
",  c #231A09",
"<  c #23190A",
"1  c #231A0A",
"2  c #231B0A",
"3  c #241A0A",
"4  c #241B0A",
"5  c #251B0A",
"6  c #251C0A",
"7  c #261C0A",
"8  c #261D0A",
"9  c #271D0B",
"0  c #281D0B",
"q  c #2B200C",
"w  c #2C210C",
"e  c #2D220C",
"r  c #2D230C",
"t  c #2E220C",
"y  c #2E230C",
"u  c #2F230D",
"i  c #2E240C",
"p  c #2F240D",
"a  c #30230D",
"s  c #30240D",
"d  c #31240D",
"f  c #30250D",
"g  c #31250D",
"h  c #32250D",
"j  c #32260D",
"k  c #33250E",
"l  c #33260E",
"z  c #34250E",
"x  c #34260E",
"c  c #34270E",
"v  c #36270E",
"b  c #37270F",
"n  c #35280E",
"m  c #36280F",
"M  c #37280F",
"N  c #36290F",
"B  c #37290F",
"V  c #372A0F",
"C  c #38280F",
"Z  c #38290F",
"A  c #39290F",
"S  c #382A0F",
"D  c #392A0F",
"F  c #392B0F",
"G  c #3B2A10",
"H  c #3A2B10",
"J  c #3B2B10",
"K  c #3A2C10",
"L  c #3B2C10",
"P  c #3C2C10",
"I  c #3C2D10",
"U  c #3D2D10",
"Y  c #3E2C11",
"T  c #3E2D11",
"R  c #3D2E10",
"E  c #3E2E11",
"W  c #3F2E11",
"Q  c #3F2F11",
"!  c #402F11",
"~  c #403011",
"^  c #413112",
"/  c #423012",
"(  c #423112",
")  c #433112",
"_  c #423212",
"`  c #433212",
"'  c #453113",
"]  c #443212",
"[  c #453212",
"{  c #443312",
"}  c #453313",
"|  c #463313",
" . c #453412",
".. c #453413",
"X. c #463413",
"o. c #473413",
"O. c #473513",
"+. c #483413",
"@. c #483513",
"#. c #483514",
"$. c #493514",
"%. c #483614",
"&. c #493614",
"*. c #493714",
"=. c #4A3614",
"-. c #4A3714",
";. c #4B3714",
":. c #4C3714",
">. c #4A3814",
",. c #4B3814",
"<. c #4C3814",
"1. c #4C3914",
"2. c #4C3815",
"3. c #4D3815",
"4. c #4C3915",
"5. c #4D3915",
"6. c #4E3915",
"7. c #4D3A15",
"8. c #4E3A15",
"9. c #4F3A15",
"0. c #4E3B15",
"q. c #4F3B15",
"w. c #4F3C15",
"e. c #503B16",
"r. c #503C15",
"t. c #503C16",
"y. c #513D16",
"u. c #523C16",
"i. c #523D16",
"p. c #523E16",
"a. c #533E16",
"s. c #533F16",
"d. c #553E17",
"f. c #543F17",
"g. c #554017",
"h. c #564117",
"j. c #574117",
"k. c #574118",
"l. c #594118",
"z. c #584218",
"x. c #594318",
"c. c #5A4318",
"v. c #5B4318",
"b. c #5A4418",
"n. c #5B4418",
"m. c #5B4419",
"M. c #5B4519",
"N. c #5C4519",
"B. c #5D4619",
"V. c #5E4619",
"C. c #5E4719",
"Z. c #5F4719",
"A. c #5F471A",
"S. c #5F481A",
"D. c #60481A",
"F. c #61491A",
"G. c #61491B",
"H. c #61491C",
"J. c #614A1C",
"K. c #614A1D",
"L. c #624A1D",
"P. c #62491F",
"I. c #624B1E",
"U. c #624B1F",
"Y. c #624C20",
"T. c #634C21",
"R. c #634D22",
"E. c #634D23",
"W. c #634E23",
"Q. c #634E24",
"!. c #644E25",
"~. c #644F25",
"^. c None",
/* pixels */
"^.^.^.^.^.^.^.^.^.^.^.^.^.^.^.^.^.^.^.^.^.^.^.^.^.^.^.^.^.^.^.^.^.^.^.^.^.^.^.^.^.^.^.^.^.^.^.^.^.^.^.^.^.^.^.^.^.^.^.^.^.^.^.^.",
"^.^.^.^.^.^.^.^.^.^.^.^.^.^.^.^.^.^.^.^.^.^.^.^.^.^.^.^.^.^.^.^.^.^.^.^.^.^.^.^.^.^.^.^.^.^.^.^.^.^.^.^.^.^.^.^.^.^.^.^.^.^.^.^.",
"^.^.^.^.^.^.^.^.^.^.^.^.^.^.^.^.^.^.^.^.^.^.^.^.^.^.^.^.^.^.^.^.^.^.^.^.^.^.^.^.^.^.^.^.^.^.^.^.^.^.^.^.^.^.^.^.^.^.^.^.^.^.^.^.",
"^.^.^.^.^.^.^.^.^.^.^.^.^.^.^.^.^.^.^.^.^.^.^.^.^.^.^.^.^.^.^.^.^.^.^.^.^.^.^.^.^.^.^.^.^.^.^.^.^.^.^.^.^.^.^.^.^.^.^.^.^.^.^.^.",
"^.^.^.^.^.^.^.^.^.^.^.^.^.^.^.b.N.G.D.N.D.G.^.^.^.^.^.^.^.^.^.^.^.^.^.^.^.^.^.^.^.^.^.^.^.^.^.^.^.^.^.^.^.^.^.^.^.^.^.^.^.^.^.^.",
"^.^.^.^.^.^.^.^.^.^.^.^.^.^.b.G.G.G.G.G.G.G.G.^.^.^.^.^.^.^.^.^.^.^.^.^.^.^.^.^.^.^.^.^.^.^.^.^.^.^.^.^.^.^.^.^.^.^.^.^.^.^.^.^.",
"^.^.^.^.^.^.^.^.^.^.^.^.^.^.z.z.b.b.G.G.G.G.G.G.r.^.^.^.^.^.^.^.^.^.^.^.^.^.^.^.^.^.^.^.^.^.^.^.^.^.^.^.^.^.^.^.^.^.^.^.^.^.^.^.",
"^.^.^.^.^.^.^.^.^.^.^.^.^.^.^.^.^.^.*.n.G.G.G.G.G.4.^.^.^.^.^.^.^.^.^.^.^.^.^.^.^.^.^.^.^.^.^.^.^.^.^.^.^.^.^.^.^.^.^.^.^.^.^.^.",
"^.^.^.^.^.^.^.^.^.^.^.^.^.^.^.^.^.6.4.4.4.N.G.G.J.4.w.^.^.^.^.^.^.^.^.^.^.^.^.^.^.^.^.^.^.^.^.^.^.^.^.^.^.^.^.^.^.^.^.^.^.^.^.^.",
"^.^.^.^.^.^.^.^.^.^.^.^.^.^.^.,.4.4.4.w.,.6.N.W.!.r.4.4.^.^.^.^.^.^.^.^.^.^.^.^.^.^.^.^.^.^.^.^.^.^.^.^.^.^.^.^.^.^.^.^.^.^.^.^.",
"^.^.^.^.^.^.^.^.^.^.^.^.^.^.| ;.6.,.4.4.6.6.Q N.W.G.r.4.;...^.^.^.^.^.^.^.^.^.^.^.^.^.^.^.^.^.^.^.^.^.^.^.^.^.^.^.^.^.^.^.^.^.^.",
"^.^.^.^.^.^.^.^.^.^.^.^.^.*.4.4.4.*.6.4.,.F Z I W.W.J.t.,.%.^.^.^.^.^.^.^.^.^.^.^.^.^.^.^.^.^.^.^.^.^.^.^.^.^.^.^.^.^.^.^.^.^.^.",
"^.^.^.^.^.^.^.^.^.^.^.^.^.4.4.4.:.;.L I I Z Z b N.W.W.f.4.4.,.^.^.^.^.^.^.^.^.^.^.^.^.^.^.^.^.^.^.^.^.^.^.^.^.^.^.^.^.^.^.^.^.^.",
"^.^.^.^.^.^.^.^.^.^.^.^.^.4.w.4.;.I Z Z Z Z Z Z I N.T.D.w.,.,.^.^.^.^.^.^.^.^.^.^.^.^.^.^.^.^.^.^.^.^.^.^.^.^.^.^.^.^.^.^.^.^.^.",
"^.^.^.^.^.^.^.^.^.^.^.^.,.,.4.;.! Z F F F Z Z Z Z Y D.J.{ %.,.,.^.^.^.^.^.^.^.^.^.^.^.^.^.^.^.^.^.^.^.^.^.^.^.^.^.^.^.^.^.^.^.^.",
"^.^.^.^.^.^.^.^.^.^.^.^.,.,.,.I F Z F Z Z Z V j z b N.T.%.,.w.4.^.^.^.^.^.^.^.^.^.^.^.^.^.^.^.^.^.^.^.^.^.^.^.^.^.^.^.^.^.^.^.^.",
"^.^.^.^.^.^.^.^.f.^.^.^.;.;.I ! I Z Z Z Z a t p t t e.W.N.4.,.,.^.^.^.^.^.^.^.^.^.^.^.^.^.^.^.^.^.^.^.^.^.^.^.^.^.^.^.^.^.^.^.^.",
"^.^.^.^.^.^.^.^.^.^.^.;.4.4.+.v.N.I Z Z j t t t t t t B.N.' %.w.4.^.^.^.^.^.^.^.^.^.^.^.^.^.^.^.^.^.^.^.^.^.^.^.^.^.^.^.^.^.^.^.",
"^.^.^.^.^.^.^.^.^.^.^.w.4.N.N.T.L.! Z j p t t p 6 6 , z.;.L ;.,.4.^.z.^.^.^.^.^.^.^.^.^.^.^.^.^.^.^.^.^.^.^.^.^.^.^.^.^.^.^.^.^.",
"^.^.^.^.^.^.^.^.^.^...4.4.G.W.L.| Z Z j e t t 7 6 3 3 z.| Z L %.4.^.N.^.^.^.^.^.^.^.^.^.^.^.^.^.^.^.^.^.^.^.^.^.^.^.^.^.^.^.^.^.",
"^.^.^.^.^.^.^.^.^.^.4.4.N.W.W.| J B j a e e 0 , 1 , 6 f.! Z V J *.^.b.N.^.^.^.^.^.^.^.^.^.^.^.^.^.^.^.^.^.^.^.^.^.^.^.^.^.^.^.^.",
"^.^.^.^.^.^.^.^.^...4.4.N.J.~ Z Z B t t e e 7 , 3 3 3 3 7 z Z Z | ^.N.G.^.^.^.^.^.^.^.^.^.^.^.^.^.^.^.^.^.^.^.^.^.^.^.^.^.^.^.^.",
"^.^.^.^.^.^.^.^.^.6.6.D.W.W.~ Z V j t t t a 7 , , 6 , , , z Z *.6.^.v.G.^.^.^.^.^.^.^.^.^.^.^.^.^.^.^.^.^.^.^.^.^.^.^.^.^.^.^.^.",
"^.^.^.^.^.^.^.^.^.6.6.G.W.D.Q Z V p t t t 0 , , 2 - - * & V V ;.,.6.v.G.^.^.^.^.^.^.^.^.^.^.^.^.^.^.^.^.^.^.^.^.^.^.^.^.^.^.^.^.",
"^.^.^.^.^.^.^.^.^.,.w.J.J.~ J Z V j t t t 3 3 1 - # - * * j Z J ..,.b.G.^.^.^.^.^.^.^.^.^.^.^.^.^.^.^.^.^.^.^.^.^.^.^.^.^.^.^.^.",
"^.^.^.^.^.^.^.^...w.w.W.G.I Z Z t t t t t 3 3 1 - - * - * j Z J ..4.N.G.^.^.^.^.^.^.^.^.^.^.^.^.^.^.^.^.^.^.^.^.^.^.^.^.^.^.^.^.",
"^.^.^.^.^.^.^.^.^.4.J.W...Z F V t p t t t 6 1 - * * * # o q V J | ,.b.G.^.^.^.^.^.^.^.^.^.^.^.^.^.^.^.^.^.^.^.^.^.^.^.^.^.^.^.^.",
"^.^.^.^.^.^.^.^.^.4.Q.W.~ F Z V t p t t 6 1 1 - * * -   o   t J | 4.b.G.^.^.^.^.^.^.^.^.^.^.^.^.^.^.^.^.^.^.^.^.^.^.^.^.^.^.^.^.",
"^.^.^.^.^.^.^.^.^.G.W.J.| Z F Z f u t t 6 3 3 - * * o     o p J | v.G.G.^.^.^.^.^.^.^.^.^.^.^.^.^.^.^.^.^.^.^.^.^.^.^.^.^.^.^.^.",
"^.^.^.^.^.^.^.^.^.W.W.~ L Z Z V f p t t 6 3 3 - * * o     o p Z ~ n.G.N.^.^.^.^.^.^.^.^.^.^.^.^.^.^.^.^.^.^.^.^.^.^.^.^.^.^.^.^.",
"^.^.^.^.^.^.^.^.N.!.N.Z Z Z Z F f p t t 6 3 3 - * * o     o t Z | v.G.^.^.^.^.^.^.^.^.^.^.^.^.^.^.^.^.^.^.^.^.^.^.^.^.^.^.^.^.^.",
"^.^.^.^.^.^.^.^.G.W.r.Z Z Z F Z a p t t 6 3 3 - * * o     @ j V | v.G.^.^.^.^.^.^.^.^.^.^.^.^.^.^.^.^.^.^.^.^.^.^.^.^.^.^.^.^.^.",
"^.^.^.^.^.^.^.^.C.W.6.F Z Z Z V t p t t 3 3 3 - * * o   o q V Z ~ v.G.^.^.^.^.^.^.^.^.^.^.^.^.^.^.^.^.^.^.^.^.^.^.^.^.^.^.^.^.^.",
"^.^.^.^.^.^.^.^.G.C.6.F Z Z F V j a t t 6 3 3 - & & o     p Z J ..n.G.^.^.^.^.^.^.^.^.^.^.^.^.^.^.^.^.^.^.^.^.^.^.^.^.^.^.^.^.^.",
"^.^.^.^.^.^.^.b.D.6.6.Z Z F Z V t p t t 0 , 3 ; & & o . . t Z I r.G.G.^.^.^.^.^.^.^.^.^.^.^.^.^.^.^.^.^.^.^.^.^.^.^.^.^.^.^.^.^.",
"^.^.^.^.^.^.^.z.C.6.4.F Z Z F Z j p t a 6 3 3 , * * & o o a Z L f.G.n.^.^.^.^.^.^.^.^.^.^.^.^.^.^.^.^.^.^.^.^.^.^.^.^.^.^.^.^.^.",
"^.^.^.^.^.^.^.^.C.,.,.Z Z F Z F t p t t 0 , 3 3 * & & & & a V Z r.J.^.^.^.^.^.^.^.^.^.^.^.^.^.^.^.^.^.^.^.^.^.^.^.^.^.^.^.^.^.^.",
"^.^.^.^.^.^.^.g.G.6.6.Z Z Z F Z u u t t 6 3 3 , * * * * & a Z v.L.J.^.^.^.^.^.^.^.^.^.^.^.^.^.^.^.^.^.^.^.^.^.^.^.^.^.^.^.^.^.^.",
"^.^.^.^.^.^.^.C.D.,.,.F Z F F V p p p t 7 , , , ; @ * * & j I G.!.z.;.^.^.^.^.^.^.^.^.^.^.^.^.^.^.^.^.^.^.^.^.^.^.^.^.^.^.^.^.^.",
"^.^.^.^.^.^.^.n.D.,.6.F Z F Z V j p t t 0 3 3 , 1 & * * & a Y G.Y.f.^.^.^.^.^.^.^.^.^.^.^.^.^.^.^.^.^.^.^.^.^.^.^.^.^.^.^.^.^.^.",
"^.^.^.^.^.^.^.N.D.:.4.6.F Z Z Z t u t t 3 3 3 3 3 3 3 3 3 b J N.z.4.^.^.^.^.^.^.^.^.^.^.^.^.^.^.^.^.^.^.^.^.^.^.^.^.^.^.^.^.^.^.",
"^.^.^.^.^.^.^.N.D.*.4.6.F F Z Z u u t t t 6 3 3 3 3 3 3 7 z D.W.k.4.^.^.^.^.^.^.^.^.^.^.^.^.^.^.^.^.^.^.^.^.^.^.^.^.^.^.^.^.^.^.",
"^.^.^.^.^.^.^.z.G.^.4.6.~ g.~ I B f t t t 6 3 3 3 3 3 6 j I J.d.4.,.^.^.^.^.^.^.^.^.^.^.^.^.^.^.^.^.^.^.^.^.^.^.^.^.^.^.^.^.^.^.",
"^.^.^.^.^.^.^.^.N.^...4.~ n.W.I.Q p t t t 6 3 3 3 3 3 3 b N.Y.r.4.;.^.^.^.^.^.^.^.^.^.^.^.^.^.^.^.^.^.^.^.^.^.^.^.^.^.^.^.^.^.^.",
"^.^.^.^.^.^.^.^.N.^.^.4.! z.D.P.Q b t t t p 6 3 , 7 , , Z N.g.,.4.^.^.^.^.^.^.^.^.^.^.^.^.^.^.^.^.^.^.^.^.^.^.^.^.^.^.^.^.^.^.^.",
"^.^.^.^.^.^.^.^.N.^.^.r.:.I N.Y._ B u t t t t 3 , 7 , b G.W.w.w.4.^.^.^.^.^.^.^.^.^.^.^.^.^.^.^.^.^.^.^.^.^.^.^.^.^.^.^.^.^.^.^.",
"^.^.^.^.^.^.^.^.D.^.^.4.;.I z.Y.B.I j t t t t t e , , h g.*.,.,.4.^.^.^.^.^.^.^.^.^.^.^.^.^.^.^.^.^.^.^.^.^.^.^.^.^.^.^.^.^.^.^.",
"^.^.^.^.^.^.^.^.N.^.^.4.:.! _ J.Y.Q B p t t t t e e 0 0 Z *.,.,.^.^.^.^.^.^.^.^.^.^.^.^.^.^.^.^.^.^.^.^.^.^.^.^.^.^.^.^.^.^.^.^.",
"^.^.^.^.^.^.^.^.z.^.^.;.4.*.I N.L.| Z Z a t t t a t j V ..,.,.,.^.^.^.^.^.^.^.^.^.^.^.^.^.^.^.^.^.^.^.^.^.^.^.^.^.^.^.^.^.^.^.^.",
"^.^.^.^.^.^.^.^.^.^.^.^.*.6.~ r.J.z.I Z j t t a z J B J ;.4.w.,.^.^.^.^.^.^.^.^.^.^.^.^.^.^.^.^.^.^.^.^.^.^.^.^.^.^.^.^.^.^.^.^.",
"^.^.^.^.^.^.^.^.^.^.^.^.^.,.6.4.D.J.| Z V j V V L L J ' ,.4.,.,.^.^.^.^.^.^.^.^.^.^.^.^.^.^.^.^.^.^.^.^.^.^.^.^.^.^.^.^.^.^.^.^.",
"^.^.^.^.^.^.^.^.^.^.^.^.^.,.6.w.N.W.J.*.Z Z V Z V %.,.,.,.,.^.^.^.^.^.^.^.^.^.^.^.^.^.^.^.^.^.^.^.^.^.^.^.^.^.^.^.^.^.^.^.^.^.^.",
"^.^.^.^.^.^.^.^.^.^.^.^.^.^.,.4.r.G.T.G.*.F Z Z L 4.4.w.6...^.^.^.^.^.^.^.^.^.^.^.^.^.^.^.^.^.^.^.^.^.^.^.^.^.^.^.^.^.^.^.^.^.^.",
"^.^.^.^.^.^.^.^.^.^.^.^.^.^...,.r.N.D.J.G.~ F ,.*.4.4.w.,.^.^.^.^.^.G.^.^.^.^.^.^.^.^.^.^.^.^.^.^.^.^.^.^.^.^.^.^.^.^.^.^.^.^.^.",
"^.^.^.^.^.^.^.^.^.^.^.^.^.^.^.,.4.4.r.N.W.r.6.4.4.4.w.4.,.^.^.^.^.G.!.^.^.^.^.^.^.^.^.^.^.^.^.^.^.^.^.^.^.^.^.^.^.^.^.^.^.^.^.^.",
"^.^.^.^.^.^.^.^.^.^.^.^.^.^.^.^.6.4.4.r.D.D.N.4.4.4.4.6.^.g.^.^.^.^.^.^.^.^.^.^.^.^.^.^.^.^.^.^.^.^.^.^.^.^.^.^.^.^.^.^.^.^.^.^.",
"^.^.^.^.^.^.^.^.^.^.^.^.^.^.^.^.^.,.4.w.S.G.G.G.4.6.^.^.r.G.z.^.^.^.^.^.^.^.^.^.^.^.^.^.^.^.^.^.^.^.^.^.^.^.^.^.^.^.^.^.^.^.^.^.",
"^.^.^.^.^.^.^.^.^.^.^.^.^.^.^.^.^.4.4.4.N.G.G.G.G.G.N.b.G.N.^.^.^.^.^.^.^.^.^.^.^.^.^.^.^.^.^.^.^.^.^.^.^.^.^.^.^.^.^.^.^.^.^.^.",
"^.^.^.^.^.^.^.^.^.^.^.^.^.^.^.^.^.^.^.^.^.b.G.G.G.G.G.G.N.^.^.^.^.^.^.^.^.^.^.^.^.^.^.^.^.^.^.^.^.^.^.^.^.^.^.^.^.^.^.^.^.^.^.^.",
"^.^.^.^.^.^.^.^.^.^.^.^.^.^.^.^.^.^.^.^.^.^.N.G.G.n.G.N.^.^.^.^.^.^.^.^.^.^.^.^.^.^.^.^.^.^.^.^.^.^.^.^.^.^.^.^.^.^.^.^.^.^.^.^.",
"^.^.^.^.^.^.^.^.^.^.^.^.^.^.^.^.^.^.^.^.^.^.^.^.^.^.^.^.^.^.^.^.^.^.^.^.^.^.^.^.^.^.^.^.^.^.^.^.^.^.^.^.^.^.^.^.^.^.^.^.^.^.^.^.",
"^.^.^.^.^.^.^.^.^.^.^.^.^.^.^.^.^.^.^.^.^.^.^.^.^.^.^.^.^.^.^.^.^.^.^.^.^.^.^.^.^.^.^.^.^.^.^.^.^.^.^.^.^.^.^.^.^.^.^.^.^.^.^.^.",
"^.^.^.^.^.^.^.^.^.^.^.^.^.^.^.^.^.^.^.^.^.^.^.^.^.^.^.^.^.^.^.^.^.^.^.^.^.^.^.^.^.^.^.^.^.^.^.^.^.^.^.^.^.^.^.^.^.^.^.^.^.^.^.^.",
"^.^.^.^.^.^.^.^.^.^.^.^.^.^.^.^.^.^.^.^.^.^.^.^.^.^.^.^.^.^.^.^.^.^.^.^.^.^.^.^.^.^.^.^.^.^.^.^.^.^.^.^.^.^.^.^.^.^.^.^.^.^.^.^."
};
