/* XPM */
static char *cG9ydGFsLTQ_[] = {
/* columns rows colors chars-per-pixel */
"64 64 235 2 ",
"   c #281D00",
".  c #291D00",
"X  c #291E00",
"o  c #2A1E00",
"O  c #2A1F00",
"+  c #2D2100",
"@  c #2F2100",
"#  c #2F2200",
"$  c #312100",
"%  c #302300",
"&  c #312300",
"*  c #322300",
"=  c #322400",
"-  c #332400",
";  c #342600",
":  c #3A2900",
">  c #402B00",
",  c #412C00",
"<  c #422C00",
"1  c #422D00",
"2  c #432E00",
"3  c #442D00",
"4  c #452E00",
"5  c #442F00",
"6  c #452F00",
"7  c #462E00",
"8  c #472F00",
"9  c #463000",
"0  c #483000",
"q  c #4C3200",
"w  c #4D3500",
"e  c #4D3700",
"r  c #553600",
"t  c #593900",
"y  c #5A3900",
"u  c #5B3A00",
"i  c #5D3B00",
"p  c #5C3D00",
"a  c #5E3C00",
"s  c #5F3D00",
"d  c #5E3E00",
"f  c #5F3F00",
"g  c #603D00",
"h  c #613E00",
"j  c #603F00",
"k  c #623E00",
"l  c #633F00",
"z  c #614000",
"x  c #624100",
"c  c #634100",
"v  c #644000",
"b  c #644200",
"n  c #654300",
"m  c #664300",
"M  c #684500",
"N  c #724900",
"B  c #724B00",
"V  c #744D00",
"C  c #774F00",
"Z  c #784F00",
"A  c #795000",
"S  c #7A5000",
"D  c #7B5100",
"F  c #7A5300",
"G  c #7C5200",
"H  c #7D5200",
"J  c #7E5300",
"K  c #7F5400",
"L  c #7E5600",
"P  c #805400",
"I  c #815500",
"U  c #825600",
"Y  c #845700",
"T  c #895700",
"R  c #855800",
"E  c #865800",
"W  c #875900",
"Q  c #8B5800",
"!  c #885A00",
"~  c #895A00",
"^  c #8D5A00",
"/  c #8B5C00",
"(  c #8C5C00",
")  c #8E5E00",
"_  c #8F5E00",
"`  c #905B00",
"'  c #915C00",
"]  c #925D00",
"[  c #905F00",
"{  c #945E00",
"}  c #955F00",
"|  c #965F00",
" . c #916000",
".. c #926000",
"X. c #936100",
"o. c #946100",
"O. c #956200",
"+. c #966300",
"@. c #976300",
"#. c #996100",
"$. c #9B6200",
"%. c #9C6300",
"&. c #986400",
"*. c #996500",
"=. c #9A6500",
"-. c #9B6600",
";. c #9E6400",
":. c #9C6700",
">. c #9D6700",
",. c #9E6800",
"<. c #9F6900",
"1. c #A26700",
"2. c #A06900",
"3. c #A16A00",
"4. c #A26B00",
"5. c #A36B00",
"6. c #A46800",
"7. c #A56900",
"8. c #A76A00",
"9. c #A56D00",
"0. c #A66D00",
"q. c #A86F00",
"w. c #A96F00",
"e. c #AA7000",
"r. c #AB7000",
"t. c #AC7100",
"y. c #AD7200",
"u. c #B77400",
"i. c #B47600",
"p. c #B57700",
"a. c #B87500",
"s. c #B97500",
"d. c #B67800",
"f. c #B77800",
"g. c #B97A00",
"h. c #BA7A00",
"j. c #BB7B00",
"k. c #BF7900",
"l. c #BC7C00",
"z. c #BD7C00",
"x. c #BE7D00",
"c. c #BF7E00",
"v. c #C17B00",
"b. c #C07F00",
"n. c #C67E00",
"m. c #C77F00",
"M. c #C87F00",
"N. c #C18000",
"B. c #C38100",
"V. c #C48100",
"C. c #C58200",
"Z. c #C68300",
"A. c #C78300",
"S. c #C98000",
"D. c #C88400",
"F. c #C98500",
"G. c #CA8500",
"H. c #CB8600",
"J. c #CC8700",
"K. c #CD8700",
"L. c #CE8800",
"P. c #CF8900",
"I. c #D18500",
"U. c #D08900",
"Y. c #D18A00",
"T. c #D28B00",
"R. c #D38B00",
"E. c #D48C00",
"W. c #D58D00",
"Q. c #D68D00",
"!. c #D78E00",
"~. c #D88F00",
"^. c #D98F00",
"/. c #DA9000",
"(. c #DC9100",
"). c #DD9200",
"_. c #DE9200",
"`. c #DF9300",
"'. c #E09400",
"]. c #E19400",
"[. c #E29500",
"{. c #E39600",
"}. c #E49600",
"|. c #E59700",
" X c #E69800",
".X c #E79800",
"XX c #E89900",
"oX c #E99A00",
"OX c #EA9A00",
"+X c #EB9B00",
"@X c #EC9C00",
"#X c #ED9C00",
"$X c #EE9D00",
"%X c #EF9E00",
"&X c #F09E00",
"*X c #F19F00",
"=X c #F29F00",
"-X c #F3A000",
";X c #F4A100",
":X c #F5A100",
">X c #F6A200",
",X c #F7A300",
"<X c #F8A300",
"1X c #FFA302",
"2X c #F9A400",
"3X c #FAA500",
"4X c #FBA500",
"5X c #FCA600",
"6X c #FDA700",
"7X c #FEA700",
"8X c #FFA800",
"9X c #FFA801",
"0X c #FFA902",
"qX c #FFA903",
"wX c #FFA904",
"eX c #FFAA05",
"rX c #FFAA06",
"tX c #FFAB08",
"yX c #FFAB09",
"uX c #FFAB0A",
"iX c #FFAC0B",
"pX c #FFAC0C",
"aX c #FFAC0D",
"sX c #FFAD0E",
"dX c #FFAD0F",
"fX c #FFAD10",
"gX c #FFAE13",
"hX c #FFAF14",
"jX c #FFAF15",
"kX c #FFAF16",
"lX c #FFB017",
"zX c #FFB018",
"xX c #FFB019",
"cX c #FFB11C",
"vX c None",
/* pixels */
"vXvXvXvXvXvXvXvXvXvXvXvXvXvXvXvXvXvXvXvXvXvXvXvXvXvXvXvXvXvXvXvXvXvXvXvXvXvXvXvXvXvXvXvXvXvXvXvXvXvXvXvXvXvXvXvXvXvXvXvXvXvXvXvX",
"vXvXvXvXvXvXvXvXvXvXvXvXvXvXvXvXvXvXvXvXvXvXvXvXvXvXvXvXvXvXvXvXvXvXvXvXvXvXvXvXvXvXvXvXvXvXvXvXvXvXvXvXvXvXvXvXvXvXvXvXvXvXvXvX",
"vXvXvXvXvXvXvXvXvXvXvXvXvXvXvXvXvXvXvXvXvXvXvXvXvXvXvXvXvXvXvXvXvXvX).vXvXvXvXvXvXvXvXvXvXvXvXvXvXvXvXvXvXvXvXvXvXvXvXvXvXvXvXvX",
"vXvXvXvXvXvXvXvXvXvXvXvXvXvXvXvXvXvXvXvXvXvXvXvXvXvXvXvXvXvXvXvXvXvXvXvXvXvXvXvXvXvXvXvXvXvXvXvXvXvXvXvXvXvXvXvXvXvXvXvXvXvXvXvX",
"vXvXvXvXvXvXvXvXvXvXvXvXvXvXvXvXvXvXvXvXvXvXvXvXvXvXvXvXvXvXvXvXvXvXvX[.;XvXvXvXvXvXvXvXvXvXvXvXvXvXvXvXvXvXvXvXvXvXvXvXvXvXvXvX",
"vXvXvXvXvXvXvXvXvXvXvXvXvXvXvXvXvXvXvXvXvXvXvXvXvXvXvXvXvXvXvXvXvXvXvXvX;XvXvXvXvXvXvXvXvXvXvXvXvXvXvXvXvXvXvXvXvXvXvXvXvXvXvXvX",
"vXvXvXvXvXvXvXvXvXvXvXvXvXvXvXvXvXvXvXvXvXvXvXvXvXvXvXvXvXvXc.F.F.F.D.vXXX;XvXvXvXvXvXvXvXvXvXvXvXvXvXvXvXvXvXvXvXvXvXvXvXvXvXvX",
"vXvXvXvXvXvXvXvXvXvXvXvXvXvXvXvXvXvXvXvXvXvXvXvXvXvXvXvXd.F.F.F.F.F.D.vXvX=X2XvXvXvXvXvXvXvXvXvXvXvXvXvXvXvXvXvXvXvXvXvXvXvXvXvX",
"vXvXvXvXvXvXvXvXvXvXvXvXvXvXvXvXvXvXvXvXvXvXvXvXvXvXZ.F.F.F.F.F.F.F.F.F.vXXX<XvXvXvXvXvXvXvXvXvXvXvXvXvXvXvXvXvXvXvXvXvXvXvXvXvX",
"vXvXvXvXvXvXvXvXvXvXvXvXvXvXvXvXvXvXvXvXvXvXvXvXvXv.F.F.F.F.F.Z.F.J.F.F.J.J.;X;XvXvXvXvXvXvXvXvXvXvXvXvXvXvXvXvXvXvXvXvXvXvXvXvX",
"vXvXvXvXvXvXvXvXvXvXvXvXvXvXvXvXvXvXvXvXvXvXvXvXj.A.F.F.F.Z.B.A.A.A.D.F.F.F.;X=XvXvXvXvXvXvXvXvXvXvXvXvXvXvXvXvXvXvXvXvXvXvXvXvX",
"vXvXvXvXvXvXvXvXvXvXvXvXvXvXvXvXvXvXvXvXvXvXvXvXc.J.L.L.Z.9.;.5.<.<.v.D.F.D.=X7X=XvXvXvXvXvXvXvXvXvXvXvXvXvXvXvXvXvXvXvXvXvXvXvX",
"vXvXvXvXvXvXvXvXvXvXvXvXvXvXvXvXvXvXvXvXvXvXvXF.T.%X<X%Xj.5.O.O.O.{ &.B.Z.F.T.;X7XvXvXvXvXvXvXvXvXvXvXvXvXvXvXvXvXvXvXvXvXvXvXvX",
"vXvXvXvXvXvXvXvXvXvXvXvXvXvXvXvXvXvXvXvXvXvX2X2X7XwXwX9X<X;Xi.&.O. .O.<.s.F.J.;X7XvXvXvXvXvXvXvXvXvXvXvXvXvXvXvXvXvXvXvXvXvXvXvX",
"vXvXvXvXvXvXvXvXvXvXvXvXvXvXvXvXvXvXvXvXvXvX9XlXhXhXzXhXhXhXuX9.O. .+.O.&.c.F.;X9X;XvXvXvXvXvXvXvXvXvXvXvXvXvXvXvXvXvXvXvXvXvXvX",
"vXvXvXvXvXvXvXvXvXvXvXvXvXvXvXvXvXvXvXvX;X9XfXdX;X=X-X=X%X=X%X<. .{  . .O.d.D.;X1X7XvXvXvXvXvXvXvXvXvXvXvXvXvXvXvXvXvXvXvXvXvXvX",
"vXvXvXvXvXvXvXvXvXvXvXvXvXvXvXvXvXvXvXvX7X).%XE.8.1.<.<.5.&.~ H A A H A W | d..XdXwXvXvXvXvXvXvXvXvXvXvXvXvXvXvXvXvXvXvXvXvXvXvX",
"vXvXvXvXvXvXvXvXvXvXvXvXvXvXvXvXvXvXvX<X=XE.J.c.&.| O.O.O.I A Z Z C Z C M ~ O.5.9XlX9XvXvXvXvXvXvXvXvXvXvXvXvXvXvXvXvXvXvXvXvXvX",
"vXvXvXvXvXvXvXvXvXvXvXvXvXvXvXvXvXvX-X9XI.F.n.6.O.O.&.O.| H A Z Z Z C b a W  .$.%XlXwXvXvXvXvXvXvXvXvXvXvXvXvXvXvXvXvXvXvXvXvXvX",
"vXvXvXvXvXvXvXvXvXvXvXvXvXvXvXvXvXvX7X9XF.F.A.;.| O.O. .I A C Z Z l h a a c ~ +.@XlXwXvXvXvXvXvXvXvXvXvXvXvXvXvXvXvXvXvXvXvXvXvX",
"vXvXvXvXvXvXvXvXvXvXvXvXvXvXvXvXvX[.7XvXF.A.5.| O.O.O. .K Z C C b h a a a a c _ @XhXwXvXvXvXvXvXvXvXvXvXvXvXvXvXvXvXvXvXvXvXvXvX",
"vXvXvXvXvXvXvXvXvXvXvXvXvXvXvXvXvX;X2XvXJ.D.<.O.O.O. .I A Z Z c h a a h a a c _ %XhXwXvXvXvXvXvXvXvXvXvXvXvXvXvXvXvXvXvXvXvXvXvX",
"vXvXvXvXvXvXvXvXvXvXvXvXvXvXvXvXvX;X7Xv.F.A.;.O.O.|  .H Z Z Z c a f c a a a a ^ @XhXwXvXvXvXvXvXvXvXvXvXvXvXvXvXvXvXvXvXvXvXvXvX",
"vXvXvXvXvXvXvXvXvXvXvXvXvXvXvXvXvX;XvXD.F.A.;.O.O.O. .H Z Z C a a a a t 0 2 r ~ @XhXuX/.vXvXvXvXvXvXvXvXvXvXvXvXvXvXvXvXvXvXvXvX",
"vXvXvXvXvXvXvXvXvXvXvXvXvXvXvXvXvX|.vXF.F.B.<.O.O.O. .H C Z Z c a a t 5 2 > 5 Y 7XcXwX/.vXvXvXvXvXvXvXvXvXvXvXvXvXvXvXvXvXvXvXvX",
"vXvXvXvXvXvXvXvXvXvXvXvXvXvXvXvX=XvXvXM.Z.<.{ O.O.O._ H A A C c c a 9 2 2 > > e %XzXE.F.vXvXvXvXvXvXvXvXvXvXvXvXvXvXvXvXvXvXvXvX",
"vXvXvXvXvXvXvXvXvXvXvXvXvXvXvXvXE.vXvXF.A.<.{ O.O. .H F A C c a a t 9 > 5 > > 8 %XfXT.A.vXvXvXvXvXvXvXvXvXvXvXvXvXvXvXvXvXvXvXvX",
"vXvXvXvXvXvXvXvXvXvXvXvXvXvXvXvXvXvXvXA.Z.<.O.+.O.{ H F C C c a a 5 2 2 > 2 $ ; .X7X1.s.F.vXvXvXvXvXvXvXvXvXvXvXvXvXvXvXvXvXvXvX",
"vXvXvXvXvXvXvXvXvXvXvXvXvXvXvXvXvXvXvXF.A.<.{ +.+. .H F A C c f g 5 > 2 > - . - XX7X6.j.F.vXvXvXvXvXvXvXvXvXvXvXvXvXvXvXvXvXvXvX",
"vXvXvXvXvXvXvXvXvXvXvXvXvXvXvXvXvXvXl.F.A.5.;.O.O. .H F C A c a a 5 2 > - . . $ XX7Xe.j.F.vXvXvXvXvXvXvXvXvXvXvXvXvXvXvXvXvXvXvX",
"vXvXvXvXvXvXvXvXvXvXvXvXvXvXvXvXvXvXJ.F.c.1.E.9.O. .H F Z Z b a a 5 2 > $ . . $ R.2XF.A.F.vXvXvXvXvXvXvXvXvXvXvXvXvXvXvXvXvXvXvX",
"vXvXvXvXvXvXvXvXvXvXvXvXvXvXvXvXvXvXF.A.$.$.[.q.+. .I F Z Z c a a 5 2 2 % . . . e J.T.F.F.vXvXvXvXvXvXvXvXvXvXvXvXvXvXvXvXvXvXvX",
"vXvXvXvXvXvXvXvXvXvXvXvXvXvXvX.XvXvXB.A.O.9.XXq.O. .K A Z C b a h 5 2 > $ . . + + _ c.Z.F.vXvXvXvXvXvXvXvXvXvXvXvXvXvXvXvXvXvXvX",
"vXvXvXvXvXvXvXvXvXvXvXvXvXvXvXXXvXvXvXA.;.[.uXy.|  .H F Z A b a h 5 > 2 $ . . . : W c.F.F.vXvXvXvXvXvXvXvXvXvXvXvXvXvXvXvXvXvXvX",
"vXvXvXvXvXvXvXvXvXvXvXvXvXvXvX[.vXvXvXA.<.XXdXy.O. .H F Z Z b a a 0 2 > 2 % . + A O.j.A.F.vX[.vXvXvXvXvXvXvXvXvXvXvXvXvXvXvXvXvX",
"vXvXvXvXvXvXvXvXvXvXvXvXvXvXvXvXvXvXvXA.5.@XdXy.O.O.K A Z Z c i a t 5 2 > 2 ; % K +.+.j.F.vXXXvXvXvXvXvXvXvXvXvXvXvXvXvXvXvXvXvX",
"vXvXvXvXvXvXvXvXvXvXvXvXvXvXvXvXvXvXvXF.F.;XdXy.|  .H H Z Z b c g i 5 5 2 5 2 2 I +.O.j.F.vX@XvXvXvXvXvXvXvXvXvXvXvXvXvXvXvXvXvX",
"vXvXvXvXvXvXvXvXvXvXvXvXvXvXvXvXvXvXvXn.J.<XdXy.O. .K A A Z b a a i 5 > > > > 5 W O.O.j.vX[.6XvXvXvXvXvXvXvXvXvXvXvXvXvXvXvXvXvX",
"vXvXvXvXvXvXvXvXvXvXvXvXvXvXvXvXvXvXvXA.L.;XdXy.+. .K A Z Z b i i a i 5 > 3 3 5 W +.c.F.vX;X9XvXvXvXvXvXvXvXvXvXvXvXvXvXvXvXvXvX",
"vXvXvXvXvXvXvXvXvXvXvXvXvXvXvXvXvXvXvXA.L.;XdXy.O. .K F A Z C c a a g i q > 5 P +.j.Z.F..X9XeXvXvXvXvXvXvXvXvXvXvXvXvXvXvXvXvXvX",
"vXvXvXvXvXvXvXvXvXvXvXvXvXvXvXvXvXvXvXF.J.<XdXy.O. .H A A C C h h c a a a a a ~ +.&.B.F.%X9X9XvXvXvXvXvXvXvXvXvXvXvXvXvXvXvXvXvX",
"vXvXvXvXvXvXvXvXvXvXvXvXvXvXvXvXvXvXvXv.J.;XaXy.O.O. .K A A Z c a a a a a a f ~ +.b.F.-XeX9XvXvXvXvXvXvXvXvXvXvXvXvXvXvXvXvXvXvX",
"vXvXvXvXvXvXvXvXvXvXvXvXvXvXvXvXvXvXvXvXT.;XaXy.+.O. .H C Z Z A c a c a f a h ~ +.c.F.%X9XeXvXvXvXvXvXvXvXvXvXvXvXvXvXvXvXvXvXvX",
"vXvXvXvXvXvXvXvXvXvXvXvXvXvXvXvXvXvXvXvXJ.;XaXy.O.O. .H A C Z A c f a a a h ~ +.&.b.J.%X9X-XvXvXvXvXvXvXvXvXvXvXvXvXvXvXvXvXvXvX",
"vXvXvXvXvXvXvXvXvXvXvXvXvXvXvXvXvXvXvXvXJ.=XuXy.+.O.O._ K Z Z Z M a a f c a ~ O.c.L.2X9XwXvXvXvXvXvXvXvXvXvXvXvXvXvXvXvXvXvXvXvX",
"vXvXvXvXvXvXvXvXvXvXvXvXvXvXvXvXvXvXvXvXF.J.wXs.&.+.|  .I A Z Z C c a a f M Y <.B.E.2X9X2XvXvXvXvXvXvXvXvXvXvXvXvXvXvXvXvXvXvXvX",
"vXvXvXvXvXvXvXvXvXvXvXvXvXvXvXvXvXvXvXvXA.F.uX%X9.O.O.{  .I A C C B c a f K +.d.F.%X9X9XvXvXvXvXvXvXvXvXvXvXvXvXvXvXvXvXvXvXvXvX",
"vXvXvXvXvXvXvXvXvXvXvXvXvXvXvXvXvXvXvXvXvXD.uXaXe.O.O.O.O.{ H Z A A B c K  .j.F.-X9XwX2XvXvXvXvXvXvXvXvXvXvXvXvXvXvXvXvXvXvXvXvX",
"vXvXvXvXvXvXvXvXvXvXvXvXvXvXvXvXvXvXvXvXvXc.-XdXe.+. .+.O.O.I A A A H ~  .<.[.).eXlXwXvXvXvXvXvXvXvXvXvXvXvXvXvXvXvXvXvXvXvXvXvX",
"vXvXvXvXvXvXvXvXvXvXvXvXvXvXvXvXvXvXvXvXvXvXT.9Xd.;.+.+.O.O.` I H A  .<.4.).9XdXlXiX2XvXvXvXvXvXvXvXvXvXvXvXvXvXvXvXvXvXvXvXvXvX",
"vXvXvXvXvXvXvXvXvXvXvXvXvXvXvXvXvXvXvXvXvXvXT.2X%XB.:.O.O.O.{ <.<.<.6.=X2XfXzXzXiX<XvXvXvXvXvXvXvXvXvXvXvXvXvXvXvXvXvXvXvXvXvXvX",
"vXvXvXvXvXvXvXvXvXvXvXvXvXvXvXvXvXvXvXvXvXvX%X7X2XJ.5.+.+. .{ .X<X<XdXzXzXhXhXuX;XvXvXvXvXvXvXvXvXvXvXvXvXvXvXvXvXvXvXvXvXvXvXvX",
"vXvXvXvXvXvXvXvXvXvXvXvXvXvXvXvXvXvXvXvXvXvXvX7X7XT.l.6.&.O. .@XuXdXdXdX9X2X9X%XvXvXvXvXvXvXvXvXvXvXvXvXvXvXvXvXvXvXvXvXvXvXvXvX",
"vXvXvXvXvXvXvXvXvXvXvXvXvXvXvXvXvXvXvXvXvXvXvX7X2XT.F.c.6.;.;.Z.T.L.J.T.L.L.|.vXvXvXvXvXvXvXvXvXvXvXvXvXvXvXvXvXvXvXvXvXvXvXvXvX",
"vXvXvXvXvXvXvXvXvXvXvXvXvXvXvXvXvXvXvXvXvXvXvX7X9XL.F.F.Z.Z.Z.F.F.F.F.F.F.F.A.vXvXvXvXvXvXvXvXvXvXvXvXvXvXvXvXvXvXvXvXvXvXvXvXvX",
"vXvXvXvXvXvXvXvXvXvXvXvXvXvXvXvXvXvXvXvXvXvXvXvX-X2XE.F.F.F.F.F.F.F.F.F.F.A.vXvXvXvXvXvXvXvXvXvXvXvXvXvXvXvXvXvXvXvXvXvXvXvXvXvX",
"vXvXvXvXvXvXvXvXvXvXvXvXvXvXvXvXvXvXvXvXvXvXvXvX;X-XvXZ.F.F.F.F.F.F.F.F.D.vXvXvXvXvXvXvXvXvXvXvXvXvXvXvXvXvXvXvXvXvXvXvXvXvXvXvX",
"vXvXvXvXvXvXvXvXvXvXvXvXvXvXvXvXvXvXvXvXvXvXvXvXvX-X%XL.F.M.F.F.F.F.F.vXvXvXvXvXvXvXvXvXvXvXvXvXvXvXvXvXvXvXvXvXvXvXvXvXvXvXvXvX",
"vXvXvXvXvXvXvXvXvXvXvXvXvXvXvXvXvXvXvXvXvXvXvXvXvX2X9X2XvXvXvXvXA.A.vXvXvXvXvXvXvXvXvXvXvXvXvXvXvXvXvXvXvXvXvXvXvXvXvXvXvXvXvXvX",
"vXvXvXvXvXvXvXvXvXvXvXvXvXvXvXvXvXvXvXvXvXvXvXvXvX-X9X9X7X7XvXvXvXvXvXvXvXvXvXvXvXvXvXvXvXvXvXvXvXvXvXvXvXvXvXvXvXvXvXvXvXvXvXvX",
"vXvXvXvXvXvXvXvXvXvXvXvXvXvXvXvXvXvXvXvXvXvXvXvXvXvX%X;X7X7X9XvXvXvXvXvXvXvXvXvXvXvXvXvXvXvXvXvXvXvXvXvXvXvXvXvXvXvXvXvXvXvXvXvX",
"vXvXvXvXvXvXvXvXvXvXvXvXvXvXvXvXvXvXvXvXvXvXvXvXvXvXvXvXE.%X%XvXvXvXvXvXvXvXvXvXvXvXvXvXvXvXvXvXvXvXvXvXvXvXvXvXvXvXvXvXvXvXvXvX",
"vXvXvXvXvXvXvXvXvXvXvXvXvXvXvXvXvXvXvXvXvXvXvXvXvXvXvXvXvXvXvXvXvXvXvXvXvXvXvXvXvXvXvXvXvXvXvXvXvXvXvXvXvXvXvXvXvXvXvXvXvXvXvXvX",
"vXvXvXvXvXvXvXvXvXvXvXvXvXvXvXvXvXvXvXvXvXvXvXvXvXvXvXvXvXvXvXvXvXvXvXvXvXvXvXvXvXvXvXvXvXvXvXvXvXvXvXvXvXvXvXvXvXvXvXvXvXvXvXvX"
};
