/* XPM */
static char *cG9ydGFsLTM_[] = {
/* columns rows colors chars-per-pixel */
"64 64 250 2 ",
"   c #281B00",
".  c #281D00",
"X  c #291D00",
"o  c #291E00",
"O  c #2A1E00",
"+  c #2D2000",
"@  c #2E2000",
"#  c #2E2100",
"$  c #2F2100",
"%  c #312100",
"&  c #302200",
"*  c #302300",
"=  c #322300",
"-  c #332300",
";  c #372500",
":  c #402A00",
">  c #412B00",
",  c #412C00",
"<  c #422C00",
"1  c #432C00",
"2  c #422D00",
"3  c #432D00",
"4  c #432E00",
"5  c #442C00",
"6  c #442D00",
"7  c #452E00",
"8  c #442F00",
"9  c #452F00",
"0  c #472F00",
"q  c #463000",
"w  c #483000",
"e  c #493000",
"r  c #493200",
"t  c #4B3200",
"y  c #4C3200",
"u  c #593900",
"i  c #5A3900",
"p  c #5B3A00",
"a  c #5C3B00",
"s  c #5D3B00",
"d  c #5E3C00",
"f  c #5F3D00",
"g  c #5E3E00",
"h  c #5F3F00",
"j  c #603D00",
"k  c #613E00",
"l  c #603F00",
"z  c #623E00",
"x  c #633F00",
"c  c #614000",
"v  c #624100",
"b  c #634100",
"n  c #644000",
"m  c #644200",
"M  c #654300",
"N  c #664300",
"B  c #684500",
"V  c #6C4700",
"C  c #714B00",
"Z  c #734C00",
"A  c #744D00",
"S  c #764E00",
"D  c #774F00",
"F  c #794D00",
"G  c #784F00",
"H  c #7C4F00",
"J  c #795000",
"K  c #7A5000",
"L  c #7B5100",
"P  c #785200",
"I  c #7C5200",
"U  c #7D5200",
"Y  c #7E5300",
"T  c #7F5400",
"R  c #805100",
"E  c #835300",
"W  c #805400",
"Q  c #825600",
"!  c #835600",
"~  c #865500",
"^  c #875600",
"/  c #885600",
"(  c #895700",
")  c #855800",
"_  c #865800",
"`  c #885A00",
"'  c #895A00",
"]  c #8D5D00",
"[  c #8E5E00",
"{  c #8F5E00",
"}  c #905B00",
"|  c #925D00",
" . c #935D00",
".. c #905F00",
"X. c #945E00",
"o. c #955F00",
"O. c #965F00",
"+. c #916000",
"@. c #926000",
"#. c #936100",
"$. c #946100",
"%. c #976000",
"&. c #956200",
"*. c #966300",
"=. c #976300",
"-. c #9B6200",
";. c #9C6300",
":. c #986400",
">. c #996500",
",. c #9A6500",
"<. c #9B6600",
"1. c #9D6400",
"2. c #9F6500",
"3. c #9C6700",
"4. c #9D6700",
"5. c #9E6800",
"6. c #9F6900",
"7. c #A06600",
"8. c #A16600",
"9. c #A26700",
"0. c #A36700",
"q. c #A06900",
"w. c #A16A00",
"e. c #A26B00",
"r. c #A36B00",
"t. c #A56900",
"y. c #A76A00",
"u. c #A56D00",
"i. c #A66D00",
"p. c #A76E00",
"a. c #A86F00",
"s. c #A96F00",
"d. c #AA7000",
"f. c #AB7000",
"g. c #AC7100",
"h. c #AF7300",
"j. c #B07400",
"k. c #B27500",
"l. c #B37600",
"z. c #B77400",
"x. c #B97500",
"c. c #B67800",
"v. c #B77800",
"b. c #B87900",
"n. c #B97A00",
"m. c #BA7A00",
"M. c #BB7B00",
"N. c #BE7800",
"B. c #BF7A00",
"V. c #BC7C00",
"C. c #BD7C00",
"Z. c #BE7D00",
"A. c #BF7E00",
"S. c #C07A00",
"D. c #C17B00",
"F. c #C27C00",
"G. c #C07F00",
"H. c #C47D00",
"J. c #C57E00",
"K. c #C67E00",
"L. c #C77F00",
"P. c #C87F00",
"I. c #C18000",
"U. c #C38100",
"Y. c #C48100",
"T. c #C58200",
"R. c #C68300",
"E. c #C78300",
"W. c #C98000",
"Q. c #CA8100",
"!. c #CD8200",
"~. c #C88400",
"^. c #C98500",
"/. c #CA8500",
"(. c #CB8600",
"). c #CC8700",
"_. c #CD8700",
"`. c #CE8800",
"'. c #CF8900",
"]. c #D08900",
"[. c #D18A00",
"{. c #D28B00",
"}. c #D38B00",
"|. c #D48C00",
" X c #D58D00",
".X c #D68D00",
"XX c #D88F00",
"oX c #DA9000",
"OX c #DD9200",
"+X c #DE9200",
"@X c #DF9300",
"#X c #E59200",
"$X c #E09400",
"%X c #E19400",
"&X c #E29500",
"*X c #E39600",
"=X c #E49600",
"-X c #E59700",
";X c #E69800",
":X c #E79800",
">X c #E89900",
",X c #E99A00",
"<X c #EA9A00",
"1X c #EB9B00",
"2X c #EC9C00",
"3X c #ED9C00",
"4X c #EE9D00",
"5X c #EF9E00",
"6X c #F09E00",
"7X c #F19F00",
"8X c #F29F00",
"9X c #F89E00",
"0X c #F3A000",
"qX c #F4A100",
"wX c #F5A100",
"eX c #F6A200",
"rX c #F7A300",
"tX c #F8A300",
"yX c #F9A400",
"uX c #FAA500",
"iX c #FBA500",
"pX c #FCA600",
"aX c #FDA700",
"sX c #FEA700",
"dX c #FFA800",
"fX c #FFA801",
"gX c #FFA902",
"hX c #FFA903",
"jX c #FFA904",
"kX c #FFAA05",
"lX c #FFAA07",
"zX c #FFAB08",
"xX c #FFAB09",
"cX c #FFAB0A",
"vX c #FFAC0B",
"bX c #FFAC0C",
"nX c #FFAC0D",
"mX c #FFAD0E",
"MX c #FFAD0F",
"NX c #FFAD10",
"BX c #FFAE12",
"VX c #FFAE13",
"CX c #FFAF14",
"ZX c #FFAF15",
"AX c #FFAF16",
"SX c #FFB017",
"DX c #FFB018",
"FX c #FFB11A",
"GX c #FFB11B",
"HX c None",
/* pixels */
"HXHXHXHXHXHXHXHXHXHXHXHXHXHXHXHXHXHXHXHXHXHXHXHXHXHXHXHXHXHXHXHXHXHXHXHXHXHXHXHXHXHXHXHXHXHXHXHXHXHXHXHXHXHXHXHXHXHXHXHXHXHXHXHX",
"HXHXHXHXHXHXHXHXHXHXHXHXHXHXHXHXHXHXHXHXHXHXHXHXHXHXHXHXHXHXHXHX=XHXHXHXHXHXHXHXHXHXHXHXHXHXHXHXHXHXHXHXHXHXHXHXHXHXHXHXHXHXHXHX",
"HXHXHXHXHXHXHXHXHXHXHXHXHXHXHXHXHXHXHXHXHXHXHXHXHXHXHXHXHXHXHXHXHXXXHXHXHXHXHXHXHXHXHXHXHXHXHXHXHXHXHXHXHXHXHXHXHXHXHXHXHXHXHXHX",
"HXHXHXHXHXHXHXHXHXHXHXHXHXHXHXHXHXHXHXHXHXHXHXHXHXHXHXHXHXHXHXHXHX=XeXHXHXHXHXHXHXHXHXHXHXHXHXHXHXHXHXHXHXHXHXHXHXHXHXHXHXHXHXHX",
"HXHXHXHXHXHXHXHXHXHXHXHXHXHXHXHXHXHXHXHXHXHXHXHXHXHXHXHXHXHXHXHXHXHX<XiXtXHXHXHXHXHXHXHXHXHXHXHXHXHXHXHXHXHXHXHXHXHXHXHXHXHXHXHX",
"HXHXHXHXHXHXHXHXHXHXHXHXHXHXHXHXHXHXHXHXHXHXHXHXHXHXHXHXHXHXHXHXHXHXHX*XiXHXHXHXHXHXHXHXHXHXHXHXHXHXHXHXHXHXHXHXHXHXHXHXHXHXHXHX",
"HXHXHXHXHXHXHXHXHXHXHXHXHXHXHXHXHXHXHXHXHXHXHXHXHXHXHXHXHXl.~.^.^.^.HXHXeXiXHXHXHXHXHXHXHXHXHXHXHXHXHXHXHXHXHXHXHXHXHXHXHXHXHXHX",
"HXHXHXHXHXHXHXHXHXHXHXHXHXHXHXHXHXHXHXHXHXHXHXHXHXHXHXHXF.^.~.~.^.P.^.HX6XfXtXHXHXHXHXHXHXHXHXHXHXHXHXHXHXHXHXHXHXHXHXHXHXHXHXHX",
"HXHXHXHXHXHXHXHXHXHXHXHXHXHXHXHXHXHXHXHXHXHXHXHXHXHXR.).~.~.^.^.^.^.^.^.).6XtXHXHXHXHXHXHXHXHXHXHXHXHXHXHXHXHXHXHXHXHXHXHXHXHXHX",
"HXHXHXHXHXHXHXHXHXHXHXHXHXHXHXHXHXHXHXHXHXHXHXHXHXF.^.^.~.E.E.E.^.^.^.^.^.6XaXtXHXHXHXHXHXHXHXHXHXHXHXHXHXHXHXHXHXHXHXHXHXHXHXHX",
"HXHXHXHXHXHXHXHXHXHXHXHXHXHXHXHXHXHXHXHXHXHXHXHXv.K.^.^.K.R.u.G.F.K.K.^.^.5XaXeXHXHXHXHXHXHXHXHXHXHXHXHXHXHXHXHXHXHXHXHXHXHXHXHX",
"HXHXHXHXHXHXHXHXHXHXHXHXHXHXHXHXHXHXHXHXHXHXHXA.R.^.^.A.w.2.*.2.2.6.;.R.^.`.eXaX6XHXHXHXHXHXHXHXHXHXHXHXHXHXHXHXHXHXHXHXHXHXHXHX",
"HXHXHXHXHXHXHXHXHXHXHXHXHXHXHXHXHXHXHXHXHXHXHXR.^.}.^.g.&.&.&.&.&.&.&.B.E.~.5XaXeXHXHXHXHXHXHXHXHXHXHXHXHXHXHXHXHXHXHXHXHXHXHXHX",
"HXHXHXHXHXHXHXHXHXHXHXHXHXHXHXHXHXHXHXHXHXHXR.). X6XiX3Xl.i.>.&.&.&.&.3.x.U.}.9XeXHXHXHXHXHXHXHXHXHXHXHXHXHXHXHXHXHXHXHXHXHXHXHX",
"HXHXHXHXHXHXHXHXHXHXHXHXHXHXHXHXHXHXHXHXHXHX}.0XaXjXDXZXmXjXa.&.&.&.&.&.>.2.oXmXjX}.HXHXHXHXHXHXHXHXHXHXHXHXHXHXHXHXHXHXHXHXHXHX",
"HXHXHXHXHXHXHXHXHXHXHXHXHXHXHXHXHXHXHXHXHXHXaXZXZXDXZXcXcXeXt.@.@.[ X.@.&.&.w.aXcXeXHXHXHXHXHXHXHXHXHXHXHXHXHXHXHXHXHXHXHXHXHXHX",
"HXHXHXHXHXHXHXHXHXHXHXHXHXHXHXHXHXHXHXHXHXmXZXZXcXfX0X*Xf.3.@.I F F I [ @.X.*.<XZXaXHXHXHXHXHXHXHXHXHXHXHXHXHXHXHXHXHXHXHXHXHXHX",
"HXHXHXHXHXHXHXHXHXHXHXHXHXHXHXHXHXHXHXHXtXjXjX0X;Xf.;.2.*.Q I G D D D I ! X.X.u.fXaX}.HXHXHXHXHXHXHXHXHXHXHXHXHXHXHXHXHXHXHXHXHX",
"HXHXHXHXHXHXHXHXHXHXHXHXHXHXHXHXHXHXHXtXfXfXiXl.2.&.X.X.@.I D G D D P P V / X.-.aXjX XHXHXHXHXHXHXHXHXHXHXHXHXHXHXHXHXHXHXHXHXHX",
"HXHXHXHXHXHXHXHXHXHXHXHXHXHXHXHXHXHXHXaX}.iX}.6.X.o.@.@.T P G D D D M n d n ' >.aXfX}.HXHXHXHXHXHXHXHXHXHXHXHXHXHXHXHXHXHXHXHXHX",
"HXHXHXHXHXHXHXHXHXHXHXHXHXHXHXHXHXHX<XaX^.^.0.o.&.&.&.@.I D G D D n j d d j / >.fXfX{.HXHXHXHXHXHXHXHXHXHXHXHXHXHXHXHXHXHXHXHXHX",
"HXHXHXHXHXHXHXHXHXHXHXHXHXHXHXHXHXHXaXaX^.R.2.&.&.&.X.I D G G D x s d j d d j X.aXfX{.U.HXHXHXHXHXHXHXHXHXHXHXHXHXHXHXHXHXHXHXHX",
"HXHXHXHXHXHXHXHXHXHXHXHXHXHXHXHXHX6XfX^.^.R.2.&.&.X.[ I I D D D j d j d d d s B 6XjX{.~.HXHXHXHXHXHXHXHXHXHXHXHXHXHXHXHXHXHXHXHX",
"HXHXHXHXHXHXHXHXHXHXHXHXHXHXHXHXHXtXaXHX^.R.2.o.&.o.} I D D D D j b d p w < 0 d eXfX}.K.K.HXHXHXHXHXHXHXHXHXHXHXHXHXHXHXHXHXHXHX",
"HXHXHXHXHXHXHXHXHXHXHXHXHXHXHXHXHXiXaX^.^.R.;.X.X.&.@.I G D D n j d a q < 0 < w 3XaXt.z.P.HXHXHXHXHXHXHXHXHXHXHXHXHXHXHXHXHXHXHX",
"HXHXHXHXHXHXHXHXHXHXHXHXHXHXHXHX6XfX<X^.R.&.X.&.X.&.[ I D D D b b d p < < < < w 3XaXi.m.^.HXHXHXHXHXHXHXHXHXHXHXHXHXHXHXHXHXHXHX",
"HXHXHXHXHXHXHXHXHXHXHXHXHXHXHXHX6XaXHXE.R.@.X.&.&.@.I I D D M d d s 0 < < < + - <XaXa.A.^.HXHXHXHXHXHXHXHXHXHXHXHXHXHXHXHXHXHXHX",
"HXHXHXHXHXHXHXHXHXHXHXHXHXHXHXHX6XaXHX^.E.@.X.&.&.X.I G D I b d s p 0 < < - O - =XjX}.^.^.HXHXHXHXHXHXHXHXHXHXHXHXHXHXHXHXHXHXHX",
"HXHXHXHXHXHXHXHXHXHXHXHXHXHXHXHX5XeXHXK.R.@.X.&.X.@.I G D G n d d r q ; < + . + ).6X}.R.^.HXHXoXHXHXHXHXHXHXHXHXHXHXHXHXHXHXHXHX",
"HXHXHXHXHXHXHXHXHXHXHXHXHXHXHXHX<XHXHX~.R.&.&.&.X.@.I I G D n j d < q q -   . O 0 &.0.m.^.HXHX;XHXHXHXHXHXHXHXHXHXHXHXHXHXHXHXHX",
"HXHXHXHXHXHXHXHXHXHXHXHXHXHXHXHXHXHXA.^.R.&.&.&.&.@.I D G D x d d q < q $ . . O ; Q l.R.^.HXHX<XHXHXHXHXHXHXHXHXHXHXHXHXHXHXHXHX",
"HXHXHXHXHXHXHXHXHXHXHXHXHXHXHXHXHXHX^.^.U.&.2.&.X.@.I I G D n d d q < q + . . + D &.>.m.^.HX*XaXHXHXHXHXHXHXHXHXHXHXHXHXHXHXHXHX",
"HXHXHXHXHXHXHXHXHXHXHXHXHXHXHXHXHXHX^.^.R.&.OXa.o.@.I G D D M j d q < q + . . + W &.o.m.^.HX*XfXHXHXHXHXHXHXHXHXHXHXHXHXHXHXHXHX",
"HXHXHXHXHXHXHXHXHXHXHXHXHXHXHXHXHXHXA.^.K.*.rXv.o.o.I I D I n d a q < 0 - . . + W o.o.l.^.HX=XtXHXHXHXHXHXHXHXHXHXHXHXHXHXHXHXHX",
"HXHXHXHXHXHXHXHXHXHXHXHXHXHXHXHXHXHXHXK.R.>.pX;Xw.@.I G I D M d d q < < > + . + I &.;.m.^.<XiXHXHXHXHXHXHXHXHXHXHXHXHXHXHXHXHXHX",
"HXHXHXHXHXHXHXHXHXHXHXHXHXHXHXHX<XHXHXF.R.>.iXF.>.@.I G D D n d d a < < < - O - Q &.A.^.}.eXjXHXHXHXHXHXHXHXHXHXHXHXHXHXHXHXHXHX",
"HXHXHXHXHXHXHXHXHXHXHXHXHXHXHXHX0XHXHXK.K.*.fXeXi.@.I I D G n d d d < q < < < < E >.F.^.2XfXjXHXHXHXHXHXHXHXHXHXHXHXHXHXHXHXHXHX",
"HXHXHXHXHXHXHXHXHXHXHXHXHXHXHXHX5XHXHXF.^.iXZXaXa.@.I G G G n d d d q < q < < q ! >.F.^.5XfXfXHXHXHXHXHXHXHXHXHXHXHXHXHXHXHXHXHX",
"HXHXHXHXHXHXHXHXHXHXHXHXHXHXHXHX5XHXHXK.).fXZXfXi.@.I G G G n j d d d q < q q I @.&.A.).5XjXfXHXHXHXHXHXHXHXHXHXHXHXHXHXHXHXHXHX",
"HXHXHXHXHXHXHXHXHXHXHXHXHXHXHXHXHXHXHX^.`.`.mXmXg.X.I I G G P n h d d d w < q Q &.>.F.).5XfXjXHXHXHXHXHXHXHXHXHXHXHXHXHXHXHXHXHX",
"HXHXHXHXHXHXHXHXHXHXHXHXHXHXHXHXHXHXHXR.^.`.iXmXg.&.I I D D D j d d d b d h d ! &.-.G.^.0XfXHXHXHXHXHXHXHXHXHXHXHXHXHXHXHXHXHXHX",
"HXHXHXHXHXHXHXHXHXHXHXHXHXHXHXHXHXHXHXHXP.).iXmXg.&.X.I D D G x d d d d d d j ' -.N.E.0XfXiXHXHXHXHXHXHXHXHXHXHXHXHXHXHXHXHXHXHX",
"HXHXHXHXHXHXHXHXHXHXHXHXHXHXHXHXHXHXHXHX~.!.iXmXs.&.X.I D D G G b d d d d j / &.*.G.^.0XfXHXHXHXHXHXHXHXHXHXHXHXHXHXHXHXHXHXHXHX",
"HXHXHXHXHXHXHXHXHXHXHXHXHXHXHXHXHXHXHXHX).~.iXbXa.&.[ I G G G G M d d d d d ' &.>.U.rXfXfXHXHXHXHXHXHXHXHXHXHXHXHXHXHXHXHXHXHXHX",
"HXHXHXHXHXHXHXHXHXHXHXHXHXHXHXHXHXHXHXHXl.).tXmXf.&.&.} H G G G I h d d d j _ >.G. XmXmX5XHXHXHXHXHXHXHXHXHXHXHXHXHXHXHXHXHXHXHX",
"HXHXHXHXHXHXHXHXHXHXHXHXHXHXHXHXHXHXHXHXHX}.6XmXa.X.o.&.} I I G P b b j d j ' B.}.mXFXiXHXHXHXHXHXHXHXHXHXHXHXHXHXHXHXHXHXHXHXHX",
"HXHXHXHXHXHXHXHXHXHXHXHXHXHXHXHXHXHXHXHXHX`. XjXl.X.&.&.o.X.I G D Z Z Z M n ' t.<XBXcX*XHXHXHXHXHXHXHXHXHXHXHXHXHXHXHXHXHXHXHXHX",
"HXHXHXHXHXHXHXHXHXHXHXHXHXHXHXHXHXHXHXHXHX}.`.cX5X0.&.&.&.&.I P D G G G _ *.w.5XZXcXfXHXHXHXHXHXHXHXHXHXHXHXHXHXHXHXHXHXHXHXHXHX",
"HXHXHXHXHXHXHXHXHXHXHXHXHXHXHXHXHXHXHXHXHX<X XmXaXi.&.&.X.&.X.I D I I [ 2.3XjXZXFXjXeXHXHXHXHXHXHXHXHXHXHXHXHXHXHXHXHXHXHXHXHXHX",
"HXHXHXHXHXHXHXHXHXHXHXHXHXHXHXHXHXHXHXHXHXHX^.cXbXa.&.&.X.o.X.I I [ 6.i.5XDXFXcXfX6XHXHXHXHXHXHXHXHXHXHXHXHXHXHXHXHXHXHXHXHXHXHX",
"HXHXHXHXHXHXHXHXHXHXHXHXHXHXHXHXHXHXHXHXHXHXR.eXcXl.&.o.&.&.o.X.[ 0.jXcXZXZXcXtX6XHXHXHXHXHXHXHXHXHXHXHXHXHXHXHXHXHXHXHXHXHXHXHX",
"HXHXHXHXHXHXHXHXHXHXHXHXHXHXHXHXHXHXHXHXHXHXHX}.iX5Xi.X.@.o.o.&.@.iXjXiXiXOX3X}.HXHXHXHXHXHXHXHXHXHXHXHXHXHXHXHXHXHXHXHXHXHXHXHX",
"HXHXHXHXHXHXHXHXHXHXHXHXHXHXHXHXHXHXHXHXHXHXHX*XiXeXR.&.>.*.&.o.>.6Xl.^.`.~.).~.m.HXHXHXHXHXHXHXHXHXHXHXHXHXHXHXHXHXHXHXHXHXHXHX",
"HXHXHXHXHXHXHXHXHXHXHXHXHXHXHXHXHXHXHXHXHXHXHXHXeXiX XE.R.t.;.;.A.).R.P.!.~.P.m.HXHXHXHXHXHXHXHXHXHXHXHXHXHXHXHXHXHXHXHXHXHXHXHX",
"HXHXHXHXHXHXHXHXHXHXHXHXHXHXHXHXHXHXHXHXHXHXHXHXeXfXeX`.^.K.R.R.^.^.^.^.^.~.R.HXHXHXHXHXHXHXHXHXHXHXHXHXHXHXHXHXHXHXHXHXHXHXHXHX",
"HXHXHXHXHXHXHXHXHXHXHXHXHXHXHXHXHXHXHXHXHXHXHXHXeXfXiX`.^.~.~.^.^.^.^.^.^.R.HXHXHXHXHXHXHXHXHXHXHXHXHXHXHXHXHXHXHXHXHXHXHXHXHXHX",
"HXHXHXHXHXHXHXHXHXHXHXHXHXHXHXHXHXHXHXHXHXHXHXHXHXeXcX}.~.).^.^.~.P.~.~.~.HXHXHXHXHXHXHXHXHXHXHXHXHXHXHXHXHXHXHXHXHXHXHXHXHXHXHX",
"HXHXHXHXHXHXHXHXHXHXHXHXHXHXHXHXHXHXHXHXHXHXHXHXHXiXSXBXHXv.^.^.).~.^.~.HXHXHXHXHXHXHXHXHXHXHXHXHXHXHXHXHXHXHXHXHXHXHXHXHXHXHXHX",
"HXHXHXHXHXHXHXHXHXHXHXHXHXHXHXHXHXHXHXHXHXHXHXHXHXHXaXDXBXHXm.^.HXHXHXHXHXHXHXHXHXHXHXHXHXHXHXHXHXHXHXHXHXHXHXHXHXHXHXHXHXHXHXHX",
"HXHXHXHXHXHXHXHXHXHXHXHXHXHXHXHXHXHXHXHXHXHXHXHXHXHXHXiXDXDXHXHXHXHXHXHXHXHXHXHXHXHXHXHXHXHXHXHXHXHXHXHXHXHXHXHXHXHXHXHXHXHXHXHX",
"HXHXHXHXHXHXHXHXHXHXHXHXHXHXHXHXHXHXHXHXHXHXHXHXHXHXHXHX<XcXZXGXHXHXHXHXHXHXHXHXHXHXHXHXHXHXHXHXHXHXHXHXHXHXHXHXHXHXHXHXHXHXHXHX",
"HXHXHXHXHXHXHXHXHXHXHXHXHXHXHXHXHXHXHXHXHXHXHXHXHXHXHXHXHXHX*XZXjXaX6XHXHXHXHXHXHXHXHXHXHXHXHXHXHXHXHXHXHXHXHXHXHXHXHXHXHXHXHXHX",
"HXHXHXHXHXHXHXHXHXHXHXHXHXHXHXHXHXHXHXHXHXHXHXHXHXHXHXHXHXHXHXOX#X<XHXHXHXHXHXHXHXHXHXHXHXHXHXHXHXHXHXHXHXHXHXHXHXHXHXHXHXHXHXHX",
"HXHXHXHXHXHXHXHXHXHXHXHXHXHXHXHXHXHXHXHXHXHXHXHXHXHXHXHXHXHXHXHXHXHXHXHXHXHXHXHXHXHXHXHXHXHXHXHXHXHXHXHXHXHXHXHXHXHXHXHXHXHXHXHX"
};
