/* XPM */
static char *cG9ydGFsLTE_[] = {
/* columns rows colors chars-per-pixel */
"64 64 245 2 ",
"   c #281B00",
".  c #281D00",
"X  c #291D00",
"o  c #2B1D00",
"O  c #2D1E00",
"+  c #2D2000",
"@  c #2E2000",
"#  c #2F2000",
"$  c #302200",
"%  c #322300",
"&  c #332300",
"*  c #372500",
"=  c #3F2900",
"-  c #402B00",
";  c #412B00",
":  c #422B00",
">  c #412C00",
",  c #422C00",
"<  c #432C00",
"1  c #422D00",
"2  c #422E00",
"3  c #432E00",
"4  c #442D00",
"5  c #452E00",
"6  c #442F00",
"7  c #452F00",
"8  c #463000",
"9  c #473100",
"0  c #483000",
"q  c #493000",
"w  c #593900",
"e  c #5C3B00",
"r  c #5D3B00",
"t  c #5C3D00",
"y  c #5E3C00",
"u  c #5F3D00",
"i  c #5F3F00",
"p  c #603D00",
"a  c #613E00",
"s  c #603F00",
"d  c #623E00",
"f  c #633F00",
"g  c #614000",
"h  c #634100",
"j  c #644000",
"k  c #664100",
"l  c #644200",
"z  c #654300",
"x  c #734C00",
"c  c #764E00",
"v  c #774F00",
"b  c #784F00",
"n  c #7C4F00",
"m  c #795000",
"M  c #7A5000",
"N  c #7B5100",
"B  c #7A5300",
"V  c #7E5000",
"C  c #7F5100",
"Z  c #7C5200",
"A  c #7D5200",
"S  c #7E5300",
"D  c #7F5400",
"F  c #805100",
"G  c #815200",
"H  c #805400",
"J  c #815500",
"K  c #825600",
"L  c #835600",
"P  c #845400",
"I  c #865500",
"U  c #875600",
"Y  c #865800",
"T  c #875900",
"R  c #885A00",
"E  c #895A00",
"W  c #8A5B00",
"Q  c #8C5900",
"!  c #8F5B00",
"~  c #8E5E00",
"^  c #8F5E00",
"/  c #905B00",
"(  c #915C00",
")  c #925D00",
"_  c #935D00",
"`  c #905F00",
"'  c #945E00",
"]  c #955F00",
"[  c #965F00",
"{  c #916000",
"}  c #926000",
"|  c #936100",
" . c #946100",
".. c #976000",
"X. c #956200",
"o. c #966300",
"O. c #976300",
"+. c #966600",
"@. c #996100",
"#. c #9B6200",
"$. c #9C6300",
"%. c #986400",
"&. c #996500",
"*. c #9A6500",
"=. c #9D6400",
"-. c #9E6400",
";. c #9F6500",
":. c #9C6700",
">. c #9E6800",
",. c #A06600",
"<. c #A16600",
"1. c #A16A00",
"2. c #A26B00",
"3. c #A36B00",
"4. c #A46800",
"5. c #A56900",
"6. c #A66900",
"7. c #A76A00",
"8. c #A46C00",
"9. c #A56D00",
"0. c #A66D00",
"q. c #A86B00",
"w. c #A96B00",
"e. c #A86F00",
"r. c #A96F00",
"t. c #AC6D00",
"y. c #AA7000",
"u. c #AB7000",
"i. c #AC7100",
"p. c #AD7200",
"a. c #AF7300",
"s. c #B17400",
"d. c #B27500",
"f. c #B97500",
"g. c #B67800",
"h. c #B77800",
"j. c #B87900",
"k. c #BA7A00",
"l. c #BB7B00",
"z. c #BE7800",
"x. c #BF7900",
"c. c #BF7A00",
"v. c #BC7C00",
"b. c #BD7C00",
"n. c #BE7D00",
"m. c #BF7E00",
"M. c #C17B00",
"N. c #C27C00",
"B. c #C37C00",
"V. c #C07F00",
"C. c #C47D00",
"Z. c #C57E00",
"A. c #C67E00",
"S. c #C77F00",
"D. c #C87F00",
"F. c #C18000",
"G. c #C28000",
"H. c #C38100",
"J. c #C48100",
"K. c #C58200",
"L. c #C68300",
"P. c #C78300",
"I. c #C98000",
"U. c #CA8100",
"Y. c #CB8100",
"T. c #CC8200",
"R. c #C88400",
"E. c #C98500",
"W. c #CA8500",
"Q. c #CB8600",
"!. c #CF8400",
"~. c #CC8700",
"^. c #CD8700",
"/. c #CE8800",
"(. c #CF8900",
"). c #D08900",
"_. c #D18A00",
"`. c #D28B00",
"'. c #D38B00",
"]. c #D48C00",
"[. c #D58D00",
"{. c #D68D00",
"}. c #D78E00",
"|. c #D88F00",
" X c #D98F00",
".X c #DA9000",
"XX c #DB9000",
"oX c #DE9200",
"OX c #DF9300",
"+X c #E09400",
"@X c #E19400",
"#X c #E29500",
"$X c #E49600",
"%X c #E59700",
"&X c #E79800",
"*X c #E89900",
"=X c #E99A00",
"-X c #EA9A00",
";X c #EB9B00",
":X c #EC9C00",
">X c #ED9C00",
",X c #EE9D00",
"<X c #EF9E00",
"1X c #F09E00",
"2X c #F19F00",
"3X c #F29F00",
"4X c #F3A000",
"5X c #F4A100",
"6X c #F5A100",
"7X c #F6A200",
"8X c #F7A300",
"9X c #F8A300",
"0X c #F9A400",
"qX c #FAA500",
"wX c #FBA500",
"eX c #FCA600",
"rX c #FDA700",
"tX c #FEA700",
"yX c #FFA405",
"uX c #FFA800",
"iX c #FFA801",
"pX c #FFA902",
"aX c #FFA903",
"sX c #FFA904",
"dX c #FFAA06",
"fX c #FFAA07",
"gX c #FFAB08",
"hX c #FFAB09",
"jX c #FFAB0A",
"kX c #FFAC0B",
"lX c #FFAC0C",
"zX c #FFAC0D",
"xX c #FFAD0E",
"cX c #FFAD10",
"vX c #FFAE11",
"bX c #FFAE12",
"nX c #FFAE13",
"mX c #FFAF14",
"MX c #FFAF15",
"NX c #FFAF16",
"BX c #FFB017",
"VX c #FFB018",
"CX c #FFB019",
"ZX c #FFB11A",
"AX c None",
/* pixels */
"AXAXAXAXAXAXAXAXAXAXAXAXAXAXAXAXAXAXAXAXAXAXAXAXAXAXAXAXAXAXAXAXAXAXAXAXAXAXAXAXAXAXAXAXAXAXAXAXAXAXAXAXAXAXAXAXAXAXAXAXAXAXAXAX",
"AXAXAXAXAXAXAXAXAXAXAXAXAXAXAXAXAXAXAXAXAXAXAXAXAXAXAXAXAXAXAXAXAXAXAXAXAXAXAXAXAXAXAXAXAXAXAXAXAXAXAXAXAXAXAXAXAXAXAXAXAXAXAXAX",
"AXAXAXAXAXAXAXAXAXAXAXAXAXAXAXAXAXAXAXAXAXAXAXAXAXAXAXAXAXAXAXAXAXAXAXAXAXAXAXAXAXAXAXAXAXAXAXAXAXAXAXAXAXAXAXAXAXAXAXAXAXAXAXAX",
"AXAXAXAXAXAXAXAXAXAXAXAXAXAXAXAXAXAXAXAXAXAXAXAXAXAXAXAXAXAX#XAXAXAXAXAXAXAXAXAXAXAXAXAXAXAXAXAXAXAXAXAXAXAXAXAXAXAXAXAXAXAXAXAX",
"AXAXAXAXAXAXAXAXAXAXAXAXAXAXAXAXAXAXAXAXAXAXAXAXAX:X8X8X0X0XtX0X0XtXAXAXAXAXAXAXAXAXAXAXAXAXAXAXAXAXAXAXAXAXAXAXAXAXAXAXAXAXAXAX",
"AXAXAXAXAXAXAXAXAXAXAXAXAXAXAXAXAXAXAXAXAXAXAXAXAXAXAXAX[.8X8XtXpXtXpXAXAXAXAXAXAXAXAXAXAXAXAXAXAXAXAXAXAXAXAXAXAXAXAXAXAXAXAXAX",
"AXAXAXAXAXAXAXAXAXAXAXAXAXAXAXAXAXAXAXAXAXAXAXAXAXAXAXAXAXAXAX3XpXpXpXAXAXAXAXAXAXAXAXAXAXAXAXAXAXAXAXAXAXAXAXAXAXAXAXAXAXAXAXAX",
"AXAXAXAXAXAXAXAXAXAXAXAXAXAXAXAXAXAXAXAXAXAXAXAXAXAXAXAXAXj.E.8XtXpXpXsXXXAXAXAXAXAXAXAXAXAXAXAXAXAXAXAXAXAXAXAXAXAXAXAXAXAXAXAX",
"AXAXAXAXAXAXAXAXAXAXAXAXAXAXAXAXAXAXAXAXAXAXAXAXAXAXP.E.E.E.E.E.D.8XpXpXtXAXAXAXAXAXAXAXAXAXAXAXAXAXAXAXAXAXAXAXAXAXAXAXAXAXAXAX",
"AXAXAXAXAXAXAXAXAXAXAXAXAXAXAXAXAXAXAXAXAXAXAXAXAXH.E.Y.E.E.E.E.Y.K.tXpXtX[.AXAXAXAXAXAXAXAXAXAXAXAXAXAXAXAXAXAXAXAXAXAXAXAXAXAX",
"AXAXAXAXAXAXAXAXAXAXAXAXAXAXAXAXAXAXAXAXAXAXAXAXg.P.E.E.E.K.K.E.E.K.sXsXpX[.m.AXAXAXAXAXAXAXAXAXAXAXAXAXAXAXAXAXAXAXAXAXAXAXAXAX",
"AXAXAXAXAXAXAXAXAXAXAXAXAXAXAXAXAXAXAXAXAXAXAXAXH.E.E.K.K.5.$.m.K.2.5.bXkX[.A.l.AXAXAXAXAXAXAXAXAXAXAXAXAXAXAXAXAXAXAXAXAXAXAXAX",
"AXAXAXAXAXAXAXAXAXAXAXAXAXAXAXAXAXAXAXAXAXAXAXH.K.E.m.2.:.' ' >.$.' | pXMX#XE.N.AXAXAXAXAXAXAXAXAXAXAXAXAXAXAXAXAXAXAXAXAXAXAXAX",
"AXAXAXAXAXAXAXAXAXAXAXAXAXAXAXAXAXAXAXAXAXAXAXE.E.H.2.o.' X.X.' ' X.X.0.;XlXoXE.A.AXAXAXAXAXAXAXAXAXAXAXAXAXAXAXAXAXAXAXAXAXAXAX",
"AXAXAXAXAXAXAXAXAXAXAXAXAXAXAXAXAXAXAXAXAXAXAXP.E.m.>.) ' X.X.X.) ! X.X.:.tXtX(.A.H.AXAXAXAXAXAXAXAXAXAXAXAXAXAXAXAXAXAXAXAXAXAX",
"AXAXAXAXAXAXAXAXAXAXAXAXAXAXAXAXAXAXAXAXAXAXm.P.N.2.y.5.&.' X.) G Z / | ' 9XMXH.H.K.AXAXAXAXAXAXAXAXAXAXAXAXAXAXAXAXAXAXAXAXAXAX",
"AXAXAXAXAXAXAXAXAXAXAXAXAXAXAXAXAXAXAXAXAXN.D.K.s.s.pX0Xi.X.| ^ Z N ^ X.X.-XBX0X).K.AXAXAXAXAXAXAXAXAXAXAXAXAXAXAXAXAXAXAXAXAXAX",
"AXAXAXAXAXAXAXAXAXAXAXAXAXAXAXAXAXAXAXAXK.E.E.[.3XtXxX&Xy.| Z N c c N E | -XMXsX[.E.A.AXAXAXAXAXAXAXAXAXAXAXAXAXAXAXAXAXAXAXAXAX",
"AXAXAXAXAXAXAXAXAXAXAXAXAXAXAXAXAXAXAXAXE.E.Y.3XpXbXtXt.o.L N c b b N l T &XMXsX).E.D.AXAXAXAXAXAXAXAXAXAXAXAXAXAXAXAXAXAXAXAXAX",
"AXAXAXAXAXAXAXAXAXAXAXAXAXAXAXAXAXAXAXAXE.Y.T.8XMXtXi.| o.Z c N N c h f P #.tXpX[.E.E.AXAX#XAXAXAXAXAXAXAXAXAXAXAXAXAXAXAXAXAXAX",
"AXAXAXAXAXAXAXAXAXAXAXAXAXAXAXAXAXAXAXAXE.Q.3XMXVX0X0.) L N b b l h r i f E 9XpXs.H.P.AXAX0XAXAXAXAXAXAXAXAXAXAXAXAXAXAXAXAXAXAX",
"AXAXAXAXAXAXAXAXAXAXAXAXAXAXAXAXAXAXAXx.E.T.gXVXpXy.o.| Z b b b f r i r r f ;Xf.&.N.E.H.AX0XAXAXAXAXAXAXAXAXAXAXAXAXAXAXAXAXAXAX",
"AXAXAXAXAXAXAXAXAXAXAXAXAXAXAXAXAXAXAXE.Q.pXMXtX5.o.| Z N b b b f f i r i i |.i.X.&.m.E.AX8XAXAXAXAXAXAXAXAXAXAXAXAXAXAXAXAXAXAX",
"AXAXAXAXAXAXAXAXAXAXAXAXAXAXAXAXAXAXAXE.pXVXpXw.' ' ) Z N b b h r r r r 0 8 G ' X.&.m.E.:XpXAXAXAXAXAXAXAXAXAXAXAXAXAXAXAXAXAXAX",
"AXAXAXAXAXAXAXAXAXAXAXAXAXAXAXAXAXAXAX).VXVX0X5.' X.| Z c b b f i i i 3 ; ; < Z ) ' X.l.<XpXAXAXAXAXAXAXAXAXAXAXAXAXAXAXAXAXAXAX",
"AXAXAXAXAXAXAXAXAXAXAXAXAXAXAXAXAXAXAX).VXtXw.) ' X.^ Z N b b f r e 0 ; ; 3 3 4 P &.N.P.3XpXpXAXAXAXAXAXAXAXAXAXAXAXAXAXAXAXAXAX",
"AXAXAXAXAXAXAXAXAXAXAXAXAXAXAXAXAXAXAXpXBX4X0.X.X.) Z N b b c f i e 3 ; 3 = # # Z #.M.E.:XpXpXAXAXAXAXAXAXAXAXAXAXAXAXAXAXAXAXAX",
"AXAXAXAXAXAXAXAXAXAXAXAXAXAXAXAXAXAXpXpXxX| ' X.X.| Z N b b l r r 4 ; 3 = O . # Z &.H.E.3XpXpXAXAXAXAXAXAXAXAXAXAXAXAXAXAXAXAXAX",
"AXAXAXAXAXAXAXAXAXAXAXAXAXAXAXAXAXAXtXtX).) X.X.X.| Z N v N f r f 4 ; ; % . . # S &.m.E.3XpXtXAXAXAXAXAXAXAXAXAXAXAXAXAXAXAXAXAX",
"AXAXAXAXAXAXAXAXAXAXAXAXAXAXAXAXAX-XpX0XK.| X.X.' | S B N c f i r 4 3 3 # . . # S ' #.j.:XpXAXAXAXAXAXAXAXAXAXAXAXAXAXAXAXAXAXAX",
"AXAXAXAXAXAXAXAXAXAXAXAXAXAXAXAXAX8XtX).P.) X.X.X.) S B c N f r r 4 ; 4 $     . Z X.&.j.:XpXAXAXAXAXAXAXAXAXAXAXAXAXAXAXAXAXAXAX",
"AXAXAXAXAXAXAXAXAXAXAXAXAXAXAXAXAX9XpXE.P.X.' ' X.| S B N c h i i 4 ; 3 $   . * G X.x.Y.3XpXAXAXAXAXAXAXAXAXAXAXAXAXAXAXAXAXAXAX",
"AXAXAXAXAXAXAXAXAXAXAXAXAXAXAXAX3XpX9XE.P.X.' X.X.| S N N b l r r 4 ; 3 $   O x | o.M.-XtXpXAXAXAXAXAXAXAXAXAXAXAXAXAXAXAXAXAXAX",
"AXAXAXAXAXAXAXAXAXAXAXAXAXAXAXAX3XtX(.E.P.X.' X.X.| Z N b b f r i 4 ; 3 O   O Z X.o.x.;XpXpXAXAXAXAXAXAXAXAXAXAXAXAXAXAXAXAXAXAX",
"AXAXAXAXAXAXAXAXAXAXAXAXAXAXAXAX:XpXm.E.P.| ' X.X.) Z N b b l p r 4 4 ; & . . Z X.&.N.3XtX8XAXAXAXAXAXAXAXAXAXAXAXAXAXAXAXAXAXAX",
"AXAXAXAXAXAXAXAXAXAXAXAXAXAXAXAX3XpXAXK.P.+.' X.X.| G b b b f r f 4 4 3 ; & $ n ' o.m.:XpXAXAXAXAXAXAXAXAXAXAXAXAXAXAXAXAXAXAXAX",
"AXAXAXAXAXAXAXAXAXAXAXAXAXAXAXAX:XpXAXA.P.o.| ' ) | S N b b f p i e 4 3 < 3 ; G ' &.x.:XpXAXAXAXAXAXAXAXAXAXAXAXAXAXAXAXAXAXAXAX",
"AXAXAXAXAXAXAXAXAXAXAXAXAXAXAXAXAX9XAXA.P.o.) X.' ) N N N b l r r i 4 ; ; < 3 L X.#.0XgXpXAXAXAXAXAXAXAXAXAXAXAXAXAXAXAXAXAXAXAX",
"AXAXAXAXAXAXAXAXAXAXAXAXAXAXAXAXAX8XAXA.K.X.' ' ) | S B b b f r r r 3 ; 3 4 4 L X.>.sXgXAXAXAXAXAXAXAXAXAXAXAXAXAXAXAXAXAXAXAXAX",
"AXAXAXAXAXAXAXAXAXAXAXAXAXAXAXAXAX8XAXA.P.o.X.' ) | N N b b l i i r 3 3 3 4 Z X.#.-XMXgXAXAXAXAXAXAXAXAXAXAXAXAXAXAXAXAXAXAXAXAX",
"AXAXAXAXAXAXAXAXAXAXAXAXAXAXAXAXAX8XAXAXE.P.2.#X5.X.| S v N c f r i r r r r E X.#.tXVXgXAXAXAXAXAXAXAXAXAXAXAXAXAXAXAXAXAXAXAXAX",
"AXAXAXAXAXAXAXAXAXAXAXAXAXAXAXAXAX8XAXAXA.Y.5.:XgXy.) Z N c b f r r f r r f T X.:.tXyXpXAXAXAXAXAXAXAXAXAXAXAXAXAXAXAXAXAXAXAXAX",
"AXAXAXAXAXAXAXAXAXAXAXAXAXAXAXAXAX8XAXAXE.P.0.4XkXy.! N v N c h r i r i i r T #.pXVXsX[.AXAXAXAXAXAXAXAXAXAXAXAXAXAXAXAXAXAXAXAX",
"AXAXAXAXAXAXAXAXAXAXAXAXAXAXAXAXAX#XAXAXE.P.0.:XkXi.X.! S v c c f r r r h P ) <.pXtX).AXAXAXAXAXAXAXAXAXAXAXAXAXAXAXAXAXAXAXAXAX",
"AXAXAXAXAXAXAXAXAXAXAXAXAXAXAXAXAXAXAXAXg.E.t.&XbXtX2.^ Z c b b f r r r f P <.tXxX[.E.AXAXAXAXAXAXAXAXAXAXAXAXAXAXAXAXAXAXAXAXAX",
"AXAXAXAXAXAXAXAXAXAXAXAXAXAXAXAXAXAXAXAXAX(.P.y.pXxXt.` L N b b b f i f P 5.tXVX|.E.Q.AXAXAXAXAXAXAXAXAXAXAXAXAXAXAXAXAXAXAXAXAX",
"AXAXAXAXAXAXAXAXAXAXAXAXAXAXAXAXAXAXAXAXAXY.P.P.0XkX5.) ) N c b b x x f T &XMXbX|.E.E.AXAXAXAXAXAXAXAXAXAXAXAXAXAXAXAXAXAXAXAXAX",
"AXAXAXAXAXAXAXAXAXAXAXAXAXAXAXAXAXAXAXAXAXK.K.(.8XsXy.X.| L N b b b b U ) 0XbX+XQ.E.K.AXAXAXAXAXAXAXAXAXAXAXAXAXAXAXAXAXAXAXAXAX",
"AXAXAXAXAXAXAXAXAXAXAXAXAXAXAXAXAXAXAXAXAXAXA.E.|.sXs.#.X.| G N v v Z ) X.:XH.N.E.m.AXAXAXAXAXAXAXAXAXAXAXAXAXAXAXAXAXAXAXAXAXAX",
"AXAXAXAXAXAXAXAXAXAXAXAXAXAXAXAXAXAXAXAXAXAXH.E.(.gX0X2.' X.) Z Z N ! ) X.5.m.P.K.AXAXAXAXAXAXAXAXAXAXAXAXAXAXAXAXAXAXAXAXAXAXAX",
"AXAXAXAXAXAXAXAXAXAXAXAXAXAXAXAXAXAXAXAXAXAXAXE.T.8XxXs.&.X.) | ^ | X.X.' j.P.E.E.AXAXAXAXAXAXAXAXAXAXAXAXAXAXAXAXAXAXAXAXAXAXAX",
"AXAXAXAXAXAXAXAXAXAXAXAXAXAXAXAXAXAXAXAXAXAXAXE.Q.[.gX3Xf.' ' X.X.X.:.$.&.N.Y.P.K.AXAXAXAXAXAXAXAXAXAXAXAXAXAXAXAXAXAXAXAXAXAXAX",
"AXAXAXAXAXAXAXAXAXAXAXAXAXAXAXAXAXAXAXAXAXAXAXH.A.(.8XbXtX5.' ' ) &.N.K.K.E.E.N.AXAXAXAXAXAXAXAXAXAXAXAXAXAXAXAXAXAXAXAXAXAXAXAX",
"AXAXAXAXAXAXAXAXAXAXAXAXAXAXAXAXAXAXAXAXAXAXAXAXg.Y.`.sXkXs.>.$.:.M.P.E.E.E.H.g.AXAXAXAXAXAXAXAXAXAXAXAXAXAXAXAXAXAXAXAXAXAXAXAX",
"AXAXAXAXAXAXAXAXAXAXAXAXAXAXAXAXAXAXAXAXAXAXAXAXAXH.E.XXsX[.K.A.K.E.E.E.E.K.AXAXAXAXAXAXAXAXAXAXAXAXAXAXAXAXAXAXAXAXAXAXAXAXAXAX",
"AXAXAXAXAXAXAXAXAXAXAXAXAXAXAXAXAXAXAXAXAXAXAXAXAXK.E.).8XxXpX(.E.E.E.E.D.AXAXAXAXAXAXAXAXAXAXAXAXAXAXAXAXAXAXAXAXAXAXAXAXAXAXAX",
"AXAXAXAXAXAXAXAXAXAXAXAXAXAXAXAXAXAXAXAXAXAXAXAXAXAXK.E.(.tXsXtX!.E.E.E.E.AXAXAXAXAX4XAXAXAXAXAXAXAXAXAXAXAXAXAXAXAXAXAXAXAXAXAX",
"AXAXAXAXAXAXAXAXAXAXAXAXAXAXAXAXAXAXAXAXAXAXAXAXAXAXAXAXAXj.9XpX).E.E.E.AXoX3X%XAXAXAXAXAXAXAXAXAXAXAXAXAXAXAXAXAXAXAXAXAXAXAXAX",
"AXAXAXAXAXAXAXAXAXAXAXAXAXAXAXAXAXAXAXAXAXAXAXAXAXAXAXAXAX%XpXpXpXpXpXtX9XpXpX3XAXAXAXAXAXAXAXAXAXAXAXAXAXAXAXAXAXAXAXAXAXAXAXAX",
"AXAXAXAXAXAXAXAXAXAXAXAXAXAXAXAXAXAXAXAXAXAXAXAXAXAXAXAXAXAX%XtXpXpXpXpXpX0X3XAXAXAXAXAXAXAXAXAXAXAXAXAXAXAXAXAXAXAXAXAXAXAXAXAX",
"AXAXAXAXAXAXAXAXAXAXAXAXAXAXAXAXAXAXAXAXAXAXAXAXAXAXAXAXAXAXAXAX:XtX8X8X3XAXAXAXAXAXAXAXAXAXAXAXAXAXAXAXAXAXAXAXAXAXAXAXAXAXAXAX",
"AXAXAXAXAXAXAXAXAXAXAXAXAXAXAXAXAXAXAXAXAXAXAXAXAXAXAXAXAXAXAXAXAX|.AXAXAXAXAXAXAXAXAXAXAXAXAXAXAXAXAXAXAXAXAXAXAXAXAXAXAXAXAXAX",
"AXAXAXAXAXAXAXAXAXAXAXAXAXAXAXAXAXAXAXAXAXAXAXAXAXAXAXAXAXAXAXAXAXAXAXAXAXAXAXAXAXAXAXAXAXAXAXAXAXAXAXAXAXAXAXAXAXAXAXAXAXAXAXAX",
"AXAXAXAXAXAXAXAXAXAXAXAXAXAXAXAXAXAXAXAXAXAXAXAXAXAXAXAXAXAXAXAXAXAXAXAXAXAXAXAXAXAXAXAXAXAXAXAXAXAXAXAXAXAXAXAXAXAXAXAXAXAXAXAX"
};
