/* XPM */
static char *cG9ydGFsLTc_[] = {
/* columns rows colors chars-per-pixel */
"64 64 248 2 ",
"   c #281D00",
".  c #291E00",
"X  c #2A1E00",
"o  c #2C2000",
"O  c #2D2000",
"+  c #2F2100",
"@  c #302200",
"#  c #312200",
"$  c #342400",
"%  c #352500",
"&  c #3E2A00",
"*  c #402B00",
"=  c #422C00",
"-  c #422D00",
";  c #432E00",
":  c #442F00",
">  c #452F00",
",  c #472F00",
"<  c #463000",
"1  c #493000",
"2  c #483100",
"3  c #493200",
"4  c #573800",
"5  c #593900",
"6  c #593B00",
"7  c #5B3A00",
"8  c #5D3B00",
"9  c #5A3C00",
"0  c #5E3C00",
"q  c #5F3D00",
"w  c #5F3F00",
"e  c #603D00",
"r  c #613E00",
"t  c #603F00",
"y  c #623E00",
"u  c #614000",
"i  c #624100",
"p  c #634100",
"a  c #644000",
"s  c #644200",
"d  c #654300",
"f  c #664300",
"g  c #684700",
"h  c #704A00",
"j  c #724B00",
"k  c #744D00",
"l  c #754D00",
"z  c #774F00",
"x  c #784F00",
"c  c #7B4E00",
"v  c #7C4F00",
"b  c #7D4F00",
"n  c #775100",
"m  c #795000",
"M  c #7A5000",
"N  c #7B5100",
"B  c #7A5300",
"V  c #7C5200",
"C  c #7D5200",
"Z  c #7E5300",
"A  c #7B5400",
"S  c #7F5400",
"D  c #7E5600",
"F  c #805100",
"G  c #825300",
"H  c #805400",
"J  c #815500",
"K  c #845700",
"L  c #875600",
"P  c #855800",
"I  c #875900",
"U  c #8A5800",
"Y  c #8B5800",
"T  c #885A00",
"R  c #895A00",
"E  c #8F5B00",
"W  c #8B5C00",
"Q  c #8C5C00",
"!  c #8F5E00",
"~  c #905B00",
"^  c #915C00",
"/  c #935D00",
"(  c #905F00",
")  c #945E00",
"_  c #955F00",
"`  c #965F00",
"'  c #916000",
"]  c #926000",
"[  c #936100",
"{  c #946100",
"}  c #976000",
"|  c #956200",
" . c #966300",
".. c #976300",
"X. c #986000",
"o. c #996100",
"O. c #9A6200",
"+. c #9C6300",
"@. c #986400",
"#. c #996500",
"$. c #9A6500",
"%. c #9B6600",
"&. c #9D6400",
"*. c #9E6400",
"=. c #9C6700",
"-. c #9D6700",
";. c #9E6800",
":. c #9F6900",
">. c #A06600",
",. c #A06900",
"<. c #A26B00",
"1. c #A36B00",
"2. c #A46800",
"3. c #A56900",
"4. c #A66900",
"5. c #A46C00",
"6. c #A56D00",
"7. c #A66D00",
"8. c #AA6C00",
"9. c #AB6C00",
"0. c #A86F00",
"q. c #AC6D00",
"w. c #AA7000",
"e. c #AB7000",
"r. c #AC7100",
"t. c #AD7200",
"y. c #AE7200",
"u. c #AF7300",
"i. c #B07400",
"p. c #B17400",
"a. c #B37600",
"s. c #B47600",
"d. c #B57700",
"f. c #B67800",
"g. c #B77800",
"h. c #B87900",
"j. c #B97A00",
"k. c #BA7A00",
"l. c #BB7B00",
"z. c #BE7800",
"x. c #BF7A00",
"c. c #BC7C00",
"v. c #BD7C00",
"b. c #BE7D00",
"n. c #BF7E00",
"m. c #C17B00",
"M. c #C07F00",
"N. c #C47D00",
"B. c #C57E00",
"V. c #C67E00",
"C. c #C87F00",
"Z. c #C18000",
"A. c #C28000",
"S. c #C38100",
"D. c #C48100",
"F. c #C58200",
"G. c #C68300",
"H. c #C78300",
"J. c #C98000",
"K. c #CA8100",
"L. c #CB8100",
"P. c #C88400",
"I. c #C98500",
"U. c #CA8500",
"Y. c #CB8600",
"T. c #CF8400",
"R. c #CC8700",
"E. c #CD8700",
"W. c #CE8800",
"Q. c #CF8900",
"!. c #D28600",
"~. c #D18A00",
"^. c #D28B00",
"/. c #D38B00",
"(. c #D48C00",
"). c #D58D00",
"_. c #D78E00",
"`. c #D98A00",
"'. c #D88F00",
"]. c #D98F00",
"[. c #DA9000",
"{. c #DB9000",
"}. c #DC9100",
"|. c #DD9200",
" X c #DE9200",
".X c #DF9300",
"XX c #E69200",
"oX c #E19400",
"OX c #E39600",
"+X c #E49600",
"@X c #E59700",
"#X c #ED9700",
"$X c #E69800",
"%X c #E79800",
"&X c #E89900",
"*X c #E99A00",
"=X c #EA9A00",
"-X c #EB9B00",
";X c #EC9C00",
":X c #ED9C00",
">X c #EE9D00",
",X c #EF9E00",
"<X c #F09E00",
"1X c #F19F00",
"2X c #F29F00",
"3X c #F3A000",
"4X c #F4A100",
"5X c #F5A100",
"6X c #F6A200",
"7X c #F7A300",
"8X c #FFA200",
"9X c #F9A400",
"0X c #FAA500",
"qX c #FBA500",
"wX c #FCA600",
"eX c #FDA700",
"rX c #FEA700",
"tX c #FFA800",
"yX c #FFA801",
"uX c #FFA902",
"iX c #FFA903",
"pX c #FFA904",
"aX c #FFAA05",
"sX c #FFAA06",
"dX c #FFAA07",
"fX c #FFAB08",
"gX c #FFAB09",
"hX c #FFAB0A",
"jX c #FFAC0B",
"kX c #FFAC0C",
"lX c #FFAC0D",
"zX c #FFAD0E",
"xX c #FFAD0F",
"cX c #FFAD10",
"vX c #FFAE11",
"bX c #FFAE12",
"nX c #FFAE13",
"mX c #FFAF14",
"MX c #FFAF15",
"NX c #FFAF16",
"BX c #FFB017",
"VX c #FFB018",
"CX c #FFB019",
"ZX c #FFB11A",
"AX c #FFB11B",
"SX c #FFB11C",
"DX c #FFB21D",
"FX c None",
/* pixels */
"FXFXFXFXFXFXFXFXFXFXFXFXFXFXFXFXFXFXFXFXFXFXFXFXFXFXFXFXFXFXFXFXFXFXFXFXFXFXFXFXFXFXFXFXFXFXFXFXFXFXFXFXFXFXFXFXFXFXFXFXFXFXFXFX",
"FXFXFXFXFXFXFXFXFXFXFXFXFXFXFXFXFXFXFXFXFXFXFXFXFXFXFXFXFXFXFXFXFXFXFXFXFXFXFXFXFXFXFXFXFXFXFXFXFXFXFXFXFXFXFXFXFXFXFXFXFXFXFXFX",
"FXFXFXFXFXFXFXFXFXFXFXFXFXFXFXFXFXFXFXFXFXFXFXFXFXFXFXFXFXFXFXFXFXFXFXFXFXFXFXFXFXFXFXFXFXFXFXFXFXFXFXFXFXFXFXFXFXFXFXFXFXFXFXFX",
"FXFXFXFXFXFXFXFXFXFXFXFXFXFXFXFXFXFXFXFXFXFXFXFXFXFXFXFXFXFXFXFXFXFXFXFXFXFXFXFXFXFXFXFXFXFXFXFXFXFXFXFXFXFXFXFXFXFXFXFXFXFXFXFX",
"FXFXFXFXFXFXFXFXFXFXFXFXFXFXFXFXFXFXFXFXFXFXFXFXFXFXFXFXFXFXFXFXFXFXFXFXFXFXFXFXFXFXFXFXFXFXFXFXFXFXFXFXFXFXFXFXFXFXFXFXFXFXFXFX",
"FXFXFXFXFXFXFXFXFXFXFXFXFXFXFXFXFXFXFXFXFXFXFXFXFX|.+XOXOXFXFXFXFXFXFXFXFXFXFXFXFXFXFXFXFXFXFXFXFXFXFXFXFXFXFXFXFXFXFXFXFXFXFXFX",
"FXFXFXFXFXFXFXFXFXFXFXFXFXFXFXFXFXFXFXFXFXFXFX-X-XrXtXpXtX-XN.j.c.g.g.FXFXFXFXFXFXFXFXFXFXFXFXFXFXFXFXFXFXFXFXFXFXFXFXFXFXFXFXFX",
"FXFXFXFXFXFXFXFXFXFXFXFXFXFXFXFXFXFXFXFXFXFX>XrXtXtXtXpXNXpXrXtXR.Y.P.N.FXFXFXFXFXFXFXFXFXFXFXFXFXFXFXFXFXFXFXFXFXFXFXFXFXFXFXFX",
"FXFXFXFXFXFXFXFXFXFXFXFXFXFXFXFXFXFXFXFXFXFX9XtX4XFXR.9XtXNXAXtX~.Y.H.Y.Z.FXFXFXFXFX(.FXFXFXFXFXFXFXFXFXFXFXFXFXFXFXFXFXFXFXFXFX",
"FXFXFXFXFXFXFXFXFXFXFXFXFXFXFXFXFXFXFXFXFXrX4XFXFXM.P.P.Y.3XBXAXpXtXJ.Y.P.FXFXFXFXFXFXFXFXFXFXFXFXFXFXFXFXFXFXFXFXFXFXFXFXFXFXFX",
"FXFXFXFXFXFXFXFXFXFXFXFXFXFXFXFXFXFXFXFX<X%XFXFXFXZ.Y.P.H.N.3XBXSXfXR.Y.P.Y.Z.FXFXFXFXFXFXFXFXFXFXFXFXFXFXFXFXFXFXFXFXFXFXFXFXFX",
"FXFXFXFXFXFXFXFXFXFXFXFXFXFXFXFXFXFXFXFXFXFXFXFXFXZ.P.M.5. .^ -XNXSXpXY.H.P.Y.M.FXFXFXFXFXFXFXFXFXFXFXFXFXFXFXFXFXFXFXFXFXFXFXFX",
"FXFXFXFXFXFXFXFXFXFXFXFXFXFXFXFXFXFXFXFXFXFXFXFXx.Y.H.n.5.[  .[ >XCXpX&.$.c.Y.P.Y.FXFXFXFXFXFXFXFXFXFXFXFXFXFXFXFXFXFXFXFXFXFXFX",
"FXFXFXFXFXFXFXFXFXFXFXFXFXFXFXFXFXFXFXFXFXFXFXZ.V.Z.7.&.$. .| | 7.fXBX>Xy.c.P.P.Y.FXFX+XFXFXFXFXFXFXFXFXFXFXFXFXFXFXFXFXFXFXFXFX",
"FXFXFXFXFXFXFXFXFXFXFXFXFXFXFXFXFXFXFXFXFXFXFXH.H.2. .| | |  .^ [ 8.BXpXu.;.n.Y.V.Z.FX%XFXFXFXFXFXFXFXFXFXFXFXFXFXFXFXFXFXFXFXFX",
"FXFXFXFXFXFXFXFXFXFXFXFXFXFXFXFXFXFXFXFXFXFXc.P.n.;.| | ) | [ J V V pXBXg. .g.P.Y.H.FX+XFXFXFXFXFXFXFXFXFXFXFXFXFXFXFXFXFXFXFXFX",
"FXFXFXFXFXFXFXFXFXFXFXFXFXFXFXFXFXFXFXFXFXFXH.m.7.O.|  .| ^ J x z x ! >X8.) $.n.P.H.FX%XFXFXFXFXFXFXFXFXFXFXFXFXFXFXFXFXFXFXFXFX",
"FXFXFXFXFXFXFXFXFXFXFXFXFXFXFXFXFXFXFXFXFXH.H.5.) | ^ | | F N x x z z I Y | ^ O.n.V.FX%XFXFXFXFXFXFXFXFXFXFXFXFXFXFXFXFXFXFXFXFX",
"FXFXFXFXFXFXFXFXFXFXFXFXFXFXFXFX-XFXFXFXFXR.H.O.) ) | [ [ x x x x z r p f J | ) n.P.FX%XrXFXFXFXFXFXFXFXFXFXFXFXFXFXFXFXFXFXFXFX",
"FXFXFXFXFXFXFXFXFXFXFXFXFXFXFXFX%XFXFXFXFXY.Z.;.;.| | [ J N x x z 0 r 8 0 y T | n.H.n.>XpXFXFXFXFXFXFXFXFXFXFXFXFXFXFXFXFXFXFXFX",
"FXFXFXFXFXFXFXFXFXFXFXFXFXFXFXFXFXFXFXFXj.P.7.;.Q.5.[ ! V z z x f 0 0 8 8 r T O.n.Y.P.>XtXFXFXFXFXFXFXFXFXFXFXFXFXFXFXFXFXFXFXFX",
"FXFXFXFXFXFXFXFXFXFXFXFXFXFXFXFXFXFXFXFXY.H.7.|.3X7.) [ S N z x p 8 0 0 0 0 f T &.Z.Y.>X8XFXFXFXFXFXFXFXFXFXFXFXFXFXFXFXFXFXFXFX",
"FXFXFXFXFXFXFXFXFXFXFXFXFXFXFXFXFXFXFXFXY.H.3.tXjXe.[ F N z N s 0 0 0 0 8 8 0 L  .n.Y.>XtXFXFXFXFXFXFXFXFXFXFXFXFXFXFXFXFXFXFXFX",
"FXFXFXFXFXFXFXFXFXFXFXFXFXFXFXFXFXFXFXZ.C.Y.;XjXg.| ~ x x x x p 0 0 0 2 < < 6 T $.n.P.>XtXFXFXFXFXFXFXFXFXFXFXFXFXFXFXFXFXFXFXFX",
"FXFXFXFXFXFXFXFXFXFXFXFXFXFXFXFXFXFXFXY.C.L.7XlXe.) ^ V N N z r 8 0 < , ; ; v [ $.n.Y.>XrXFXFXFXFXFXFXFXFXFXFXFXFXFXFXFXFXFXFXFX",
"FXFXFXFXFXFXFXFXFXFXFXFXFXFXFXFXFXFXFXH.R.rXNXlX8.| ~ N N x z r 0 0 ; ; ; ; < L  .n.V.>XtX<XFXFXFXFXFXFXFXFXFXFXFXFXFXFXFXFXFXFX",
"FXFXFXFXFXFXFXFXFXFXFXFXFXFXFXFXFXFXFXY.R.tXlXp. .| ~ V N z s 0 8 0 , ; ; ; % x ^ O.j.>XtXpXFXFXFXFXFXFXFXFXFXFXFXFXFXFXFXFXFXFX",
"FXFXFXFXFXFXFXFXFXFXFXFXFXFXFXFXFXFXFXY.R.SXnXe.|  .^ V x x s 8 8 , ; ; ; # X # S O.g.>XtX9XFXFXFXFXFXFXFXFXFXFXFXFXFXFXFXFXFXFX",
"FXFXFXFXFXFXFXFXFXFXFXFXFXFXFXFXFXFXn.Y.3XBXH.$.^ [ J N z N p 8 0 < ; ; ; + X + S | &.oXtX(.FXFXFXFXFXFXFXFXFXFXFXFXFXFXFXFXFXFX",
"FXFXFXFXFXFXFXFXFXFXFXFXFXFXFXFXFXFXH.Y.pXNXy.| | [ V N N z s 0 8 , * ; # X X X S | | OXtXFXFXFXFXFXFXFXFXFXFXFXFXFXFXFXFXFXFXFX",
"FXFXFXFXFXFXFXFXFXFXFXFXFXFXFXFXFXFXn.R.BXNXy.) | [ V N z x p 0 8 , & ; +     + V O.P.4XpXFXFXFXFXFXFXFXFXFXFXFXFXFXFXFXFXFXFXFX",
"FXFXFXFXFXFXFXFXFXFXFXFXFXFXFXFXFXFXFXQ.AXlXq.| | [ V A x z s 8 6 < ; < + X X X S | 3.%XnXFXFXFXFXFXFXFXFXFXFXFXFXFXFXFXFXFXFXFX",
"FXFXFXFXFXFXFXFXFXFXFXFXFXFXFXFXFXFXFX4XNXy.$.| [ ( S N x n p 0 0 < * ; + X   + S $.J.9XnXFXFXFXFXFXFXFXFXFXFXFXFXFXFXFXFXFXFXFX",
"FXFXFXFXFXFXFXFXFXFXFXFXFXFXFXFXFXFXFXpXnX| | | | [ S A N N p 0 8 , ; ; # X   $ S =.{.nXlXFXFXFXFXFXFXFXFXFXFXFXFXFXFXFXFXFXFXFX",
"FXFXFXFXFXFXFXFXFXFXFXFXFXFXFXFXFXFXFXNXnX[ | | | [ V A N z p 8 8 , ; ; + X o h ! &.`.BXpXFXFXFXFXFXFXFXFXFXFXFXFXFXFXFXFXFXFXFX",
"FXFXFXFXFXFXFXFXFXFXFXFXFXFXFXFXFXFX<XAXnX[ | | [ [ N N n N p 0 0 2 ; ; & + + S [ =.XXAX+XFXFXFXFXFXFXFXFXFXFXFXFXFXFXFXFXFXFXFX",
"FXFXFXFXFXFXFXFXFXFXFXFXFXFXFXFXFXFXtXSXnX[ | | | [ V N N z p 0 8 6 , * < & & J | &.;XSXOXFXFXFXFXFXFXFXFXFXFXFXFXFXFXFXFXFXFXFX",
"FXFXFXFXFXFXFXFXFXFXFXFXFXFXFXFXFXFXrXAXnX| ^ | | [ N N z N p 0 8 0 < ; ; ; < J O.|.jXlX{.FXFXFXFXFXFXFXFXFXFXFXFXFXFXFXFXFXFXFX",
"FXFXFXFXFXFXFXFXFXFXFXFXFXFXFXFXFXFXtXAXtX^ ^ | | [ V A N n p 8 8 8 4 < ; ; < K '.nXAX-Xy.FXFXFXFXFXFXFXFXFXFXFXFXFXFXFXFXFXFXFX",
"FXFXFXFXFXFXFXFXFXFXFXFXFXFXFXFXFXFX9XAXrXn.&.| | [ V A N z p 8 0 0 8 6 < ; < I -XNXlX{.FXFXFXFXFXFXFXFXFXFXFXFXFXFXFXFXFXFXFXFX",
"FXFXFXFXFXFXFXFXFXFXFXFXFXFXFXFXFXFXtXSXnXH.;.| | ^ V A z z p 0 8 0 8 0 6 6 8 ~.lXNX-XR.FXFXFXFXFXFXFXFXFXFXFXFXFXFXFXFXFXFXFXFX",
"FXFXFXFXFXFXFXFXFXFXFXFXFXFXFXFXFXFXFXpXBXV.;.| | [ N N x z p 0 0 0 0 8 8 r L.nXCXpX|.Y.FXFXFXFXFXFXFXFXFXFXFXFXFXFXFXFXFXFXFXFX",
"FXFXFXFXFXFXFXFXFXFXFXFXFXFXFXFXFXFXFXtXQ.P.Z.;.| [ V N x x n p 8 0 0 8 8 r ! 3.-Xp.j.Y.FXFXFXFXFXFXFXFXFXFXFXFXFXFXFXFXFXFXFXFX",
"FXFXFXFXFXFXFXFXFXFXFXFXFXFXFXFXFXFXFXrXV.V.P.;.| ) ! V x x x s 8 0 8 0 6 p T | +.n.H.Y.FXFXFXFXFXFXFXFXFXFXFXFXFXFXFXFXFXFXFXFX",
"FXFXFXFXFXFXFXFXFXFXFXFXFXFXFXFXFXFXFX9XY.P.P.;. .| [ V x x N j r 8 0 0 0 0 L | O.n.Y.Y.FXFXFXFXFXFXFXFXFXFXFXFXFXFXFXFXFXFXFXFX",
"FXFXFXFXFXFXFXFXFXFXFXFXFXFXFXFXFXFXFXrXY.P.P.j.&.| ^ T V z z x k 0 0 0 0 0 I ) p.H.Y.e.FXFXFXFXFXFXFXFXFXFXFXFXFXFXFXFXFXFXFXFX",
"FXFXFXFXFXFXFXFXFXFXFXFXFXFXFXFXFXFXFXtX>XH.P.N.&.| | [ J x z x n p 0 0 0 V [ $.n.Y.P.FXFXFXFXFXFXFXFXFXFXFXFXFXFXFXFXFXFXFXFXFX",
"FXFXFXFXFXFXFXFXFXFXFXFXFXFXFXFXFXFXFXtX3XP.P.H.;.| | | ^ V z z x j 0 0 0 T |  .n.Y.P.FXFXFXFXFXFXFXFXFXFXFXFXFXFXFXFXFXFXFXFXFX",
"FXFXFXFXFXFXFXFXFXFXFXFXFXFXFXFXFXFXFX4XFXZ.P.P.c.5.(.2.[ S N z x x r 0 V [ | d.H.Y.H.FXFXpXFXFXFXFXFXFXFXFXFXFXFXFXFXFXFXFXFXFX",
"FXFXFXFXFXFXFXFXFXFXFXFXFXFXFXFXFXFXFX<XFXFXP.P.Z.y.9X3Xp.[ S N N N I ! [ | d.H.Y.Z.d.FXFXtXFXFXFXFXFXFXFXFXFXFXFXFXFXFXFXFXFXFX",
"FXFXFXFXFXFXFXFXFXFXFXFXFXFXFXFXFXFXFX3XFXFXZ.Y.Y.n.n.fXpXe.! S T ^ ) | ) $.x.Y.Y.FXFXFXFXFXFXFXFXFXFXFXFXFXFXFXFXFXFXFXFXFXFXFX",
"FXFXFXFXFXFXFXFXFXFXFXFXFXFXFXFXFXFXFXrXOXFXFXJ.P.P.Z.|.jXp.^ [ ) ^ ) ) [ d.P.Y.Y.FXFX{.FXFXFXFXFXFXFXFXFXFXFXFXFXFXFXFXFXFXFXFX",
"FXFXFXFXFXFXFXFXFXFXFXFXFXFXFXFXFXFXFXtX>XFXFXFXm.V.P.!.fX-X{.;.| g. .g.j.H.P.Z.y.|.%X4XFXFXFXFXFXFXFXFXFXFXFXFXFXFXFXFXFXFXFXFX",
"FXFXFXFXFXFXFXFXFXFXFXFXFXFXFXFXFXFXFX4XFXFXFXFXn.Y.Y.Y.{.fXnX%X&.P.c.Y.P.Y.Y.OX>X9XtXpXFXFXFXFXFXFXFXFXFXFXFXFXFXFXFXFXFXFXFXFX",
"FXFXFXFXFXFXFXFXFXFXFXFXFXFXFXFXFXFXFX<XFXFXFXFXZ.Y.Y.Y.P.9XAXBX9X<XY.;X(.J.-X9XtXrX|.FXFXFXFXFXFXFXFXFXFXFXFXFXFXFXFXFXFXFXFXFX",
"FXFXFXFXFXFXFXFXFXFXFXFXFXFXFXFXFXFXFXFXFXFXFXFXFXZ.Y.P.P.(.tXBXSXAXjXpX4X<XrXtXrXFXFXFXFXFXFXFXFXFXFXFXFXFXFXFXFXFXFXFXFXFXFXFX",
"FXFXFXFXFXFXFXFXFXFXFXFXFXFXFXFXFXFXFXFXFXFXFXFXFXFXFXH.Y.P.(.tXjXAXAXBXfXpXtX7XFXFXFXFXFXFXFXFXFXFXFXFXFXFXFXFXFXFXFXFXFXFXFXFX",
"FXFXFXFXFXFXFXFXFXFXFXFXFXFXFXFXFXFXFXFXFXFXFXFXFXFXFXFXc.Y.Y.4XtXpXfXfXtXtXpX4XFXFXFXFXFXFXFXFXFXFXFXFXFXFXFXFXFXFXFXFXFXFXFXFX",
"FXFXFXFXFXFXFXFXFXFXFXFXFXFXFXFXFXFXFXFXFXFXFXFXFXFXFXFXFXg.FXFXrXtXpXpXpXtXFXFXFXFXFXFXFXFXFXFXFXFXFXFXFXFXFXFXFXFXFXFXFXFXFXFX",
"FXFXFXFXFXFXFXFXFXFXFXFXFXFXFXFXFXFXFXFXFXFXFXFXFXFXFXFXFXFXFXFXFXFXFXFXFXFXFXFXFXFXFXFXFXFXFXFXFXFXFXFXFXFXFXFXFXFXFXFXFXFXFXFX",
"FXFXFXFXFXFXFXFXFXFXFXFXFXFXFXFXFXFXFXFXFXFXFXFXFXFXFXFXFXFXFXFXFXFXFXFXFXFXFXFXFXFXFXFXFXFXFXFXFXFXFXFXFXFXFXFXFXFXFXFXFXFXFXFX",
"FXFXFXFXFXFXFXFXFXFXFXFXFXFXFXFXFXFXFXFXFXFXFXFXFXFXFXFXFXFXFXFXFXFXFXFXFXFXFXFXFXFXFXFXFXFXFXFXFXFXFXFXFXFXFXFXFXFXFXFXFXFXFXFX",
"FXFXFXFXFXFXFXFXFXFXFXFXFXFXFXFXFXFXFXFXFXFXFXFXFXFXFXFXFXFXFXFXFXFXFXFXFXFXFXFXFXFXFXFXFXFXFXFXFXFXFXFXFXFXFXFXFXFXFXFXFXFXFXFX",
"FXFXFXFXFXFXFXFXFXFXFXFXFXFXFXFXFXFXFXFXFXFXFXFXFXFXFXFXFXFXFXFXFXFXFXFXFXFXFXFXFXFXFXFXFXFXFXFXFXFXFXFXFXFXFXFXFXFXFXFXFXFXFXFX"
};
