/* XPM */
static char *cG9ydGFsLTI_[] = {
/* columns rows colors chars-per-pixel */
"64 64 241 2 ",
"   c #281D00",
".  c #291D00",
"X  c #2A1C00",
"o  c #2B1D00",
"O  c #2B1E00",
"+  c #2C1F00",
"@  c #2D2000",
"#  c #2E2000",
"$  c #2F2000",
"%  c #312100",
"&  c #302200",
"*  c #322200",
"=  c #322300",
"-  c #332300",
";  c #402B00",
":  c #412C00",
">  c #422C00",
",  c #422D00",
"<  c #432E00",
"1  c #452E00",
"2  c #442F00",
"3  c #452F00",
"4  c #462E00",
"5  c #483000",
"6  c #493000",
"7  c #4C3400",
"8  c #573800",
"9  c #593900",
"0  c #5A3900",
"q  c #593B00",
"w  c #5B3A00",
"e  c #5C3B00",
"r  c #5D3B00",
"t  c #5E3C00",
"y  c #5F3D00",
"u  c #5E3E00",
"i  c #5F3F00",
"p  c #613E00",
"a  c #603F00",
"s  c #623E00",
"d  c #614000",
"f  c #634100",
"g  c #644000",
"h  c #644200",
"j  c #654300",
"k  c #694300",
"l  c #6E4600",
"z  c #744D00",
"x  c #764E00",
"c  c #774F00",
"v  c #784F00",
"b  c #7D4F00",
"n  c #775100",
"m  c #795000",
"M  c #7B5100",
"N  c #785200",
"B  c #795300",
"V  c #7A5300",
"C  c #7C5200",
"Z  c #7D5200",
"A  c #7E5300",
"S  c #7B5400",
"D  c #7C5500",
"F  c #7E5600",
"G  c #825300",
"H  c #805400",
"J  c #815500",
"K  c #825600",
"L  c #835600",
"P  c #875600",
"I  c #855800",
"U  c #865800",
"Y  c #875900",
"T  c #8B5800",
"R  c #885A00",
"E  c #895A00",
"W  c #8E5A00",
"Q  c #8F5B00",
"!  c #8D5D00",
"~  c #8F5E00",
"^  c #905B00",
"/  c #915C00",
"(  c #925D00",
")  c #935D00",
"_  c #905F00",
"`  c #945E00",
"'  c #955F00",
"]  c #965F00",
"[  c #916000",
"{  c #926000",
"}  c #936100",
"|  c #946100",
" . c #976000",
".. c #956200",
"X. c #966300",
"o. c #976300",
"O. c #996100",
"+. c #9A6200",
"@. c #9B6200",
"#. c #9C6300",
"$. c #986400",
"%. c #9B6600",
"&. c #9D6400",
"*. c #9E6400",
"=. c #9C6700",
"-. c #9D6700",
";. c #9E6800",
":. c #9F6900",
">. c #A26700",
",. c #A36700",
"<. c #A06900",
"1. c #A16A00",
"2. c #A26B00",
"3. c #A36B00",
"4. c #A46800",
"5. c #A76A00",
"6. c #A46C00",
"7. c #A56D00",
"8. c #A66D00",
"9. c #A76E00",
"0. c #A86B00",
"q. c #A86F00",
"w. c #A96F00",
"e. c #AC6D00",
"r. c #AA7000",
"t. c #AB7000",
"y. c #AC7100",
"u. c #AD7200",
"i. c #AF7300",
"p. c #B17400",
"a. c #B37600",
"s. c #B57700",
"d. c #B87500",
"f. c #BA7600",
"g. c #BC7700",
"h. c #B77800",
"j. c #B87900",
"k. c #B97A00",
"l. c #BA7A00",
"z. c #BB7B00",
"x. c #BE7800",
"c. c #BF7A00",
"v. c #BC7C00",
"b. c #BD7C00",
"n. c #BE7D00",
"m. c #BF7E00",
"M. c #C07A00",
"N. c #C37C00",
"B. c #C07F00",
"V. c #C67E00",
"C. c #C77F00",
"Z. c #C87F00",
"A. c #C18000",
"S. c #C28000",
"D. c #C38100",
"F. c #C48100",
"G. c #C58200",
"H. c #C68300",
"J. c #C78300",
"K. c #C98000",
"L. c #CA8100",
"P. c #CC8200",
"I. c #C88400",
"U. c #C98500",
"Y. c #CA8500",
"T. c #CB8600",
"R. c #CF8400",
"E. c #CC8700",
"W. c #CD8700",
"Q. c #CE8800",
"!. c #CF8900",
"~. c #D28600",
"^. c #D08900",
"/. c #D18A00",
"(. c #D28B00",
"). c #D38B00",
"_. c #D68800",
"`. c #D48C00",
"'. c #D58D00",
"]. c #D78E00",
"[. c #D88F00",
"{. c #DA9000",
"}. c #DC9100",
"|. c #DD9200",
" X c #DE9200",
".X c #E09400",
"XX c #E19400",
"oX c #E29500",
"OX c #E39600",
"+X c #E49600",
"@X c #E59700",
"#X c #E99400",
"$X c #EE9700",
"%X c #E69800",
"&X c #E79800",
"*X c #E99A00",
"=X c #EA9A00",
"-X c #EB9B00",
";X c #EC9C00",
":X c #EE9D00",
">X c #EF9E00",
",X c #F09E00",
"<X c #F19F00",
"1X c #F29F00",
"2X c #F3A000",
"3X c #F4A100",
"4X c #F5A100",
"5X c #F6A200",
"6X c #F7A300",
"7X c #F8A300",
"8X c #F9A400",
"9X c #FAA500",
"0X c #FBA500",
"qX c #FCA600",
"wX c #FDA700",
"eX c #FEA700",
"rX c #FFA800",
"tX c #FFA801",
"yX c #FFA902",
"uX c #FFA903",
"iX c #FFA904",
"pX c #FFAA05",
"aX c #FFAA06",
"sX c #FFAA07",
"dX c #FFAB09",
"fX c #FFAB0A",
"gX c #FFAC0B",
"hX c #FFAC0D",
"jX c #FFAD0E",
"kX c #FFAD0F",
"lX c #FFAD10",
"zX c #FFAE11",
"xX c #FFAE12",
"cX c #FFAF14",
"vX c #FFAF15",
"bX c #FFB017",
"nX c #FFB018",
"mX c #FFB019",
"MX c #FFB11A",
"NX c #FFB11B",
"BX c None",
/* pixels */
"BXBXBXBXBXBXBXBXBXBXBXBXBXBXBXBXBXBXBXBXBXBXBXBXBXBXBXBXBXBXBXBXBXBXBXBXBXBXBXBXBXBXBXBXBXBXBXBXBXBXBXBXBXBXBXBXBXBXBXBXBXBXBXBX",
"BXBXBXBXBXBXBXBXBXBXBXBXBXBXBXBXBXBXBXBXBXBXBXBXBXBXBXBXBXBXBXBXBXBXBXBXBXBXBXBXBXBXBXBXBXBXBXBXBXBXBXBXBXBXBXBXBXBXBXBXBXBXBXBX",
"BXBXBXBXBXBXBXBXBXBXBXBXBXBXBXBXBXBXBXBXBXBXBXBXBXBXBX@XBXBXBXBXBXBXBXBXBXBXBXBXBXBXBXBXBXBXBXBXBXBXBXBXBXBXBXBXBXBXBXBXBXBXBXBX",
"BXBXBXBXBXBXBXBXBXBXBXBXBXBXBXBXBXBXBXBXBXBXBXBXBXBXBX0X2X2X6X6X6XBXBXBXBXBXBXBXBXBXBXBXBXBXBXBXBXBXBXBXBXBXBXBXBXBXBXBXBXBXBXBX",
"BXBXBXBXBXBXBXBXBXBXBXBXBXBXBXBXBXBXBXBXBXBXBXBXBXBXBXBXBX.X0XrXrXrXBXBXBXBXBXBXBXBXBXBXBXBXBXBXBXBXBXBXBXBXBXBXBXBXBXBXBXBXBXBX",
"BXBXBXBXBXBXBXBXBXBXBXBXBXBXBXBXBXBXBXBXBXBXBXBXBXBXBXBXBXBXBX%XrXiXrXrXBXBXBXBXBXBXBXBXBXBXBXBXBXBXBXBXBXBXBXBXBXBXBXBXBXBXBXBX",
"BXBXBXBXBXBXBXBXBXBXBXBXBXBXBXBXBXBXBXBXBXBXBXBXBXBXBXBXBXBXBXBX6XiXiXrXBXBXBXBXBXBXBXBXBXBXBXBXBXBXBXBXBXBXBXBXBXBXBXBXBXBXBXBX",
"BXBXBXBXBXBXBXBXBXBXBXBXBXBXBXBXBXBXBXBXBXBXBXBXBXBXBXV.Y.Y.Y.L.2X0XrXiXqXBXBXBXBXBXBXBXBXBXBXBXBXBXBXBXBXBXBXBXBXBXBXBXBXBXBXBX",
"BXBXBXBXBXBXBXBXBXBXBXBXBXBXBXBXBXBXBXBXBXBXBXBXBXBXBXH.Y.L.Y.Y.L.Y.0XiXqXBXBXBXBXBXBXBXBXBXBXBXBXBXBXBXBXBXBXBXBXBXBXBXBXBXBXBX",
"BXBXBXBXBXBXBXBXBXBXBXBXBXBXBXBXBXBXBXBXBXBXBXBXBXBXH.Y.J.J.Y.H.Y.L.0XrXiX0XBXBXBXBXBXBXBXBXBXBXBXBXBXBXBXBXBXBXBXBXBXBXBXBXBXBX",
"BXBXBXBXBXBXBXBXBXBXBXBXBXBXBXBXBXBXBXBXBXBXBXBXBXk.H.Y.V.Y.J.J.J.Y.(.6XrXrXQ.BXBXBXBXBXBXBXBXBXBXBXBXBXBXBXBXBXBXBXBXBXBXBXBXBX",
"BXBXBXBXBXBXBXBXBXBXBXBXBXBXBXBXBXBXBXBXBXBXBXBXBXD.H.L.J.D.J.7.x.D.J.r.6XcX6XD.BXBXBXBXBXBXBXBXBXBXBXBXBXBXBXBXBXBXBXBXBXBXBXBX",
"BXBXBXBXBXBXBXBXBXBXBXBXBXBXBXBXBXBXBXBXBXBXBXBXv.V.J.b.3.-.-.` %.;.;.`  XxX%XJ.BXBXBXBXBXBXBXBXBXBXBXBXBXBXBXBXBXBXBXBXBXBXBXBX",
"BXBXBXBXBXBXBXBXBXBXBXBXBXBXBXBXBXBXBXBXBXBXBXB.H.H.2.=.` ....) ....` ..3.rXrX^.D.BXBXBXBXBXBXBXBXBXBXBXBXBXBXBXBXBXBXBXBXBXBXBX",
"BXBXBXBXBXBXBXBXBXBXBXBXBXBXBXBXBXBXBXBXBXJ.J.J.Z.M.r.3.>.` ` ..) [ ..` ..0XhX XY.BXBXBXBXBXBXBXBXBXBXBXBXBXBXBXBXBXBXBXBXBXBXBX",
"BXBXBXBXBXBXBXBXBXBXBXBXBXBXBXBXBXBXBXBXBXY.Y.Y.B.s.:X7X6Xw...W [ ) ` ` ..*XcXqX^.x.BXBXBXBXBXBXBXBXBXBXBXBXBXBXBXBXBXBXBXBXBXBX",
"BXBXBXBXBXBXBXBXBXBXBXBXBXBXBXBXBXBXBXBXBXY.Y.J.k.1XxXxX2X7.~ Z v V ~ [ [ 3.qXiX'.V.D.BXBXBXBXBXBXBXBXBXBXBXBXBXBXBXBXBXBXBXBXBX",
"BXBXBXBXBXBXBXBXBXBXBXBXBXBXBXBXBXBXBXBXBXY.^.'.0XxXrX%X2.J Z V v V V n P ` 0XiXW.J.Y.BXBXBXBXBXBXBXBXBXBXBXBXBXBXBXBXBXBXBXBXBX",
"BXBXBXBXBXBXBXBXBXBXBXBXBXBXBXBXBXBXBXBXJ.L.:XqXxXdX7Xw.J V v v V V B t h T qXrXa.D.Y.BXBXBXBXBXBXBXBXBXBXBXBXBXBXBXBXBXBXBXBXBX",
"BXBXBXBXBXBXBXBXBXBXBXBXBXBXBXBXBXBXBXBXY.Y.6XcXdX7Xe.) F v V V V V j t i T 7XdX6X^.L.d.BXBXBXBXBXBXBXBXBXBXBXBXBXBXBXBXBXBXBXBX",
"BXBXBXBXBXBXBXBXBXBXBXBXBXBXBXBXBXBXBXBXY.Q.dXdX0Xu...[ S V v c v a r r a h :XiXs.J.Y.Y.BXBXBXBXBXBXBXBXBXBXBXBXBXBXBXBXBXBXBXBX",
"BXBXBXBXBXBXBXBXBXBXBXBXBXBXBXBXBXBXBXBXrXbXMXqXw...[ Z V V V V v a p a t r k 1XqX^.Y.V.BXBX.XBXBXBXBXBXBXBXBXBXBXBXBXBXBXBXBXBX",
"BXBXBXBXBXBXBXBXBXBXBXBXBXBXBXBXBXBXBXBXiXMXrXr...` W F n v V V a a r r r r '.qX0Xu.b.L.BXBX:XBXBXBXBXBXBXBXBXBXBXBXBXBXBXBXBXBX",
"BXBXBXBXBXBXBXBXBXBXBXBXBXBXBXBXBXBXBXqXMXqXr...` ) ^ Z V V V v a a r r 5 2 w a ~ B.V.J.BXBX*XrXBXBXBXBXBXBXBXBXBXBXBXBXBXBXBXBX",
"BXBXBXBXBXBXBXBXBXBXBXBXBXBXBXBXBXBX0XrXiX6X5...` ..^ F v V V a a p r 2 2 2 2 8 T k.-.d.BX6XrXiXBXBXBXBXBXBXBXBXBXBXBXBXBXBXBXBX",
"BXBXBXBXBXBXBXBXBXBXBXBXBXBXBXBXBXBXqXiX6X..) ) ` ` W F v V c a a r 0 > > ; ; 7 I ` [ k.BX1XrXiXBXBXBXBXBXBXBXBXBXBXBXBXBXBXBXBX",
"BXBXBXBXBXBXBXBXBXBXBXBXBXBXBXBXBXBXrX6XJ.[ ` ` ..[ Z V V V v a r r 2 2 > $ o c ^ ` ) h.Z.2XiXiXBXBXBXBXBXBXBXBXBXBXBXBXBXBXBXBX",
"BXBXBXBXBXBXBXBXBXBXBXBXBXBXBXBXBX0XrXY.J...` ....) Z V V v h r r 0 5 > %     o F ) $.k.W.1XiXrXBXBXBXBXBXBXBXBXBXBXBXBXBXBXBXBX",
"BXBXBXBXBXBXBXBXBXBXBXBXBXBXBXBXBX6XrXY.J.[ ` ....[ Z V V v h r t 5 > 2 %     $ Z ..k.L.*XrXiX0XBXBXBXBXBXBXBXBXBXBXBXBXBXBXBXBX",
"BXBXBXBXBXBXBXBXBXBXBXBXBXBXBXBXBX6XqXY.H...` ` ` [ Z V V V h a t 2 2 2 $     = J ..B.Y.*XrXiXBXBXBXBXBXBXBXBXBXBXBXBXBXBXBXBXBX",
"BXBXBXBXBXBXBXBXBXBXBXBXBXBXBXBXBX6X0XY.J.[ ....` ) Z V V v f r t 2 2 > %     l ^ %.b.V.(.6XiXBXBXBXBXBXBXBXBXBXBXBXBXBXBXBXBXBX",
"BXBXBXBXBXBXBXBXBXBXBXBXBXBXBXBXBX6XQ.Y.J...` ) ` [ Z F V v f r t 2 > > $   o Z ..` -.k.#XrXiXBXBXBXBXBXBXBXBXBXBXBXBXBXBXBXBXBX",
"BXBXBXBXBXBXBXBXBXBXBXBXBXBXBXBXBX2XY.Y.J...` ....[ Z S V V h p a 2 2 2 $     Z ....) k.1XrXiXBXBXBXBXBXBXBXBXBXBXBXBXBXBXBXBXBX",
"BXBXBXBXBXBXBXBXBXBXBXBXBXBXBXBXBX2XY.Y.J...` ` ..[ Z S v V h r t 2 > 2 $   o Z ..[ $.x.:XiX0XBXBXBXBXBXBXBXBXBXBXBXBXBXBXBXBXBX",
"BXBXBXBXBXBXBXBXBXBXBXBXBXBXBXBXBX6Xd.Y.J...` ....[ Z S v V h a f 2 2 > -     Z ) %.x.P.6XrXBXBXBXBXBXBXBXBXBXBXBXBXBXBXBXBXBXBX",
"BXBXBXBXBXBXBXBXBXBXBXBXBXBXBXBXBX2XBXV.J...` ` ` [ Z Z V v h a t 2 2 2 > % % b ..$.B.*XqXiXBXBXBXBXBXBXBXBXBXBXBXBXBXBXBXBXBXBX",
"BXBXBXBXBXBXBXBXBXBXBXBXBXBXBXBXBX6XBXJ.J...^ ` ..[ Z Z V v h r a r 2 > 2 > > J ` $.B.$XiXiXBXBXBXBXBXBXBXBXBXBXBXBXBXBXBXBXBXBX",
"BXBXBXBXBXBXBXBXBXBXBXBXBXBXBXBXBXBXBXJ.J.` [.w...[ Z S v v h a r r 2 2 2 > 2 L ....M.1XrXrXBXBXBXBXBXBXBXBXBXBXBXBXBXBXBXBXBXBX",
"BXBXBXBXBXBXBXBXBXBXBXBXBXBXBXBXBXBXBXV.V.$.@X7.` ) Z S V V h r t t 2 2 2 > 2 J ..b.J.1XiXBXBXBXBXBXBXBXBXBXBXBXBXBXBXBXBXBXBXBX",
"BXBXBXBXBXBXBXBXBXBXBXBXBXBXBXBXBX%XBXY.J.%.*X6X7.[ Z S V v v a t t t 2 > > 2 P $.x.Y.rXMXBXBXBXBXBXBXBXBXBXBXBXBXBXBXBXBXBXBXBX",
"BXBXBXBXBXBXBXBXBXBXBXBXBXBXBXBXBXBXBXY.Z.Y.2X0X7...^ H V v V a f i t i t e t P %.-XbXbXdXBXBXBXBXBXBXBXBXBXBXBXBXBXBXBXBXBXBXBX",
"BXBXBXBXBXBXBXBXBXBXBXBXBXBXBXBXBXBXBXD.L.J.w.qXqX7.[ Z V V V h w i f t i i I ..=.2XbXMXBXBXBXBXBXBXBXBXBXBXBXBXBXBXBXBXBXBXBXBX",
"BXBXBXBXBXBXBXBXBXBXBXBXBXBXBXBXBXBXBXBXL.J.5.iXhXw.W Z V v V V i i t t t i T ` 3.iXMXrXBXBXBXBXBXBXBXBXBXBXBXBXBXBXBXBXBXBXBXBX",
"BXBXBXBXBXBXBXBXBXBXBXBXBXBXBXBXBXBXBXBXY.Y.7.:XdXw...) Z V v v j i t t i t P #.:XcXdXBXBXBXBXBXBXBXBXBXBXBXBXBXBXBXBXBXBXBXBXBX",
"BXBXBXBXBXBXBXBXBXBXBXBXBXBXBXBXBXBXBXBXY.J.w.*XhXa...` ) Z V v n f i t f f T 1XMXdXrXBXBXBXBXBXBXBXBXBXBXBXBXBXBXBXBXBXBXBXBXBX",
"BXBXBXBXBXBXBXBXBXBXBXBXBXBXBXBXBXBXBXBXD.Y.Z.W.hXhX7.` ) J Z v V f f t a I 7.qXMXqX^.BXBXBXBXBXBXBXBXBXBXBXBXBXBXBXBXBXBXBXBXBX",
"BXBXBXBXBXBXBXBXBXBXBXBXBXBXBXBXBXBXBXBXBXQ.L.Q.xXhXq...` ) V v c c z f f [ :XxXrX XY.BXBXBXBXBXBXBXBXBXBXBXBXBXBXBXBXBXBXBXBXBX",
"BXBXBXBXBXBXBXBXBXBXBXBXBXBXBXBXBXBXBXBXBXH.Y.^.hXrX7.) $.) Z V V n c c I {.xX@X'.Y.J.BXBXBXBXBXBXBXBXBXBXBXBXBXBXBXBXBXBXBXBXBX",
"BXBXBXBXBXBXBXBXBXBXBXBXBXBXBXBXBXBXBXBXBXBXD.Q.hXdXq.) ` ..[ Z v v Z ^ -.0XxX{.Y.Y.BXBXBXBXBXBXBXBXBXBXBXBXBXBXBXBXBXBXBXBXBXBX",
"BXBXBXBXBXBXBXBXBXBXBXBXBXBXBXBXBXBXBXBXBXBXB.E.rXhXa...) ) ) J Z Z ~ ) @XxX.XY.H.J.BXBXBXBXBXBXBXBXBXBXBXBXBXBXBXBXBXBXBXBXBXBX",
"BXBXBXBXBXBXBXBXBXBXBXBXBXBXBXBXBXBXBXBXBXBXBXQ.2XxX:Xu.%.) ` [ ) _ ` `  X XY.Y.B.M.BXBXBXBXBXBXBXBXBXBXBXBXBXBXBXBXBXBXBXBXBXBX",
"BXBXBXBXBXBXBXBXBXBXBXBXBXBXBXBXBXBXBXBXBXBXBXD.(.iXxX*X;.` ..` ) ..` $.4.x.Y.B.BXBXBXBXBXBXBXBXBXBXBXBXBXBXBXBXBXBXBXBXBXBXBXBX",
"BXBXBXBXBXBXBXBXBXBXBXBXBXBXBXBXBXBXBXBXBXBXBXBXD.{.hX0Xr.;.` ` ..#.#.V.D.J.Y.B.BXBXBXBXBXBXBXBXBXBXBXBXBXBXBXBXBXBXBXBXBXBXBXBX",
"BXBXBXBXBXBXBXBXBXBXBXBXBXBXBXBXBXBXBXBXBXBXBXBXH.^.iXhX'.H.3.-.$.B.J.Y.Y.Y.V.k.BXBXBXBXBXBXBXBXBXBXBXBXBXBXBXBXBXBXBXBXBXBXBXBX",
"BXBXBXBXBXBXBXBXBXBXBXBXBXBXBXBXBXBXBXBXBXBXBXBX*X(.'.hXiX~.H.H.H.H.H.Y.Y.Y.L.BXBXBXBXBXBXBXBXBXBXBXBXBXBXBXBXBXBXBXBXBXBXBXBXBX",
"BXBXBXBXBXBXBXBXBXBXBXBXBXBXBXBXBXBXBXBXBXBXBXBXBXBXW.qXiXrX(.Y.Y.Y.L.Y.Y.BXBXBXBXBXBXBXBXBXBXBXBXBXBXBXBXBXBXBXBXBXBXBXBXBXBXBX",
"BXBXBXBXBXBXBXBXBXBXBXBXBXBXBXBXBXBXBXBXBXBXBXBXBXBXBX(.0XiXrX(.Y.Y.L.Y.BXBXBXBXBXBXBXBXBXBXBXBXBXBXBXBXBXBXBXBXBXBXBXBXBXBXBXBX",
"BXBXBXBXBXBXBXBXBXBXBXBXBXBXBXBXBXBXBXBXBXBXBXBXBXBXBX0XiXrXiX^.Y.H.Y.BX|.BXBXBXBXrXBXBXBXBXBXBXBXBXBXBXBXBXBXBXBXBXBXBXBXBXBXBX",
"BXBXBXBXBXBXBXBXBXBXBXBXBXBXBXBXBXBXBXBXBXBXBXBXBXBXBXBX2XrXiXrXQ.BXBXBX6XBXBXBXBXBXBXBXBXBXBXBXBXBXBXBXBXBXBXBXBXBXBXBXBXBXBXBX",
"BXBXBXBXBXBXBXBXBXBXBXBXBXBXBXBXBXBXBXBXBXBXBXBXBXBXBXBXBX|.rXiXrXBX-X0XrX2XBXBXBXBXBXBXBXBXBXBXBXBXBXBXBXBXBXBXBXBXBXBXBXBXBXBX",
"BXBXBXBXBXBXBXBXBXBXBXBXBXBXBXBXBXBXBXBXBXBXBXBXBXBXBXBXBXBX@X6XrXrXiX6X:XBXBXBXBXBXBXBXBXBXBXBXBXBXBXBXBXBXBXBXBXBXBXBXBXBXBXBX",
"BXBXBXBXBXBXBXBXBXBXBXBXBXBXBXBXBXBXBXBXBXBXBXBXBXBXBXBXBXBXBXBX*XrX:XBXBXBXBXBXBXBXBXBXBXBXBXBXBXBXBXBXBXBXBXBXBXBXBXBXBXBXBXBX",
"BXBXBXBXBXBXBXBXBXBXBXBXBXBXBXBXBXBXBXBXBXBXBXBXBXBXBXBXBXBXBXBXBX^.BXBXBXBXBXBXBXBXBXBXBXBXBXBXBXBXBXBXBXBXBXBXBXBXBXBXBXBXBXBX",
"BXBXBXBXBXBXBXBXBXBXBXBXBXBXBXBXBXBXBXBXBXBXBXBXBXBXBXBXBXBXBXBXBXBXBXBXBXBXBXBXBXBXBXBXBXBXBXBXBXBXBXBXBXBXBXBXBXBXBXBXBXBXBXBX"
};
