/* XPM */
static char *cG9ydGFsLTY_[] = {
/* columns rows colors chars-per-pixel */
"64 64 121 2 ",
"   c #291D00",
".  c #2E2000",
"X  c #312200",
"o  c #3F2B00",
"O  c #432D00",
"+  c #463000",
"@  c #493100",
"#  c #5E3D00",
"$  c #613E00",
"%  c #644100",
"&  c #684500",
"*  c #754E00",
"=  c #784F00",
"-  c #7B5200",
";  c #825400",
":  c #855800",
">  c #8B5C00",
",  c #935E00",
"<  c #946100",
"1  c #9B6400",
"2  c #9F6900",
"3  c #A16700",
"4  c #A46B00",
"5  c #A96D00",
"6  c #AC7100",
"7  c #B47500",
"8  c #B97500",
"9  c #B67800",
"0  c #BD7C00",
"q  c #C17E00",
"w  c #C87F00",
"e  c #C58200",
"r  c #CA8500",
"t  c #CF8900",
"y  c #D28600",
"u  c #D18A00",
"i  c #D28B00",
"p  c #D38B00",
"a  c #D08900",
"s  c #D48C00",
"d  c #D58D00",
"f  c #D68D00",
"g  c #D78E00",
"h  c #D38C00",
"j  c #D88900",
"k  c #D88F00",
"l  c #D98F00",
"z  c #DA9000",
"x  c #DB9000",
"c  c #DC9100",
"v  c #DD9200",
"b  c #DE9200",
"n  c #DF9300",
"m  c #DA9000",
"M  c #E09400",
"N  c #E19400",
"B  c #E29500",
"V  c #E49600",
"C  c #E59700",
"Z  c #E49600",
"A  c #ED9700",
"S  c #E69800",
"D  c #E89900",
"F  c #E99A00",
"G  c #EA9A00",
"H  c #EB9B00",
"J  c #EC9C00",
"K  c #ED9C00",
"L  c #EE9D00",
"P  c #EF9E00",
"I  c #EB9B00",
"U  c #F09E00",
"Y  c #F19F00",
"T  c #F29F00",
"R  c #F3A000",
"E  c #F4A100",
"W  c #F5A100",
"Q  c #F6A200",
"!  c #F7A300",
"~  c #F6A200",
"^  c #F8A300",
"/  c #F9A400",
"(  c #FAA500",
")  c #FBA500",
"_  c #FCA600",
"`  c #FDA700",
"'  c #FEA700",
"]  c #FBA500",
"[  c #FFA800",
"{  c #FFA801",
"}  c #FFA902",
"|  c #FFA903",
" . c #FFAA05",
".. c #FFAA06",
"X. c #FFAA07",
"o. c #FFA903",
"O. c #FFAB08",
"+. c #FFAB09",
"@. c #FFAB0A",
"#. c #FFAC0B",
"$. c #FFAC0C",
"%. c #FFAC0D",
"&. c #FFAD0E",
"*. c #FFAD0F",
"=. c #FFAB09",
"-. c #FFAD10",
";. c #FFAE11",
":. c #FFAE12",
">. c #FFAE13",
",. c #FFAF14",
"<. c #FFAF15",
"1. c #FFAF16",
"2. c #FFB017",
"3. c #FFB017",
"4. c #FFB018",
"5. c #FFB019",
"6. c #FFB11A",
"7. c #FFB11C",
"8. c #FFB018",
"9. c None",
"0. c black",
/* pixels */
"9.9.9.9.9.9.9.9.9.9.9.9.9.9.9.9.9.9.9.9.9.9.9.9.9.9.9.9.9.9.9.9.9.9.9.9.9.9.9.9.9.9.9.9.9.9.9.9.9.9.9.9.9.9.9.9.9.9.9.9.9.9.9.9.",
"9.9.9.9.9.9.9.9.9.9.9.9.9.9.9.9.9.9.9.9.9.9.9.9.9.9.9.9.9.9.9.9.9.9.9.9.9.9.9.9.9.9.9.9.9.9.9.9.9.9.9.9.9.9.9.9.9.9.9.9.9.9.9.9.",
"9.9.9.9.9.9.9.9.9.9.9.9.9.9.9.9.9.9.9.9.9.9.9.9.9.9.9.9.9.9.9.9.9.9.9.9.9.9.9.9.9.9.9.9.9.9.9.9.9.9.9.9.9.9.9.9.9.9.9.9.9.9.9.9.",
"9.9.9.9.9.9.9.9.9.9.9.9.9.9.9.9.9.9.9.9.9.9.9.9.9.9.9.9.9.9.9.9.9.9.9.9.9.9.9.9.9.9.9.9.9.9.9.9.9.9.9.9.9.9.9.9.9.9.9.9.9.9.9.9.",
"9.9.9.9.9.9.9.9.9.9.9.9.9.9.9.9.9.9.9.9.9.9.9.9.9.9.9.9.9.9.9.9.9.9.9.9.9.9.9.9.9.9.9.9.9.9.9.9.9.9.9.9.9.9.9.9.9.9.9.9.9.9.9.9.",
"9.9.9.9.9.9.9.9.9.9.9.9.9.9.9.9.9.9.9.9.9.9.9.9.9.9.9.9.9.9.9.9.9.9.9.9.9.9.9.d 9.9.9.9.9.9.9.9.9.9.9.9.9.9.9.9.9.9.9.9.9.9.9.9.",
"9.9.9.9.9.9.9.9.9.9.9.9.9.9.9.9.9.9.9.9.9.9.9.9.9.9.9.9.9.5 9 9 0 9 9 9.9.9.9.F 9.9.9.9.9.9.9.9.9.9.9.9.9.9.9.9.9.9.9.9.9.9.9.9.",
"9.9.9.9.9.9.9.9.9.9.9.9.9.9.9.9.9.9.9.9.9.9.9.9.9.k 9.0 0 r r r r r r 0 9.9.9.9.9.9.9.9.9.9.9.9.9.9.9.9.9.9.9.9.9.9.9.9.9.9.9.9.",
"9.9.9.9.9.9.9.9.9.9.9.9.9.9.9.9.9.9.9.9.9.9.9.9.J ' ( W d r r r r r r r e 0 9.9.9.9.9.9.9.9.9.9.9.9.9.9.9.9.9.9.9.9.9.9.9.9.9.9.",
"9.9.9.9.9.9.9.9.9.9.9.9.9.9.9.9.9.9.9.9.9.9.9.W [ 2.6.2.@.[ ' t r r r r r e 9.9.! 9.9.9.9.9.9.9.9.9.9.9.9.9.9.9.9.9.9.9.9.9.9.9.",
"9.9.9.9.9.9.9.9.9.9.9.9.9.9.9.9.9.9.9.9.9.9.W ( m R X.1.6.6.@.i 2 < e r r r e 9.S 9.9.9.9.9.9.9.9.9.9.9.9.9.9.9.9.9.9.9.9.9.9.9.",
"9.9.9.9.9.9.9.9.9.9.9.9.9.9.9.9.9.9.9.9.9.W J a r t W ( ( :.7.X.5 < < q r r r 0 9.W 9.9.9.9.9.9.9.9.9.9.9.9.9.9.9.9.9.9.9.9.9.9.",
"9.9.9.9.9.9.9.9.9.9.9.9.9.9.9.9.9.9.9.9.' M 9.r r w 0 1 < b @.6.#.2 < < 9 r r 0 9.[ X.9.9.9.9.9.9.9.9.9.9.9.9.9.9.9.9.9.9.9.9.9.",
"9.9.9.9.9.9.9.9.9.9.9.9.9.9.9.9.9.9.9.^ K 9.e r r e 4 < , 5 6 @.1.4 , , 2 0 r e 9.' [ 9.9.9.9.9.9.9.9.9.9.9.9.9.9.9.9.9.9.9.9.9.",
"9.9.9.9.9.9.9.9.9.9.9.9.9.9.9.9.9.9.9.J 9.9.e r e 4 < < , < , F &.K 1 , < 9 w r r R [ 9.9.9.9.9.9.9.9.9.9.9.9.9.9.9.9.9.9.9.9.9.",
"9.9.9.9.9.9.9.9.9.9.9.9.9.9.9.9.9.9.m 9.9.9.r r q 2 , , < < , , , S ; - > 2 q r r d U 9.9.9.9.9.9.9.9.9.9.9.9.9.9.9.9.9.9.9.9.9.",
"9.9.9.9.9.9.9.9.9.9.9.9.9.9.9.9.9.9.9.9.9.9.e r 4 < , < < , ; = - : = = : , 0 r t J ( ^ 9.9.9.9.9.9.9.9.9.9.9.9.9.9.9.9.9.9.9.9.",
"9.9.9.9.9.9.9.9.9.9.9.9.9.9.9.9.9.9.9.9.9.9.e q 2 < < < < ; = = = * % % & : < 9 e d U [ 9.9.9.9.9.9.9.9.9.9.9.9.9.9.9.9.9.9.9.9.",
"9.9.9.9.9.9.9.9.9.9.9.9.9.9.9.9.9.9.9.9.9.e r 4 , , < < < - = = % % # $ $ $ : 2 0 t J [ 9.9.9.9.9.9.9.9.9.9.9.9.9.9.9.9.9.9.9.9.",
"9.9.9.9.9.9.9.9.9.9.9.9.9.9.9.9.9.9.9.9.0 r 0 1 < < < , < ; = = # # # # # $ ; < 0 t J [ 9.9.9.9.9.9.9.9.9.9.9.9.9.9.9.9.9.9.9.9.",
"9.9.9.9.9.9.9.9.9.9.9.9.9.9.9.9.9.9.9.9.r e 3 , < < < , - - = % # # % # # # $ > 9 t F [ 9.9.9.9.9.9.9.9.9.9.9.9.9.9.9.9.9.9.9.9.",
"9.9.9.9.9.9.9.9.9.9.9.9.9.9.9.M 9.9.9.9.r r 3 , , , , , ; - = % # # # # # # $ : 2 e J [ 9.9.9.9.9.9.9.9.9.9.9.9.9.9.9.9.9.9.9.9.",
"9.9.9.9.9.9.9.9.9.9.9.9.9.9.9.F 9.9.9.9.r r 2 , < , , - - = = $ # # # # $ # $ : , e J [ 9.9.9.9.9.9.9.9.9.9.9.9.9.9.9.9.9.9.9.9.",
"9.9.9.9.9.9.9.9.9.9.9.9.9.9.9.J 9.9.9.9.e 5 < , , , > - = - = $ # # # @ + O @ : , 3 b [ 9.9.9.9.9.9.9.9.9.9.9.9.9.9.9.9.9.9.9.9.",
"9.9.9.9.9.9.9.9.9.9.9.9.9.9.9.9.9.9.9.9 w 2 1 b 5 , > - - - = $ # $ # O O O + ; , , l ' 9.9.9.9.9.9.9.9.9.9.9.9.9.9.9.9.9.9.9.9.",
"9.9.9.9.9.9.9.9.9.9.9.9.9.9.9.9.9.9.9.e e 4 1 W 6 , , - - * % # # # O O O O O @ : 1 b ' a 9.9.9.9.9.9.9.9.9.9.9.9.9.9.9.9.9.9.9.",
"9.9.9.9.9.9.9.9.9.9.9.9.9.9.9.9.9.9.9.e , 1 ( &.6 , - - - - % # # # O O O O X X ; 1 k :.M 9.9.9.9.9.9.9.9.9.9.9.9.9.9.9.9.9.9.9.",
"9.9.9.9.9.9.9.9.9.9.9.9.9.9.9.9.9.9.9.e e 4 ^ 6 < < - - * * % # # # O O O X   . ; < b :.M 9.9.9.9.9.9.9.9.9.9.9.9.9.9.9.9.9.9.9.",
"9.9.9.9.9.9.9.9.9.9.9.9.9.9.9.9.9.9.9.e t W &.6 < > - - - - % # $ O O O O X   X : U :.%.m 9.9.9.9.9.9.9.9.9.9.9.9.9.9.9.9.9.9.9.",
"9.9.9.9.9.9.9.9.9.9.9.9.9.9.9.9.9.9.r r a @.:.6 < < : - - - % # # O o O       . : J &.@.m 9.9.9.9.9.9.9.9.9.9.9.9.9.9.9.9.9.9.9.",
"9.9.9.9.9.9.9.9.9.9.9.9.9.9.9.9.9.9.r r a @.[ 6 < > - - - * & # # O O O .     . : J &.@.j 9.9.9.9.9.9.9.9.9.9.9.9.9.9.9.9.9.9.9.",
"9.9.9.9.9.9.9.9.9.9.9.9.9.9.9.9.9.9.e r ^ &.0 1 < < - - - * % # # + O O X     . : J :.#.k 9.9.9.9.9.9.9.9.9.9.9.9.9.9.9.9.9.9.9.",
"9.9.9.9.9.9.9.9.9.9.9.9.9.9.9.9.9.9.9.r O.;.7 < < < - - - - % # # + O O .     . : ' 5.@.d 9.9.9.9.9.9.9.9.9.9.9.9.9.9.9.9.9.9.9.",
"9.9.9.9.9.9.9.9.9.9.9.9.9.9.9.9.9.9.9.r 2.3.6 < , < - - * * % # % O O O .     . : [ 5.F t 9.9.9.9.9.9.9.9.9.9.9.9.9.9.9.9.9.9.9.",
"9.9.9.9.9.9.9.9.9.9.9.9.9.9.9.9.9.9.9.r 6.:.6 < < < - - - - % # # O O O O X   . > [ &.b r 9.9.9.9.9.9.9.9.9.9.9.9.9.9.9.9.9.9.9.",
"9.9.9.9.9.9.9.9.9.9.9.9.9.9.9.9.9.9.r r 6.X.6 < < , - - = = & # # + O O O X   X k :.' d r 9.9.9.9.9.9.9.9.9.9.9.9.9.9.9.9.9.9.9.",
"9.9.9.9.9.9.9.9.9.9.9.9.9.9.9.9.9.9.J r 6.[ 5 < < > - - * - % # # O O O O o o # U :.a 0 r 9.9.9.9.9.9.9.9.9.9.9.9.9.9.9.9.9.9.9.",
"9.9.9.9.9.9.9.9.9.9.9.9.9.9.9.9.9.9.9.j 6.X.5 < < , - - - - % # $ # O o O O @ 0 ' W d r r 9.9.9.9.9.9.9.9.9.9.9.9.9.9.9.9.9.9.9.",
"9.9.9.9.9.9.9.9.9.9.9.9.9.9.9.9.9.9.9.W 6.[ 5 < , , - - * - % # # # O o O O O & 4 6 0 r r 9.9.9.9.9.9.9.9.9.9.9.9.9.9.9.9.9.9.9.",
"9.9.9.9.9.9.9.9.9.9.9.9.9.9.9.9.9.9.9.[ 6.[ 6 , , < ; - - * % # # # # # @ O O O : < 8 r r 9.9.9.9.9.9.9.9.9.9.9.9.9.9.9.9.9.9.9.",
"9.9.9.9.9.9.9.9.9.9.9.9.9.9.9.9.9.9.9.[ @.[ 4 < < < - - - * % # # # # # # # # # : 8 r r 1 9.9.9.9.9.9.9.9.9.9.9.9.9.9.9.9.9.9.9.",
"9.9.9.9.9.9.9.9.9.9.9.9.9.9.9.9.9.9.9.[ [ ' 5 < , , - - - - = % # # # $ # # # # : q r r 9.9.9.9.9.9.9.9.9.9.9.9.9.9.9.9.9.9.9.9.",
"9.9.9.9.9.9.9.9.9.9.9.9.9.9.9.9.9.9.9.[ ' ) 5 , < < - = * * - % # # # # # # % : , q r r 9.9.9.9.9.9.9.9.9.9.9.9.9.9.9.9.9.9.9.9.",
"9.9.9.9.9.9.9.9.9.9.9.9.9.9.9.9.9.9.9.[ ' ' 5 , , < , - - - * % # # # % # # $ : < 0 r 9.9.9.9.9.9.9.9.9.9.9.9.9.9.9.9.9.9.9.9.9.",
"9.9.9.9.9.9.9.9.9.9.9.9.9.9.9.9.9.9.9.[ X.' r 2 < < , = = - - * % # # # # % : < 0 t r 9.9.F 9.9.9.9.9.9.9.9.9.9.9.9.9.9.9.9.9.9.",
"9.9.9.9.9.9.9.9.9.9.9.9.9.9.9.9.9.9.9.( [ ' y 2 < < < , - * - - % % # # # : < < 0 r r 9.C X.9.9.9.9.9.9.9.9.9.9.9.9.9.9.9.9.9.9.",
"9.9.9.9.9.9.9.9.9.9.9.9.9.9.9.9.9.9.9.9.[ ' a q 2 < , , , - - * - * % # # : < 1 0 e 9.M [ ( 9.9.9.9.9.9.9.9.9.9.9.9.9.9.9.9.9.9.",
"9.9.9.9.9.9.9.9.9.9.9.9.9.9.9.9.9.9.9.9.[ ( y w 4 < < , , ; * - * * * # - < , 9 r t M ^ [ a 9.9.9.9.9.9.9.9.9.9.9.9.9.9.9.9.9.9.",
"9.9.9.9.9.9.9.9.9.9.9.9.9.9.9.9.9.9.9.9.[ [ i r 0 , , < < > - - - - - : < , < 0 r J ' X.[ 9.9.9.9.9.9.9.9.9.9.9.9.9.9.9.9.9.9.9.",
"9.9.9.9.9.9.9.9.9.9.9.9.9.9.9.9.9.9.9.9.[ [ i r q 2 , , 1 2 : - - - > < , , 9 r r W [ ! U 9.9.9.9.9.9.9.9.9.9.9.9.9.9.9.9.9.9.9.",
"9.9.9.9.9.9.9.9.9.9.9.9.9.9.9.9.9.9.9.9.X.[ d r r 0 1 3 M [ 6 , < < < 1 < 8 r y U ' [ m 9.9.9.9.9.9.9.9.9.9.9.9.9.9.9.9.9.9.9.9.",
"9.9.9.9.9.9.9.9.9.9.9.9.9.9.9.9.9.9.9.9.[ [ W i r e 4 4 n :.@.6 M 5 < 0 q r J W ' ' [ 9.9.9.9.9.9.9.9.9.9.9.9.9.9.9.9.9.9.9.9.9.",
"9.9.9.9.9.9.9.9.9.9.9.9.9.9.9.9.9.9.9.9.! [ W r r r 0 4 5 F 1.X.X.W 6 J b J X.:.X.[ ( 9.9.9.9.9.9.9.9.9.9.9.9.9.9.9.9.9.9.9.9.9.",
"9.9.9.9.9.9.9.9.9.9.9.9.9.9.9.9.9.9.9.9.9.J 9.9.0 r w e e t X.X.:.2.O.2.:.1.1.1.[ U 9.9.9.9.9.9.9.9.9.9.9.9.9.9.9.9.9.9.9.9.9.9.",
"9.9.9.9.9.9.9.9.9.9.9.9.9.9.9.9.9.9.9.9.9.W ( 9.0 r r r r r a a ( X.2.2.2.6.#.X.( 9.9.9.9.9.9.9.9.9.9.9.9.9.9.9.9.9.9.9.9.9.9.9.",
"9.9.9.9.9.9.9.9.9.9.9.9.9.9.9.9.9.9.9.9.9.( [ 9.9.9.r r e r r t d ' X.#.X.#.[ W 9.9.9.9.9.9.9.9.9.9.9.9.9.9.9.9.9.9.9.9.9.9.9.9.",
"9.9.9.9.9.9.9.9.9.9.9.9.9.9.9.9.9.9.9.9.9.9.( M 9.9.9.e r r r r r i ( ' q J 9.9.9.9.9.9.9.9.9.9.9.9.9.9.9.9.9.9.9.9.9.9.9.9.9.9.",
"9.9.9.9.9.9.9.9.9.9.9.9.9.9.9.9.9.9.9.9.9.9.[ ' 9.9.9.r r r r r r t d 9.9.9.9.9.9.9.9.9.9.9.9.9.9.9.9.9.9.9.9.9.9.9.9.9.9.9.9.9.",
"9.9.9.9.9.9.9.9.9.9.9.9.9.9.9.9.9.9.9.9.9.9.9.9.m 9.9.9.9.9.9.e 9.9.9.9.9.9.9.9.9.9.9.9.9.9.9.9.9.9.9.9.9.9.9.9.9.9.9.9.9.9.9.9.",
"9.9.9.9.9.9.9.9.9.9.9.9.9.9.9.9.9.9.9.9.9.9.9.9.F 9.9.9.9.9.9.9.9.9.9.9.9.9.9.9.9.9.9.9.9.9.9.9.9.9.9.9.9.9.9.9.9.9.9.9.9.9.9.9.",
"9.9.9.9.9.9.9.9.9.9.9.9.9.9.9.9.9.9.9.9.9.9.9.9.9.9.9.9.9.9.9.9.9.9.9.9.9.9.9.9.9.9.9.9.9.9.9.9.9.9.9.9.9.9.9.9.9.9.9.9.9.9.9.9.",
"9.9.9.9.9.9.9.9.9.9.9.9.9.9.9.9.9.9.9.9.9.9.9.9.9.9.9.9.9.9.9.9.9.9.9.9.9.9.9.9.9.9.9.9.9.9.9.9.9.9.9.9.9.9.9.9.9.9.9.9.9.9.9.9.",
"9.9.9.9.9.9.9.9.9.9.9.9.9.9.9.9.9.9.9.9.9.9.9.9.9.9.9.9.9.9.9.9.9.9.9.9.9.9.9.9.9.9.9.9.9.9.9.9.9.9.9.9.9.9.9.9.9.9.9.9.9.9.9.9.",
"9.9.9.9.9.9.9.9.9.9.9.9.9.9.9.9.9.9.9.9.9.9.9.9.9.9.9.9.9.9.9.9.9.9.9.9.9.9.9.9.9.9.9.9.9.9.9.9.9.9.9.9.9.9.9.9.9.9.9.9.9.9.9.9."
};
