/* XPM */
static char *cG9ydGFsLTA_[] = {
/* columns rows colors chars-per-pixel */
"64 64 120 2 ",
"   c #271A00",
".  c #2A1D00",
"X  c #2F2000",
"o  c #322200",
"O  c #432E00",
"+  c #453000",
"@  c #483000",
"#  c #5E3C00",
"$  c #613E00",
"%  c #644200",
"&  c #694300",
"*  c #744C00",
"=  c #784F00",
"-  c #775100",
";  c #7B5100",
":  c #825400",
">  c #895700",
",  c #875900",
"<  c #8D5B00",
"1  c #945E00",
"2  c #946100",
"3  c #9B6400",
"4  c #9F6900",
"5  c #A26700",
"6  c #A46A00",
"7  c #AA6E00",
"8  c #AD7200",
"9  c #B47300",
"0  c #B97600",
"q  c #B67800",
"w  c #BE7C00",
"e  c #C37E00",
"r  c #C87F00",
"t  c #C58200",
"y  c #CA8500",
"u  c #CE8800",
"i  c #D48700",
"p  c #D18A00",
"a  c #D48C00",
"s  c #D58D00",
"d  c #D78E00",
"f  c #D28B00",
"g  c #D88900",
"h  c #D88F00",
"j  c #D98F00",
"k  c #DF8E00",
"l  c #D98F00",
"z  c #DA9000",
"x  c #DB9000",
"c  c #DC9100",
"v  c #DE9200",
"b  c #DE9200",
"n  c #E09400",
"m  c #E39600",
"M  c #E49600",
"N  c #E59700",
"B  c #EB9500",
"V  c #E69800",
"C  c #E79800",
"Z  c #E89900",
"A  c #E99A00",
"S  c #EA9A00",
"D  c #EF9800",
"F  c #EC9C00",
"G  c #ED9C00",
"H  c #EE9D00",
"J  c #EF9E00",
"K  c #EA9A00",
"L  c #F09E00",
"P  c #F19F00",
"I  c #F29F00",
"U  c #F19F00",
"Y  c #F3A000",
"T  c #F4A100",
"R  c #F5A100",
"E  c #F6A200",
"W  c #F7A300",
"Q  c #F5A100",
"!  c #F8A300",
"~  c #F9A400",
"^  c #FAA500",
"/  c #FBA500",
"(  c #FCA600",
")  c #FDA700",
"_  c #FEA700",
"`  c #FBA500",
"'  c #FFA800",
"]  c #FFA801",
"[  c #FFA902",
"{  c #FFA903",
"}  c #FFA904",
"|  c #FFAA05",
" . c #FFAA07",
".. c #FFA902",
"X. c #FFA60C",
"o. c #FFAB08",
"O. c #FFAB09",
"+. c #FFAB0A",
"@. c #FFAC0B",
"#. c #FFAC0D",
"$. c #FFAD0E",
"%. c #FFAD0F",
"&. c #FFAC0C",
"*. c #FFAE11",
"=. c #FFAE12",
"-. c #FFAE13",
";. c #FFAF14",
":. c #FFAF15",
">. c #FFAF16",
",. c #FFAE12",
"<. c #FFB017",
"1. c #FFB017",
"2. c #FFB018",
"3. c #FFB019",
"4. c #FFB11B",
"5. c #FFB11C",
"6. c #FFB21E",
"7. c #FFB21D",
"8. c None",
"9. c black",
/* pixels */
"8.8.8.8.8.8.8.8.8.8.8.8.8.8.8.8.8.8.8.8.8.8.8.8.8.8.8.8.8.8.8.8.8.8.8.8.8.8.8.8.8.8.8.8.8.8.8.8.8.8.8.8.8.8.8.8.8.8.8.8.8.8.8.8.",
"8.8.8.8.8.8.8.8.8.8.8.8.8.8.8.8.8.8.8.8.8.8.8.8.8.8.8.8.8.8.8.8.8.8.8.8.8.8.8.8.8.8.8.8.8.8.8.8.8.8.8.8.8.8.8.8.8.8.8.8.8.8.8.8.",
"8.8.8.8.8.8.8.8.8.8.8.8.8.8.8.8.8.8.8.8.8.8.8.8.8.8.8.8.8.8.8.8.8.8.8.8.8.8.8.8.8.8.8.8.8.8.8.8.8.8.8.8.8.8.8.8.8.8.8.8.8.8.8.8.",
"8.8.8.8.8.8.8.8.8.8.8.8.8.8.8.8.8.8.8.8.8.8.8.8.8.8.8.8.8.8.8.8.8.8.8.8.8.8.8.8.8.8.8.8.8.8.8.8.8.8.8.8.8.8.8.8.8.8.8.8.8.8.8.8.",
"8.8.8.8.8.8.8.8.8.8.8.8.8.8.8.8.8.8.8.8.8.8.8.8.8.J ^ ^ ^ ^ ^ ] 8.8.8.8.8.8.8.8.8.8.8.8.8.8.8.8.8.8.8.8.8.8.8.8.8.8.8.8.8.8.8.8.",
"8.8.8.8.8.8.8.8.8.8.8.8.8.8.8.8.8.8.8.8.8.8.8.8.J ] ] ] ] | ] ] ] 8.8.8.8.8.8.8.8.8.8.8.8.8.8.8.8.8.8.8.8.8.8.8.8.8.8.8.8.8.8.8.",
"8.8.8.8.8.8.8.8.8.8.8.8.8.8.8.8.8.8.8.8.8.8.8.8.N J J P ^ ( | ] | ] u 8.8.8.8.8.8.8.8.8.8.8.8.8.8.8.8.8.8.8.8.8.8.8.8.8.8.8.8.8.",
"8.8.8.8.8.8.8.8.8.8.8.8.8.8.8.8.8.8.8.8.8.8.8.8.8.8.8.8.e P ( ( ] ] | u 8.8.8.8.8.8.8.8.8.8.8.8.8.8.8.8.8.8.8.8.8.8.8.8.8.8.8.8.",
"8.8.8.8.8.8.8.8.8.8.8.8.8.8.8.8.8.8.8.8.8.8.8.8.8.8.8.t y y y P ] | ] y y 8.8.8.8.8.8.8.8.8.8.8.8.8.8.8.8.8.8.8.8.8.8.8.8.8.8.8.",
"8.8.8.8.8.8.8.8.8.8.8.8.8.8.8.8.8.8.8.8.8.8.8.8.8.t y y y y y e T 3.5.s y y 8.8.8.8.8.8.8.8.8.8.8.8.8.8.8.8.8.8.8.8.8.8.8.8.8.8.",
"8.8.8.8.8.8.8.8.8.8.8.8.8.8.8.8.8.8.8.8.8.8.8.8.q e r y y y y t 6 W 3.] j y w q 8.8.8.8.8.8.8.8.8.8.8.8.8.8.8.8.8.8.8.8.8.8.8.8.",
"8.8.8.8.8.8.8.8.8.8.8.8.8.8.8.8.8.8.8.8.8.8.8.t y y y e t t t 6 1 5 =.<.( i y e 8.8.8.8.8.8.8.8.8.8.8.8.8.8.8.8.8.8.8.8.8.8.8.8.",
"8.8.8.8.8.8.8.8.8.8.8.8.8.8.8.8.8.8.8.8.8.8.8.y y y r w 6 3 3 3 2 1 P :.3.k y y t 8.8.8.8.8.8.8.8.8.8.8.8.8.8.8.8.8.8.8.8.8.8.8.",
"8.8.8.8.8.8.8.8.8.8.8.8.8.8.8.8.8.8.8.8.8.8.8.y y y w 6 3 2 2 2 1 1 6 P :.] y y y 8.8.8.8.8.8.8.8.8.8.8.8.8.8.8.8.8.8.8.8.8.8.8.",
"8.8.8.8.8.8.8.8.8.8.8.8.8.8.8.8.8.8.8.8.8.8.t y y w 4 2 2 2 2 2 2 2 1 5 ! O.9 w y t 8.8.8.8.8.8.8.8.8.8.8.8.8.8.8.8.8.8.8.8.8.8.",
"8.8.8.8.8.8.8.8.8.8.8.8.8.8.8.8.8.8.8.8.8.8.y y w 6 2 2 2 1 2 1 2 ; < < P <.e t y t 8.8.8.8.8.8.8.8.8.8.8.8.8.8.8.8.8.8.8.8.8.8.",
"8.8.8.8.8.8.8.8.8.8.8.8.8.8.8.8.8.8.x 8.8.8.e r 6 6 6 1 2 1 2 ; ; - - - y =.( u t y 8.8.8.8.8.8.8.8.8.8.8.8.8.8.8.8.8.8.8.8.8.8.",
"8.8.8.8.8.8.8.8.8.8.8.8.8.8.8.8.8.8.8.8.8.e y p q J P 5 1 1 : = ; - = * ; P W 8 e y t 8.8.8.8.8.8.8.8.8.8.8.8.8.8.8.8.8.8.8.8.8.",
"8.8.8.8.8.8.8.8.8.8.8.8.8.8.8.8.8.8.8.8.8.y y L W =.O.5 2 , - ; ; ; & % $ D 0 3 w u y 8.S 8.8.8.8.8.8.8.8.8.8.8.8.8.8.8.8.8.8.8.",
"8.8.8.8.8.8.8.8.8.8.8.8.8.8.8.8.8.8.8.8.0 y y ! <.X.9 2 2 ; - - - % $ # # C q 2 4 w y 8.J 8.8.8.8.8.8.8.8.8.8.8.8.8.8.8.8.8.8.8.",
"8.8.8.8.8.8.8.8.8.8.8.8.8.8.8.8.8.8.8.8.y y I :.%.9 2 1 : ; = ; % # # # % s 7 1 2 3 9 8.J P 8.8.8.8.8.8.8.8.8.8.8.8.8.8.8.8.8.8.",
"8.8.8.8.8.8.8.8.8.8.8.8.8.8.8.8.8.8.8.w y y ! %.7 1 2 2 ; = - - % $ # # # # % > 2 2 9 8.J | 8.8.8.8.8.8.8.8.8.8.8.8.8.8.8.8.8.8.",
"8.8.8.8.8.8.8.8.8.8.8.8.8.8.8.8.8.8.8.y u ( :.=.8 1 1 : = = = ; $ # # # # % $ , 1 w r 8.D ] 8.8.8.8.8.8.8.8.8.8.8.8.8.8.8.8.8.8.",
"8.8.8.8.8.8.8.8.8.8.8.8.8.8.8.8.8.8.8.y y ] :.( 6 1 2 : ; = - & $ # # O + O @ > 1 w y y J ] 8.8.8.8.8.8.8.8.8.8.8.8.8.8.8.8.8.8.",
"8.8.8.8.8.8.8.8.8.8.8.8.8.8.8.8.8.8.8.y u ] %.8 2 1 < ; - = - $ # # O O O O @ : 2 3 q y J ] 8.8.8.8.8.8.8.8.8.8.8.8.8.8.8.8.8.8.",
"8.8.8.8.8.8.8.8.8.8.8.8.8.8.8.8.8.8.q y p <.W 6 1 2 : ; = - = $ # # O O O O + : 2 2 q y J ] 8.8.8.8.8.8.8.8.8.8.8.8.8.8.8.8.8.8.",
"8.8.8.8.8.8.8.8.8.8.8.8.8.8.8.8.8.8.8.y | <.9 2 2 2 ; ; - = - % # O O O @ o o * 1 3 q y T ] 8.8.8.8.8.8.8.8.8.8.8.8.8.8.8.8.8.8.",
"8.8.8.8.8.8.8.8.8.8.8.8.8.8.8.8.8.8.8.p 5.<.8 2 3 2 ; ; - - % # # O O O @ X . . ; 3 9 y J ] 8.8.8.8.8.8.8.8.8.8.8.8.8.8.8.8.8.8.",
"8.8.8.8.8.8.8.8.8.8.8.8.8.8.8.8.8.8.8.^ 5.%.8 2 2 2 ; ; ; ; % # # + + + o .   X : 3 9 N ( ] 8.8.8.8.8.8.8.8.8.8.8.8.8.8.8.8.8.8.",
"8.8.8.8.8.8.8.8.8.8.8.8.8.8.8.8.8.8.8.<.=.8 2 2 2 2 ; ; ; ; % # # + + + o     X ; 3 9 D ] ! 8.8.8.8.8.8.8.8.8.8.8.8.8.8.8.8.8.8.",
"8.8.8.8.8.8.8.8.8.8.8.8.8.8.8.8.8.8.P 5.^ 2 1 2 2 2 - ; - ; & # # O @ + X     X ; 1 9 J ] 8.8.8.8.8.8.8.8.8.8.8.8.8.8.8.8.8.8.8.",
"8.8.8.8.8.8.8.8.8.8.8.8.8.8.8.8.8.8.( 3.u 1 1 2 2 2 ; ; - - & # # + o + X     o : 2 9 B ] 8.8.8.8.8.8.8.8.8.8.8.8.8.8.8.8.8.8.8.",
"8.8.8.8.8.8.8.8.8.8.8.8.8.8.8.8.8.8.( <.y 2 2 2 2 2 ; ; - = % # # + O O .     * 2 1 9 J ( 8.8.8.8.8.8.8.8.8.8.8.8.8.8.8.8.8.8.8.",
"8.8.8.8.8.8.8.8.8.8.8.8.8.8.8.8.8.8.( W y 2 1 2 2 2 : ; = = % # # O O O o     ; 1 3 0 P ] 8.8.8.8.8.8.8.8.8.8.8.8.8.8.8.8.8.8.8.",
"8.8.8.8.8.8.8.8.8.8.8.8.8.8.8.8.8.J ] u t 2 2 2 2 2 : - - = % $ # O O O o   . : 2 3 s ( | 8.8.8.8.8.8.8.8.8.8.8.8.8.8.8.8.8.8.8.",
"8.8.8.8.8.8.8.8.8.8.8.8.8.8.8.8.8.C ] y y 2 2 2 2 1 : ; = ; % # # # O O O o o = 3 3 g ( W 8.8.8.8.8.8.8.8.8.8.8.8.8.8.8.8.8.8.8.",
"8.8.8.8.8.8.8.8.8.8.8.8.8.8.8.8.8.8.^ r t 2 2 2 2 1 - ; = ; % $ $ # O O O O O = 1 3 g } 8.8.8.8.8.8.8.8.8.8.8.8.8.8.8.8.8.8.8.8.",
"8.8.8.8.8.8.8.8.8.8.8.8.8.8.8.8.8.b ] e t 3 2 2 2 1 ; ; - ; % $ # # O O O O O : 3 N O.O.8.8.8.8.8.8.8.8.8.8.8.8.8.8.8.8.8.8.8.8.",
"8.8.8.8.8.8.8.8.8.8.8.8.8.8.8.8.8.W ( y t 2 2 2 2 2 ; ; ; - % # # # O O O O O : 3 ( 5.C w 8.8.8.8.8.8.8.8.8.8.8.8.8.8.8.8.8.8.8.",
"8.8.8.8.8.8.8.8.8.8.8.8.8.8.8.8.8.! ( r t 3 2 2 2 2 , ; = = % # # # # O O O O : 3 ] %.b 8.8.8.8.8.8.8.8.8.8.8.8.8.8.8.8.8.8.8.8.",
"8.8.8.8.8.8.8.8.8.8.8.8.8.8.8.8.8.W ( r y t 3 1 2 2 - ; - ; $ $ # # # # # # # > 3 ! S y 8.8.8.8.8.8.8.8.8.8.8.8.8.8.8.8.8.8.8.8.",
"8.8.8.8.8.8.8.8.8.8.8.8.8.8.8.8.8.W ( e y y 4 3 1 2 ; ; ; - = $ # # # # # # $ < / :.N y 8.8.8.8.8.8.8.8.8.8.8.8.8.8.8.8.8.8.8.8.",
"8.8.8.8.8.8.8.8.8.8.8.8.8.8.8.8.8.S ! 8.y t 6 C 8 3 1 ; - = ; % # # $ # # # > 5 ( x r y 8.8.8.8.8.8.8.8.8.8.8.8.8.8.8.8.8.8.8.8.",
"8.8.8.8.8.8.8.8.8.8.8.8.8.8.8.8.8.8.W 8.w t 6 J <.%.6 : ; = = % $ # # # # # > ( =.s y e 8.8.8.8.8.8.8.8.8.8.8.8.8.8.8.8.8.8.8.8.",
"8.8.8.8.8.8.8.8.8.8.8.8.8.8.8.8.8.8.W 8.8.y 7 N ( O.7 < ; ; - - $ # # # # $ 1 ( j y y 8.8.8.8.8.8.8.8.8.8.8.8.8.8.8.8.8.8.8.8.8.",
"8.8.8.8.8.8.8.8.8.8.8.8.8.8.8.8.8.8.W 8.8.y t 6 J O.9 < ; = ; ; = $ $ $ $ > ! O.s y y 8.8.8.8.8.8.8.8.8.8.8.8.8.8.8.8.8.8.8.8.8.",
"8.8.8.8.8.8.8.8.8.8.8.8.8.8.8.8.8.8.W 8.8.i t 6 C =.W 3 : = ; - = * * $ $ : n e t y t 8.8.8.8.8.8.8.8.8.8.8.8.8.8.8.8.8.8.8.8.8.",
"8.8.8.8.8.8.8.8.8.8.8.8.8.8.8.8.8.8.W 8.8.y r 5 9 O.O.6 1 : ; - = = = * % & 3 w t t 8.8.8.8.8.8.8.8.8.8.8.8.8.8.8.8.8.8.8.8.8.8.",
"8.8.8.8.8.8.8.8.8.8.8.8.8.8.8.8.8.8.S 8.8.e y w 7 T O.8 2 < ; ; - - ; - , < q t y t 8.8.8.8.8.8.8.8.8.8.8.8.8.8.8.8.8.8.8.8.8.8.",
"8.8.8.8.8.8.8.8.8.8.8.8.8.8.8.8.8.8.8.8.8.8.w t 7 p O.S 6 2 : - : ; 1 2 2 3 w y y y 8.8.8.8.8.8.8.8.8.8.8.8.8.8.8.8.8.8.8.8.8.8.",
"8.8.8.8.8.8.8.8.8.8.8.8.8.8.8.8.8.8.8.8.8.8.8.y t u ( | 9 2 2 : < 1 2 3 3 q e t t t 8.8.8.8.8.8.8.8.8.8.8.8.8.8.8.8.8.8.8.8.8.8.",
"8.8.8.8.8.8.8.8.8.8.8.8.8.8.8.8.8.8.8.8.8.8.8.t t u W =.%.w 1 2 1 2 2 w t t y t 8.8.8.8.8.8.8.8.8.8.8.8.8.8.8.8.8.8.8.8.8.8.8.8.",
"8.8.8.8.8.8.8.8.8.8.8.8.8.8.8.8.8.8.8.8.8.8.8.8.w y p ] =.] q 2 2 3 3 y y y y w 8.8.8.8.8.8.8.8.8.8.8.8.8.8.8.8.8.8.8.8.8.8.8.8.",
"8.8.8.8.8.8.8.8.8.8.8.8.8.8.8.8.8.8.8.8.8.8.8.8.q y u T W =.] 7 3 e e y y y t 8.8.8.8.8.] 8.8.8.8.8.8.8.8.8.8.8.8.8.8.8.8.8.8.8.",
"8.8.8.8.8.8.8.8.8.8.8.8.8.8.8.8.8.8.8.8.8.8.8.8.8.t y y u W <.p t y y y y y t 8.8.8.8.( 5.8.8.8.8.8.8.8.8.8.8.8.8.8.8.8.8.8.8.8.",
"8.8.8.8.8.8.8.8.8.8.8.8.8.8.8.8.8.8.8.8.8.8.8.8.8.8.y y y u ^ ( ( y y y y y 8.b 8.8.8.8.8.8.8.8.8.8.8.8.8.8.8.8.8.8.8.8.8.8.8.8.",
"8.8.8.8.8.8.8.8.8.8.8.8.8.8.8.8.8.8.8.8.8.8.8.8.8.8.8.t y y ! ] | ( u y 8.8.j ^ S 8.8.8.8.8.8.8.8.8.8.8.8.8.8.8.8.8.8.8.8.8.8.8.",
"8.8.8.8.8.8.8.8.8.8.8.8.8.8.8.8.8.8.8.8.8.8.8.8.8.8.8.t y y W | ] ] ] ^ T J ( T 8.8.8.8.8.8.8.8.8.8.8.8.8.8.8.8.8.8.8.8.8.8.8.8.",
"8.8.8.8.8.8.8.8.8.8.8.8.8.8.8.8.8.8.8.8.8.8.8.8.8.8.8.8.8.8.8.P ] | ] ] ] ] W 8.8.8.8.8.8.8.8.8.8.8.8.8.8.8.8.8.8.8.8.8.8.8.8.8.",
"8.8.8.8.8.8.8.8.8.8.8.8.8.8.8.8.8.8.8.8.8.8.8.8.8.8.8.8.8.8.8.8.T ^ ^ ! ^ T 8.8.8.8.8.8.8.8.8.8.8.8.8.8.8.8.8.8.8.8.8.8.8.8.8.8.",
"8.8.8.8.8.8.8.8.8.8.8.8.8.8.8.8.8.8.8.8.8.8.8.8.8.8.8.8.8.8.8.8.8.8.8.8.8.8.8.8.8.8.8.8.8.8.8.8.8.8.8.8.8.8.8.8.8.8.8.8.8.8.8.8.",
"8.8.8.8.8.8.8.8.8.8.8.8.8.8.8.8.8.8.8.8.8.8.8.8.8.8.8.8.8.8.8.8.8.8.8.8.8.8.8.8.8.8.8.8.8.8.8.8.8.8.8.8.8.8.8.8.8.8.8.8.8.8.8.8.",
"8.8.8.8.8.8.8.8.8.8.8.8.8.8.8.8.8.8.8.8.8.8.8.8.8.8.8.8.8.8.8.8.8.8.8.8.8.8.8.8.8.8.8.8.8.8.8.8.8.8.8.8.8.8.8.8.8.8.8.8.8.8.8.8.",
"8.8.8.8.8.8.8.8.8.8.8.8.8.8.8.8.8.8.8.8.8.8.8.8.8.8.8.8.8.8.8.8.8.8.8.8.8.8.8.8.8.8.8.8.8.8.8.8.8.8.8.8.8.8.8.8.8.8.8.8.8.8.8.8."
};
