/* XPM */
static char *cG9ydGFsLTg_[] = {
/* columns rows colors chars-per-pixel */
"64 64 242 2 ",
"   c #271B00",
".  c #281D00",
"X  c #291D00",
"o  c #291E00",
"O  c #2B1E00",
"+  c #2C1F00",
"@  c #2C2000",
"#  c #2D2000",
"$  c #2F2000",
"%  c #2F2100",
"&  c #302200",
"*  c #322300",
"=  c #382600",
"-  c #3B2800",
";  c #422B00",
":  c #412C00",
">  c #422C00",
",  c #422D00",
"<  c #422E00",
"1  c #432E00",
"2  c #442F00",
"3  c #452F00",
"4  c #433000",
"5  c #463000",
"6  c #473100",
"7  c #483100",
"8  c #4A3300",
"9  c #5B3A00",
"0  c #5C3B00",
"q  c #5D3B00",
"w  c #5E3C00",
"e  c #5F3D00",
"r  c #5D3E00",
"t  c #5E3E00",
"y  c #5F3F00",
"u  c #603D00",
"i  c #613E00",
"p  c #603F00",
"a  c #623E00",
"s  c #614000",
"d  c #624100",
"f  c #634100",
"g  c #644000",
"h  c #644200",
"j  c #654300",
"k  c #674200",
"l  c #674400",
"z  c #664600",
"x  c #6C4500",
"c  c #734C00",
"v  c #744D00",
"b  c #754D00",
"n  c #764E00",
"m  c #774E00",
"M  c #774F00",
"N  c #784F00",
"B  c #7B4E00",
"V  c #7D4F00",
"C  c #795000",
"Z  c #7A5000",
"A  c #7B5100",
"S  c #7A5300",
"D  c #7E5000",
"F  c #7C5200",
"G  c #7D5200",
"H  c #7E5300",
"J  c #7D5500",
"K  c #7F5400",
"L  c #825300",
"P  c #815500",
"I  c #825600",
"U  c #835600",
"Y  c #845700",
"T  c #875600",
"R  c #895700",
"E  c #875900",
"W  c #885A00",
"Q  c #895A00",
"!  c #8D5A00",
"~  c #8C5C00",
"^  c #8D5D00",
"/  c #8E5E00",
"(  c #8F5E00",
")  c #905B00",
"_  c #915C00",
"`  c #925D00",
"'  c #935D00",
"]  c #905F00",
"[  c #945E00",
"{  c #955F00",
"}  c #965F00",
"|  c #916000",
" . c #926000",
".. c #936100",
"X. c #946100",
"o. c #976000",
"O. c #956200",
"+. c #966300",
"@. c #976300",
"#. c #996100",
"$. c #9B6200",
"%. c #9C6300",
"&. c #986400",
"*. c #996500",
"=. c #9A6500",
"-. c #9D6400",
";. c #9E6400",
":. c #9C6700",
">. c #9D6700",
",. c #9F6900",
"<. c #A16600",
"1. c #A16A00",
"2. c #A26B00",
"3. c #A36B00",
"4. c #A56900",
"5. c #A66900",
"6. c #A76A00",
"7. c #A46C00",
"8. c #A56D00",
"9. c #A66D00",
"0. c #A76E00",
"q. c #A96B00",
"w. c #A86F00",
"e. c #AE6E00",
"r. c #AA7000",
"t. c #AC7100",
"y. c #AD7200",
"u. c #AF7300",
"i. c #B07000",
"p. c #B07400",
"a. c #B17400",
"s. c #B37600",
"d. c #B77400",
"f. c #B47600",
"g. c #B97500",
"h. c #B67800",
"j. c #B77800",
"k. c #B87900",
"l. c #B97A00",
"z. c #BA7A00",
"x. c #BB7B00",
"c. c #BE7800",
"v. c #BF7900",
"b. c #BF7A00",
"n. c #BD7C00",
"m. c #BE7D00",
"M. c #BF7E00",
"N. c #C37C00",
"B. c #C07F00",
"V. c #C47D00",
"C. c #C67E00",
"Z. c #C77F00",
"A. c #C87F00",
"S. c #C18000",
"D. c #C28000",
"F. c #C38100",
"G. c #C48100",
"H. c #C58200",
"J. c #C68300",
"K. c #C78300",
"L. c #CB8100",
"P. c #CD8200",
"I. c #C88400",
"U. c #C98500",
"Y. c #CA8500",
"T. c #CB8600",
"R. c #CF8400",
"E. c #CC8700",
"W. c #CD8700",
"Q. c #CE8800",
"!. c #CF8900",
"~. c #D08900",
"^. c #D18A00",
"/. c #D28B00",
"(. c #D38B00",
"). c #D68800",
"_. c #D58D00",
"`. c #D68D00",
"'. c #D78E00",
"]. c #D88F00",
"[. c #DD8D00",
"{. c #DA9000",
"}. c #DC9100",
"|. c #DD9200",
" X c #DF9300",
".X c #E09400",
"XX c #E19400",
"oX c #E29500",
"OX c #E39600",
"+X c #E49600",
"@X c #ED9700",
"#X c #E69800",
"$X c #E99A00",
"%X c #EA9A00",
"&X c #EB9B00",
"*X c #EC9C00",
"=X c #ED9C00",
"-X c #EE9D00",
";X c #EF9E00",
":X c #F49B00",
">X c #F09E00",
",X c #F19F00",
"<X c #F29F00",
"1X c #F3A000",
"2X c #F4A100",
"3X c #F5A100",
"4X c #F6A200",
"5X c #F7A300",
"6X c #F8A300",
"7X c #F9A400",
"8X c #FAA500",
"9X c #FBA500",
"0X c #FCA600",
"qX c #FDA700",
"wX c #FEA700",
"eX c #FFA406",
"rX c #FFA800",
"tX c #FFA801",
"yX c #FFA902",
"uX c #FFA903",
"iX c #FFA904",
"pX c #FFAA05",
"aX c #FFAA06",
"sX c #FFAB09",
"dX c #FFAC0B",
"fX c #FFAC0C",
"gX c #FFAC0D",
"hX c #FFAD0E",
"jX c #FFAD0F",
"kX c #FFAD10",
"lX c #FFAE11",
"zX c #FFAE13",
"xX c #FFAF14",
"cX c #FFAF15",
"vX c #FFAF16",
"bX c #FFB017",
"nX c #FFB018",
"mX c #FFB019",
"MX c #FFB11A",
"NX c #FFB11B",
"BX c #FFB11C",
"VX c None",
/* pixels */
"VXVXVXVXVXVXVXVXVXVXVXVXVXVXVXVXVXVXVXVXVXVXVXVXVXVXVXVXVXVXVXVXVXVXVXVXVXVXVXVXVXVXVXVXVXVXVXVXVXVXVXVXVXVXVXVXVXVXVXVXVXVXVXVX",
"VXVXVXVXVXVXVXVXVXVXVXVXVXVXVXVXVXVXVXVXVXVXVXVXVXVXVXVXVXVXVXVXVXVXVXVXVXVXVXVXVXVXVXVXVXVXVXVXVXVXVXVXVXVXVXVXVXVXVXVXVXVXVXVX",
"VXVXVXVXVXVXVXVXVXVXVXVXVXVXVXVXVXVXVXVXVXVXVXVXVXVXVXVXVXVXVXVXVXVXVXVXVXVXVXVXVXVXVXVXVXVXVXVXVXVXVXVXVXVXVXVXVXVXVXVXVXVXVXVX",
"VXVXVXVXVXVXVXVXVXVXVXVXVXVXVXVXVXVXVXVXVXVXVXVXVXVXVXVXVXVXVXVXVXVXVXVXVXVXVXVXVXVXVXVXVXVXVXVXVXVXVXVXVXVXVXVXVXVXVXVXVXVXVXVX",
"VXVXVXVXVXVXVXVXVXVXVXVXVXVXVXVXVXVXVXVXVXVXVXVXVXVX>XqX8XqX8XtXVXVXVXVXVXVXVXVXVXVXVXVXVXVXVXVXVXVXVXVXVXVXVXVXVXVXVXVXVXVXVXVX",
"VXVXVXVXVXVXVXVXVXVXVXVXVXVXVXVXVXVXVXVXVXVXVX2XtX6X1X8XqXtXtXtXtXVXVXVXVXVXVXVXVXVXVXVXVXVXVXVXVXVXVXVXVXVXVXVXVXVXVXVXVXVXVXVX",
"VXVXVXVXVXVXVXVXVXVXVXVXVXVXVXVXVXVXVXVXVXVX8X2X#XVXVXVXM.>XtXtXtXtX!.H.VXVXVXVXVXVXVXVXVXVXVXVXVXVXVXVXVXVXVXVXVXVXVXVXVXVXVXVX",
"VXVXVXVXVXVXVXVXVXVXVXVXVXVXVXVXVXVXVXVXVXVX.XVXVXVXVXH.Z.Y.>XtXpXtX/.J.L.VXVXVXVXVXVXVXVXVXVXVXVXVXVXVXVXVXVXVXVXVXVXVXVXVXVXVX",
"VXVXVXVXVXVXVXVXVXVXVXVXVXVXVXVXVXVXVXVXVXVXVXVXVXVXVXH.Y.Y.Y.>XtXpXtX!.Y.H.VXVXVXVXVXVXVXVXVXVXVXVXVXVXVXVXVXVXVXVXVXVXVXVXVXVX",
"VXVXVXVXVXVXVXVXVXVXVXVXVXVXVXVXVXVXVXVXVXVXVXVXVXVXH.Y.Y.J.H.N.1XNXpX!.Y.H.VXVXVXVXVXVXVXVXVXVXVXVXVXVXVXVXVXVXVXVXVXVXVXVXVXVX",
"VXVXVXVXVXVXVXVXVXVXVXVXVXVXVXVXVXVXVXVXVXVXVXVXz.M.H.A.S.r.,.,.8.fXcX6X_.A.z.VXVXVXVXVXVXVXVXVXVXVXVXVXVXVXVXVXVXVXVXVXVXVXVXVX",
"VXVXVXVXVXVXVXVXVXVXVXVXVXVXVXVXVXVXVXVXVXVXVXb.H.Y.H.M.2.O.[ O.` ;XcXNX}.Y.H.VXVXVXVXVXVXVXVXVXVXVXVXVXVXVXVXVXVXVXVXVXVXVXVXVX",
"VXVXVXVXVXVXVXVXVXVXVXVXVXVXVXVXVXVXVXVXVXVXVXY.Y.N.7.&.+.O.+.O.O.2.qXNX.XW.Y.M.VXVXVXVXVXVXVXVXVXVXVXVXVXVXVXVXVXVXVXVXVXVXVXVX",
"VXVXVXVXVXVXVXVXVXVXVXVXVXVXVXVXVXVXVXVXVXVXVXJ.H.<.+.O.O.[ O.O.O.` *XNXpX(.Z.J.H.VXVXVXVXVXVXVXVXVXVXVXVXVXVXVXVXVXVXVXVXVXVXVX",
"VXVXVXVXVXVXVXVXVXVXVXVXVXVXVXVXVXVXVXVXVXVXb.H.M.:.` +.+.O.O...` O.7.qXkXH.z.J.Y.VXVXVXVXVXVXVXVXVXVXVXVXVXVXVXVXVXVXVXVXVXVXVX",
"VXVXVXVXVXVXVXVXVXVXVXVXVXVXVXVXVXVXVXVXVXVXJ.M.2.+.O.+.` O.O...F ^ ^ &XfX8Xi.M.H.b.VXVXVXVXVXVXVXVXVXVXVXVXVXVXVXVXVXVXVXVXVXVX",
"VXVXVXVXVXVXVXVXVXVXVXVXVXVXVXVXVXVXVXVXVXH.H.2.O.O.O.O.O...` F B C C O.2X:Xq.z.H.Z.H.VX#XVXVXVXVXVXVXVXVXVXVXVXVXVXVXVXVXVXVXVX",
"VXVXVXVXVXVXVXVXVXVXVXVXVXVXVXVXVX.XVXVXVXY.H.;.4.r.&.O.O.P C C C m m m H.t.O.&.b.Y.Y.VX@XVXVXVXVXVXVXVXVXVXVXVXVXVXVXVXVXVXVXVX",
"VXVXVXVXVXVXVXVXVXVXVXVXVXVXVXVXVXVXVXVXS.Y.H.4.1XqX8...O.F B M M M f i x ^ O.[ M.Y.Y.VX;XVXVXVXVXVXVXVXVXVXVXVXVXVXVXVXVXVXVXVX",
"VXVXVXVXVXVXVXVXVXVXVXVXVXVXVXVXVXVXVXVXY.Y.L.>XbXfX4...J B M M C h i w w h Q O.b.J.Y.VX;XVXVXVXVXVXVXVXVXVXVXVXVXVXVXVXVXVXVXVX",
"VXVXVXVXVXVXVXVXVXVXVXVXVXVXVXVXVXVXVXVXY.Y.!.fXkXi.[ ..C C C M j y y y w f E [ &.S.Y.VX;XVXVXVXVXVXVXVXVXVXVXVXVXVXVXVXVXVXVXVX",
"VXVXVXVXVXVXVXVXVXVXVXVXVXVXVXVXVXVXVXVXY.Y.1XbXqXw.[ ` F m C m f w w w w f E ..[ N.Y.VX@XVXVXVXVXVXVXVXVXVXVXVXVXVXVXVXVXVXVXVX",
"VXVXVXVXVXVXVXVXVXVXVXVXVXVXVXVXVXVXVXVXW.tXbXfXt.O.` F m C C f w y w y w y y E +.N.Y.VX;XVXVXVXVXVXVXVXVXVXVXVXVXVXVXVXVXVXVXVX",
"VXVXVXVXVXVXVXVXVXVXVXVXVXVXVXVXVXVXVXH.W.pXfXt.O.O.! B M m M i y y w 6 < < 6 E +.M.Z.H.>XtXVXVXVXVXVXVXVXVXVXVXVXVXVXVXVXVXVXVX",
"VXVXVXVXVXVXVXVXVXVXVXVXVXVXVXVXVXVXVXH.(.BXfXr.O.O.) F C C M i y w 3 < < < 3 L O.&.z.Y.;XqXVXVXVXVXVXVXVXVXVXVXVXVXVXVXVXVXVXVX",
"VXVXVXVXVXVXVXVXVXVXVXVXVXVXVXVXVXVXVXY.).bXr.[ O.O...F C C C f w w 6 < 3 < < P O.&.d.Y.>XqXVXVXVXVXVXVXVXVXVXVXVXVXVXVXVXVXVXVX",
"VXVXVXVXVXVXVXVXVXVXVXVXVXVXVXVXVXVXVXY.BXcXt.O.O.` ^ F C m f w w 0 6 < < % + F O.&.j.Y.>XtXVXVXVXVXVXVXVXVXVXVXVXVXVXVXVXVXVXVX",
"VXVXVXVXVXVXVXVXVXVXVXVXVXVXVXVXVXVXY.!.BX1Xw.O.O...F C M C f w w 6 4 < % . O B O.O.j.Y.>XtXVXVXVXVXVXVXVXVXVXVXVXVXVXVXVXVXVXVX",
"VXVXVXVXVXVXVXVXVXVXVXVXVXVXVXVXVXVXS.(.cX4.&.O.O...F B m B h y w 3 4 < % O . = Y } z.Y.;XtXVXVXVXVXVXVXVXVXVXVXVXVXVXVXVXVXVXVX",
"VXVXVXVXVXVXVXVXVXVXVXVXVXVXVXVXVXVXVXfXfX..O.O.O.` F F C M h y w 3 < 3 %   . % F &.z.A.>XtXVXVXVXVXVXVXVXVXVXVXVXVXVXVXVXVXVXVX",
"VXVXVXVXVXVXVXVXVXVXVXVXVXVXVXVXVXVX;XNX1X` O.O.O...C C M m h y w 6 < < % .   O V &.z.#XtXtXVXVXVXVXVXVXVXVXVXVXVXVXVXVXVXVXVXVX",
"VXVXVXVXVXVXVXVXVXVXVXVXVXVXVXVXVXVXqXbX7.` O.O.` ..J C M C j w w 3 < < %     % F +.s.&XtXpXVXVXVXVXVXVXVXVXVXVXVXVXVXVXVXVXVXVX",
"VXVXVXVXVXVXVXVXVXVXVXVXVXVXVXVXVXVXtXcX[ [ O.O.O...F F M C f w w 3 3 < + O   = P +.&..XpX8XVXVXVXVXVXVXVXVXVXVXVXVXVXVXVXVXVXVX",
"VXVXVXVXVXVXVXVXVXVXVXVXVXVXVXVXVXVXbXbXO.O.O.O.O.[ F C C M f w w 3 < < $ O O c ..+.,.1XdXVXVXVXVXVXVXVXVXVXVXVXVXVXVXVXVXVXVXVX",
"VXVXVXVXVXVXVXVXVXVXVXVXVXVXVXVXVXVXbXbX,.O.O.O.O.` F C M C f y w 8 4 < & O O F O.;.(.kXdXVXVXVXVXVXVXVXVXVXVXVXVXVXVXVXVXVXVXVX",
"VXVXVXVXVXVXVXVXVXVXVXVXVXVXVXVXVXVXtXNXM.O.O.O.O...F C C m j w f w 4 < < & & J [ &.{.cXpXVXVXVXVXVXVXVXVXVXVXVXVXVXVXVXVXVXVXVX",
"VXVXVXVXVXVXVXVXVXVXVXVXVXVXVXVXVXVXqXNXH.O.O.[ O...F C C m j w w i 3 < 3 ; ; P ` ;.&XBXdXVXVXVXVXVXVXVXVXVXVXVXVXVXVXVXVXVXVXVX",
"VXVXVXVXVXVXVXVXVXVXVXVXVXVXVXVXVXVXqXcXH...` [ O...F C C C h f w w 3 < < 3 3 P ;.+XfXfX.XVXVXVXVXVXVXVXVXVXVXVXVXVXVXVXVXVXVXVX",
"VXVXVXVXVXVXVXVXVXVXVXVXVXVXVXVXVXVXqXNXY.N.,.O.O...F C C C f w y w 6 ; < ; 3 P %.qXNXeXVXVXVXVXVXVXVXVXVXVXVXVXVXVXVXVXVXVXVXVX",
"VXVXVXVXVXVXVXVXVXVXVXVXVXVXVXVXVXVXqXW.Z.Y.,.O.O.` F F C m f f w f w 6 3 3 3 Y &.tXdX}.VXVXVXVXVXVXVXVXVXVXVXVXVXVXVXVXVXVXVXVX",
"VXVXVXVXVXVXVXVXVXVXVXVXVXVXVXVXVX;XtXY.Y.H.2.O.O...F C C B M f w y w y w w w ^ 8XcX#XY.VXVXVXVXVXVXVXVXVXVXVXVXVXVXVXVXVXVXVXVX",
"VXVXVXVXVXVXVXVXVXVXVXVXVXVXVXVXVX2X8XVXY.H.,.O.O.[ ` C C M C i y y f w i i R &XcXpX{.S.VXVXVXVXVXVXVXVXVXVXVXVXVXVXVXVXVXVXVXVX",
"VXVXVXVXVXVXVXVXVXVXVXVXVXVXVXVXVX6XqXVXY.H.2.O.O.` ..F C B M h y w y w i h [.cXbXtX].VXVXVXVXVXVXVXVXVXVXVXVXVXVXVXVXVXVXVXVXVX",
"VXVXVXVXVXVXVXVXVXVXVXVXVXVXVXVXVX2X8XVXY.Y.H.,.O.O.....B C M M f y w w i W.kXNXtX_.A.VXVXVXVXVXVXVXVXVXVXVXVXVXVXVXVXVXVXVXVXVX",
"VXVXVXVXVXVXVXVXVXVXVXVXVXVXVXVXVX2X8XVXY.Y.J.7.;.+.O...F m C C f y w w y j +XNX8X/.Y.VXVXVXVXVXVXVXVXVXVXVXVXVXVXVXVXVXVXVXVXVX",
"VXVXVXVXVXVXVXVXVXVXVXVXVXVXVXVXVX2X8XVXH.Y.J.L.1Xs.+.` F C M M j y y y i E O.[.e.S.Y.VXVXVXVXVXVXVXVXVXVXVXVXVXVXVXVXVXVXVXVXVX",
"VXVXVXVXVXVXVXVXVXVXVXVXVXVXVXVXVX6X8XVXVX!.Y.!.tX2X8.O.` J C B m f y w y Y [ q.M.Y.Y.VXVXVXVXVXVXVXVXVXVXVXVXVXVXVXVXVXVXVXVXVX",
"VXVXVXVXVXVXVXVXVXVXVXVXVXVXVXVXVX2X8XVXVXJ.Y.J.M.tXi.[ O.) F C M c f y f Q &.g.H.Y.S.VXVXVXVXVXVXVXVXVXVXVXVXVXVXVXVXVXVXVXVXVX",
"VXVXVXVXVXVXVXVXVXVXVXVXVXVXVXVXVX2X8XVXVXVXN.Y.Y.pX5X7.O.[ F C M B M j P ..j.J.Y.Y.VXVXVXVXVXVXVXVXVXVXVXVXVXVXVXVXVXVXVXVXVXVX",
"VXVXVXVXVXVXVXVXVXVXVXVXVXVXVXVXVX&X8XVXVXVXY.J.T.{.tXs.O.[ P B M F ^ ^ ) O.x.Y.J.S.VXVXVXVXVXVXVXVXVXVXVXVXVXVXVXVXVXVXVXVXVXVX",
"VXVXVXVXVXVXVXVXVXVXVXVXVXVXVXVXVXVX2XVXVXVXL.J.Y.!.2X8Xi.&.) F J ^ [ O.&.%.M.Y.Y.VXVXVXVXdXVXVXVXVXVXVXVXVXVXVXVXVXVXVXVXVXVXVX",
"VXVXVXVXVXVXVXVXVXVXVXVXVXVXVXVXVXVX;XVXVXVXS.Y.H.Y._.fXfXz.&.O...` ` ,.x.N.J.Y.H.VXVXVX5XfXVXVXVXVXVXVXVXVXVXVXVXVXVXVXVXVXVXVX",
"VXVXVXVXVXVXVXVXVXVXVXVXVXVXVXVXVXVXVXVXVXVXVXM.Z.Y.R.8XNXtXf.M.2.&.;.S.H.Y.H.b.VXVXVXVXqXVXVXVXVXVXVXVXVXVXVXVXVXVXVXVXVXVXVXVX",
"VXVXVXVXVXVXVXVXVXVXVXVXVXVXVXVXVXVXVXVXVXVXVXVXj.H.Y.].fXNXqX(.H.H.S.Y.Y.Y.z.VXVXVX XVXVXVXVXVXVXVXVXVXVXVXVXVXVXVXVXVXVXVXVXVX",
"VXVXVXVXVXVXVXVXVXVXVXVXVXVXVXVXVXVXVXVXVXVXVXVXVXS.Y./.tXNXsXW.Y.Y.Y.Y.Y.H.VXVXVX6XtXVXVXVXVXVXVXVXVXVXVXVXVXVXVXVXVXVXVXVXVXVX",
"VXVXVXVXVXVXVXVXVXVXVXVXVXVXVXVXVXVXVXVXVXVXVXVXVXVXH.Y.!.2XbXkXqX6X(.H.;X8X2X2X>X8XVXVXVXVXVXVXVXVXVXVXVXVXVXVXVXVXVXVXVXVXVXVX",
"VXVXVXVXVXVXVXVXVXVXVXVXVXVXVXVXVXVXVXVXVXVXVXVXVXVXVXY.Y.2XpXNXpXtXtX8XtXtXtXtX8XVXVXVXVXVXVXVXVXVXVXVXVXVXVXVXVXVXVXVXVXVXVXVX",
"VXVXVXVXVXVXVXVXVXVXVXVXVXVXVXVXVXVXVXVXVXVXVXVXVXVXVXVXM.VX;XtXtXpXtXpXtXtX5XVXVXVXVXVXVXVXVXVXVXVXVXVXVXVXVXVXVXVXVXVXVXVXVXVX",
"VXVXVXVXVXVXVXVXVXVXVXVXVXVXVXVXVXVXVXVXVXVXVXVXVXVXVXVXVXVXVX1XtXtXtXtXtX8XVXVXVXVXVXVXVXVXVXVXVXVXVXVXVXVXVXVXVXVXVXVXVXVXVXVX",
"VXVXVXVXVXVXVXVXVXVXVXVXVXVXVXVXVXVXVXVXVXVXVXVXVXVXVXVXVXVXVXVXVX.XtX8X0X2XVXVXVXVXVXVXVXVXVXVXVXVXVXVXVXVXVXVXVXVXVXVXVXVXVXVX",
"VXVXVXVXVXVXVXVXVXVXVXVXVXVXVXVXVXVXVXVXVXVXVXVXVXVXVXVXVXVXVXVXVXVXVXVXVXVXVXVXVXVXVXVXVXVXVXVXVXVXVXVXVXVXVXVXVXVXVXVXVXVXVXVX",
"VXVXVXVXVXVXVXVXVXVXVXVXVXVXVXVXVXVXVXVXVXVXVXVXVXVXVXVXVXVXVXVXVXVXVXVXVXVXVXVXVXVXVXVXVXVXVXVXVXVXVXVXVXVXVXVXVXVXVXVXVXVXVXVX",
"VXVXVXVXVXVXVXVXVXVXVXVXVXVXVXVXVXVXVXVXVXVXVXVXVXVXVXVXVXVXVXVXVXVXVXVXVXVXVXVXVXVXVXVXVXVXVXVXVXVXVXVXVXVXVXVXVXVXVXVXVXVXVXVX",
"VXVXVXVXVXVXVXVXVXVXVXVXVXVXVXVXVXVXVXVXVXVXVXVXVXVXVXVXVXVXVXVXVXVXVXVXVXVXVXVXVXVXVXVXVXVXVXVXVXVXVXVXVXVXVXVXVXVXVXVXVXVXVXVX"
};
